G75*
%MOIN*%
%OFA0B0*%
%FSLAX25Y25*%
%IPPOS*%
%LPD*%
%AMOC8*
5,1,8,0,0,1.08239X$1,22.5*
%
%ADD10R,0.04724X0.03150*%
%ADD11R,0.05512X0.06299*%
%ADD12R,0.06299X0.05512*%
%ADD13R,0.03150X0.04724*%
%ADD14R,0.10039X0.10630*%
%ADD15R,0.14961X0.11024*%
%ADD16R,0.02400X0.08700*%
%ADD17R,0.07874X0.04724*%
%ADD18R,0.07087X0.06299*%
%ADD19R,0.08661X0.02362*%
%ADD20R,0.01370X0.05500*%
%ADD21R,0.11800X0.07874*%
%ADD22R,0.01200X0.03900*%
D10*
X0028500Y0040207D03*
X0028500Y0047293D03*
X0048500Y0055207D03*
X0048500Y0062293D03*
X0058500Y0070207D03*
X0058500Y0077293D03*
X0068500Y0067293D03*
X0068500Y0060207D03*
X0068500Y0054793D03*
X0068500Y0047707D03*
X0068500Y0042293D03*
X0068500Y0035207D03*
X0078500Y0035207D03*
X0078500Y0042293D03*
X0123500Y0040207D03*
X0123500Y0047293D03*
X0143500Y0055207D03*
X0143500Y0062293D03*
X0153500Y0070207D03*
X0153500Y0077293D03*
X0163500Y0067293D03*
X0163500Y0060207D03*
X0163500Y0054793D03*
X0163500Y0047707D03*
X0163500Y0042293D03*
X0163500Y0035207D03*
X0173500Y0035207D03*
X0173500Y0042293D03*
X0218500Y0040207D03*
X0218500Y0047293D03*
X0238500Y0055207D03*
X0238500Y0062293D03*
X0248500Y0070207D03*
X0248500Y0077293D03*
X0258500Y0067293D03*
X0258500Y0060207D03*
X0258500Y0054793D03*
X0258500Y0047707D03*
X0258500Y0042293D03*
X0258500Y0035207D03*
X0268500Y0035207D03*
X0268500Y0042293D03*
X0313500Y0040207D03*
X0313500Y0047293D03*
X0333500Y0055207D03*
X0333500Y0062293D03*
X0343500Y0070207D03*
X0343500Y0077293D03*
X0353500Y0067293D03*
X0353500Y0060207D03*
X0353500Y0054793D03*
X0353500Y0047707D03*
X0353500Y0042293D03*
X0353500Y0035207D03*
X0363500Y0035207D03*
X0363500Y0042293D03*
X0278500Y0207707D03*
X0278500Y0214793D03*
X0153500Y0214793D03*
X0153500Y0207707D03*
X0083500Y0139793D03*
X0083500Y0132707D03*
X0028500Y0132707D03*
X0028500Y0139793D03*
X0056000Y0190207D03*
X0056000Y0197293D03*
D11*
X0025488Y0023750D03*
X0036512Y0023750D03*
X0120488Y0023750D03*
X0131512Y0023750D03*
X0215488Y0023750D03*
X0226512Y0023750D03*
X0310488Y0023750D03*
X0321512Y0023750D03*
D12*
X0333500Y0070738D03*
X0333500Y0081762D03*
X0238500Y0081762D03*
X0238500Y0070738D03*
X0143500Y0070738D03*
X0143500Y0081762D03*
X0093500Y0130738D03*
X0093500Y0141762D03*
X0018500Y0141762D03*
X0018500Y0130738D03*
X0048500Y0081762D03*
X0048500Y0070738D03*
X0163500Y0208238D03*
X0163500Y0219262D03*
X0268500Y0219262D03*
X0268500Y0208238D03*
D13*
X0079543Y0171250D03*
X0072457Y0171250D03*
X0067043Y0171250D03*
X0059957Y0171250D03*
X0059957Y0163750D03*
X0067043Y0163750D03*
X0072457Y0163750D03*
X0079543Y0163750D03*
X0052043Y0163750D03*
X0044957Y0163750D03*
X0039543Y0163750D03*
X0032457Y0163750D03*
X0032457Y0171250D03*
X0039543Y0171250D03*
X0044957Y0171250D03*
X0052043Y0171250D03*
X0052043Y0118750D03*
X0044957Y0118750D03*
X0039543Y0118750D03*
X0032457Y0118750D03*
X0032457Y0111250D03*
X0039543Y0111250D03*
X0044957Y0111250D03*
X0052043Y0111250D03*
X0059957Y0111250D03*
X0067043Y0111250D03*
X0072457Y0111250D03*
X0079543Y0111250D03*
X0079543Y0118750D03*
X0072457Y0118750D03*
X0067043Y0118750D03*
X0059957Y0118750D03*
X0029543Y0053750D03*
X0022457Y0053750D03*
X0019543Y0046250D03*
X0012457Y0046250D03*
X0022457Y0033750D03*
X0029543Y0033750D03*
X0107457Y0046250D03*
X0114543Y0046250D03*
X0117457Y0053750D03*
X0124543Y0053750D03*
X0124543Y0033750D03*
X0117457Y0033750D03*
X0202457Y0046250D03*
X0209543Y0046250D03*
X0212457Y0053750D03*
X0219543Y0053750D03*
X0219543Y0033750D03*
X0212457Y0033750D03*
X0297457Y0046250D03*
X0304543Y0046250D03*
X0307457Y0053750D03*
X0314543Y0053750D03*
X0314543Y0033750D03*
X0307457Y0033750D03*
X0067043Y0236250D03*
X0059957Y0236250D03*
X0064957Y0246250D03*
X0072043Y0246250D03*
X0052043Y0263750D03*
X0044957Y0263750D03*
X0029543Y0263750D03*
X0022457Y0263750D03*
D14*
X0023520Y0248750D03*
X0048480Y0248750D03*
D15*
X0023500Y0220817D03*
X0023500Y0191683D03*
D16*
X0056000Y0205950D03*
X0061000Y0205950D03*
X0066000Y0205950D03*
X0071000Y0205950D03*
X0071000Y0226550D03*
X0066000Y0226550D03*
X0061000Y0226550D03*
X0056000Y0226550D03*
X0056000Y0151500D03*
X0051000Y0151500D03*
X0046000Y0151500D03*
X0041000Y0151500D03*
X0061000Y0151500D03*
X0066000Y0151500D03*
X0071000Y0151500D03*
X0071000Y0131000D03*
X0066000Y0131000D03*
X0061000Y0131000D03*
X0056000Y0131000D03*
X0051000Y0131000D03*
X0046000Y0131000D03*
X0041000Y0131000D03*
D17*
X0043500Y0189951D03*
X0043500Y0202549D03*
D18*
X0066000Y0255738D03*
X0066000Y0266762D03*
X0091000Y0266762D03*
X0091000Y0255738D03*
X0108500Y0076762D03*
X0108500Y0065738D03*
X0013500Y0065738D03*
X0013500Y0076762D03*
X0203500Y0076762D03*
X0203500Y0065738D03*
X0298500Y0065738D03*
X0298500Y0076762D03*
D19*
X0323264Y0051250D03*
X0323264Y0046250D03*
X0323264Y0041250D03*
X0323264Y0036250D03*
X0343736Y0036250D03*
X0343736Y0041250D03*
X0343736Y0046250D03*
X0343736Y0051250D03*
X0248736Y0051250D03*
X0248736Y0046250D03*
X0248736Y0041250D03*
X0248736Y0036250D03*
X0228264Y0036250D03*
X0228264Y0041250D03*
X0228264Y0046250D03*
X0228264Y0051250D03*
X0153736Y0051250D03*
X0153736Y0046250D03*
X0153736Y0041250D03*
X0153736Y0036250D03*
X0133264Y0036250D03*
X0133264Y0041250D03*
X0133264Y0046250D03*
X0133264Y0051250D03*
X0058736Y0051250D03*
X0058736Y0046250D03*
X0058736Y0041250D03*
X0058736Y0036250D03*
X0038264Y0036250D03*
X0038264Y0041250D03*
X0038264Y0046250D03*
X0038264Y0051250D03*
D20*
X0174425Y0206856D03*
X0176984Y0206856D03*
X0179543Y0206856D03*
X0182102Y0206856D03*
X0184661Y0206856D03*
X0187220Y0206856D03*
X0189780Y0206856D03*
X0192339Y0206856D03*
X0194898Y0206856D03*
X0197457Y0206856D03*
X0200016Y0206856D03*
X0202575Y0206856D03*
X0226925Y0206856D03*
X0229484Y0206856D03*
X0232043Y0206856D03*
X0234602Y0206856D03*
X0237161Y0206856D03*
X0239720Y0206856D03*
X0242280Y0206856D03*
X0244839Y0206856D03*
X0247398Y0206856D03*
X0249957Y0206856D03*
X0252516Y0206856D03*
X0255075Y0206856D03*
X0255075Y0235644D03*
X0252516Y0235644D03*
X0249957Y0235644D03*
X0247398Y0235644D03*
X0244839Y0235644D03*
X0242280Y0235644D03*
X0239720Y0235644D03*
X0237161Y0235644D03*
X0234602Y0235644D03*
X0232043Y0235644D03*
X0229484Y0235644D03*
X0226925Y0235644D03*
X0202575Y0235644D03*
X0200016Y0235644D03*
X0197457Y0235644D03*
X0194898Y0235644D03*
X0192339Y0235644D03*
X0189780Y0235644D03*
X0187220Y0235644D03*
X0184661Y0235644D03*
X0182102Y0235644D03*
X0179543Y0235644D03*
X0176984Y0235644D03*
X0174425Y0235644D03*
D21*
X0063500Y0216250D03*
D22*
X0183323Y0175237D03*
X0185882Y0175237D03*
X0188441Y0175237D03*
X0191000Y0175237D03*
X0193559Y0175237D03*
X0196118Y0175237D03*
X0198677Y0175237D03*
X0198677Y0152263D03*
X0196118Y0152263D03*
X0193559Y0152263D03*
X0191000Y0152263D03*
X0188441Y0152263D03*
X0185882Y0152263D03*
X0183323Y0152263D03*
X0235823Y0152263D03*
X0238382Y0152263D03*
X0240941Y0152263D03*
X0243500Y0152263D03*
X0246059Y0152263D03*
X0248618Y0152263D03*
X0251177Y0152263D03*
X0251177Y0175237D03*
X0248618Y0175237D03*
X0246059Y0175237D03*
X0243500Y0175237D03*
X0240941Y0175237D03*
X0238382Y0175237D03*
X0235823Y0175237D03*
M02*
