%
M48
M72
T02C0.0280
T03C0.0350
T04C0.0380
T05C0.0420
T06C0.0520
T07C0.0600
T09C0.1250
%
T02
X4600Y2375
X1850Y3875
X1850Y5875
X3850Y7125
X8350Y9625
X8350Y10125
X10850Y10125
X10850Y9625
X9600Y12125
X11850Y14125
X12350Y15375
X10350Y15375
X9350Y15125
X8600Y15875
X9100Y16375
X10350Y17375
X11850Y17875
X12350Y17625
X16850Y19875
X18350Y19875
X19100Y19875
X20600Y19875
X21350Y20375
X21850Y20875
X22350Y19875
X23350Y19625
X24100Y18875
X25600Y19875
X25600Y21625
X24600Y22125
X22100Y22625
X19600Y21625
X19600Y16375
X21600Y14375
X23850Y16375
X27100Y14375
X22850Y7125
X20850Y5875
X20850Y3875
X23600Y2375
X30350Y3875
X30350Y5875
X32350Y7125
X33100Y2375
X14100Y2375
X11350Y3875
X11350Y5875
X13350Y7125
X5600Y12375
X2600Y11875
X850Y14125
X2350Y15375
X5600Y15875
X6600Y19125
X7850Y20625
X5100Y22625
X4350Y23125
X4350Y21125
X3850Y26375
X27850Y25125
X28600Y24625
X29600Y24125
T03
X3850Y1125
X6850Y1125
X8850Y3625
X8850Y6625
X10850Y8625
X18350Y6625
X20350Y8625
X18350Y3625
X16350Y1125
X13350Y1125
X22850Y1125
X25850Y1125
X27850Y3625
X27850Y6625
X29850Y8625
X37100Y6625
X37100Y3625
X35350Y1125
X32350Y1125
X1350Y8625
T04
X15850Y10875
X16850Y10875
X17850Y10875
X17850Y11875
X16850Y11875
X15850Y11875
X18850Y11875
X19850Y11875
X20850Y11875
X21850Y11875
X22850Y11875
X22850Y10875
X21850Y10875
X20850Y10875
X19850Y10875
X18850Y10875
X23850Y10875
X24850Y10875
X25850Y10875
X26850Y10875
X27850Y10875
X28850Y10875
X28850Y11875
X27850Y11875
X26850Y11875
X25850Y11875
X24850Y11875
X23850Y11875
X29850Y11875
X30850Y11875
X31850Y11875
X32850Y11875
X33850Y11875
X33850Y10875
X32850Y10875
X31850Y10875
X30850Y10875
X29850Y10875
X34850Y10875
X35850Y10875
X36850Y10875
X37850Y10875
X37850Y11875
X36850Y11875
X35850Y11875
X34850Y11875
X34850Y29875
X35850Y29875
X36850Y29875
X37850Y29875
X37850Y30875
X36850Y30875
X35850Y30875
X34850Y30875
X33850Y30875
X32850Y30875
X31850Y30875
X30850Y30875
X29850Y30875
X29850Y29875
X30850Y29875
X31850Y29875
X32850Y29875
X33850Y29875
X28850Y29875
X27850Y29875
X26850Y29875
X25850Y29875
X24850Y29875
X23850Y29875
X23850Y30875
X24850Y30875
X25850Y30875
X26850Y30875
X27850Y30875
X28850Y30875
X22850Y30875
X21850Y30875
X20850Y30875
X19850Y30875
X18850Y30875
X18850Y29875
X19850Y29875
X20850Y29875
X21850Y29875
X22850Y29875
X17850Y29875
X16850Y29875
X15850Y29875
X15850Y30875
X16850Y30875
X17850Y30875
T05
X17600Y1125
X18600Y1125
X27100Y1125
X28100Y1125
X36600Y1125
X37600Y1125
X9100Y1125
X8100Y1125
T06
X8100Y28125
X9100Y28125
T07
X4427Y28042
X2773Y28042
X2773Y30208
X4427Y30208
T09
X6277Y30027
X923Y30027
X14600Y27875
X15350Y14375
X17850Y8125
X34100Y16125
X38100Y8125
X34100Y27875
M30
