G75*
%MOIN*%
%OFA0B0*%
%FSLAX25Y25*%
%IPPOS*%
%LPD*%
%AMOC8*
5,1,8,0,0,1.08239X$1,22.5*
%
%ADD10C,0.08200*%
%ADD11R,0.05524X0.03950*%
%ADD12R,0.06312X0.07099*%
%ADD13R,0.07099X0.06312*%
%ADD14R,0.03950X0.05524*%
%ADD15R,0.10839X0.11430*%
%ADD16R,0.15761X0.11824*%
%ADD17R,0.08200X0.08200*%
%ADD18C,0.08200*%
%ADD19R,0.03200X0.09500*%
%ADD20R,0.08674X0.05524*%
%ADD21R,0.07887X0.07099*%
%ADD22R,0.09461X0.03162*%
%ADD23R,0.02170X0.06300*%
%ADD24R,0.12600X0.08674*%
%ADD25R,0.06737X0.06737*%
%ADD26C,0.06737*%
%ADD27R,0.02000X0.04700*%
%ADD28R,0.09068X0.09068*%
%ADD29C,0.12611*%
%ADD30C,0.13800*%
%ADD31C,0.04900*%
%ADD32C,0.05800*%
%ADD33R,0.06050X0.06050*%
D10*
X0081000Y0277550D02*
X0081000Y0284950D01*
X0091000Y0284950D02*
X0091000Y0277550D01*
D11*
X0153500Y0214793D03*
X0153500Y0207707D03*
X0083500Y0139793D03*
X0083500Y0132707D03*
X0028500Y0132707D03*
X0028500Y0139793D03*
X0056000Y0190207D03*
X0056000Y0197293D03*
X0058500Y0077293D03*
X0058500Y0070207D03*
X0068500Y0067293D03*
X0068500Y0060207D03*
X0068500Y0054793D03*
X0068500Y0047707D03*
X0068500Y0042293D03*
X0068500Y0035207D03*
X0078500Y0035207D03*
X0078500Y0042293D03*
X0048500Y0055207D03*
X0048500Y0062293D03*
X0028500Y0047293D03*
X0028500Y0040207D03*
X0123500Y0040207D03*
X0123500Y0047293D03*
X0143500Y0055207D03*
X0143500Y0062293D03*
X0153500Y0070207D03*
X0153500Y0077293D03*
X0163500Y0067293D03*
X0163500Y0060207D03*
X0163500Y0054793D03*
X0163500Y0047707D03*
X0163500Y0042293D03*
X0163500Y0035207D03*
X0173500Y0035207D03*
X0173500Y0042293D03*
X0218500Y0040207D03*
X0218500Y0047293D03*
X0238500Y0055207D03*
X0238500Y0062293D03*
X0248500Y0070207D03*
X0248500Y0077293D03*
X0258500Y0067293D03*
X0258500Y0060207D03*
X0258500Y0054793D03*
X0258500Y0047707D03*
X0258500Y0042293D03*
X0258500Y0035207D03*
X0268500Y0035207D03*
X0268500Y0042293D03*
X0313500Y0040207D03*
X0313500Y0047293D03*
X0333500Y0055207D03*
X0333500Y0062293D03*
X0343500Y0070207D03*
X0343500Y0077293D03*
X0353500Y0067293D03*
X0353500Y0060207D03*
X0353500Y0054793D03*
X0353500Y0047707D03*
X0353500Y0042293D03*
X0353500Y0035207D03*
X0363500Y0035207D03*
X0363500Y0042293D03*
X0278500Y0207707D03*
X0278500Y0214793D03*
D12*
X0025488Y0023750D03*
X0036512Y0023750D03*
X0120488Y0023750D03*
X0131512Y0023750D03*
X0215488Y0023750D03*
X0226512Y0023750D03*
X0310488Y0023750D03*
X0321512Y0023750D03*
D13*
X0333500Y0070738D03*
X0333500Y0081762D03*
X0238500Y0081762D03*
X0238500Y0070738D03*
X0143500Y0070738D03*
X0143500Y0081762D03*
X0093500Y0130738D03*
X0093500Y0141762D03*
X0018500Y0141762D03*
X0018500Y0130738D03*
X0048500Y0081762D03*
X0048500Y0070738D03*
X0163500Y0208238D03*
X0163500Y0219262D03*
X0268500Y0219262D03*
X0268500Y0208238D03*
D14*
X0079543Y0171250D03*
X0072457Y0171250D03*
X0067043Y0171250D03*
X0059957Y0171250D03*
X0059957Y0163750D03*
X0067043Y0163750D03*
X0072457Y0163750D03*
X0079543Y0163750D03*
X0052043Y0163750D03*
X0044957Y0163750D03*
X0039543Y0163750D03*
X0032457Y0163750D03*
X0032457Y0171250D03*
X0039543Y0171250D03*
X0044957Y0171250D03*
X0052043Y0171250D03*
X0052043Y0118750D03*
X0044957Y0118750D03*
X0039543Y0118750D03*
X0032457Y0118750D03*
X0032457Y0111250D03*
X0039543Y0111250D03*
X0044957Y0111250D03*
X0052043Y0111250D03*
X0059957Y0111250D03*
X0067043Y0111250D03*
X0072457Y0111250D03*
X0079543Y0111250D03*
X0079543Y0118750D03*
X0072457Y0118750D03*
X0067043Y0118750D03*
X0059957Y0118750D03*
X0029543Y0053750D03*
X0022457Y0053750D03*
X0019543Y0046250D03*
X0012457Y0046250D03*
X0022457Y0033750D03*
X0029543Y0033750D03*
X0107457Y0046250D03*
X0114543Y0046250D03*
X0117457Y0053750D03*
X0124543Y0053750D03*
X0124543Y0033750D03*
X0117457Y0033750D03*
X0202457Y0046250D03*
X0209543Y0046250D03*
X0212457Y0053750D03*
X0219543Y0053750D03*
X0219543Y0033750D03*
X0212457Y0033750D03*
X0297457Y0046250D03*
X0304543Y0046250D03*
X0307457Y0053750D03*
X0314543Y0053750D03*
X0314543Y0033750D03*
X0307457Y0033750D03*
X0067043Y0236250D03*
X0059957Y0236250D03*
X0064957Y0246250D03*
X0072043Y0246250D03*
X0052043Y0263750D03*
X0044957Y0263750D03*
X0029543Y0263750D03*
X0022457Y0263750D03*
D15*
X0023520Y0248750D03*
X0048480Y0248750D03*
D16*
X0023500Y0220817D03*
X0023500Y0191683D03*
D17*
X0081000Y0011250D03*
X0176000Y0011250D03*
X0271000Y0011250D03*
X0366000Y0011250D03*
D18*
X0353500Y0011250D03*
X0376000Y0011250D03*
X0371000Y0036250D03*
X0371000Y0066250D03*
X0323500Y0011250D03*
X0281000Y0011250D03*
X0258500Y0011250D03*
X0228500Y0011250D03*
X0186000Y0011250D03*
X0163500Y0011250D03*
X0133500Y0011250D03*
X0091000Y0011250D03*
X0068500Y0011250D03*
X0038500Y0011250D03*
X0088500Y0036250D03*
X0088500Y0066250D03*
X0183500Y0066250D03*
X0183500Y0036250D03*
X0278500Y0036250D03*
X0278500Y0066250D03*
D19*
X0071000Y0131000D03*
X0066000Y0131000D03*
X0061000Y0131000D03*
X0056000Y0131000D03*
X0051000Y0131000D03*
X0046000Y0131000D03*
X0041000Y0131000D03*
X0041000Y0151500D03*
X0046000Y0151500D03*
X0051000Y0151500D03*
X0056000Y0151500D03*
X0061000Y0151500D03*
X0066000Y0151500D03*
X0071000Y0151500D03*
X0071000Y0205950D03*
X0066000Y0205950D03*
X0061000Y0205950D03*
X0056000Y0205950D03*
X0056000Y0226550D03*
X0061000Y0226550D03*
X0066000Y0226550D03*
X0071000Y0226550D03*
D20*
X0043500Y0202549D03*
X0043500Y0189951D03*
D21*
X0066000Y0255738D03*
X0066000Y0266762D03*
X0091000Y0266762D03*
X0091000Y0255738D03*
X0108500Y0076762D03*
X0108500Y0065738D03*
X0013500Y0065738D03*
X0013500Y0076762D03*
X0203500Y0076762D03*
X0203500Y0065738D03*
X0298500Y0065738D03*
X0298500Y0076762D03*
D22*
X0323264Y0051250D03*
X0323264Y0046250D03*
X0323264Y0041250D03*
X0323264Y0036250D03*
X0343736Y0036250D03*
X0343736Y0041250D03*
X0343736Y0046250D03*
X0343736Y0051250D03*
X0248736Y0051250D03*
X0248736Y0046250D03*
X0248736Y0041250D03*
X0248736Y0036250D03*
X0228264Y0036250D03*
X0228264Y0041250D03*
X0228264Y0046250D03*
X0228264Y0051250D03*
X0153736Y0051250D03*
X0153736Y0046250D03*
X0153736Y0041250D03*
X0153736Y0036250D03*
X0133264Y0036250D03*
X0133264Y0041250D03*
X0133264Y0046250D03*
X0133264Y0051250D03*
X0058736Y0051250D03*
X0058736Y0046250D03*
X0058736Y0041250D03*
X0058736Y0036250D03*
X0038264Y0036250D03*
X0038264Y0041250D03*
X0038264Y0046250D03*
X0038264Y0051250D03*
D23*
X0174425Y0206856D03*
X0176984Y0206856D03*
X0179543Y0206856D03*
X0182102Y0206856D03*
X0184661Y0206856D03*
X0187220Y0206856D03*
X0189780Y0206856D03*
X0192339Y0206856D03*
X0194898Y0206856D03*
X0197457Y0206856D03*
X0200016Y0206856D03*
X0202575Y0206856D03*
X0226925Y0206856D03*
X0229484Y0206856D03*
X0232043Y0206856D03*
X0234602Y0206856D03*
X0237161Y0206856D03*
X0239720Y0206856D03*
X0242280Y0206856D03*
X0244839Y0206856D03*
X0247398Y0206856D03*
X0249957Y0206856D03*
X0252516Y0206856D03*
X0255075Y0206856D03*
X0255075Y0235644D03*
X0252516Y0235644D03*
X0249957Y0235644D03*
X0247398Y0235644D03*
X0244839Y0235644D03*
X0242280Y0235644D03*
X0239720Y0235644D03*
X0237161Y0235644D03*
X0234602Y0235644D03*
X0232043Y0235644D03*
X0229484Y0235644D03*
X0226925Y0235644D03*
X0202575Y0235644D03*
X0200016Y0235644D03*
X0197457Y0235644D03*
X0194898Y0235644D03*
X0192339Y0235644D03*
X0189780Y0235644D03*
X0187220Y0235644D03*
X0184661Y0235644D03*
X0182102Y0235644D03*
X0179543Y0235644D03*
X0176984Y0235644D03*
X0174425Y0235644D03*
D24*
X0063500Y0216250D03*
D25*
X0378500Y0308750D03*
X0378500Y0118750D03*
D26*
X0368500Y0118750D03*
X0358500Y0118750D03*
X0348500Y0118750D03*
X0348500Y0108750D03*
X0358500Y0108750D03*
X0368500Y0108750D03*
X0378500Y0108750D03*
X0338500Y0108750D03*
X0328500Y0108750D03*
X0318500Y0108750D03*
X0308500Y0108750D03*
X0298500Y0108750D03*
X0298500Y0118750D03*
X0308500Y0118750D03*
X0318500Y0118750D03*
X0328500Y0118750D03*
X0338500Y0118750D03*
X0288500Y0118750D03*
X0278500Y0118750D03*
X0268500Y0118750D03*
X0258500Y0118750D03*
X0248500Y0118750D03*
X0238500Y0118750D03*
X0238500Y0108750D03*
X0248500Y0108750D03*
X0258500Y0108750D03*
X0268500Y0108750D03*
X0278500Y0108750D03*
X0288500Y0108750D03*
X0228500Y0108750D03*
X0218500Y0108750D03*
X0208500Y0108750D03*
X0198500Y0108750D03*
X0188500Y0108750D03*
X0188500Y0118750D03*
X0198500Y0118750D03*
X0208500Y0118750D03*
X0218500Y0118750D03*
X0228500Y0118750D03*
X0178500Y0118750D03*
X0168500Y0118750D03*
X0158500Y0118750D03*
X0158500Y0108750D03*
X0168500Y0108750D03*
X0178500Y0108750D03*
X0178500Y0298750D03*
X0168500Y0298750D03*
X0158500Y0298750D03*
X0158500Y0308750D03*
X0168500Y0308750D03*
X0178500Y0308750D03*
X0188500Y0308750D03*
X0198500Y0308750D03*
X0208500Y0308750D03*
X0218500Y0308750D03*
X0228500Y0308750D03*
X0228500Y0298750D03*
X0218500Y0298750D03*
X0208500Y0298750D03*
X0198500Y0298750D03*
X0188500Y0298750D03*
X0238500Y0298750D03*
X0248500Y0298750D03*
X0258500Y0298750D03*
X0268500Y0298750D03*
X0278500Y0298750D03*
X0288500Y0298750D03*
X0288500Y0308750D03*
X0278500Y0308750D03*
X0268500Y0308750D03*
X0258500Y0308750D03*
X0248500Y0308750D03*
X0238500Y0308750D03*
X0298500Y0308750D03*
X0308500Y0308750D03*
X0318500Y0308750D03*
X0328500Y0308750D03*
X0338500Y0308750D03*
X0338500Y0298750D03*
X0328500Y0298750D03*
X0318500Y0298750D03*
X0308500Y0298750D03*
X0298500Y0298750D03*
X0348500Y0298750D03*
X0358500Y0298750D03*
X0368500Y0298750D03*
X0378500Y0298750D03*
X0368500Y0308750D03*
X0358500Y0308750D03*
X0348500Y0308750D03*
D27*
X0251177Y0175237D03*
X0248618Y0175237D03*
X0246059Y0175237D03*
X0243500Y0175237D03*
X0240941Y0175237D03*
X0238382Y0175237D03*
X0235823Y0175237D03*
X0235823Y0152263D03*
X0238382Y0152263D03*
X0240941Y0152263D03*
X0243500Y0152263D03*
X0246059Y0152263D03*
X0248618Y0152263D03*
X0251177Y0152263D03*
X0198677Y0152263D03*
X0196118Y0152263D03*
X0193559Y0152263D03*
X0191000Y0152263D03*
X0188441Y0152263D03*
X0185882Y0152263D03*
X0183323Y0152263D03*
X0183323Y0175237D03*
X0185882Y0175237D03*
X0188441Y0175237D03*
X0191000Y0175237D03*
X0193559Y0175237D03*
X0196118Y0175237D03*
X0198677Y0175237D03*
D28*
X0044268Y0280423D03*
X0027732Y0280423D03*
X0027732Y0302077D03*
X0044268Y0302077D03*
D29*
X0062772Y0300266D03*
X0009228Y0300266D03*
D30*
X0146000Y0278750D03*
X0153500Y0143750D03*
X0178500Y0081250D03*
X0341000Y0161250D03*
X0381000Y0081250D03*
X0341000Y0278750D03*
D31*
X0256000Y0198750D03*
X0241000Y0188750D03*
X0233500Y0196250D03*
X0223500Y0198750D03*
X0206000Y0198750D03*
X0191000Y0198750D03*
X0183500Y0198750D03*
X0168500Y0198750D03*
X0196000Y0216250D03*
X0221000Y0226250D03*
X0123500Y0176250D03*
X0118500Y0178750D03*
X0103500Y0173750D03*
X0091000Y0163750D03*
X0086000Y0158750D03*
X0093500Y0151250D03*
X0103500Y0153750D03*
X0118500Y0141250D03*
X0123500Y0153750D03*
X0096000Y0121250D03*
X0083500Y0101250D03*
X0083500Y0096250D03*
X0108500Y0096250D03*
X0108500Y0101250D03*
X0133500Y0071250D03*
X0113500Y0058750D03*
X0113500Y0038750D03*
X0141000Y0023750D03*
X0208500Y0038750D03*
X0208500Y0058750D03*
X0228500Y0071250D03*
X0236000Y0023750D03*
X0303500Y0038750D03*
X0303500Y0058750D03*
X0323500Y0071250D03*
X0331000Y0023750D03*
X0271000Y0143750D03*
X0216000Y0143750D03*
X0078500Y0206250D03*
X0066000Y0191250D03*
X0043500Y0211250D03*
X0051000Y0226250D03*
X0043500Y0231250D03*
X0038500Y0263750D03*
X0056000Y0158750D03*
X0023500Y0153750D03*
X0056000Y0123750D03*
X0026000Y0118750D03*
X0038500Y0071250D03*
X0018500Y0058750D03*
X0018500Y0038750D03*
X0046000Y0023750D03*
D32*
X0008500Y0141250D03*
X0196000Y0163750D03*
X0238500Y0163750D03*
X0213500Y0203750D03*
X0218500Y0208750D03*
X0246000Y0221250D03*
X0256000Y0216250D03*
X0286000Y0246250D03*
X0278500Y0251250D03*
X0296000Y0241250D03*
D33*
X0298500Y0086250D03*
X0203500Y0086250D03*
X0108500Y0086250D03*
X0013500Y0086250D03*
M02*
