G75*
%MOIN*%
%OFA0B0*%
%FSLAX25Y25*%
%IPPOS*%
%LPD*%
%AMOC8*
5,1,8,0,0,1.08239X$1,22.5*
%
%ADD10C,0.07400*%
%ADD11R,0.07400X0.07400*%
%ADD12C,0.07400*%
%ADD13R,0.05937X0.05937*%
%ADD14C,0.05937*%
%ADD15R,0.08268X0.08268*%
%ADD16C,0.04100*%
%ADD17C,0.02400*%
%ADD18C,0.01200*%
%ADD19C,0.05000*%
%ADD20C,0.01600*%
%ADD21C,0.05000*%
%ADD22C,0.03200*%
%ADD23R,0.05250X0.05250*%
D10*
X0081000Y0277550D02*
X0081000Y0284950D01*
X0091000Y0284950D02*
X0091000Y0277550D01*
D11*
X0081000Y0011250D03*
X0176000Y0011250D03*
X0271000Y0011250D03*
X0366000Y0011250D03*
D12*
X0353500Y0011250D03*
X0376000Y0011250D03*
X0371000Y0036250D03*
X0371000Y0066250D03*
X0323500Y0011250D03*
X0281000Y0011250D03*
X0258500Y0011250D03*
X0228500Y0011250D03*
X0186000Y0011250D03*
X0163500Y0011250D03*
X0133500Y0011250D03*
X0091000Y0011250D03*
X0068500Y0011250D03*
X0038500Y0011250D03*
X0088500Y0036250D03*
X0088500Y0066250D03*
X0183500Y0066250D03*
X0183500Y0036250D03*
X0278500Y0036250D03*
X0278500Y0066250D03*
D13*
X0378500Y0118750D03*
X0378500Y0308750D03*
D14*
X0368500Y0308750D03*
X0358500Y0308750D03*
X0348500Y0308750D03*
X0348500Y0298750D03*
X0358500Y0298750D03*
X0368500Y0298750D03*
X0378500Y0298750D03*
X0338500Y0298750D03*
X0328500Y0298750D03*
X0318500Y0298750D03*
X0308500Y0298750D03*
X0298500Y0298750D03*
X0298500Y0308750D03*
X0308500Y0308750D03*
X0318500Y0308750D03*
X0328500Y0308750D03*
X0338500Y0308750D03*
X0288500Y0308750D03*
X0278500Y0308750D03*
X0268500Y0308750D03*
X0258500Y0308750D03*
X0248500Y0308750D03*
X0238500Y0308750D03*
X0238500Y0298750D03*
X0248500Y0298750D03*
X0258500Y0298750D03*
X0268500Y0298750D03*
X0278500Y0298750D03*
X0288500Y0298750D03*
X0228500Y0298750D03*
X0218500Y0298750D03*
X0208500Y0298750D03*
X0198500Y0298750D03*
X0188500Y0298750D03*
X0188500Y0308750D03*
X0198500Y0308750D03*
X0208500Y0308750D03*
X0218500Y0308750D03*
X0228500Y0308750D03*
X0178500Y0308750D03*
X0168500Y0308750D03*
X0158500Y0308750D03*
X0158500Y0298750D03*
X0168500Y0298750D03*
X0178500Y0298750D03*
X0178500Y0118750D03*
X0168500Y0118750D03*
X0158500Y0118750D03*
X0158500Y0108750D03*
X0168500Y0108750D03*
X0178500Y0108750D03*
X0188500Y0108750D03*
X0198500Y0108750D03*
X0208500Y0108750D03*
X0218500Y0108750D03*
X0228500Y0108750D03*
X0228500Y0118750D03*
X0218500Y0118750D03*
X0208500Y0118750D03*
X0198500Y0118750D03*
X0188500Y0118750D03*
X0238500Y0118750D03*
X0248500Y0118750D03*
X0258500Y0118750D03*
X0268500Y0118750D03*
X0278500Y0118750D03*
X0288500Y0118750D03*
X0288500Y0108750D03*
X0278500Y0108750D03*
X0268500Y0108750D03*
X0258500Y0108750D03*
X0248500Y0108750D03*
X0238500Y0108750D03*
X0298500Y0108750D03*
X0308500Y0108750D03*
X0318500Y0108750D03*
X0328500Y0108750D03*
X0338500Y0108750D03*
X0338500Y0118750D03*
X0328500Y0118750D03*
X0318500Y0118750D03*
X0308500Y0118750D03*
X0298500Y0118750D03*
X0348500Y0118750D03*
X0358500Y0118750D03*
X0368500Y0118750D03*
X0368500Y0108750D03*
X0358500Y0108750D03*
X0348500Y0108750D03*
X0378500Y0108750D03*
D15*
X0044268Y0280423D03*
X0027732Y0280423D03*
X0027732Y0302077D03*
X0044268Y0302077D03*
D16*
X0038500Y0263750D03*
X0043500Y0231250D03*
X0051000Y0226250D03*
X0043500Y0211250D03*
X0066000Y0191250D03*
X0078500Y0206250D03*
X0118500Y0178750D03*
X0123500Y0176250D03*
X0103500Y0173750D03*
X0091000Y0163750D03*
X0086000Y0158750D03*
X0093500Y0151250D03*
X0103500Y0153750D03*
X0118500Y0141250D03*
X0123500Y0153750D03*
X0096000Y0121250D03*
X0083500Y0101250D03*
X0083500Y0096250D03*
X0108500Y0096250D03*
X0108500Y0101250D03*
X0133500Y0071250D03*
X0113500Y0058750D03*
X0113500Y0038750D03*
X0141000Y0023750D03*
X0208500Y0038750D03*
X0208500Y0058750D03*
X0228500Y0071250D03*
X0236000Y0023750D03*
X0303500Y0038750D03*
X0303500Y0058750D03*
X0323500Y0071250D03*
X0331000Y0023750D03*
X0271000Y0143750D03*
X0216000Y0143750D03*
X0241000Y0188750D03*
X0233500Y0196250D03*
X0223500Y0198750D03*
X0206000Y0198750D03*
X0191000Y0198750D03*
X0183500Y0198750D03*
X0168500Y0198750D03*
X0196000Y0216250D03*
X0221000Y0226250D03*
X0256000Y0198750D03*
X0056000Y0158750D03*
X0023500Y0153750D03*
X0056000Y0123750D03*
X0026000Y0118750D03*
X0038500Y0071250D03*
X0018500Y0058750D03*
X0018500Y0038750D03*
X0046000Y0023750D03*
D17*
X0003500Y0018750D02*
X0338500Y0018750D01*
X0338500Y0028750D01*
X0011000Y0028750D01*
X0011000Y0081716D01*
X0010084Y0081716D01*
X0008966Y0082834D01*
X0008966Y0089666D01*
X0010084Y0090784D01*
X0011000Y0090784D01*
X0011000Y0292243D01*
X0010837Y0292176D01*
X0007619Y0292176D01*
X0004646Y0293408D01*
X0003500Y0294553D01*
X0003500Y0018750D01*
X0003500Y0020438D02*
X0338500Y0020438D01*
X0338500Y0022837D02*
X0003500Y0022837D01*
X0003500Y0025235D02*
X0338500Y0025235D01*
X0338500Y0027634D02*
X0003500Y0027634D01*
X0003500Y0030032D02*
X0011000Y0030032D01*
X0011000Y0032431D02*
X0003500Y0032431D01*
X0003500Y0034829D02*
X0011000Y0034829D01*
X0011000Y0037228D02*
X0003500Y0037228D01*
X0003500Y0039626D02*
X0011000Y0039626D01*
X0011000Y0042025D02*
X0003500Y0042025D01*
X0003500Y0044423D02*
X0011000Y0044423D01*
X0011000Y0046822D02*
X0003500Y0046822D01*
X0003500Y0049220D02*
X0011000Y0049220D01*
X0011000Y0051619D02*
X0003500Y0051619D01*
X0003500Y0054017D02*
X0011000Y0054017D01*
X0011000Y0056416D02*
X0003500Y0056416D01*
X0003500Y0058814D02*
X0011000Y0058814D01*
X0011000Y0061213D02*
X0003500Y0061213D01*
X0003500Y0063611D02*
X0011000Y0063611D01*
X0011000Y0066010D02*
X0003500Y0066010D01*
X0003500Y0068408D02*
X0011000Y0068408D01*
X0011000Y0070807D02*
X0003500Y0070807D01*
X0003500Y0073205D02*
X0011000Y0073205D01*
X0011000Y0075604D02*
X0003500Y0075604D01*
X0003500Y0078002D02*
X0011000Y0078002D01*
X0011000Y0080401D02*
X0003500Y0080401D01*
X0003500Y0082799D02*
X0009001Y0082799D01*
X0008966Y0085198D02*
X0003500Y0085198D01*
X0003500Y0087596D02*
X0008966Y0087596D01*
X0009296Y0089995D02*
X0003500Y0089995D01*
X0003500Y0092393D02*
X0011000Y0092393D01*
X0011000Y0094792D02*
X0003500Y0094792D01*
X0003500Y0097190D02*
X0011000Y0097190D01*
X0011000Y0099589D02*
X0003500Y0099589D01*
X0003500Y0101987D02*
X0011000Y0101987D01*
X0011000Y0104386D02*
X0003500Y0104386D01*
X0003500Y0106784D02*
X0011000Y0106784D01*
X0011000Y0109183D02*
X0003500Y0109183D01*
X0003500Y0111582D02*
X0011000Y0111582D01*
X0011000Y0113980D02*
X0003500Y0113980D01*
X0003500Y0116379D02*
X0011000Y0116379D01*
X0011000Y0118777D02*
X0003500Y0118777D01*
X0003500Y0121176D02*
X0011000Y0121176D01*
X0011000Y0123574D02*
X0003500Y0123574D01*
X0003500Y0125973D02*
X0011000Y0125973D01*
X0011000Y0128371D02*
X0003500Y0128371D01*
X0003500Y0130770D02*
X0011000Y0130770D01*
X0011000Y0133168D02*
X0003500Y0133168D01*
X0003500Y0135567D02*
X0011000Y0135567D01*
X0011000Y0137965D02*
X0003500Y0137965D01*
X0003500Y0140364D02*
X0011000Y0140364D01*
X0011000Y0142762D02*
X0003500Y0142762D01*
X0003500Y0145161D02*
X0011000Y0145161D01*
X0011000Y0147559D02*
X0003500Y0147559D01*
X0003500Y0149958D02*
X0011000Y0149958D01*
X0011000Y0152356D02*
X0003500Y0152356D01*
X0003500Y0154755D02*
X0011000Y0154755D01*
X0011000Y0157153D02*
X0003500Y0157153D01*
X0003500Y0159552D02*
X0011000Y0159552D01*
X0011000Y0161950D02*
X0003500Y0161950D01*
X0003500Y0164349D02*
X0011000Y0164349D01*
X0011000Y0166747D02*
X0003500Y0166747D01*
X0003500Y0169146D02*
X0011000Y0169146D01*
X0011000Y0171544D02*
X0003500Y0171544D01*
X0003500Y0173943D02*
X0011000Y0173943D01*
X0011000Y0176341D02*
X0003500Y0176341D01*
X0003500Y0178740D02*
X0011000Y0178740D01*
X0011000Y0181138D02*
X0003500Y0181138D01*
X0003500Y0183537D02*
X0011000Y0183537D01*
X0011000Y0185935D02*
X0003500Y0185935D01*
X0003500Y0188334D02*
X0011000Y0188334D01*
X0011000Y0190732D02*
X0003500Y0190732D01*
X0003500Y0193131D02*
X0011000Y0193131D01*
X0011000Y0195529D02*
X0003500Y0195529D01*
X0003500Y0197928D02*
X0011000Y0197928D01*
X0011000Y0200326D02*
X0003500Y0200326D01*
X0003500Y0202725D02*
X0011000Y0202725D01*
X0011000Y0205123D02*
X0003500Y0205123D01*
X0003500Y0207522D02*
X0011000Y0207522D01*
X0011000Y0209920D02*
X0003500Y0209920D01*
X0003500Y0212319D02*
X0011000Y0212319D01*
X0011000Y0214718D02*
X0003500Y0214718D01*
X0003500Y0217116D02*
X0011000Y0217116D01*
X0011000Y0219515D02*
X0003500Y0219515D01*
X0003500Y0221913D02*
X0011000Y0221913D01*
X0011000Y0224312D02*
X0003500Y0224312D01*
X0003500Y0226710D02*
X0011000Y0226710D01*
X0011000Y0229109D02*
X0003500Y0229109D01*
X0003500Y0231507D02*
X0011000Y0231507D01*
X0011000Y0233906D02*
X0003500Y0233906D01*
X0003500Y0236304D02*
X0011000Y0236304D01*
X0011000Y0238703D02*
X0003500Y0238703D01*
X0003500Y0241101D02*
X0011000Y0241101D01*
X0011000Y0243500D02*
X0003500Y0243500D01*
X0003500Y0245898D02*
X0011000Y0245898D01*
X0011000Y0248297D02*
X0003500Y0248297D01*
X0003500Y0250695D02*
X0011000Y0250695D01*
X0011000Y0253094D02*
X0003500Y0253094D01*
X0003500Y0255492D02*
X0011000Y0255492D01*
X0011000Y0257891D02*
X0003500Y0257891D01*
X0003500Y0260289D02*
X0011000Y0260289D01*
X0011000Y0262688D02*
X0003500Y0262688D01*
X0003500Y0265086D02*
X0011000Y0265086D01*
X0011000Y0267485D02*
X0003500Y0267485D01*
X0003500Y0269883D02*
X0011000Y0269883D01*
X0011000Y0272282D02*
X0003500Y0272282D01*
X0003500Y0274680D02*
X0011000Y0274680D01*
X0011000Y0277079D02*
X0003500Y0277079D01*
X0003500Y0279477D02*
X0011000Y0279477D01*
X0011000Y0281876D02*
X0003500Y0281876D01*
X0003500Y0284274D02*
X0011000Y0284274D01*
X0011000Y0286673D02*
X0003500Y0286673D01*
X0003500Y0289071D02*
X0011000Y0289071D01*
X0011000Y0291470D02*
X0003500Y0291470D01*
X0003500Y0293868D02*
X0004185Y0293868D01*
X0088500Y0272202D02*
X0088735Y0272082D01*
X0089618Y0271795D01*
X0090536Y0271650D01*
X0091000Y0271650D01*
X0091464Y0271650D01*
X0092382Y0271795D01*
X0093265Y0272082D01*
X0094092Y0272504D01*
X0094844Y0273050D01*
X0095500Y0273706D01*
X0096046Y0274458D01*
X0096468Y0275285D01*
X0096755Y0276168D01*
X0096900Y0277086D01*
X0096900Y0281250D01*
X0096900Y0285414D01*
X0096755Y0286332D01*
X0096468Y0287215D01*
X0096046Y0288042D01*
X0095532Y0288750D01*
X0098500Y0288750D01*
X0098500Y0124348D01*
X0098242Y0124606D01*
X0096787Y0125209D01*
X0095213Y0125209D01*
X0093758Y0124606D01*
X0092644Y0123492D01*
X0092041Y0122037D01*
X0092041Y0120463D01*
X0092644Y0119008D01*
X0093758Y0117894D01*
X0095213Y0117291D01*
X0096787Y0117291D01*
X0098242Y0117894D01*
X0098500Y0118152D01*
X0098500Y0076250D01*
X0171110Y0076250D01*
X0171577Y0075441D01*
X0171577Y0075441D01*
X0171577Y0075441D01*
X0171110Y0076250D01*
X0033500Y0076250D01*
X0088500Y0076250D01*
X0088500Y0155652D01*
X0089356Y0156508D01*
X0089959Y0157963D01*
X0089959Y0159537D01*
X0089779Y0159971D01*
X0090213Y0159791D01*
X0091787Y0159791D01*
X0093242Y0160394D01*
X0094356Y0161508D01*
X0094959Y0162963D01*
X0094959Y0164537D01*
X0094356Y0165992D01*
X0093242Y0167106D01*
X0091787Y0167709D01*
X0090213Y0167709D01*
X0088758Y0167106D01*
X0088500Y0166848D01*
X0088500Y0272202D01*
X0088500Y0269883D02*
X0098500Y0269883D01*
X0098500Y0267485D02*
X0088500Y0267485D01*
X0088500Y0265086D02*
X0098500Y0265086D01*
X0098500Y0262688D02*
X0088500Y0262688D01*
X0088500Y0260289D02*
X0098500Y0260289D01*
X0098500Y0257891D02*
X0088500Y0257891D01*
X0088500Y0255492D02*
X0098500Y0255492D01*
X0098500Y0253094D02*
X0088500Y0253094D01*
X0088500Y0250695D02*
X0098500Y0250695D01*
X0098500Y0248297D02*
X0088500Y0248297D01*
X0088500Y0245898D02*
X0098500Y0245898D01*
X0098500Y0243500D02*
X0088500Y0243500D01*
X0088500Y0241101D02*
X0098500Y0241101D01*
X0098500Y0238703D02*
X0088500Y0238703D01*
X0088500Y0236304D02*
X0098500Y0236304D01*
X0098500Y0233906D02*
X0088500Y0233906D01*
X0088500Y0231507D02*
X0098500Y0231507D01*
X0098500Y0229109D02*
X0088500Y0229109D01*
X0088500Y0226710D02*
X0098500Y0226710D01*
X0098500Y0224312D02*
X0088500Y0224312D01*
X0088500Y0221913D02*
X0098500Y0221913D01*
X0098500Y0219515D02*
X0088500Y0219515D01*
X0088500Y0217116D02*
X0098500Y0217116D01*
X0098500Y0214718D02*
X0088500Y0214718D01*
X0088500Y0212319D02*
X0098500Y0212319D01*
X0098500Y0209920D02*
X0088500Y0209920D01*
X0088500Y0207522D02*
X0098500Y0207522D01*
X0098500Y0205123D02*
X0088500Y0205123D01*
X0088500Y0202725D02*
X0098500Y0202725D01*
X0098500Y0200326D02*
X0088500Y0200326D01*
X0088500Y0197928D02*
X0098500Y0197928D01*
X0098500Y0195529D02*
X0088500Y0195529D01*
X0088500Y0193131D02*
X0098500Y0193131D01*
X0098500Y0190732D02*
X0088500Y0190732D01*
X0088500Y0188334D02*
X0098500Y0188334D01*
X0098500Y0185935D02*
X0088500Y0185935D01*
X0088500Y0183537D02*
X0098500Y0183537D01*
X0098500Y0181138D02*
X0088500Y0181138D01*
X0088500Y0178740D02*
X0098500Y0178740D01*
X0098500Y0176341D02*
X0088500Y0176341D01*
X0088500Y0173943D02*
X0098500Y0173943D01*
X0098500Y0171544D02*
X0088500Y0171544D01*
X0088500Y0169146D02*
X0098500Y0169146D01*
X0098500Y0166747D02*
X0093601Y0166747D01*
X0094959Y0164349D02*
X0098500Y0164349D01*
X0098500Y0161950D02*
X0094539Y0161950D01*
X0098500Y0159552D02*
X0089953Y0159552D01*
X0089623Y0157153D02*
X0098500Y0157153D01*
X0098500Y0154755D02*
X0088500Y0154755D01*
X0088500Y0152356D02*
X0098500Y0152356D01*
X0098500Y0149958D02*
X0088500Y0149958D01*
X0088500Y0147559D02*
X0098500Y0147559D01*
X0098500Y0145161D02*
X0088500Y0145161D01*
X0088500Y0142762D02*
X0098500Y0142762D01*
X0098500Y0140364D02*
X0088500Y0140364D01*
X0088500Y0137965D02*
X0098500Y0137965D01*
X0098500Y0135567D02*
X0088500Y0135567D01*
X0088500Y0133168D02*
X0098500Y0133168D01*
X0098500Y0130770D02*
X0088500Y0130770D01*
X0088500Y0128371D02*
X0098500Y0128371D01*
X0098500Y0125973D02*
X0088500Y0125973D01*
X0088500Y0123574D02*
X0092726Y0123574D01*
X0092041Y0121176D02*
X0088500Y0121176D01*
X0088500Y0118777D02*
X0092875Y0118777D01*
X0088500Y0116379D02*
X0098500Y0116379D01*
X0098500Y0113980D02*
X0088500Y0113980D01*
X0088500Y0111582D02*
X0098500Y0111582D01*
X0098500Y0109183D02*
X0088500Y0109183D01*
X0088500Y0106784D02*
X0098500Y0106784D01*
X0098500Y0104386D02*
X0088500Y0104386D01*
X0088500Y0101987D02*
X0098500Y0101987D01*
X0098500Y0099589D02*
X0088500Y0099589D01*
X0088500Y0097190D02*
X0098500Y0097190D01*
X0098500Y0094792D02*
X0088500Y0094792D01*
X0088500Y0092393D02*
X0098500Y0092393D01*
X0098500Y0089995D02*
X0088500Y0089995D01*
X0088500Y0087596D02*
X0098500Y0087596D01*
X0098500Y0085198D02*
X0088500Y0085198D01*
X0088500Y0082799D02*
X0098500Y0082799D01*
X0098500Y0080401D02*
X0088500Y0080401D01*
X0088500Y0078002D02*
X0098500Y0078002D01*
X0091677Y0071005D02*
X0089616Y0071859D01*
X0087384Y0071859D01*
X0085323Y0071005D01*
X0083745Y0069427D01*
X0082891Y0067366D01*
X0082891Y0066250D01*
X0033500Y0066250D01*
X0033500Y0076250D01*
X0033500Y0066250D01*
X0082891Y0066250D01*
X0082891Y0067366D01*
X0083745Y0069427D01*
X0085323Y0071005D01*
X0087384Y0071859D01*
X0089616Y0071859D01*
X0091677Y0071005D01*
X0093255Y0069427D01*
X0094109Y0067366D01*
X0094109Y0066250D01*
X0177891Y0066250D01*
X0177891Y0067366D01*
X0178745Y0069427D01*
X0180323Y0071005D01*
X0182384Y0071859D01*
X0184616Y0071859D01*
X0186677Y0071005D01*
X0188255Y0069427D01*
X0189109Y0067366D01*
X0189109Y0066250D01*
X0272891Y0066250D01*
X0272891Y0067366D01*
X0273745Y0069427D01*
X0275323Y0071005D01*
X0277384Y0071859D01*
X0279616Y0071859D01*
X0281677Y0071005D01*
X0283255Y0069427D01*
X0284109Y0067366D01*
X0284109Y0066250D01*
X0353500Y0066250D01*
X0353500Y0076250D01*
X0185890Y0076250D01*
X0185423Y0075441D01*
X0185423Y0075441D01*
X0185423Y0075441D01*
X0185890Y0076250D01*
X0353500Y0076250D01*
X0353500Y0066250D01*
X0284109Y0066250D01*
X0284109Y0067366D01*
X0283255Y0069427D01*
X0281677Y0071005D01*
X0279616Y0071859D01*
X0277384Y0071859D01*
X0275323Y0071005D01*
X0273745Y0069427D01*
X0272891Y0067366D01*
X0272891Y0066250D01*
X0189109Y0066250D01*
X0189109Y0067366D01*
X0188255Y0069427D01*
X0186677Y0071005D01*
X0184616Y0071859D01*
X0182384Y0071859D01*
X0180323Y0071005D01*
X0178745Y0069427D01*
X0177891Y0067366D01*
X0177891Y0066250D01*
X0094109Y0066250D01*
X0094109Y0067366D01*
X0093255Y0069427D01*
X0091677Y0071005D01*
X0091875Y0070807D02*
X0180125Y0070807D01*
X0091875Y0070807D01*
X0093677Y0068408D02*
X0178323Y0068408D01*
X0093677Y0068408D01*
X0085125Y0070807D02*
X0033500Y0070807D01*
X0085125Y0070807D01*
X0083323Y0068408D02*
X0033500Y0068408D01*
X0083323Y0068408D01*
X0083500Y0096250D02*
X0028500Y0096250D01*
X0026000Y0098750D01*
X0026000Y0118750D01*
X0056000Y0123750D02*
X0056000Y0103750D01*
X0058500Y0101250D01*
X0083500Y0101250D01*
X0033500Y0075604D02*
X0171483Y0075604D01*
X0033500Y0075604D01*
X0033500Y0073205D02*
X0174581Y0073205D01*
X0033500Y0073205D01*
X0171577Y0075441D02*
X0173981Y0073423D01*
X0176931Y0072350D01*
X0180069Y0072350D01*
X0183019Y0073423D01*
X0185423Y0075441D01*
X0185423Y0075441D01*
X0185423Y0075441D01*
X0183019Y0073423D01*
X0183019Y0073423D01*
X0183019Y0073423D01*
X0180069Y0072350D01*
X0176931Y0072350D01*
X0173981Y0073423D01*
X0173981Y0073423D01*
X0173981Y0073423D01*
X0171577Y0075441D01*
X0182419Y0073205D02*
X0353500Y0073205D01*
X0182419Y0073205D01*
X0185517Y0075604D02*
X0353500Y0075604D01*
X0185517Y0075604D01*
X0186875Y0070807D02*
X0275125Y0070807D01*
X0186875Y0070807D01*
X0188677Y0068408D02*
X0273323Y0068408D01*
X0188677Y0068408D01*
X0281875Y0070807D02*
X0353500Y0070807D01*
X0281875Y0070807D01*
X0283677Y0068408D02*
X0353500Y0068408D01*
X0283677Y0068408D01*
X0098500Y0272282D02*
X0093656Y0272282D01*
X0091000Y0272282D02*
X0091000Y0272282D01*
X0091000Y0271650D02*
X0091000Y0281250D01*
X0096900Y0281250D01*
X0091000Y0281250D01*
X0091000Y0281250D01*
X0091000Y0281250D01*
X0091000Y0271650D01*
X0091000Y0274680D02*
X0091000Y0274680D01*
X0091000Y0277079D02*
X0091000Y0277079D01*
X0091000Y0279477D02*
X0091000Y0279477D01*
X0096160Y0274680D02*
X0098500Y0274680D01*
X0098500Y0277079D02*
X0096899Y0277079D01*
X0096900Y0279477D02*
X0098500Y0279477D01*
X0098500Y0281876D02*
X0096900Y0281876D01*
X0096900Y0284274D02*
X0098500Y0284274D01*
X0098500Y0286673D02*
X0096644Y0286673D01*
D18*
X0166000Y0228750D02*
X0218750Y0228750D01*
X0218359Y0228359D01*
X0197627Y0228359D01*
X0195127Y0225859D01*
X0193891Y0224623D01*
X0193891Y0218891D01*
X0193153Y0218153D01*
X0192641Y0216918D01*
X0192641Y0215582D01*
X0193153Y0214347D01*
X0194097Y0213403D01*
X0195332Y0212891D01*
X0196668Y0212891D01*
X0197903Y0213403D01*
X0198847Y0214347D01*
X0199359Y0215582D01*
X0199359Y0216918D01*
X0198847Y0218153D01*
X0198109Y0218891D01*
X0198109Y0222877D01*
X0199373Y0224141D01*
X0218359Y0224141D01*
X0219097Y0223403D01*
X0219687Y0223159D01*
X0215209Y0223159D01*
X0214091Y0222041D01*
X0214091Y0222041D01*
X0211591Y0219541D01*
X0211591Y0207082D01*
X0211343Y0206979D01*
X0210271Y0205907D01*
X0209691Y0204508D01*
X0209691Y0202992D01*
X0210271Y0201593D01*
X0211343Y0200521D01*
X0212742Y0199941D01*
X0214258Y0199941D01*
X0215657Y0200521D01*
X0216729Y0201593D01*
X0217309Y0202992D01*
X0217309Y0204508D01*
X0217002Y0205248D01*
X0217742Y0204941D01*
X0219258Y0204941D01*
X0220657Y0205521D01*
X0221729Y0206593D01*
X0222309Y0207992D01*
X0222309Y0209508D01*
X0221729Y0210907D01*
X0220657Y0211979D01*
X0220409Y0212082D01*
X0220409Y0212959D01*
X0221791Y0214341D01*
X0252668Y0214341D01*
X0252771Y0214093D01*
X0253843Y0213021D01*
X0255242Y0212441D01*
X0256758Y0212441D01*
X0258157Y0213021D01*
X0259229Y0214093D01*
X0259809Y0215492D01*
X0259809Y0217008D01*
X0259229Y0218407D01*
X0258157Y0219479D01*
X0256758Y0220059D01*
X0255242Y0220059D01*
X0253843Y0219479D01*
X0252771Y0218407D01*
X0252668Y0218159D01*
X0248295Y0218159D01*
X0249229Y0219093D01*
X0249809Y0220492D01*
X0249809Y0222008D01*
X0249229Y0223407D01*
X0248157Y0224479D01*
X0246758Y0225059D01*
X0245242Y0225059D01*
X0243843Y0224479D01*
X0242771Y0223407D01*
X0242668Y0223159D01*
X0222313Y0223159D01*
X0222903Y0223403D01*
X0223847Y0224347D01*
X0224359Y0225582D01*
X0224359Y0226918D01*
X0223847Y0228153D01*
X0223250Y0228750D01*
X0263500Y0228750D01*
X0263500Y0193750D01*
X0193109Y0193750D01*
X0193109Y0196109D01*
X0193847Y0196847D01*
X0194359Y0198082D01*
X0194359Y0199418D01*
X0193847Y0200653D01*
X0192903Y0201597D01*
X0191668Y0202109D01*
X0190332Y0202109D01*
X0189097Y0201597D01*
X0188153Y0200653D01*
X0187641Y0199418D01*
X0187641Y0198082D01*
X0188153Y0196847D01*
X0188891Y0196109D01*
X0188891Y0193750D01*
X0166000Y0193750D01*
X0166000Y0228750D01*
X0166000Y0227769D02*
X0197037Y0227769D01*
X0195838Y0226570D02*
X0166000Y0226570D01*
X0166000Y0225372D02*
X0194640Y0225372D01*
X0193891Y0224173D02*
X0166000Y0224173D01*
X0166000Y0222975D02*
X0193891Y0222975D01*
X0193891Y0221776D02*
X0166000Y0221776D01*
X0166000Y0220578D02*
X0193891Y0220578D01*
X0193891Y0219379D02*
X0166000Y0219379D01*
X0166000Y0218181D02*
X0193181Y0218181D01*
X0192668Y0216982D02*
X0166000Y0216982D01*
X0166000Y0215784D02*
X0192641Y0215784D01*
X0193054Y0214585D02*
X0166000Y0214585D01*
X0166000Y0213387D02*
X0194136Y0213387D01*
X0197864Y0213387D02*
X0211591Y0213387D01*
X0211591Y0214585D02*
X0198946Y0214585D01*
X0199359Y0215784D02*
X0211591Y0215784D01*
X0211591Y0216982D02*
X0199332Y0216982D01*
X0198819Y0218181D02*
X0211591Y0218181D01*
X0211591Y0219379D02*
X0198109Y0219379D01*
X0198109Y0220578D02*
X0212628Y0220578D01*
X0213827Y0221776D02*
X0198109Y0221776D01*
X0198207Y0222975D02*
X0215025Y0222975D01*
X0216000Y0221250D02*
X0213500Y0218750D01*
X0213500Y0203750D01*
X0217309Y0203798D02*
X0263500Y0203798D01*
X0263500Y0202600D02*
X0217146Y0202600D01*
X0216538Y0201401D02*
X0263500Y0201401D01*
X0263500Y0200203D02*
X0214889Y0200203D01*
X0212111Y0200203D02*
X0194034Y0200203D01*
X0194359Y0199004D02*
X0263500Y0199004D01*
X0263500Y0197806D02*
X0194244Y0197806D01*
X0193607Y0196607D02*
X0263500Y0196607D01*
X0263500Y0195409D02*
X0193109Y0195409D01*
X0193109Y0194210D02*
X0263500Y0194210D01*
X0263500Y0204997D02*
X0219392Y0204997D01*
X0217608Y0204997D02*
X0217106Y0204997D01*
X0218500Y0208750D02*
X0218500Y0213750D01*
X0221000Y0216250D01*
X0256000Y0216250D01*
X0259433Y0214585D02*
X0263500Y0214585D01*
X0263500Y0213387D02*
X0258523Y0213387D01*
X0259809Y0215784D02*
X0263500Y0215784D01*
X0263500Y0216982D02*
X0259809Y0216982D01*
X0259323Y0218181D02*
X0263500Y0218181D01*
X0263500Y0219379D02*
X0258257Y0219379D01*
X0253743Y0219379D02*
X0249347Y0219379D01*
X0249809Y0220578D02*
X0263500Y0220578D01*
X0263500Y0221776D02*
X0249809Y0221776D01*
X0249408Y0222975D02*
X0263500Y0222975D01*
X0263500Y0224173D02*
X0248463Y0224173D01*
X0246000Y0221250D02*
X0216000Y0221250D01*
X0223673Y0224173D02*
X0243537Y0224173D01*
X0248317Y0218181D02*
X0252677Y0218181D01*
X0253477Y0213387D02*
X0220836Y0213387D01*
X0220409Y0212188D02*
X0263500Y0212188D01*
X0263500Y0210989D02*
X0221647Y0210989D01*
X0222191Y0209791D02*
X0263500Y0209791D01*
X0263500Y0208592D02*
X0222309Y0208592D01*
X0222061Y0207394D02*
X0263500Y0207394D01*
X0263500Y0206195D02*
X0221332Y0206195D01*
X0211591Y0207394D02*
X0166000Y0207394D01*
X0166000Y0208592D02*
X0211591Y0208592D01*
X0211591Y0209791D02*
X0166000Y0209791D01*
X0166000Y0210989D02*
X0211591Y0210989D01*
X0211591Y0212188D02*
X0166000Y0212188D01*
X0166000Y0206195D02*
X0210559Y0206195D01*
X0209894Y0204997D02*
X0166000Y0204997D01*
X0166000Y0203798D02*
X0209691Y0203798D01*
X0209854Y0202600D02*
X0166000Y0202600D01*
X0166000Y0201401D02*
X0188902Y0201401D01*
X0187966Y0200203D02*
X0166000Y0200203D01*
X0166000Y0199004D02*
X0187641Y0199004D01*
X0187756Y0197806D02*
X0166000Y0197806D01*
X0166000Y0196607D02*
X0188393Y0196607D01*
X0188891Y0195409D02*
X0166000Y0195409D01*
X0166000Y0194210D02*
X0188891Y0194210D01*
X0193098Y0201401D02*
X0210462Y0201401D01*
X0224272Y0225372D02*
X0263500Y0225372D01*
X0263500Y0226570D02*
X0224359Y0226570D01*
X0224006Y0227769D02*
X0263500Y0227769D01*
X0286000Y0243750D02*
X0286000Y0246250D01*
X0286000Y0243750D02*
X0293500Y0236250D01*
X0293500Y0133750D01*
X0288500Y0128750D01*
X0123500Y0128750D01*
X0121000Y0126250D01*
X0121000Y0103750D01*
X0118500Y0101250D01*
X0108500Y0101250D01*
X0108500Y0096250D02*
X0121000Y0096250D01*
X0123500Y0098750D01*
X0123500Y0123750D01*
X0126000Y0126250D01*
X0291000Y0126250D01*
X0296000Y0131250D01*
X0296000Y0241250D01*
X0291000Y0233750D02*
X0278500Y0246250D01*
X0278500Y0251250D01*
X0291000Y0233750D02*
X0291000Y0136250D01*
X0286000Y0131250D01*
X0121000Y0131250D01*
X0116000Y0126250D01*
X0116000Y0123750D01*
D19*
X0196000Y0163750D03*
X0238500Y0163750D03*
X0213500Y0203750D03*
X0218500Y0208750D03*
X0246000Y0221250D03*
X0256000Y0216250D03*
X0286000Y0246250D03*
X0278500Y0251250D03*
X0296000Y0241250D03*
X0008500Y0141250D03*
D20*
X0023500Y0153750D02*
X0023500Y0161250D01*
X0026000Y0163750D01*
X0091000Y0163750D01*
X0086000Y0158750D02*
X0056000Y0158750D01*
X0066000Y0191250D02*
X0066000Y0221250D01*
X0061000Y0226250D01*
X0051000Y0226250D01*
X0078500Y0206250D02*
X0078500Y0266250D01*
X0076000Y0268750D01*
X0041000Y0268750D01*
X0038500Y0266250D01*
X0038500Y0263750D01*
X0028500Y0288750D02*
X0003500Y0288750D01*
X0003500Y0295119D01*
X0004872Y0293747D01*
X0007699Y0292576D01*
X0010758Y0292576D01*
X0013584Y0293747D01*
X0015747Y0295910D01*
X0016918Y0298736D01*
X0016918Y0301795D01*
X0015747Y0304622D01*
X0013584Y0306785D01*
X0010758Y0307955D01*
X0007699Y0307955D01*
X0004872Y0306785D01*
X0003500Y0305412D01*
X0003500Y0313750D01*
X0131000Y0313750D01*
X0131000Y0226250D01*
X0173500Y0226250D01*
X0173500Y0213750D01*
X0121000Y0213750D01*
X0121000Y0306250D01*
X0067662Y0306250D01*
X0067128Y0306785D01*
X0064301Y0307955D01*
X0061242Y0307955D01*
X0058416Y0306785D01*
X0057881Y0306250D01*
X0049910Y0306250D01*
X0049910Y0306836D01*
X0049026Y0307719D01*
X0039509Y0307719D01*
X0038625Y0306836D01*
X0038625Y0306250D01*
X0033666Y0306250D01*
X0033666Y0306448D01*
X0033543Y0306905D01*
X0033306Y0307316D01*
X0032971Y0307651D01*
X0032561Y0307888D01*
X0032103Y0308011D01*
X0028310Y0308011D01*
X0028310Y0302655D01*
X0027154Y0302655D01*
X0027154Y0308011D01*
X0023361Y0308011D01*
X0022904Y0307888D01*
X0022493Y0307651D01*
X0022158Y0307316D01*
X0021921Y0306905D01*
X0021798Y0306448D01*
X0021798Y0302655D01*
X0027154Y0302655D01*
X0027154Y0301499D01*
X0021798Y0301499D01*
X0021798Y0297706D01*
X0021921Y0297248D01*
X0022158Y0296838D01*
X0022493Y0296503D01*
X0022904Y0296266D01*
X0023361Y0296143D01*
X0027154Y0296143D01*
X0027154Y0301499D01*
X0028310Y0301499D01*
X0028310Y0296143D01*
X0028500Y0296143D01*
X0028500Y0288750D01*
X0028500Y0288982D02*
X0003500Y0288982D01*
X0003500Y0290581D02*
X0028500Y0290581D01*
X0028500Y0292179D02*
X0003500Y0292179D01*
X0003500Y0293778D02*
X0004842Y0293778D01*
X0013615Y0293778D02*
X0028500Y0293778D01*
X0028500Y0295376D02*
X0015214Y0295376D01*
X0016188Y0296975D02*
X0022079Y0296975D01*
X0021798Y0298573D02*
X0016851Y0298573D01*
X0016918Y0300172D02*
X0021798Y0300172D01*
X0021798Y0303369D02*
X0016266Y0303369D01*
X0016918Y0301770D02*
X0027154Y0301770D01*
X0027154Y0300172D02*
X0028310Y0300172D01*
X0028310Y0298573D02*
X0027154Y0298573D01*
X0027154Y0296975D02*
X0028310Y0296975D01*
X0028310Y0303369D02*
X0027154Y0303369D01*
X0027154Y0304967D02*
X0028310Y0304967D01*
X0028310Y0306566D02*
X0027154Y0306566D01*
X0021830Y0306566D02*
X0013803Y0306566D01*
X0015402Y0304967D02*
X0021798Y0304967D01*
X0033634Y0306566D02*
X0038625Y0306566D01*
X0049910Y0306566D02*
X0058197Y0306566D01*
X0067347Y0306566D02*
X0131000Y0306566D01*
X0131000Y0308164D02*
X0003500Y0308164D01*
X0003500Y0306566D02*
X0004653Y0306566D01*
X0003500Y0309763D02*
X0131000Y0309763D01*
X0131000Y0311361D02*
X0003500Y0311361D01*
X0003500Y0312960D02*
X0131000Y0312960D01*
X0131000Y0304967D02*
X0121000Y0304967D01*
X0121000Y0303369D02*
X0131000Y0303369D01*
X0131000Y0301770D02*
X0121000Y0301770D01*
X0121000Y0300172D02*
X0131000Y0300172D01*
X0131000Y0298573D02*
X0121000Y0298573D01*
X0121000Y0296975D02*
X0131000Y0296975D01*
X0131000Y0295376D02*
X0121000Y0295376D01*
X0121000Y0293778D02*
X0131000Y0293778D01*
X0131000Y0292179D02*
X0121000Y0292179D01*
X0121000Y0290581D02*
X0131000Y0290581D01*
X0131000Y0288982D02*
X0121000Y0288982D01*
X0121000Y0287384D02*
X0131000Y0287384D01*
X0131000Y0285785D02*
X0121000Y0285785D01*
X0121000Y0284187D02*
X0131000Y0284187D01*
X0131000Y0282588D02*
X0121000Y0282588D01*
X0121000Y0280989D02*
X0131000Y0280989D01*
X0131000Y0279391D02*
X0121000Y0279391D01*
X0121000Y0277792D02*
X0131000Y0277792D01*
X0131000Y0276194D02*
X0121000Y0276194D01*
X0121000Y0274595D02*
X0131000Y0274595D01*
X0131000Y0272997D02*
X0121000Y0272997D01*
X0121000Y0271398D02*
X0131000Y0271398D01*
X0131000Y0269800D02*
X0121000Y0269800D01*
X0121000Y0268201D02*
X0131000Y0268201D01*
X0131000Y0266603D02*
X0121000Y0266603D01*
X0121000Y0265004D02*
X0131000Y0265004D01*
X0131000Y0263406D02*
X0121000Y0263406D01*
X0121000Y0261807D02*
X0131000Y0261807D01*
X0131000Y0260209D02*
X0121000Y0260209D01*
X0121000Y0258610D02*
X0131000Y0258610D01*
X0131000Y0257012D02*
X0121000Y0257012D01*
X0121000Y0255413D02*
X0131000Y0255413D01*
X0131000Y0253815D02*
X0121000Y0253815D01*
X0121000Y0252216D02*
X0131000Y0252216D01*
X0131000Y0250618D02*
X0121000Y0250618D01*
X0121000Y0249019D02*
X0131000Y0249019D01*
X0131000Y0247421D02*
X0121000Y0247421D01*
X0121000Y0245822D02*
X0131000Y0245822D01*
X0131000Y0244224D02*
X0121000Y0244224D01*
X0121000Y0242625D02*
X0131000Y0242625D01*
X0131000Y0241027D02*
X0121000Y0241027D01*
X0121000Y0239428D02*
X0131000Y0239428D01*
X0131000Y0237830D02*
X0121000Y0237830D01*
X0121000Y0236231D02*
X0131000Y0236231D01*
X0131000Y0234633D02*
X0121000Y0234633D01*
X0121000Y0233034D02*
X0131000Y0233034D01*
X0131000Y0231436D02*
X0121000Y0231436D01*
X0121000Y0229837D02*
X0131000Y0229837D01*
X0131000Y0228239D02*
X0121000Y0228239D01*
X0121000Y0226640D02*
X0131000Y0226640D01*
X0121000Y0225042D02*
X0173500Y0225042D01*
X0173500Y0223443D02*
X0121000Y0223443D01*
X0121000Y0221845D02*
X0173500Y0221845D01*
X0173500Y0220246D02*
X0121000Y0220246D01*
X0121000Y0218648D02*
X0173500Y0218648D01*
X0173500Y0217049D02*
X0121000Y0217049D01*
X0121000Y0215451D02*
X0173500Y0215451D01*
X0173500Y0213852D02*
X0121000Y0213852D01*
X0118500Y0178750D02*
X0118500Y0141250D01*
X0123500Y0153750D02*
X0123500Y0176250D01*
X0191000Y0191250D02*
X0193500Y0188750D01*
X0241000Y0188750D01*
X0241000Y0168750D02*
X0193500Y0168750D01*
X0193500Y0158750D01*
X0241000Y0158750D01*
X0241000Y0168750D01*
X0241000Y0167495D02*
X0193500Y0167495D01*
X0193500Y0165897D02*
X0241000Y0165897D01*
X0241000Y0164298D02*
X0193500Y0164298D01*
X0193500Y0162700D02*
X0241000Y0162700D01*
X0241000Y0161101D02*
X0193500Y0161101D01*
X0193500Y0159503D02*
X0241000Y0159503D01*
X0216000Y0143750D02*
X0271000Y0143750D01*
X0191000Y0191250D02*
X0191000Y0198750D01*
X0196000Y0216250D02*
X0196000Y0223750D01*
X0198500Y0226250D01*
X0221000Y0226250D01*
X0116000Y0123750D02*
X0113500Y0121250D01*
X0096000Y0121250D01*
D21*
X0103500Y0153750D02*
X0103500Y0173750D01*
X0116000Y0193750D02*
X0148500Y0193750D01*
X0152250Y0190000D01*
X0152250Y0168750D01*
X0159750Y0161250D01*
X0193500Y0161250D01*
X0196000Y0163750D01*
X0116000Y0193750D02*
X0109750Y0200000D01*
X0109750Y0291250D01*
X0103500Y0297500D01*
X0077250Y0297500D01*
X0060173Y0280423D01*
X0044268Y0280423D01*
X0018500Y0058750D02*
X0018500Y0038750D01*
X0113500Y0038750D02*
X0113500Y0058750D01*
X0208500Y0058750D02*
X0208500Y0038750D01*
X0303500Y0038750D02*
X0303500Y0058750D01*
D22*
X0043500Y0211250D02*
X0043500Y0231250D01*
D23*
X0013500Y0086250D03*
X0108500Y0086250D03*
X0203500Y0086250D03*
X0298500Y0086250D03*
M02*
