G75*
%MOIN*%
%OFA0B0*%
%FSLAX25Y25*%
%IPPOS*%
%LPD*%
%AMOC8*
5,1,8,0,0,1.08239X$1,22.5*
%
%ADD10C,0.00000*%
%ADD11R,0.05512X0.04724*%
%ADD12R,0.07087X0.06299*%
%ADD13R,0.07400X0.07400*%
%ADD14C,0.07400*%
%ADD15C,0.05906*%
%ADD16C,0.01600*%
%ADD17C,0.03600*%
%ADD18C,0.03962*%
D10*
X0003250Y0001800D02*
X0003250Y0111761D01*
X0396951Y0111761D01*
X0396951Y0001800D01*
X0003250Y0001800D01*
X0091750Y0044300D02*
X0091752Y0044461D01*
X0091758Y0044621D01*
X0091768Y0044782D01*
X0091782Y0044942D01*
X0091800Y0045102D01*
X0091821Y0045261D01*
X0091847Y0045420D01*
X0091877Y0045578D01*
X0091910Y0045735D01*
X0091948Y0045892D01*
X0091989Y0046047D01*
X0092034Y0046201D01*
X0092083Y0046354D01*
X0092136Y0046506D01*
X0092192Y0046657D01*
X0092253Y0046806D01*
X0092316Y0046954D01*
X0092384Y0047100D01*
X0092455Y0047244D01*
X0092529Y0047386D01*
X0092607Y0047527D01*
X0092689Y0047665D01*
X0092774Y0047802D01*
X0092862Y0047936D01*
X0092954Y0048068D01*
X0093049Y0048198D01*
X0093147Y0048326D01*
X0093248Y0048451D01*
X0093352Y0048573D01*
X0093459Y0048693D01*
X0093569Y0048810D01*
X0093682Y0048925D01*
X0093798Y0049036D01*
X0093917Y0049145D01*
X0094038Y0049250D01*
X0094162Y0049353D01*
X0094288Y0049453D01*
X0094416Y0049549D01*
X0094547Y0049642D01*
X0094681Y0049732D01*
X0094816Y0049819D01*
X0094954Y0049902D01*
X0095093Y0049982D01*
X0095235Y0050058D01*
X0095378Y0050131D01*
X0095523Y0050200D01*
X0095670Y0050266D01*
X0095818Y0050328D01*
X0095968Y0050386D01*
X0096119Y0050441D01*
X0096272Y0050492D01*
X0096426Y0050539D01*
X0096581Y0050582D01*
X0096737Y0050621D01*
X0096893Y0050657D01*
X0097051Y0050688D01*
X0097209Y0050716D01*
X0097368Y0050740D01*
X0097528Y0050760D01*
X0097688Y0050776D01*
X0097848Y0050788D01*
X0098009Y0050796D01*
X0098170Y0050800D01*
X0098330Y0050800D01*
X0098491Y0050796D01*
X0098652Y0050788D01*
X0098812Y0050776D01*
X0098972Y0050760D01*
X0099132Y0050740D01*
X0099291Y0050716D01*
X0099449Y0050688D01*
X0099607Y0050657D01*
X0099763Y0050621D01*
X0099919Y0050582D01*
X0100074Y0050539D01*
X0100228Y0050492D01*
X0100381Y0050441D01*
X0100532Y0050386D01*
X0100682Y0050328D01*
X0100830Y0050266D01*
X0100977Y0050200D01*
X0101122Y0050131D01*
X0101265Y0050058D01*
X0101407Y0049982D01*
X0101546Y0049902D01*
X0101684Y0049819D01*
X0101819Y0049732D01*
X0101953Y0049642D01*
X0102084Y0049549D01*
X0102212Y0049453D01*
X0102338Y0049353D01*
X0102462Y0049250D01*
X0102583Y0049145D01*
X0102702Y0049036D01*
X0102818Y0048925D01*
X0102931Y0048810D01*
X0103041Y0048693D01*
X0103148Y0048573D01*
X0103252Y0048451D01*
X0103353Y0048326D01*
X0103451Y0048198D01*
X0103546Y0048068D01*
X0103638Y0047936D01*
X0103726Y0047802D01*
X0103811Y0047665D01*
X0103893Y0047527D01*
X0103971Y0047386D01*
X0104045Y0047244D01*
X0104116Y0047100D01*
X0104184Y0046954D01*
X0104247Y0046806D01*
X0104308Y0046657D01*
X0104364Y0046506D01*
X0104417Y0046354D01*
X0104466Y0046201D01*
X0104511Y0046047D01*
X0104552Y0045892D01*
X0104590Y0045735D01*
X0104623Y0045578D01*
X0104653Y0045420D01*
X0104679Y0045261D01*
X0104700Y0045102D01*
X0104718Y0044942D01*
X0104732Y0044782D01*
X0104742Y0044621D01*
X0104748Y0044461D01*
X0104750Y0044300D01*
X0104748Y0044139D01*
X0104742Y0043979D01*
X0104732Y0043818D01*
X0104718Y0043658D01*
X0104700Y0043498D01*
X0104679Y0043339D01*
X0104653Y0043180D01*
X0104623Y0043022D01*
X0104590Y0042865D01*
X0104552Y0042708D01*
X0104511Y0042553D01*
X0104466Y0042399D01*
X0104417Y0042246D01*
X0104364Y0042094D01*
X0104308Y0041943D01*
X0104247Y0041794D01*
X0104184Y0041646D01*
X0104116Y0041500D01*
X0104045Y0041356D01*
X0103971Y0041214D01*
X0103893Y0041073D01*
X0103811Y0040935D01*
X0103726Y0040798D01*
X0103638Y0040664D01*
X0103546Y0040532D01*
X0103451Y0040402D01*
X0103353Y0040274D01*
X0103252Y0040149D01*
X0103148Y0040027D01*
X0103041Y0039907D01*
X0102931Y0039790D01*
X0102818Y0039675D01*
X0102702Y0039564D01*
X0102583Y0039455D01*
X0102462Y0039350D01*
X0102338Y0039247D01*
X0102212Y0039147D01*
X0102084Y0039051D01*
X0101953Y0038958D01*
X0101819Y0038868D01*
X0101684Y0038781D01*
X0101546Y0038698D01*
X0101407Y0038618D01*
X0101265Y0038542D01*
X0101122Y0038469D01*
X0100977Y0038400D01*
X0100830Y0038334D01*
X0100682Y0038272D01*
X0100532Y0038214D01*
X0100381Y0038159D01*
X0100228Y0038108D01*
X0100074Y0038061D01*
X0099919Y0038018D01*
X0099763Y0037979D01*
X0099607Y0037943D01*
X0099449Y0037912D01*
X0099291Y0037884D01*
X0099132Y0037860D01*
X0098972Y0037840D01*
X0098812Y0037824D01*
X0098652Y0037812D01*
X0098491Y0037804D01*
X0098330Y0037800D01*
X0098170Y0037800D01*
X0098009Y0037804D01*
X0097848Y0037812D01*
X0097688Y0037824D01*
X0097528Y0037840D01*
X0097368Y0037860D01*
X0097209Y0037884D01*
X0097051Y0037912D01*
X0096893Y0037943D01*
X0096737Y0037979D01*
X0096581Y0038018D01*
X0096426Y0038061D01*
X0096272Y0038108D01*
X0096119Y0038159D01*
X0095968Y0038214D01*
X0095818Y0038272D01*
X0095670Y0038334D01*
X0095523Y0038400D01*
X0095378Y0038469D01*
X0095235Y0038542D01*
X0095093Y0038618D01*
X0094954Y0038698D01*
X0094816Y0038781D01*
X0094681Y0038868D01*
X0094547Y0038958D01*
X0094416Y0039051D01*
X0094288Y0039147D01*
X0094162Y0039247D01*
X0094038Y0039350D01*
X0093917Y0039455D01*
X0093798Y0039564D01*
X0093682Y0039675D01*
X0093569Y0039790D01*
X0093459Y0039907D01*
X0093352Y0040027D01*
X0093248Y0040149D01*
X0093147Y0040274D01*
X0093049Y0040402D01*
X0092954Y0040532D01*
X0092862Y0040664D01*
X0092774Y0040798D01*
X0092689Y0040935D01*
X0092607Y0041073D01*
X0092529Y0041214D01*
X0092455Y0041356D01*
X0092384Y0041500D01*
X0092316Y0041646D01*
X0092253Y0041794D01*
X0092192Y0041943D01*
X0092136Y0042094D01*
X0092083Y0042246D01*
X0092034Y0042399D01*
X0091989Y0042553D01*
X0091948Y0042708D01*
X0091910Y0042865D01*
X0091877Y0043022D01*
X0091847Y0043180D01*
X0091821Y0043339D01*
X0091800Y0043498D01*
X0091782Y0043658D01*
X0091768Y0043818D01*
X0091758Y0043979D01*
X0091752Y0044139D01*
X0091750Y0044300D01*
X0184250Y0044300D02*
X0184252Y0044461D01*
X0184258Y0044621D01*
X0184268Y0044782D01*
X0184282Y0044942D01*
X0184300Y0045102D01*
X0184321Y0045261D01*
X0184347Y0045420D01*
X0184377Y0045578D01*
X0184410Y0045735D01*
X0184448Y0045892D01*
X0184489Y0046047D01*
X0184534Y0046201D01*
X0184583Y0046354D01*
X0184636Y0046506D01*
X0184692Y0046657D01*
X0184753Y0046806D01*
X0184816Y0046954D01*
X0184884Y0047100D01*
X0184955Y0047244D01*
X0185029Y0047386D01*
X0185107Y0047527D01*
X0185189Y0047665D01*
X0185274Y0047802D01*
X0185362Y0047936D01*
X0185454Y0048068D01*
X0185549Y0048198D01*
X0185647Y0048326D01*
X0185748Y0048451D01*
X0185852Y0048573D01*
X0185959Y0048693D01*
X0186069Y0048810D01*
X0186182Y0048925D01*
X0186298Y0049036D01*
X0186417Y0049145D01*
X0186538Y0049250D01*
X0186662Y0049353D01*
X0186788Y0049453D01*
X0186916Y0049549D01*
X0187047Y0049642D01*
X0187181Y0049732D01*
X0187316Y0049819D01*
X0187454Y0049902D01*
X0187593Y0049982D01*
X0187735Y0050058D01*
X0187878Y0050131D01*
X0188023Y0050200D01*
X0188170Y0050266D01*
X0188318Y0050328D01*
X0188468Y0050386D01*
X0188619Y0050441D01*
X0188772Y0050492D01*
X0188926Y0050539D01*
X0189081Y0050582D01*
X0189237Y0050621D01*
X0189393Y0050657D01*
X0189551Y0050688D01*
X0189709Y0050716D01*
X0189868Y0050740D01*
X0190028Y0050760D01*
X0190188Y0050776D01*
X0190348Y0050788D01*
X0190509Y0050796D01*
X0190670Y0050800D01*
X0190830Y0050800D01*
X0190991Y0050796D01*
X0191152Y0050788D01*
X0191312Y0050776D01*
X0191472Y0050760D01*
X0191632Y0050740D01*
X0191791Y0050716D01*
X0191949Y0050688D01*
X0192107Y0050657D01*
X0192263Y0050621D01*
X0192419Y0050582D01*
X0192574Y0050539D01*
X0192728Y0050492D01*
X0192881Y0050441D01*
X0193032Y0050386D01*
X0193182Y0050328D01*
X0193330Y0050266D01*
X0193477Y0050200D01*
X0193622Y0050131D01*
X0193765Y0050058D01*
X0193907Y0049982D01*
X0194046Y0049902D01*
X0194184Y0049819D01*
X0194319Y0049732D01*
X0194453Y0049642D01*
X0194584Y0049549D01*
X0194712Y0049453D01*
X0194838Y0049353D01*
X0194962Y0049250D01*
X0195083Y0049145D01*
X0195202Y0049036D01*
X0195318Y0048925D01*
X0195431Y0048810D01*
X0195541Y0048693D01*
X0195648Y0048573D01*
X0195752Y0048451D01*
X0195853Y0048326D01*
X0195951Y0048198D01*
X0196046Y0048068D01*
X0196138Y0047936D01*
X0196226Y0047802D01*
X0196311Y0047665D01*
X0196393Y0047527D01*
X0196471Y0047386D01*
X0196545Y0047244D01*
X0196616Y0047100D01*
X0196684Y0046954D01*
X0196747Y0046806D01*
X0196808Y0046657D01*
X0196864Y0046506D01*
X0196917Y0046354D01*
X0196966Y0046201D01*
X0197011Y0046047D01*
X0197052Y0045892D01*
X0197090Y0045735D01*
X0197123Y0045578D01*
X0197153Y0045420D01*
X0197179Y0045261D01*
X0197200Y0045102D01*
X0197218Y0044942D01*
X0197232Y0044782D01*
X0197242Y0044621D01*
X0197248Y0044461D01*
X0197250Y0044300D01*
X0197248Y0044139D01*
X0197242Y0043979D01*
X0197232Y0043818D01*
X0197218Y0043658D01*
X0197200Y0043498D01*
X0197179Y0043339D01*
X0197153Y0043180D01*
X0197123Y0043022D01*
X0197090Y0042865D01*
X0197052Y0042708D01*
X0197011Y0042553D01*
X0196966Y0042399D01*
X0196917Y0042246D01*
X0196864Y0042094D01*
X0196808Y0041943D01*
X0196747Y0041794D01*
X0196684Y0041646D01*
X0196616Y0041500D01*
X0196545Y0041356D01*
X0196471Y0041214D01*
X0196393Y0041073D01*
X0196311Y0040935D01*
X0196226Y0040798D01*
X0196138Y0040664D01*
X0196046Y0040532D01*
X0195951Y0040402D01*
X0195853Y0040274D01*
X0195752Y0040149D01*
X0195648Y0040027D01*
X0195541Y0039907D01*
X0195431Y0039790D01*
X0195318Y0039675D01*
X0195202Y0039564D01*
X0195083Y0039455D01*
X0194962Y0039350D01*
X0194838Y0039247D01*
X0194712Y0039147D01*
X0194584Y0039051D01*
X0194453Y0038958D01*
X0194319Y0038868D01*
X0194184Y0038781D01*
X0194046Y0038698D01*
X0193907Y0038618D01*
X0193765Y0038542D01*
X0193622Y0038469D01*
X0193477Y0038400D01*
X0193330Y0038334D01*
X0193182Y0038272D01*
X0193032Y0038214D01*
X0192881Y0038159D01*
X0192728Y0038108D01*
X0192574Y0038061D01*
X0192419Y0038018D01*
X0192263Y0037979D01*
X0192107Y0037943D01*
X0191949Y0037912D01*
X0191791Y0037884D01*
X0191632Y0037860D01*
X0191472Y0037840D01*
X0191312Y0037824D01*
X0191152Y0037812D01*
X0190991Y0037804D01*
X0190830Y0037800D01*
X0190670Y0037800D01*
X0190509Y0037804D01*
X0190348Y0037812D01*
X0190188Y0037824D01*
X0190028Y0037840D01*
X0189868Y0037860D01*
X0189709Y0037884D01*
X0189551Y0037912D01*
X0189393Y0037943D01*
X0189237Y0037979D01*
X0189081Y0038018D01*
X0188926Y0038061D01*
X0188772Y0038108D01*
X0188619Y0038159D01*
X0188468Y0038214D01*
X0188318Y0038272D01*
X0188170Y0038334D01*
X0188023Y0038400D01*
X0187878Y0038469D01*
X0187735Y0038542D01*
X0187593Y0038618D01*
X0187454Y0038698D01*
X0187316Y0038781D01*
X0187181Y0038868D01*
X0187047Y0038958D01*
X0186916Y0039051D01*
X0186788Y0039147D01*
X0186662Y0039247D01*
X0186538Y0039350D01*
X0186417Y0039455D01*
X0186298Y0039564D01*
X0186182Y0039675D01*
X0186069Y0039790D01*
X0185959Y0039907D01*
X0185852Y0040027D01*
X0185748Y0040149D01*
X0185647Y0040274D01*
X0185549Y0040402D01*
X0185454Y0040532D01*
X0185362Y0040664D01*
X0185274Y0040798D01*
X0185189Y0040935D01*
X0185107Y0041073D01*
X0185029Y0041214D01*
X0184955Y0041356D01*
X0184884Y0041500D01*
X0184816Y0041646D01*
X0184753Y0041794D01*
X0184692Y0041943D01*
X0184636Y0042094D01*
X0184583Y0042246D01*
X0184534Y0042399D01*
X0184489Y0042553D01*
X0184448Y0042708D01*
X0184410Y0042865D01*
X0184377Y0043022D01*
X0184347Y0043180D01*
X0184321Y0043339D01*
X0184300Y0043498D01*
X0184282Y0043658D01*
X0184268Y0043818D01*
X0184258Y0043979D01*
X0184252Y0044139D01*
X0184250Y0044300D01*
X0291750Y0044300D02*
X0291752Y0044461D01*
X0291758Y0044621D01*
X0291768Y0044782D01*
X0291782Y0044942D01*
X0291800Y0045102D01*
X0291821Y0045261D01*
X0291847Y0045420D01*
X0291877Y0045578D01*
X0291910Y0045735D01*
X0291948Y0045892D01*
X0291989Y0046047D01*
X0292034Y0046201D01*
X0292083Y0046354D01*
X0292136Y0046506D01*
X0292192Y0046657D01*
X0292253Y0046806D01*
X0292316Y0046954D01*
X0292384Y0047100D01*
X0292455Y0047244D01*
X0292529Y0047386D01*
X0292607Y0047527D01*
X0292689Y0047665D01*
X0292774Y0047802D01*
X0292862Y0047936D01*
X0292954Y0048068D01*
X0293049Y0048198D01*
X0293147Y0048326D01*
X0293248Y0048451D01*
X0293352Y0048573D01*
X0293459Y0048693D01*
X0293569Y0048810D01*
X0293682Y0048925D01*
X0293798Y0049036D01*
X0293917Y0049145D01*
X0294038Y0049250D01*
X0294162Y0049353D01*
X0294288Y0049453D01*
X0294416Y0049549D01*
X0294547Y0049642D01*
X0294681Y0049732D01*
X0294816Y0049819D01*
X0294954Y0049902D01*
X0295093Y0049982D01*
X0295235Y0050058D01*
X0295378Y0050131D01*
X0295523Y0050200D01*
X0295670Y0050266D01*
X0295818Y0050328D01*
X0295968Y0050386D01*
X0296119Y0050441D01*
X0296272Y0050492D01*
X0296426Y0050539D01*
X0296581Y0050582D01*
X0296737Y0050621D01*
X0296893Y0050657D01*
X0297051Y0050688D01*
X0297209Y0050716D01*
X0297368Y0050740D01*
X0297528Y0050760D01*
X0297688Y0050776D01*
X0297848Y0050788D01*
X0298009Y0050796D01*
X0298170Y0050800D01*
X0298330Y0050800D01*
X0298491Y0050796D01*
X0298652Y0050788D01*
X0298812Y0050776D01*
X0298972Y0050760D01*
X0299132Y0050740D01*
X0299291Y0050716D01*
X0299449Y0050688D01*
X0299607Y0050657D01*
X0299763Y0050621D01*
X0299919Y0050582D01*
X0300074Y0050539D01*
X0300228Y0050492D01*
X0300381Y0050441D01*
X0300532Y0050386D01*
X0300682Y0050328D01*
X0300830Y0050266D01*
X0300977Y0050200D01*
X0301122Y0050131D01*
X0301265Y0050058D01*
X0301407Y0049982D01*
X0301546Y0049902D01*
X0301684Y0049819D01*
X0301819Y0049732D01*
X0301953Y0049642D01*
X0302084Y0049549D01*
X0302212Y0049453D01*
X0302338Y0049353D01*
X0302462Y0049250D01*
X0302583Y0049145D01*
X0302702Y0049036D01*
X0302818Y0048925D01*
X0302931Y0048810D01*
X0303041Y0048693D01*
X0303148Y0048573D01*
X0303252Y0048451D01*
X0303353Y0048326D01*
X0303451Y0048198D01*
X0303546Y0048068D01*
X0303638Y0047936D01*
X0303726Y0047802D01*
X0303811Y0047665D01*
X0303893Y0047527D01*
X0303971Y0047386D01*
X0304045Y0047244D01*
X0304116Y0047100D01*
X0304184Y0046954D01*
X0304247Y0046806D01*
X0304308Y0046657D01*
X0304364Y0046506D01*
X0304417Y0046354D01*
X0304466Y0046201D01*
X0304511Y0046047D01*
X0304552Y0045892D01*
X0304590Y0045735D01*
X0304623Y0045578D01*
X0304653Y0045420D01*
X0304679Y0045261D01*
X0304700Y0045102D01*
X0304718Y0044942D01*
X0304732Y0044782D01*
X0304742Y0044621D01*
X0304748Y0044461D01*
X0304750Y0044300D01*
X0304748Y0044139D01*
X0304742Y0043979D01*
X0304732Y0043818D01*
X0304718Y0043658D01*
X0304700Y0043498D01*
X0304679Y0043339D01*
X0304653Y0043180D01*
X0304623Y0043022D01*
X0304590Y0042865D01*
X0304552Y0042708D01*
X0304511Y0042553D01*
X0304466Y0042399D01*
X0304417Y0042246D01*
X0304364Y0042094D01*
X0304308Y0041943D01*
X0304247Y0041794D01*
X0304184Y0041646D01*
X0304116Y0041500D01*
X0304045Y0041356D01*
X0303971Y0041214D01*
X0303893Y0041073D01*
X0303811Y0040935D01*
X0303726Y0040798D01*
X0303638Y0040664D01*
X0303546Y0040532D01*
X0303451Y0040402D01*
X0303353Y0040274D01*
X0303252Y0040149D01*
X0303148Y0040027D01*
X0303041Y0039907D01*
X0302931Y0039790D01*
X0302818Y0039675D01*
X0302702Y0039564D01*
X0302583Y0039455D01*
X0302462Y0039350D01*
X0302338Y0039247D01*
X0302212Y0039147D01*
X0302084Y0039051D01*
X0301953Y0038958D01*
X0301819Y0038868D01*
X0301684Y0038781D01*
X0301546Y0038698D01*
X0301407Y0038618D01*
X0301265Y0038542D01*
X0301122Y0038469D01*
X0300977Y0038400D01*
X0300830Y0038334D01*
X0300682Y0038272D01*
X0300532Y0038214D01*
X0300381Y0038159D01*
X0300228Y0038108D01*
X0300074Y0038061D01*
X0299919Y0038018D01*
X0299763Y0037979D01*
X0299607Y0037943D01*
X0299449Y0037912D01*
X0299291Y0037884D01*
X0299132Y0037860D01*
X0298972Y0037840D01*
X0298812Y0037824D01*
X0298652Y0037812D01*
X0298491Y0037804D01*
X0298330Y0037800D01*
X0298170Y0037800D01*
X0298009Y0037804D01*
X0297848Y0037812D01*
X0297688Y0037824D01*
X0297528Y0037840D01*
X0297368Y0037860D01*
X0297209Y0037884D01*
X0297051Y0037912D01*
X0296893Y0037943D01*
X0296737Y0037979D01*
X0296581Y0038018D01*
X0296426Y0038061D01*
X0296272Y0038108D01*
X0296119Y0038159D01*
X0295968Y0038214D01*
X0295818Y0038272D01*
X0295670Y0038334D01*
X0295523Y0038400D01*
X0295378Y0038469D01*
X0295235Y0038542D01*
X0295093Y0038618D01*
X0294954Y0038698D01*
X0294816Y0038781D01*
X0294681Y0038868D01*
X0294547Y0038958D01*
X0294416Y0039051D01*
X0294288Y0039147D01*
X0294162Y0039247D01*
X0294038Y0039350D01*
X0293917Y0039455D01*
X0293798Y0039564D01*
X0293682Y0039675D01*
X0293569Y0039790D01*
X0293459Y0039907D01*
X0293352Y0040027D01*
X0293248Y0040149D01*
X0293147Y0040274D01*
X0293049Y0040402D01*
X0292954Y0040532D01*
X0292862Y0040664D01*
X0292774Y0040798D01*
X0292689Y0040935D01*
X0292607Y0041073D01*
X0292529Y0041214D01*
X0292455Y0041356D01*
X0292384Y0041500D01*
X0292316Y0041646D01*
X0292253Y0041794D01*
X0292192Y0041943D01*
X0292136Y0042094D01*
X0292083Y0042246D01*
X0292034Y0042399D01*
X0291989Y0042553D01*
X0291948Y0042708D01*
X0291910Y0042865D01*
X0291877Y0043022D01*
X0291847Y0043180D01*
X0291821Y0043339D01*
X0291800Y0043498D01*
X0291782Y0043658D01*
X0291768Y0043818D01*
X0291758Y0043979D01*
X0291752Y0044139D01*
X0291750Y0044300D01*
D11*
X0303250Y0060894D03*
X0313250Y0060894D03*
X0323250Y0060894D03*
X0333250Y0060894D03*
X0343250Y0060894D03*
X0353250Y0060894D03*
X0363250Y0060894D03*
X0373250Y0060894D03*
X0373250Y0072706D03*
X0363250Y0072706D03*
X0353250Y0072706D03*
X0343250Y0072706D03*
X0333250Y0072706D03*
X0323250Y0072706D03*
X0313250Y0072706D03*
X0303250Y0072706D03*
X0278250Y0072706D03*
X0268250Y0072706D03*
X0258250Y0072706D03*
X0248250Y0072706D03*
X0238250Y0072706D03*
X0228250Y0072706D03*
X0218250Y0072706D03*
X0208250Y0072706D03*
X0183250Y0072706D03*
X0173250Y0072706D03*
X0163250Y0072706D03*
X0153250Y0072706D03*
X0143250Y0072706D03*
X0133250Y0072706D03*
X0123250Y0072706D03*
X0113250Y0072706D03*
X0088250Y0072706D03*
X0078250Y0072706D03*
X0068250Y0072706D03*
X0058250Y0072706D03*
X0048250Y0072706D03*
X0038250Y0072706D03*
X0028250Y0072706D03*
X0018250Y0072706D03*
X0018250Y0060894D03*
X0028250Y0060894D03*
X0038250Y0060894D03*
X0048250Y0060894D03*
X0058250Y0060894D03*
X0068250Y0060894D03*
X0078250Y0060894D03*
X0088250Y0060894D03*
X0113250Y0060894D03*
X0123250Y0060894D03*
X0133250Y0060894D03*
X0143250Y0060894D03*
X0153250Y0060894D03*
X0163250Y0060894D03*
X0173250Y0060894D03*
X0183250Y0060894D03*
X0208250Y0060894D03*
X0218250Y0060894D03*
X0228250Y0060894D03*
X0238250Y0060894D03*
X0248250Y0060894D03*
X0258250Y0060894D03*
X0268250Y0060894D03*
X0278250Y0060894D03*
D12*
X0278250Y0086288D03*
X0268250Y0086288D03*
X0258250Y0086288D03*
X0248250Y0086288D03*
X0238250Y0086288D03*
X0228250Y0086288D03*
X0218250Y0086288D03*
X0208250Y0086288D03*
X0183250Y0086288D03*
X0173250Y0086288D03*
X0163250Y0086288D03*
X0153250Y0086288D03*
X0143250Y0086288D03*
X0133250Y0086288D03*
X0123250Y0086288D03*
X0113250Y0086288D03*
X0088250Y0086288D03*
X0078250Y0086288D03*
X0068250Y0086288D03*
X0058250Y0086288D03*
X0048250Y0086288D03*
X0038250Y0086288D03*
X0028250Y0086288D03*
X0018250Y0086288D03*
X0018250Y0097312D03*
X0028250Y0097312D03*
X0038250Y0097312D03*
X0048250Y0097312D03*
X0058250Y0097312D03*
X0068250Y0097312D03*
X0078250Y0097312D03*
X0088250Y0097312D03*
X0113250Y0097312D03*
X0123250Y0097312D03*
X0133250Y0097312D03*
X0143250Y0097312D03*
X0153250Y0097312D03*
X0163250Y0097312D03*
X0173250Y0097312D03*
X0183250Y0097312D03*
X0208250Y0097312D03*
X0218250Y0097312D03*
X0228250Y0097312D03*
X0238250Y0097312D03*
X0248250Y0097312D03*
X0258250Y0097312D03*
X0268250Y0097312D03*
X0278250Y0097312D03*
X0303250Y0097312D03*
X0313250Y0097312D03*
X0323250Y0097312D03*
X0333250Y0097312D03*
X0343250Y0097312D03*
X0353250Y0097312D03*
X0363250Y0097312D03*
X0373250Y0097312D03*
X0373250Y0086288D03*
X0363250Y0086288D03*
X0353250Y0086288D03*
X0343250Y0086288D03*
X0333250Y0086288D03*
X0323250Y0086288D03*
X0313250Y0086288D03*
X0303250Y0086288D03*
D13*
X0013250Y0023800D03*
D14*
X0013250Y0034800D03*
D15*
X0258250Y0046800D03*
X0388250Y0046800D03*
X0378250Y0106800D03*
X0358250Y0106800D03*
X0348250Y0106800D03*
X0258250Y0106800D03*
D16*
X0259025Y0102261D02*
X0259025Y0098087D01*
X0257475Y0098087D01*
X0257475Y0102261D01*
X0254470Y0102261D01*
X0254012Y0102139D01*
X0253601Y0101902D01*
X0253266Y0101567D01*
X0253250Y0101538D01*
X0253234Y0101567D01*
X0252899Y0101902D01*
X0252488Y0102139D01*
X0252030Y0102261D01*
X0249025Y0102261D01*
X0249025Y0098087D01*
X0247475Y0098087D01*
X0247475Y0102261D01*
X0244470Y0102261D01*
X0244012Y0102139D01*
X0243601Y0101902D01*
X0243266Y0101567D01*
X0243250Y0101538D01*
X0243234Y0101567D01*
X0242899Y0101902D01*
X0242488Y0102139D01*
X0242030Y0102261D01*
X0239025Y0102261D01*
X0239025Y0098087D01*
X0237475Y0098087D01*
X0237475Y0102261D01*
X0234470Y0102261D01*
X0234012Y0102139D01*
X0233601Y0101902D01*
X0233266Y0101567D01*
X0233250Y0101538D01*
X0233234Y0101567D01*
X0232899Y0101902D01*
X0232488Y0102139D01*
X0232030Y0102261D01*
X0229025Y0102261D01*
X0229025Y0098087D01*
X0227475Y0098087D01*
X0227475Y0102261D01*
X0224470Y0102261D01*
X0224012Y0102139D01*
X0223601Y0101902D01*
X0223266Y0101567D01*
X0223250Y0101538D01*
X0223234Y0101567D01*
X0222899Y0101902D01*
X0222488Y0102139D01*
X0222030Y0102261D01*
X0219025Y0102261D01*
X0219025Y0098087D01*
X0217475Y0098087D01*
X0217475Y0102261D01*
X0214470Y0102261D01*
X0214012Y0102139D01*
X0213601Y0101902D01*
X0213266Y0101567D01*
X0213250Y0101538D01*
X0213234Y0101567D01*
X0212899Y0101902D01*
X0212488Y0102139D01*
X0212030Y0102261D01*
X0209025Y0102261D01*
X0209025Y0098087D01*
X0207475Y0098087D01*
X0207475Y0102261D01*
X0204470Y0102261D01*
X0204012Y0102139D01*
X0203601Y0101902D01*
X0203266Y0101567D01*
X0203029Y0101156D01*
X0202907Y0100698D01*
X0202907Y0098087D01*
X0207475Y0098087D01*
X0207475Y0096537D01*
X0202907Y0096537D01*
X0202907Y0093925D01*
X0203029Y0093467D01*
X0203266Y0093057D01*
X0203601Y0092722D01*
X0204012Y0092485D01*
X0204470Y0092362D01*
X0207475Y0092362D01*
X0207475Y0096537D01*
X0209025Y0096537D01*
X0209025Y0098087D01*
X0217475Y0098087D01*
X0217475Y0096537D01*
X0212907Y0096537D01*
X0209025Y0096537D01*
X0209025Y0092362D01*
X0212030Y0092362D01*
X0212488Y0092485D01*
X0212899Y0092722D01*
X0213234Y0093057D01*
X0213250Y0093085D01*
X0213266Y0093057D01*
X0213601Y0092722D01*
X0214012Y0092485D01*
X0214470Y0092362D01*
X0217475Y0092362D01*
X0217475Y0096537D01*
X0219025Y0096537D01*
X0219025Y0098087D01*
X0227475Y0098087D01*
X0227475Y0096537D01*
X0222907Y0096537D01*
X0219025Y0096537D01*
X0219025Y0092362D01*
X0222030Y0092362D01*
X0222488Y0092485D01*
X0222899Y0092722D01*
X0223234Y0093057D01*
X0223250Y0093085D01*
X0223266Y0093057D01*
X0223601Y0092722D01*
X0224012Y0092485D01*
X0224470Y0092362D01*
X0227475Y0092362D01*
X0227475Y0096537D01*
X0229025Y0096537D01*
X0229025Y0098087D01*
X0237475Y0098087D01*
X0237475Y0096537D01*
X0232907Y0096537D01*
X0229025Y0096537D01*
X0229025Y0092362D01*
X0232030Y0092362D01*
X0232488Y0092485D01*
X0232899Y0092722D01*
X0233234Y0093057D01*
X0233250Y0093085D01*
X0233266Y0093057D01*
X0233601Y0092722D01*
X0234012Y0092485D01*
X0234470Y0092362D01*
X0237475Y0092362D01*
X0237475Y0096537D01*
X0239025Y0096537D01*
X0239025Y0098087D01*
X0247475Y0098087D01*
X0247475Y0096537D01*
X0243593Y0096537D01*
X0239025Y0096537D01*
X0239025Y0092362D01*
X0242030Y0092362D01*
X0242488Y0092485D01*
X0242899Y0092722D01*
X0243234Y0093057D01*
X0243250Y0093085D01*
X0243266Y0093057D01*
X0243601Y0092722D01*
X0244012Y0092485D01*
X0244470Y0092362D01*
X0247475Y0092362D01*
X0247475Y0096537D01*
X0249025Y0096537D01*
X0249025Y0098087D01*
X0257475Y0098087D01*
X0257475Y0096537D01*
X0253593Y0096537D01*
X0249025Y0096537D01*
X0249025Y0092362D01*
X0252030Y0092362D01*
X0252488Y0092485D01*
X0252899Y0092722D01*
X0253234Y0093057D01*
X0253250Y0093085D01*
X0253266Y0093057D01*
X0253601Y0092722D01*
X0254012Y0092485D01*
X0254470Y0092362D01*
X0257475Y0092362D01*
X0257475Y0096537D01*
X0259025Y0096537D01*
X0259025Y0098087D01*
X0267475Y0098087D01*
X0267475Y0102261D01*
X0264470Y0102261D01*
X0264012Y0102139D01*
X0263601Y0101902D01*
X0263266Y0101567D01*
X0263250Y0101538D01*
X0263234Y0101567D01*
X0262899Y0101902D01*
X0262488Y0102139D01*
X0262030Y0102261D01*
X0259025Y0102261D01*
X0259025Y0100908D02*
X0257475Y0100908D01*
X0257475Y0099309D02*
X0259025Y0099309D01*
X0259025Y0097711D02*
X0267475Y0097711D01*
X0267475Y0098087D02*
X0267475Y0096537D01*
X0262907Y0096537D01*
X0259025Y0096537D01*
X0259025Y0092362D01*
X0262030Y0092362D01*
X0262488Y0092485D01*
X0262899Y0092722D01*
X0263234Y0093057D01*
X0263250Y0093085D01*
X0263266Y0093057D01*
X0263601Y0092722D01*
X0264012Y0092485D01*
X0264470Y0092362D01*
X0267475Y0092362D01*
X0267475Y0096537D01*
X0269025Y0096537D01*
X0269025Y0098087D01*
X0267475Y0098087D01*
X0267592Y0098764D02*
X0266437Y0097609D01*
X0266437Y0096455D01*
X0267592Y0095301D01*
X0279135Y0095301D01*
X0283752Y0090683D01*
X0283752Y0034121D01*
X0284907Y0033770D02*
X0281597Y0033770D01*
X0282400Y0032967D02*
X0263396Y0051971D01*
X0263694Y0052094D01*
X0264625Y0053025D01*
X0265129Y0054241D01*
X0265129Y0054943D01*
X0267209Y0057024D01*
X0271069Y0057024D01*
X0268790Y0054745D01*
X0268088Y0054745D01*
X0266872Y0054241D01*
X0265941Y0053310D01*
X0265437Y0052094D01*
X0265437Y0050778D01*
X0265941Y0049562D01*
X0266872Y0048631D01*
X0268088Y0048128D01*
X0269404Y0048128D01*
X0270620Y0048631D01*
X0271551Y0049562D01*
X0272055Y0050778D01*
X0272055Y0051480D01*
X0277598Y0057024D01*
X0281631Y0057024D01*
X0282515Y0057907D01*
X0282515Y0063882D01*
X0281631Y0064765D01*
X0274869Y0064765D01*
X0273985Y0063882D01*
X0273985Y0059941D01*
X0272515Y0058470D01*
X0272515Y0063882D01*
X0271631Y0064765D01*
X0264869Y0064765D01*
X0263985Y0063882D01*
X0263985Y0060330D01*
X0262515Y0058859D01*
X0262515Y0063882D01*
X0261631Y0064765D01*
X0254869Y0064765D01*
X0253985Y0063882D01*
X0253985Y0060718D01*
X0252515Y0059248D01*
X0252515Y0063882D01*
X0251631Y0064765D01*
X0244869Y0064765D01*
X0243985Y0063882D01*
X0243985Y0062262D01*
X0242515Y0060791D01*
X0242515Y0063882D01*
X0241631Y0064765D01*
X0234869Y0064765D01*
X0233985Y0063882D01*
X0233985Y0060342D01*
X0233006Y0059362D01*
X0232515Y0059362D01*
X0232515Y0063882D01*
X0231631Y0064765D01*
X0224869Y0064765D01*
X0223985Y0063882D01*
X0223985Y0060731D01*
X0222515Y0059260D01*
X0222515Y0063882D01*
X0221631Y0064765D01*
X0214869Y0064765D01*
X0213985Y0063882D01*
X0213985Y0059966D01*
X0212515Y0058495D01*
X0212515Y0063882D01*
X0211631Y0064765D01*
X0204869Y0064765D01*
X0203985Y0063882D01*
X0203985Y0057907D01*
X0204869Y0057024D01*
X0205258Y0057024D01*
X0205258Y0030720D01*
X0204762Y0030224D01*
X0204258Y0029008D01*
X0204258Y0027691D01*
X0204762Y0026475D01*
X0205196Y0026041D01*
X0152220Y0026041D01*
X0151724Y0026537D01*
X0150508Y0027041D01*
X0149192Y0027041D01*
X0147976Y0026537D01*
X0147480Y0026041D01*
X0081806Y0026041D01*
X0081310Y0026537D01*
X0080094Y0027041D01*
X0078778Y0027041D01*
X0077562Y0026537D01*
X0076631Y0025606D01*
X0076127Y0024390D01*
X0076127Y0023074D01*
X0076631Y0021858D01*
X0077562Y0020927D01*
X0078778Y0020424D01*
X0080094Y0020424D01*
X0081310Y0020927D01*
X0081806Y0021424D01*
X0147480Y0021424D01*
X0147976Y0020927D01*
X0149192Y0020424D01*
X0150508Y0020424D01*
X0151724Y0020927D01*
X0152220Y0021424D01*
X0228283Y0021424D01*
X0228779Y0020927D01*
X0229995Y0020424D01*
X0231006Y0020424D01*
X0226234Y0015652D01*
X0161591Y0015652D01*
X0159128Y0013189D01*
X0158427Y0013189D01*
X0157210Y0012685D01*
X0156280Y0011755D01*
X0155776Y0010538D01*
X0155776Y0009880D01*
X0145294Y0009880D01*
X0144798Y0010377D01*
X0143582Y0010880D01*
X0142266Y0010880D01*
X0141050Y0010377D01*
X0140119Y0009446D01*
X0139657Y0008331D01*
X0130072Y0017917D01*
X0130072Y0018619D01*
X0129568Y0019835D01*
X0128638Y0020766D01*
X0127422Y0021269D01*
X0126105Y0021269D01*
X0124889Y0020766D01*
X0123958Y0019835D01*
X0123455Y0018619D01*
X0123455Y0017302D01*
X0123958Y0016086D01*
X0124889Y0015156D01*
X0126105Y0014652D01*
X0126807Y0014652D01*
X0137875Y0003584D01*
X0005034Y0003584D01*
X0005034Y0109976D01*
X0293243Y0109976D01*
X0291648Y0108381D01*
X0290296Y0107029D01*
X0290296Y0071514D01*
X0290105Y0071049D01*
X0290296Y0070595D01*
X0290296Y0070104D01*
X0290651Y0069748D01*
X0290845Y0069285D01*
X0291300Y0069099D01*
X0291648Y0068751D01*
X0292150Y0068751D01*
X0296980Y0066775D01*
X0286259Y0056054D01*
X0284907Y0054701D01*
X0284907Y0032967D01*
X0282400Y0032967D01*
X0286061Y0030658D02*
X0287215Y0031813D01*
X0287215Y0053745D01*
X0301067Y0067597D01*
X0292604Y0071060D01*
X0292604Y0106072D01*
X0294722Y0108190D01*
X0347241Y0108190D01*
X0348250Y0106800D01*
X0352209Y0108900D02*
X0354291Y0108900D01*
X0354468Y0109327D02*
X0353789Y0107687D01*
X0353789Y0105913D01*
X0354468Y0104273D01*
X0355723Y0103018D01*
X0357363Y0102339D01*
X0359137Y0102339D01*
X0360777Y0103018D01*
X0361140Y0103381D01*
X0371680Y0103381D01*
X0373790Y0101270D01*
X0374025Y0101036D01*
X0374025Y0098087D01*
X0372475Y0098087D01*
X0372475Y0102261D01*
X0369470Y0102261D01*
X0369012Y0102139D01*
X0368601Y0101902D01*
X0368266Y0101567D01*
X0368250Y0101538D01*
X0368234Y0101567D01*
X0367899Y0101902D01*
X0367488Y0102139D01*
X0367030Y0102261D01*
X0364025Y0102261D01*
X0364025Y0098087D01*
X0362475Y0098087D01*
X0362475Y0102261D01*
X0359470Y0102261D01*
X0359012Y0102139D01*
X0358601Y0101902D01*
X0358266Y0101567D01*
X0358250Y0101538D01*
X0358234Y0101567D01*
X0357899Y0101902D01*
X0357488Y0102139D01*
X0357030Y0102261D01*
X0354025Y0102261D01*
X0354025Y0098087D01*
X0352475Y0098087D01*
X0352475Y0102261D01*
X0349470Y0102261D01*
X0349012Y0102139D01*
X0348601Y0101902D01*
X0348266Y0101567D01*
X0348250Y0101538D01*
X0348234Y0101567D01*
X0347899Y0101902D01*
X0347488Y0102139D01*
X0347030Y0102261D01*
X0344025Y0102261D01*
X0344025Y0098087D01*
X0342475Y0098087D01*
X0342475Y0102261D01*
X0339470Y0102261D01*
X0339012Y0102139D01*
X0338601Y0101902D01*
X0338266Y0101567D01*
X0338250Y0101538D01*
X0338234Y0101567D01*
X0337899Y0101902D01*
X0337488Y0102139D01*
X0337030Y0102261D01*
X0334025Y0102261D01*
X0334025Y0098087D01*
X0332475Y0098087D01*
X0332475Y0102261D01*
X0329470Y0102261D01*
X0329012Y0102139D01*
X0328601Y0101902D01*
X0328266Y0101567D01*
X0328250Y0101538D01*
X0328234Y0101567D01*
X0327899Y0101902D01*
X0327488Y0102139D01*
X0327030Y0102261D01*
X0324025Y0102261D01*
X0324025Y0098087D01*
X0322475Y0098087D01*
X0322475Y0102261D01*
X0319470Y0102261D01*
X0319012Y0102139D01*
X0318601Y0101902D01*
X0318266Y0101567D01*
X0318250Y0101538D01*
X0318234Y0101567D01*
X0317899Y0101902D01*
X0317488Y0102139D01*
X0317030Y0102261D01*
X0314025Y0102261D01*
X0314025Y0098087D01*
X0312475Y0098087D01*
X0312475Y0102261D01*
X0309470Y0102261D01*
X0309012Y0102139D01*
X0308601Y0101902D01*
X0308266Y0101567D01*
X0308250Y0101538D01*
X0308234Y0101567D01*
X0307899Y0101902D01*
X0307488Y0102139D01*
X0307030Y0102261D01*
X0304025Y0102261D01*
X0304025Y0098087D01*
X0302475Y0098087D01*
X0302475Y0102261D01*
X0299470Y0102261D01*
X0299012Y0102139D01*
X0298601Y0101902D01*
X0298266Y0101567D01*
X0298029Y0101156D01*
X0297907Y0100698D01*
X0297907Y0098087D01*
X0302475Y0098087D01*
X0302475Y0096537D01*
X0297907Y0096537D01*
X0297907Y0093925D01*
X0298029Y0093467D01*
X0298266Y0093057D01*
X0298601Y0092722D01*
X0299012Y0092485D01*
X0299470Y0092362D01*
X0302475Y0092362D01*
X0302475Y0096537D01*
X0304025Y0096537D01*
X0304025Y0098087D01*
X0312475Y0098087D01*
X0312475Y0096537D01*
X0307907Y0096537D01*
X0304025Y0096537D01*
X0304025Y0092362D01*
X0307030Y0092362D01*
X0307488Y0092485D01*
X0307899Y0092722D01*
X0308234Y0093057D01*
X0308250Y0093085D01*
X0308266Y0093057D01*
X0308601Y0092722D01*
X0309012Y0092485D01*
X0309470Y0092362D01*
X0312475Y0092362D01*
X0312475Y0096537D01*
X0314025Y0096537D01*
X0314025Y0098087D01*
X0322475Y0098087D01*
X0322475Y0096537D01*
X0318593Y0096537D01*
X0314025Y0096537D01*
X0314025Y0092362D01*
X0317030Y0092362D01*
X0317488Y0092485D01*
X0317899Y0092722D01*
X0318234Y0093057D01*
X0318250Y0093085D01*
X0318266Y0093057D01*
X0318601Y0092722D01*
X0319012Y0092485D01*
X0319470Y0092362D01*
X0322475Y0092362D01*
X0322475Y0096537D01*
X0324025Y0096537D01*
X0324025Y0098087D01*
X0332475Y0098087D01*
X0332475Y0096537D01*
X0328593Y0096537D01*
X0324025Y0096537D01*
X0324025Y0092362D01*
X0327030Y0092362D01*
X0327488Y0092485D01*
X0327899Y0092722D01*
X0328234Y0093057D01*
X0328250Y0093085D01*
X0328266Y0093057D01*
X0328601Y0092722D01*
X0329012Y0092485D01*
X0329470Y0092362D01*
X0332475Y0092362D01*
X0332475Y0096537D01*
X0334025Y0096537D01*
X0334025Y0098087D01*
X0342475Y0098087D01*
X0342475Y0096537D01*
X0337907Y0096537D01*
X0334025Y0096537D01*
X0334025Y0092362D01*
X0337030Y0092362D01*
X0337488Y0092485D01*
X0337899Y0092722D01*
X0338234Y0093057D01*
X0338250Y0093085D01*
X0338266Y0093057D01*
X0338601Y0092722D01*
X0339012Y0092485D01*
X0339470Y0092362D01*
X0342475Y0092362D01*
X0342475Y0096537D01*
X0344025Y0096537D01*
X0344025Y0098087D01*
X0352475Y0098087D01*
X0352475Y0096537D01*
X0347907Y0096537D01*
X0344025Y0096537D01*
X0344025Y0092362D01*
X0347030Y0092362D01*
X0347488Y0092485D01*
X0347899Y0092722D01*
X0348234Y0093057D01*
X0348250Y0093085D01*
X0348266Y0093057D01*
X0348601Y0092722D01*
X0349012Y0092485D01*
X0349470Y0092362D01*
X0352475Y0092362D01*
X0352475Y0096537D01*
X0354025Y0096537D01*
X0354025Y0098087D01*
X0362475Y0098087D01*
X0362475Y0096537D01*
X0357907Y0096537D01*
X0354025Y0096537D01*
X0354025Y0092362D01*
X0357030Y0092362D01*
X0357488Y0092485D01*
X0357899Y0092722D01*
X0358234Y0093057D01*
X0358250Y0093085D01*
X0358266Y0093057D01*
X0358601Y0092722D01*
X0359012Y0092485D01*
X0359470Y0092362D01*
X0362475Y0092362D01*
X0362475Y0096537D01*
X0364025Y0096537D01*
X0364025Y0098087D01*
X0372475Y0098087D01*
X0372475Y0096537D01*
X0368593Y0096537D01*
X0364025Y0096537D01*
X0364025Y0092362D01*
X0367030Y0092362D01*
X0367488Y0092485D01*
X0367899Y0092722D01*
X0368234Y0093057D01*
X0368250Y0093085D01*
X0368266Y0093057D01*
X0368601Y0092722D01*
X0369012Y0092485D01*
X0369470Y0092362D01*
X0372475Y0092362D01*
X0372475Y0096537D01*
X0374025Y0096537D01*
X0374025Y0098087D01*
X0378128Y0098087D01*
X0391105Y0085110D01*
X0391105Y0050254D01*
X0390777Y0050582D01*
X0389137Y0051261D01*
X0387363Y0051261D01*
X0385723Y0050582D01*
X0384468Y0049327D01*
X0383789Y0047687D01*
X0383789Y0045913D01*
X0384468Y0044273D01*
X0385723Y0043018D01*
X0387363Y0042339D01*
X0387977Y0042339D01*
X0371525Y0025887D01*
X0370823Y0025887D01*
X0369607Y0025383D01*
X0369111Y0024887D01*
X0356673Y0024887D01*
X0347439Y0015652D01*
X0247012Y0015652D01*
X0244549Y0013189D01*
X0243847Y0013189D01*
X0242631Y0012685D01*
X0241700Y0011755D01*
X0241196Y0010538D01*
X0241196Y0009222D01*
X0241700Y0008006D01*
X0242631Y0007075D01*
X0243847Y0006572D01*
X0245163Y0006572D01*
X0246379Y0007075D01*
X0247310Y0008006D01*
X0247814Y0009222D01*
X0247814Y0009924D01*
X0248924Y0011035D01*
X0250637Y0011035D01*
X0250431Y0010538D01*
X0250431Y0009222D01*
X0250935Y0008006D01*
X0251866Y0007075D01*
X0253082Y0006572D01*
X0254398Y0006572D01*
X0255614Y0007075D01*
X0256110Y0007572D01*
X0334481Y0007572D01*
X0334977Y0007075D01*
X0336193Y0006572D01*
X0337510Y0006572D01*
X0338726Y0007075D01*
X0339657Y0008006D01*
X0340160Y0009222D01*
X0340160Y0010538D01*
X0339955Y0011035D01*
X0349351Y0011035D01*
X0350704Y0012387D01*
X0358586Y0020269D01*
X0369111Y0020269D01*
X0369607Y0019773D01*
X0370823Y0019269D01*
X0372140Y0019269D01*
X0373356Y0019773D01*
X0374286Y0020704D01*
X0374790Y0021920D01*
X0374790Y0022622D01*
X0395167Y0042998D01*
X0395167Y0003584D01*
X0207998Y0003584D01*
X0210986Y0006572D01*
X0211688Y0006572D01*
X0212904Y0007075D01*
X0213400Y0007572D01*
X0237381Y0007572D01*
X0258313Y0028504D01*
X0259015Y0028504D01*
X0260231Y0029008D01*
X0261162Y0029938D01*
X0261666Y0031154D01*
X0261666Y0032471D01*
X0261162Y0033687D01*
X0260666Y0034183D01*
X0260666Y0042972D01*
X0260777Y0043018D01*
X0262032Y0044273D01*
X0262711Y0045913D01*
X0262711Y0046126D01*
X0280487Y0028350D01*
X0287017Y0028350D01*
X0288370Y0029702D01*
X0289524Y0030856D01*
X0289524Y0052789D01*
X0298985Y0062250D01*
X0298985Y0057907D01*
X0299869Y0057024D01*
X0301067Y0057024D01*
X0301067Y0052333D01*
X0299941Y0052800D01*
X0296559Y0052800D01*
X0293435Y0051506D01*
X0291044Y0049115D01*
X0291044Y0049115D01*
X0289750Y0045991D01*
X0289750Y0042609D01*
X0291044Y0039485D01*
X0293435Y0037094D01*
X0293435Y0037094D01*
X0296559Y0035800D01*
X0299941Y0035800D01*
X0303065Y0037094D01*
X0305456Y0039485D01*
X0305456Y0039485D01*
X0306750Y0042609D01*
X0306750Y0045952D01*
X0328926Y0023776D01*
X0328926Y0023074D01*
X0329429Y0021858D01*
X0330360Y0020927D01*
X0331576Y0020424D01*
X0332892Y0020424D01*
X0334108Y0020927D01*
X0335039Y0021858D01*
X0335543Y0023074D01*
X0335543Y0024390D01*
X0335039Y0025606D01*
X0334108Y0026537D01*
X0332892Y0027041D01*
X0332191Y0027041D01*
X0305685Y0053547D01*
X0305685Y0057024D01*
X0306067Y0057024D01*
X0340315Y0022776D01*
X0341667Y0021424D01*
X0347179Y0021424D01*
X0347675Y0020927D01*
X0348891Y0020424D01*
X0350207Y0020424D01*
X0351423Y0020927D01*
X0352354Y0021858D01*
X0352858Y0023074D01*
X0352858Y0024390D01*
X0352354Y0025606D01*
X0351423Y0026537D01*
X0350207Y0027041D01*
X0348891Y0027041D01*
X0347675Y0026537D01*
X0347179Y0026041D01*
X0343580Y0026041D01*
X0312597Y0057024D01*
X0314147Y0057024D01*
X0323154Y0048017D01*
X0323154Y0047315D01*
X0323658Y0046099D01*
X0324588Y0045168D01*
X0325804Y0044665D01*
X0327121Y0044665D01*
X0328337Y0045168D01*
X0329268Y0046099D01*
X0329348Y0046294D01*
X0329429Y0046099D01*
X0330360Y0045168D01*
X0331576Y0044665D01*
X0332892Y0044665D01*
X0334108Y0045168D01*
X0335039Y0046099D01*
X0335543Y0047315D01*
X0335543Y0048631D01*
X0335039Y0049847D01*
X0334108Y0050778D01*
X0332892Y0051282D01*
X0332191Y0051282D01*
X0326463Y0057010D01*
X0326463Y0057024D01*
X0326631Y0057024D01*
X0327515Y0057907D01*
X0327515Y0063882D01*
X0326631Y0064765D01*
X0319869Y0064765D01*
X0318985Y0063882D01*
X0318985Y0058715D01*
X0317515Y0060186D01*
X0317515Y0063882D01*
X0316631Y0064765D01*
X0310302Y0064765D01*
X0310302Y0065090D01*
X0308950Y0066443D01*
X0307795Y0067597D01*
X0304332Y0067597D01*
X0303376Y0068553D01*
X0303376Y0068553D01*
X0303094Y0068835D01*
X0306631Y0068835D01*
X0307515Y0069718D01*
X0307515Y0075693D01*
X0306631Y0076576D01*
X0305559Y0076576D01*
X0305559Y0081630D01*
X0307418Y0081630D01*
X0308250Y0082462D01*
X0309082Y0081630D01*
X0310941Y0081630D01*
X0310941Y0076576D01*
X0309869Y0076576D01*
X0308985Y0075693D01*
X0308985Y0069718D01*
X0309869Y0068835D01*
X0316631Y0068835D01*
X0317515Y0069718D01*
X0317515Y0075693D01*
X0316631Y0076576D01*
X0315559Y0076576D01*
X0315559Y0081630D01*
X0317418Y0081630D01*
X0318250Y0082462D01*
X0319082Y0081630D01*
X0320941Y0081630D01*
X0320941Y0076576D01*
X0319869Y0076576D01*
X0318985Y0075693D01*
X0318985Y0069718D01*
X0319869Y0068835D01*
X0326631Y0068835D01*
X0327515Y0069718D01*
X0327515Y0075693D01*
X0326631Y0076576D01*
X0325559Y0076576D01*
X0325559Y0081630D01*
X0327418Y0081630D01*
X0328250Y0082462D01*
X0329082Y0081630D01*
X0330941Y0081630D01*
X0330941Y0076576D01*
X0329869Y0076576D01*
X0328985Y0075693D01*
X0328985Y0069718D01*
X0329869Y0068835D01*
X0336631Y0068835D01*
X0337515Y0069718D01*
X0337515Y0075693D01*
X0336631Y0076576D01*
X0335559Y0076576D01*
X0335559Y0081630D01*
X0337418Y0081630D01*
X0338250Y0082462D01*
X0339082Y0081630D01*
X0340941Y0081630D01*
X0340941Y0076576D01*
X0339869Y0076576D01*
X0338985Y0075693D01*
X0338985Y0069718D01*
X0339869Y0068835D01*
X0346631Y0068835D01*
X0347515Y0069718D01*
X0347515Y0075693D01*
X0346631Y0076576D01*
X0345559Y0076576D01*
X0345559Y0081630D01*
X0347418Y0081630D01*
X0348250Y0082462D01*
X0349082Y0081630D01*
X0350941Y0081630D01*
X0350941Y0076576D01*
X0349869Y0076576D01*
X0348985Y0075693D01*
X0348985Y0069718D01*
X0349869Y0068835D01*
X0356631Y0068835D01*
X0357515Y0069718D01*
X0357515Y0075693D01*
X0356631Y0076576D01*
X0355559Y0076576D01*
X0355559Y0081630D01*
X0357418Y0081630D01*
X0358250Y0082462D01*
X0359082Y0081630D01*
X0360941Y0081630D01*
X0360941Y0076576D01*
X0359869Y0076576D01*
X0358985Y0075693D01*
X0358985Y0069718D01*
X0359869Y0068835D01*
X0366631Y0068835D01*
X0367515Y0069718D01*
X0367515Y0075693D01*
X0366631Y0076576D01*
X0365559Y0076576D01*
X0365559Y0081630D01*
X0367418Y0081630D01*
X0368250Y0082462D01*
X0369082Y0081630D01*
X0370941Y0081630D01*
X0370941Y0076576D01*
X0369869Y0076576D01*
X0368985Y0075693D01*
X0368985Y0069718D01*
X0369869Y0068835D01*
X0376631Y0068835D01*
X0377515Y0069718D01*
X0377515Y0075693D01*
X0376631Y0076576D01*
X0375559Y0076576D01*
X0375559Y0081630D01*
X0377418Y0081630D01*
X0378302Y0082514D01*
X0378302Y0090063D01*
X0377418Y0090946D01*
X0369082Y0090946D01*
X0368250Y0090115D01*
X0367418Y0090946D01*
X0359082Y0090946D01*
X0358250Y0090115D01*
X0357418Y0090946D01*
X0349082Y0090946D01*
X0348250Y0090115D01*
X0347418Y0090946D01*
X0339082Y0090946D01*
X0338250Y0090115D01*
X0337418Y0090946D01*
X0329082Y0090946D01*
X0328250Y0090115D01*
X0327418Y0090946D01*
X0319082Y0090946D01*
X0318250Y0090115D01*
X0317418Y0090946D01*
X0309082Y0090946D01*
X0308250Y0090115D01*
X0307418Y0090946D01*
X0299082Y0090946D01*
X0298198Y0090063D01*
X0298198Y0082514D01*
X0299082Y0081630D01*
X0300941Y0081630D01*
X0300941Y0076576D01*
X0299869Y0076576D01*
X0298985Y0075693D01*
X0298985Y0070943D01*
X0294913Y0072610D01*
X0294913Y0105116D01*
X0295678Y0105881D01*
X0343802Y0105881D01*
X0344468Y0104273D01*
X0345723Y0103018D01*
X0347363Y0102339D01*
X0349137Y0102339D01*
X0350777Y0103018D01*
X0352032Y0104273D01*
X0352711Y0105913D01*
X0352711Y0107687D01*
X0352032Y0109327D01*
X0351383Y0109976D01*
X0355117Y0109976D01*
X0354468Y0109327D01*
X0353789Y0107302D02*
X0352711Y0107302D01*
X0352625Y0105703D02*
X0353875Y0105703D01*
X0358250Y0106800D02*
X0358784Y0105690D01*
X0372636Y0105690D01*
X0376099Y0102227D01*
X0377253Y0102227D01*
X0393414Y0086066D01*
X0393414Y0044510D01*
X0371481Y0022578D01*
X0357630Y0022578D01*
X0348395Y0013343D01*
X0247968Y0013343D01*
X0244505Y0009880D01*
X0241196Y0009793D02*
X0239602Y0009793D01*
X0241200Y0011391D02*
X0241550Y0011391D01*
X0242799Y0012990D02*
X0243366Y0012990D01*
X0244398Y0014588D02*
X0245948Y0014588D01*
X0245996Y0016187D02*
X0347973Y0016187D01*
X0349572Y0017785D02*
X0247595Y0017785D01*
X0249193Y0019384D02*
X0351170Y0019384D01*
X0351478Y0020982D02*
X0352769Y0020982D01*
X0357700Y0019384D02*
X0370547Y0019384D01*
X0372416Y0019384D02*
X0395167Y0019384D01*
X0395167Y0020982D02*
X0374402Y0020982D01*
X0374790Y0022581D02*
X0395167Y0022581D01*
X0395167Y0024179D02*
X0376348Y0024179D01*
X0377946Y0025778D02*
X0395167Y0025778D01*
X0395167Y0027376D02*
X0379545Y0027376D01*
X0381143Y0028975D02*
X0395167Y0028975D01*
X0395167Y0030573D02*
X0382742Y0030573D01*
X0376212Y0030573D02*
X0339047Y0030573D01*
X0340646Y0028975D02*
X0374613Y0028975D01*
X0373015Y0027376D02*
X0342244Y0027376D01*
X0337313Y0025778D02*
X0334868Y0025778D01*
X0335543Y0024179D02*
X0338911Y0024179D01*
X0340510Y0022581D02*
X0335338Y0022581D01*
X0332234Y0023732D02*
X0303376Y0052591D01*
X0303376Y0060671D01*
X0303250Y0060894D01*
X0298985Y0060945D02*
X0297680Y0060945D01*
X0298985Y0059346D02*
X0296082Y0059346D01*
X0294483Y0057748D02*
X0299145Y0057748D01*
X0301067Y0056149D02*
X0292885Y0056149D01*
X0291286Y0054551D02*
X0301067Y0054551D01*
X0301067Y0052952D02*
X0289688Y0052952D01*
X0289524Y0051354D02*
X0293283Y0051354D01*
X0293435Y0051506D02*
X0293435Y0051506D01*
X0291685Y0049755D02*
X0289524Y0049755D01*
X0289524Y0048157D02*
X0290647Y0048157D01*
X0289985Y0046558D02*
X0289524Y0046558D01*
X0284907Y0046558D02*
X0268809Y0046558D01*
X0269475Y0048157D02*
X0284907Y0048157D01*
X0284907Y0049755D02*
X0271631Y0049755D01*
X0268017Y0048157D02*
X0267210Y0048157D01*
X0265861Y0049755D02*
X0265612Y0049755D01*
X0265437Y0051354D02*
X0264013Y0051354D01*
X0264552Y0052952D02*
X0265793Y0052952D01*
X0265129Y0054551D02*
X0267620Y0054551D01*
X0261820Y0054899D02*
X0267592Y0060671D01*
X0268250Y0060894D01*
X0272515Y0060945D02*
X0273985Y0060945D01*
X0273985Y0062543D02*
X0272515Y0062543D01*
X0277981Y0060671D02*
X0278250Y0060894D01*
X0277981Y0060671D02*
X0268746Y0051436D01*
X0272055Y0051354D02*
X0284907Y0051354D01*
X0284907Y0052952D02*
X0273527Y0052952D01*
X0275126Y0054551D02*
X0284907Y0054551D01*
X0286355Y0056149D02*
X0276724Y0056149D01*
X0282355Y0057748D02*
X0287953Y0057748D01*
X0289552Y0059346D02*
X0282515Y0059346D01*
X0282515Y0060945D02*
X0291150Y0060945D01*
X0292749Y0062543D02*
X0282515Y0062543D01*
X0282254Y0064142D02*
X0294347Y0064142D01*
X0295946Y0065740D02*
X0005034Y0065740D01*
X0005034Y0064142D02*
X0014246Y0064142D01*
X0013985Y0063882D02*
X0014869Y0064765D01*
X0021631Y0064765D01*
X0022515Y0063882D01*
X0022515Y0057907D01*
X0021631Y0057024D01*
X0020565Y0057024D01*
X0020565Y0048035D01*
X0021061Y0047539D01*
X0021565Y0046323D01*
X0021565Y0045006D01*
X0021061Y0043790D01*
X0020130Y0042860D01*
X0018914Y0042356D01*
X0017598Y0042356D01*
X0016382Y0042860D01*
X0015451Y0043790D01*
X0014948Y0045006D01*
X0014948Y0046323D01*
X0015451Y0047539D01*
X0015948Y0048035D01*
X0015948Y0057024D01*
X0014869Y0057024D01*
X0013985Y0057907D01*
X0013985Y0063882D01*
X0013985Y0062543D02*
X0005034Y0062543D01*
X0005034Y0060945D02*
X0013985Y0060945D01*
X0013985Y0059346D02*
X0005034Y0059346D01*
X0005034Y0057748D02*
X0014145Y0057748D01*
X0015948Y0056149D02*
X0005034Y0056149D01*
X0005034Y0054551D02*
X0015948Y0054551D01*
X0015948Y0052952D02*
X0005034Y0052952D01*
X0005034Y0051354D02*
X0015948Y0051354D01*
X0015948Y0049755D02*
X0005034Y0049755D01*
X0005034Y0048157D02*
X0015948Y0048157D01*
X0015045Y0046558D02*
X0005034Y0046558D01*
X0005034Y0044960D02*
X0014967Y0044960D01*
X0015880Y0043361D02*
X0005034Y0043361D01*
X0005034Y0041763D02*
X0073423Y0041763D01*
X0075022Y0043361D02*
X0020632Y0043361D01*
X0021546Y0044960D02*
X0046898Y0044960D01*
X0046395Y0045168D02*
X0047611Y0044665D01*
X0048927Y0044665D01*
X0050143Y0045168D01*
X0051074Y0046099D01*
X0051578Y0047315D01*
X0051578Y0048631D01*
X0051074Y0049847D01*
X0050578Y0050344D01*
X0050578Y0057024D01*
X0051631Y0057024D01*
X0052515Y0057907D01*
X0052515Y0063882D01*
X0051631Y0064765D01*
X0044869Y0064765D01*
X0043985Y0063882D01*
X0043985Y0057907D01*
X0044869Y0057024D01*
X0045960Y0057024D01*
X0045960Y0050344D01*
X0045464Y0049847D01*
X0044960Y0048631D01*
X0044960Y0047315D01*
X0045464Y0046099D01*
X0046395Y0045168D01*
X0045274Y0046558D02*
X0041144Y0046558D01*
X0040908Y0046323D02*
X0041839Y0047253D01*
X0042343Y0048469D01*
X0042343Y0049786D01*
X0041839Y0051002D01*
X0041343Y0051498D01*
X0041343Y0057024D01*
X0041631Y0057024D01*
X0042515Y0057907D01*
X0042515Y0063882D01*
X0041631Y0064765D01*
X0034869Y0064765D01*
X0033985Y0063882D01*
X0033985Y0057907D01*
X0034869Y0057024D01*
X0036726Y0057024D01*
X0036726Y0051498D01*
X0036229Y0051002D01*
X0035726Y0049786D01*
X0035726Y0048469D01*
X0036229Y0047253D01*
X0037160Y0046323D01*
X0038376Y0045819D01*
X0039692Y0045819D01*
X0040908Y0046323D01*
X0042213Y0048157D02*
X0044960Y0048157D01*
X0045426Y0049755D02*
X0042343Y0049755D01*
X0039034Y0049128D02*
X0039034Y0060671D01*
X0038250Y0060894D01*
X0042515Y0060945D02*
X0043985Y0060945D01*
X0043985Y0062543D02*
X0042515Y0062543D01*
X0042254Y0064142D02*
X0044246Y0064142D01*
X0052254Y0064142D02*
X0054246Y0064142D01*
X0053985Y0063882D02*
X0054869Y0064765D01*
X0061631Y0064765D01*
X0062515Y0063882D01*
X0062515Y0057907D01*
X0061631Y0057024D01*
X0059812Y0057024D01*
X0059812Y0054961D01*
X0060308Y0054465D01*
X0060770Y0053350D01*
X0064656Y0057237D01*
X0063985Y0057907D01*
X0063985Y0063882D01*
X0064869Y0064765D01*
X0071631Y0064765D01*
X0072515Y0063882D01*
X0072515Y0059323D01*
X0073985Y0060794D01*
X0073985Y0063882D01*
X0074869Y0064765D01*
X0081631Y0064765D01*
X0082515Y0063882D01*
X0082515Y0058934D01*
X0083985Y0060405D01*
X0083985Y0063882D01*
X0084869Y0064765D01*
X0091631Y0064765D01*
X0092515Y0063882D01*
X0092515Y0062268D01*
X0092568Y0062321D01*
X0093784Y0062825D01*
X0095100Y0062825D01*
X0096316Y0062321D01*
X0097247Y0061391D01*
X0097751Y0060175D01*
X0097751Y0058858D01*
X0097247Y0057642D01*
X0096316Y0056712D01*
X0095100Y0056208D01*
X0094398Y0056208D01*
X0072355Y0034165D01*
X0072355Y0033463D01*
X0071852Y0032247D01*
X0070921Y0031316D01*
X0069705Y0030813D01*
X0068389Y0030813D01*
X0067173Y0031316D01*
X0066242Y0032247D01*
X0065738Y0033463D01*
X0065738Y0034779D01*
X0066242Y0035995D01*
X0067173Y0036926D01*
X0068389Y0037430D01*
X0069091Y0037430D01*
X0088684Y0057024D01*
X0087134Y0057024D01*
X0078127Y0048017D01*
X0078127Y0047315D01*
X0077623Y0046099D01*
X0076693Y0045168D01*
X0075477Y0044665D01*
X0074160Y0044665D01*
X0072944Y0045168D01*
X0072014Y0046099D01*
X0071510Y0047315D01*
X0071510Y0048631D01*
X0072014Y0049847D01*
X0072944Y0050778D01*
X0074160Y0051282D01*
X0074862Y0051282D01*
X0080604Y0057024D01*
X0076745Y0057024D01*
X0067738Y0048017D01*
X0067738Y0047315D01*
X0067234Y0046099D01*
X0066304Y0045168D01*
X0065088Y0044665D01*
X0063771Y0044665D01*
X0062555Y0045168D01*
X0061625Y0046099D01*
X0061544Y0046294D01*
X0061463Y0046099D01*
X0060532Y0045168D01*
X0059316Y0044665D01*
X0058000Y0044665D01*
X0056784Y0045168D01*
X0055853Y0046099D01*
X0055349Y0047315D01*
X0055349Y0048631D01*
X0055798Y0049716D01*
X0055629Y0049786D01*
X0054699Y0050716D01*
X0054195Y0051932D01*
X0054195Y0053249D01*
X0054699Y0054465D01*
X0055195Y0054961D01*
X0055195Y0057024D01*
X0054869Y0057024D01*
X0053985Y0057907D01*
X0053985Y0063882D01*
X0053985Y0062543D02*
X0052515Y0062543D01*
X0052515Y0060945D02*
X0053985Y0060945D01*
X0053985Y0059346D02*
X0052515Y0059346D01*
X0048269Y0060671D02*
X0048250Y0060894D01*
X0048269Y0060671D02*
X0048269Y0047973D01*
X0051264Y0046558D02*
X0055663Y0046558D01*
X0055349Y0048157D02*
X0051578Y0048157D01*
X0051112Y0049755D02*
X0055702Y0049755D01*
X0058658Y0047973D02*
X0067893Y0057208D01*
X0067893Y0060671D01*
X0068250Y0060894D01*
X0072515Y0060945D02*
X0073985Y0060945D01*
X0073985Y0062543D02*
X0072515Y0062543D01*
X0077127Y0060671D02*
X0078250Y0060894D01*
X0077127Y0060671D02*
X0064430Y0047973D01*
X0067425Y0046558D02*
X0071823Y0046558D01*
X0071510Y0048157D02*
X0067878Y0048157D01*
X0069477Y0049755D02*
X0071975Y0049755D01*
X0074819Y0047973D02*
X0087516Y0060671D01*
X0088250Y0060894D01*
X0092515Y0062543D02*
X0093104Y0062543D01*
X0095780Y0062543D02*
X0108985Y0062543D01*
X0108985Y0063882D02*
X0108985Y0057907D01*
X0109869Y0057024D01*
X0111757Y0057024D01*
X0111757Y0044572D01*
X0111261Y0044076D01*
X0110757Y0042860D01*
X0110757Y0041543D01*
X0111261Y0040327D01*
X0112192Y0039397D01*
X0113408Y0038893D01*
X0114724Y0038893D01*
X0115940Y0039397D01*
X0116871Y0040327D01*
X0117374Y0041543D01*
X0117374Y0042860D01*
X0116871Y0044076D01*
X0116374Y0044572D01*
X0116374Y0057024D01*
X0116631Y0057024D01*
X0117515Y0057907D01*
X0117515Y0063882D01*
X0116631Y0064765D01*
X0109869Y0064765D01*
X0108985Y0063882D01*
X0109246Y0064142D02*
X0092254Y0064142D01*
X0084246Y0064142D02*
X0082254Y0064142D01*
X0082515Y0062543D02*
X0083985Y0062543D01*
X0083985Y0060945D02*
X0082515Y0060945D01*
X0082515Y0059346D02*
X0082927Y0059346D01*
X0072538Y0059346D02*
X0072515Y0059346D01*
X0064145Y0057748D02*
X0062355Y0057748D01*
X0063569Y0056149D02*
X0059812Y0056149D01*
X0055195Y0056149D02*
X0050578Y0056149D01*
X0052355Y0057748D02*
X0054145Y0057748D01*
X0045960Y0056149D02*
X0041343Y0056149D01*
X0042355Y0057748D02*
X0044145Y0057748D01*
X0043985Y0059346D02*
X0042515Y0059346D01*
X0034145Y0057748D02*
X0032355Y0057748D01*
X0032515Y0057907D02*
X0032515Y0063882D01*
X0031631Y0064765D01*
X0024869Y0064765D01*
X0023985Y0063882D01*
X0023985Y0057907D01*
X0024869Y0057024D01*
X0026337Y0057024D01*
X0026337Y0053807D01*
X0025840Y0053310D01*
X0025337Y0052094D01*
X0025337Y0050778D01*
X0025840Y0049562D01*
X0026771Y0048631D01*
X0027987Y0048128D01*
X0029303Y0048128D01*
X0030519Y0048631D01*
X0031450Y0049562D01*
X0031954Y0050778D01*
X0031954Y0052094D01*
X0031450Y0053310D01*
X0030954Y0053807D01*
X0030954Y0057024D01*
X0031631Y0057024D01*
X0032515Y0057907D01*
X0030954Y0056149D02*
X0036726Y0056149D01*
X0036726Y0054551D02*
X0030954Y0054551D01*
X0031599Y0052952D02*
X0036726Y0052952D01*
X0036581Y0051354D02*
X0031954Y0051354D01*
X0028645Y0051436D02*
X0028645Y0060671D01*
X0028250Y0060894D01*
X0032515Y0060945D02*
X0033985Y0060945D01*
X0033985Y0062543D02*
X0032515Y0062543D01*
X0032254Y0064142D02*
X0034246Y0064142D01*
X0024246Y0064142D02*
X0022254Y0064142D01*
X0022515Y0062543D02*
X0023985Y0062543D01*
X0023985Y0060945D02*
X0022515Y0060945D01*
X0022515Y0059346D02*
X0023985Y0059346D01*
X0018256Y0060671D02*
X0018250Y0060894D01*
X0018256Y0060671D02*
X0018256Y0045665D01*
X0021467Y0046558D02*
X0036924Y0046558D01*
X0035855Y0048157D02*
X0029374Y0048157D01*
X0027916Y0048157D02*
X0020565Y0048157D01*
X0020565Y0049755D02*
X0025760Y0049755D01*
X0031530Y0049755D02*
X0035726Y0049755D01*
X0041487Y0051354D02*
X0045960Y0051354D01*
X0045960Y0052952D02*
X0041343Y0052952D01*
X0041343Y0054551D02*
X0045960Y0054551D01*
X0050578Y0054551D02*
X0054785Y0054551D01*
X0054195Y0052952D02*
X0050578Y0052952D01*
X0050578Y0051354D02*
X0054435Y0051354D01*
X0057504Y0052591D02*
X0057504Y0060671D01*
X0058250Y0060894D01*
X0062515Y0060945D02*
X0063985Y0060945D01*
X0063985Y0062543D02*
X0062515Y0062543D01*
X0062254Y0064142D02*
X0064246Y0064142D01*
X0072254Y0064142D02*
X0074246Y0064142D01*
X0074869Y0068835D02*
X0081631Y0068835D01*
X0082515Y0069718D01*
X0082515Y0075693D01*
X0081631Y0076576D01*
X0080559Y0076576D01*
X0080559Y0081630D01*
X0082418Y0081630D01*
X0083250Y0082462D01*
X0084082Y0081630D01*
X0085941Y0081630D01*
X0085941Y0076576D01*
X0084869Y0076576D01*
X0083985Y0075693D01*
X0083985Y0069718D01*
X0084869Y0068835D01*
X0091631Y0068835D01*
X0092515Y0069718D01*
X0092515Y0075693D01*
X0091631Y0076576D01*
X0090559Y0076576D01*
X0090559Y0081630D01*
X0092418Y0081630D01*
X0093302Y0082514D01*
X0093302Y0090063D01*
X0092418Y0090946D01*
X0084082Y0090946D01*
X0083250Y0090115D01*
X0082418Y0090946D01*
X0074082Y0090946D01*
X0073250Y0090115D01*
X0072418Y0090946D01*
X0064082Y0090946D01*
X0063250Y0090115D01*
X0062418Y0090946D01*
X0054082Y0090946D01*
X0053250Y0090115D01*
X0052418Y0090946D01*
X0044082Y0090946D01*
X0043250Y0090115D01*
X0042418Y0090946D01*
X0034082Y0090946D01*
X0033250Y0090115D01*
X0032418Y0090946D01*
X0024082Y0090946D01*
X0023250Y0090115D01*
X0022418Y0090946D01*
X0014082Y0090946D01*
X0013198Y0090063D01*
X0013198Y0082514D01*
X0014082Y0081630D01*
X0015941Y0081630D01*
X0015941Y0076576D01*
X0014869Y0076576D01*
X0013985Y0075693D01*
X0013985Y0069718D01*
X0014869Y0068835D01*
X0021631Y0068835D01*
X0022515Y0069718D01*
X0022515Y0075693D01*
X0021631Y0076576D01*
X0020559Y0076576D01*
X0020559Y0081630D01*
X0022418Y0081630D01*
X0023250Y0082462D01*
X0024082Y0081630D01*
X0025941Y0081630D01*
X0025941Y0076576D01*
X0024869Y0076576D01*
X0023985Y0075693D01*
X0023985Y0069718D01*
X0024869Y0068835D01*
X0031631Y0068835D01*
X0032515Y0069718D01*
X0032515Y0075693D01*
X0031631Y0076576D01*
X0030559Y0076576D01*
X0030559Y0081630D01*
X0032418Y0081630D01*
X0033250Y0082462D01*
X0034082Y0081630D01*
X0035941Y0081630D01*
X0035941Y0076576D01*
X0034869Y0076576D01*
X0033985Y0075693D01*
X0033985Y0069718D01*
X0034869Y0068835D01*
X0041631Y0068835D01*
X0042515Y0069718D01*
X0042515Y0075693D01*
X0041631Y0076576D01*
X0040559Y0076576D01*
X0040559Y0081630D01*
X0042418Y0081630D01*
X0043250Y0082462D01*
X0044082Y0081630D01*
X0045941Y0081630D01*
X0045941Y0076576D01*
X0044869Y0076576D01*
X0043985Y0075693D01*
X0043985Y0069718D01*
X0044869Y0068835D01*
X0051631Y0068835D01*
X0052515Y0069718D01*
X0052515Y0075693D01*
X0051631Y0076576D01*
X0050559Y0076576D01*
X0050559Y0081630D01*
X0052418Y0081630D01*
X0053250Y0082462D01*
X0054082Y0081630D01*
X0055941Y0081630D01*
X0055941Y0076576D01*
X0054869Y0076576D01*
X0053985Y0075693D01*
X0053985Y0069718D01*
X0054869Y0068835D01*
X0061631Y0068835D01*
X0062515Y0069718D01*
X0062515Y0075693D01*
X0061631Y0076576D01*
X0060559Y0076576D01*
X0060559Y0081630D01*
X0062418Y0081630D01*
X0063250Y0082462D01*
X0064082Y0081630D01*
X0065941Y0081630D01*
X0065941Y0076576D01*
X0064869Y0076576D01*
X0063985Y0075693D01*
X0063985Y0069718D01*
X0064869Y0068835D01*
X0071631Y0068835D01*
X0072515Y0069718D01*
X0072515Y0075693D01*
X0071631Y0076576D01*
X0070559Y0076576D01*
X0070559Y0081630D01*
X0072418Y0081630D01*
X0073250Y0082462D01*
X0074082Y0081630D01*
X0075941Y0081630D01*
X0075941Y0076576D01*
X0074869Y0076576D01*
X0073985Y0075693D01*
X0073985Y0069718D01*
X0074869Y0068835D01*
X0074766Y0068937D02*
X0071734Y0068937D01*
X0072515Y0070536D02*
X0073985Y0070536D01*
X0073985Y0072134D02*
X0072515Y0072134D01*
X0068250Y0072706D02*
X0068250Y0086288D01*
X0078250Y0086288D02*
X0078250Y0072706D01*
X0082515Y0072134D02*
X0083985Y0072134D01*
X0083985Y0070536D02*
X0082515Y0070536D01*
X0081734Y0068937D02*
X0084766Y0068937D01*
X0091734Y0068937D02*
X0109766Y0068937D01*
X0109869Y0068835D02*
X0116631Y0068835D01*
X0117515Y0069718D01*
X0117515Y0075693D01*
X0116631Y0076576D01*
X0115559Y0076576D01*
X0115559Y0081630D01*
X0117418Y0081630D01*
X0118250Y0082462D01*
X0119082Y0081630D01*
X0120941Y0081630D01*
X0120941Y0076576D01*
X0119869Y0076576D01*
X0118985Y0075693D01*
X0118985Y0069718D01*
X0119869Y0068835D01*
X0126631Y0068835D01*
X0127515Y0069718D01*
X0127515Y0075693D01*
X0126631Y0076576D01*
X0125559Y0076576D01*
X0125559Y0081630D01*
X0127418Y0081630D01*
X0128250Y0082462D01*
X0129082Y0081630D01*
X0130941Y0081630D01*
X0130941Y0076576D01*
X0129869Y0076576D01*
X0128985Y0075693D01*
X0128985Y0069718D01*
X0129869Y0068835D01*
X0136631Y0068835D01*
X0137515Y0069718D01*
X0137515Y0075693D01*
X0136631Y0076576D01*
X0135559Y0076576D01*
X0135559Y0081630D01*
X0137418Y0081630D01*
X0138250Y0082462D01*
X0139082Y0081630D01*
X0140941Y0081630D01*
X0140941Y0076576D01*
X0139869Y0076576D01*
X0138985Y0075693D01*
X0138985Y0069718D01*
X0139869Y0068835D01*
X0146631Y0068835D01*
X0147515Y0069718D01*
X0147515Y0075693D01*
X0146631Y0076576D01*
X0145559Y0076576D01*
X0145559Y0081630D01*
X0147418Y0081630D01*
X0148250Y0082462D01*
X0149082Y0081630D01*
X0150941Y0081630D01*
X0150941Y0076576D01*
X0149869Y0076576D01*
X0148985Y0075693D01*
X0148985Y0069718D01*
X0149869Y0068835D01*
X0156631Y0068835D01*
X0157515Y0069718D01*
X0157515Y0075693D01*
X0156631Y0076576D01*
X0155559Y0076576D01*
X0155559Y0081630D01*
X0157418Y0081630D01*
X0158250Y0082462D01*
X0159082Y0081630D01*
X0160941Y0081630D01*
X0160941Y0076576D01*
X0159869Y0076576D01*
X0158985Y0075693D01*
X0158985Y0069718D01*
X0159869Y0068835D01*
X0166631Y0068835D01*
X0167515Y0069718D01*
X0167515Y0075693D01*
X0166631Y0076576D01*
X0165559Y0076576D01*
X0165559Y0081630D01*
X0167418Y0081630D01*
X0168250Y0082462D01*
X0169082Y0081630D01*
X0170941Y0081630D01*
X0170941Y0076576D01*
X0169869Y0076576D01*
X0168985Y0075693D01*
X0168985Y0069718D01*
X0169869Y0068835D01*
X0176631Y0068835D01*
X0177515Y0069718D01*
X0177515Y0075693D01*
X0176631Y0076576D01*
X0175559Y0076576D01*
X0175559Y0081630D01*
X0177418Y0081630D01*
X0178250Y0082462D01*
X0179082Y0081630D01*
X0180941Y0081630D01*
X0180941Y0076576D01*
X0179869Y0076576D01*
X0178985Y0075693D01*
X0178985Y0069718D01*
X0179869Y0068835D01*
X0186631Y0068835D01*
X0187515Y0069718D01*
X0187515Y0075693D01*
X0186631Y0076576D01*
X0185559Y0076576D01*
X0185559Y0081630D01*
X0187418Y0081630D01*
X0188302Y0082514D01*
X0188302Y0090063D01*
X0187418Y0090946D01*
X0179082Y0090946D01*
X0178250Y0090115D01*
X0177418Y0090946D01*
X0169082Y0090946D01*
X0168250Y0090115D01*
X0167418Y0090946D01*
X0159082Y0090946D01*
X0158250Y0090115D01*
X0157418Y0090946D01*
X0149082Y0090946D01*
X0148250Y0090115D01*
X0147418Y0090946D01*
X0139082Y0090946D01*
X0138250Y0090115D01*
X0137418Y0090946D01*
X0129082Y0090946D01*
X0128250Y0090115D01*
X0127418Y0090946D01*
X0119082Y0090946D01*
X0118250Y0090115D01*
X0117418Y0090946D01*
X0109082Y0090946D01*
X0108198Y0090063D01*
X0108198Y0082514D01*
X0109082Y0081630D01*
X0110941Y0081630D01*
X0110941Y0076576D01*
X0109869Y0076576D01*
X0108985Y0075693D01*
X0108985Y0069718D01*
X0109869Y0068835D01*
X0108985Y0070536D02*
X0092515Y0070536D01*
X0092515Y0072134D02*
X0108985Y0072134D01*
X0113250Y0072706D02*
X0113250Y0086288D01*
X0108198Y0086521D02*
X0093302Y0086521D01*
X0093302Y0084923D02*
X0108198Y0084923D01*
X0108198Y0083324D02*
X0093302Y0083324D01*
X0092514Y0081726D02*
X0108986Y0081726D01*
X0110941Y0080127D02*
X0090559Y0080127D01*
X0090559Y0078529D02*
X0110941Y0078529D01*
X0115559Y0078529D02*
X0120941Y0078529D01*
X0120941Y0080127D02*
X0115559Y0080127D01*
X0117514Y0081726D02*
X0118986Y0081726D01*
X0125559Y0080127D02*
X0130941Y0080127D01*
X0130941Y0078529D02*
X0125559Y0078529D01*
X0125559Y0076930D02*
X0130941Y0076930D01*
X0128985Y0075332D02*
X0127515Y0075332D01*
X0127515Y0073733D02*
X0128985Y0073733D01*
X0133250Y0072706D02*
X0133250Y0086288D01*
X0143250Y0086288D02*
X0143250Y0072706D01*
X0147515Y0072134D02*
X0148985Y0072134D01*
X0148985Y0070536D02*
X0147515Y0070536D01*
X0146734Y0068937D02*
X0149766Y0068937D01*
X0156734Y0068937D02*
X0159766Y0068937D01*
X0158985Y0070536D02*
X0157515Y0070536D01*
X0157515Y0072134D02*
X0158985Y0072134D01*
X0163250Y0072706D02*
X0163250Y0086288D01*
X0153250Y0086288D02*
X0153250Y0072706D01*
X0157515Y0073733D02*
X0158985Y0073733D01*
X0158985Y0075332D02*
X0157515Y0075332D01*
X0155559Y0076930D02*
X0160941Y0076930D01*
X0165559Y0076930D02*
X0170941Y0076930D01*
X0168985Y0075332D02*
X0167515Y0075332D01*
X0167515Y0073733D02*
X0168985Y0073733D01*
X0173250Y0072706D02*
X0173250Y0086288D01*
X0183250Y0086288D02*
X0183250Y0072706D01*
X0187515Y0072134D02*
X0203985Y0072134D01*
X0203985Y0070536D02*
X0187515Y0070536D01*
X0186734Y0068937D02*
X0204766Y0068937D01*
X0204869Y0068835D02*
X0211631Y0068835D01*
X0212515Y0069718D01*
X0212515Y0075693D01*
X0211631Y0076576D01*
X0210559Y0076576D01*
X0210559Y0081630D01*
X0212418Y0081630D01*
X0213250Y0082462D01*
X0214082Y0081630D01*
X0215941Y0081630D01*
X0215941Y0076576D01*
X0214869Y0076576D01*
X0213985Y0075693D01*
X0213985Y0069718D01*
X0214869Y0068835D01*
X0221631Y0068835D01*
X0222515Y0069718D01*
X0222515Y0075693D01*
X0221631Y0076576D01*
X0220559Y0076576D01*
X0220559Y0081630D01*
X0222418Y0081630D01*
X0223250Y0082462D01*
X0224082Y0081630D01*
X0225941Y0081630D01*
X0225941Y0076576D01*
X0224869Y0076576D01*
X0223985Y0075693D01*
X0223985Y0069718D01*
X0224869Y0068835D01*
X0231631Y0068835D01*
X0232515Y0069718D01*
X0232515Y0075693D01*
X0231631Y0076576D01*
X0230559Y0076576D01*
X0230559Y0081630D01*
X0232418Y0081630D01*
X0233250Y0082462D01*
X0234082Y0081630D01*
X0235941Y0081630D01*
X0235941Y0076576D01*
X0234869Y0076576D01*
X0233985Y0075693D01*
X0233985Y0069718D01*
X0234869Y0068835D01*
X0241631Y0068835D01*
X0242515Y0069718D01*
X0242515Y0075693D01*
X0241631Y0076576D01*
X0240559Y0076576D01*
X0240559Y0081630D01*
X0242418Y0081630D01*
X0243250Y0082462D01*
X0244082Y0081630D01*
X0245941Y0081630D01*
X0245941Y0076576D01*
X0244869Y0076576D01*
X0243985Y0075693D01*
X0243985Y0069718D01*
X0244869Y0068835D01*
X0251631Y0068835D01*
X0252515Y0069718D01*
X0252515Y0075693D01*
X0251631Y0076576D01*
X0250559Y0076576D01*
X0250559Y0081630D01*
X0252418Y0081630D01*
X0253250Y0082462D01*
X0254082Y0081630D01*
X0255941Y0081630D01*
X0255941Y0076576D01*
X0254869Y0076576D01*
X0253985Y0075693D01*
X0253985Y0069718D01*
X0254869Y0068835D01*
X0261631Y0068835D01*
X0262515Y0069718D01*
X0262515Y0075693D01*
X0261631Y0076576D01*
X0260559Y0076576D01*
X0260559Y0081630D01*
X0262418Y0081630D01*
X0263250Y0082462D01*
X0264082Y0081630D01*
X0265941Y0081630D01*
X0265941Y0076576D01*
X0264869Y0076576D01*
X0263985Y0075693D01*
X0263985Y0069718D01*
X0264869Y0068835D01*
X0271631Y0068835D01*
X0272515Y0069718D01*
X0272515Y0075693D01*
X0271631Y0076576D01*
X0270559Y0076576D01*
X0270559Y0081630D01*
X0272418Y0081630D01*
X0273250Y0082462D01*
X0274082Y0081630D01*
X0275941Y0081630D01*
X0275941Y0076576D01*
X0274869Y0076576D01*
X0273985Y0075693D01*
X0273985Y0069718D01*
X0274869Y0068835D01*
X0281631Y0068835D01*
X0282515Y0069718D01*
X0282515Y0075693D01*
X0281631Y0076576D01*
X0280559Y0076576D01*
X0280559Y0081630D01*
X0282418Y0081630D01*
X0283302Y0082514D01*
X0283302Y0090063D01*
X0282418Y0090946D01*
X0274082Y0090946D01*
X0273250Y0090115D01*
X0272418Y0090946D01*
X0264082Y0090946D01*
X0263250Y0090115D01*
X0262418Y0090946D01*
X0254082Y0090946D01*
X0253250Y0090115D01*
X0252418Y0090946D01*
X0244082Y0090946D01*
X0243250Y0090115D01*
X0242418Y0090946D01*
X0234082Y0090946D01*
X0233250Y0090115D01*
X0232418Y0090946D01*
X0224082Y0090946D01*
X0223250Y0090115D01*
X0222418Y0090946D01*
X0214082Y0090946D01*
X0213250Y0090115D01*
X0212418Y0090946D01*
X0204082Y0090946D01*
X0203198Y0090063D01*
X0203198Y0082514D01*
X0204082Y0081630D01*
X0205941Y0081630D01*
X0205941Y0076576D01*
X0204869Y0076576D01*
X0203985Y0075693D01*
X0203985Y0069718D01*
X0204869Y0068835D01*
X0211734Y0068937D02*
X0214766Y0068937D01*
X0213985Y0070536D02*
X0212515Y0070536D01*
X0212515Y0072134D02*
X0213985Y0072134D01*
X0218250Y0072706D02*
X0218250Y0086288D01*
X0208250Y0086288D02*
X0208250Y0072706D01*
X0212515Y0073733D02*
X0213985Y0073733D01*
X0213985Y0075332D02*
X0212515Y0075332D01*
X0210559Y0076930D02*
X0215941Y0076930D01*
X0215941Y0078529D02*
X0210559Y0078529D01*
X0210559Y0080127D02*
X0215941Y0080127D01*
X0213986Y0081726D02*
X0212514Y0081726D01*
X0205941Y0080127D02*
X0185559Y0080127D01*
X0185559Y0078529D02*
X0205941Y0078529D01*
X0205941Y0076930D02*
X0185559Y0076930D01*
X0187515Y0075332D02*
X0203985Y0075332D01*
X0203985Y0073733D02*
X0187515Y0073733D01*
X0180941Y0076930D02*
X0175559Y0076930D01*
X0177515Y0075332D02*
X0178985Y0075332D01*
X0178985Y0073733D02*
X0177515Y0073733D01*
X0177515Y0072134D02*
X0178985Y0072134D01*
X0178985Y0070536D02*
X0177515Y0070536D01*
X0176734Y0068937D02*
X0179766Y0068937D01*
X0169766Y0068937D02*
X0166734Y0068937D01*
X0167515Y0070536D02*
X0168985Y0070536D01*
X0168985Y0072134D02*
X0167515Y0072134D01*
X0150941Y0076930D02*
X0145559Y0076930D01*
X0147515Y0075332D02*
X0148985Y0075332D01*
X0148985Y0073733D02*
X0147515Y0073733D01*
X0140941Y0076930D02*
X0135559Y0076930D01*
X0137515Y0075332D02*
X0138985Y0075332D01*
X0138985Y0073733D02*
X0137515Y0073733D01*
X0137515Y0072134D02*
X0138985Y0072134D01*
X0138985Y0070536D02*
X0137515Y0070536D01*
X0136734Y0068937D02*
X0139766Y0068937D01*
X0129766Y0068937D02*
X0126734Y0068937D01*
X0127515Y0070536D02*
X0128985Y0070536D01*
X0128985Y0072134D02*
X0127515Y0072134D01*
X0123250Y0072706D02*
X0123250Y0086288D01*
X0108198Y0088120D02*
X0093302Y0088120D01*
X0093302Y0089718D02*
X0108198Y0089718D01*
X0109012Y0092485D02*
X0109470Y0092362D01*
X0112475Y0092362D01*
X0112475Y0096537D01*
X0107907Y0096537D01*
X0107907Y0093925D01*
X0108029Y0093467D01*
X0108266Y0093057D01*
X0108601Y0092722D01*
X0109012Y0092485D01*
X0108408Y0092915D02*
X0093092Y0092915D01*
X0093234Y0093057D02*
X0093471Y0093467D01*
X0093593Y0093925D01*
X0093593Y0096537D01*
X0089025Y0096537D01*
X0089025Y0098087D01*
X0087475Y0098087D01*
X0087475Y0102261D01*
X0084470Y0102261D01*
X0084012Y0102139D01*
X0083601Y0101902D01*
X0083266Y0101567D01*
X0083250Y0101538D01*
X0083234Y0101567D01*
X0082899Y0101902D01*
X0082488Y0102139D01*
X0082030Y0102261D01*
X0079025Y0102261D01*
X0079025Y0098087D01*
X0077475Y0098087D01*
X0077475Y0102261D01*
X0074470Y0102261D01*
X0074012Y0102139D01*
X0073601Y0101902D01*
X0073266Y0101567D01*
X0073250Y0101538D01*
X0073234Y0101567D01*
X0072899Y0101902D01*
X0072488Y0102139D01*
X0072030Y0102261D01*
X0069025Y0102261D01*
X0069025Y0098087D01*
X0067475Y0098087D01*
X0067475Y0102261D01*
X0064470Y0102261D01*
X0064012Y0102139D01*
X0063601Y0101902D01*
X0063266Y0101567D01*
X0063250Y0101538D01*
X0063234Y0101567D01*
X0062899Y0101902D01*
X0062488Y0102139D01*
X0062030Y0102261D01*
X0059025Y0102261D01*
X0059025Y0098087D01*
X0057475Y0098087D01*
X0057475Y0102261D01*
X0054470Y0102261D01*
X0054012Y0102139D01*
X0053601Y0101902D01*
X0053266Y0101567D01*
X0053250Y0101538D01*
X0053234Y0101567D01*
X0052899Y0101902D01*
X0052488Y0102139D01*
X0052030Y0102261D01*
X0049025Y0102261D01*
X0049025Y0098087D01*
X0047475Y0098087D01*
X0047475Y0102261D01*
X0044470Y0102261D01*
X0044012Y0102139D01*
X0043601Y0101902D01*
X0043266Y0101567D01*
X0043250Y0101538D01*
X0043234Y0101567D01*
X0042899Y0101902D01*
X0042488Y0102139D01*
X0042030Y0102261D01*
X0039025Y0102261D01*
X0039025Y0098087D01*
X0037475Y0098087D01*
X0037475Y0102261D01*
X0034470Y0102261D01*
X0034012Y0102139D01*
X0033601Y0101902D01*
X0033266Y0101567D01*
X0033250Y0101538D01*
X0033234Y0101567D01*
X0032899Y0101902D01*
X0032488Y0102139D01*
X0032030Y0102261D01*
X0029025Y0102261D01*
X0029025Y0098087D01*
X0027475Y0098087D01*
X0027475Y0102261D01*
X0024470Y0102261D01*
X0024012Y0102139D01*
X0023601Y0101902D01*
X0023266Y0101567D01*
X0023250Y0101538D01*
X0023234Y0101567D01*
X0022899Y0101902D01*
X0022488Y0102139D01*
X0022030Y0102261D01*
X0019025Y0102261D01*
X0019025Y0098087D01*
X0017475Y0098087D01*
X0017475Y0102261D01*
X0014470Y0102261D01*
X0014012Y0102139D01*
X0013601Y0101902D01*
X0013266Y0101567D01*
X0013029Y0101156D01*
X0012907Y0100698D01*
X0012907Y0098087D01*
X0017475Y0098087D01*
X0017475Y0096537D01*
X0012907Y0096537D01*
X0012907Y0093925D01*
X0013029Y0093467D01*
X0013266Y0093057D01*
X0013601Y0092722D01*
X0014012Y0092485D01*
X0014470Y0092362D01*
X0017475Y0092362D01*
X0017475Y0096537D01*
X0019025Y0096537D01*
X0019025Y0098087D01*
X0027475Y0098087D01*
X0027475Y0096537D01*
X0023593Y0096537D01*
X0019025Y0096537D01*
X0019025Y0092362D01*
X0022030Y0092362D01*
X0022488Y0092485D01*
X0022899Y0092722D01*
X0023234Y0093057D01*
X0023250Y0093085D01*
X0023266Y0093057D01*
X0023601Y0092722D01*
X0024012Y0092485D01*
X0024470Y0092362D01*
X0027475Y0092362D01*
X0027475Y0096537D01*
X0029025Y0096537D01*
X0029025Y0098087D01*
X0037475Y0098087D01*
X0037475Y0096537D01*
X0033593Y0096537D01*
X0029025Y0096537D01*
X0029025Y0092362D01*
X0032030Y0092362D01*
X0032488Y0092485D01*
X0032899Y0092722D01*
X0033234Y0093057D01*
X0033250Y0093085D01*
X0033266Y0093057D01*
X0033601Y0092722D01*
X0034012Y0092485D01*
X0034470Y0092362D01*
X0037475Y0092362D01*
X0037475Y0096537D01*
X0039025Y0096537D01*
X0039025Y0098087D01*
X0047475Y0098087D01*
X0047475Y0096537D01*
X0042907Y0096537D01*
X0039025Y0096537D01*
X0039025Y0092362D01*
X0042030Y0092362D01*
X0042488Y0092485D01*
X0042899Y0092722D01*
X0043234Y0093057D01*
X0043250Y0093085D01*
X0043266Y0093057D01*
X0043601Y0092722D01*
X0044012Y0092485D01*
X0044470Y0092362D01*
X0047475Y0092362D01*
X0047475Y0096537D01*
X0049025Y0096537D01*
X0049025Y0098087D01*
X0057475Y0098087D01*
X0057475Y0096537D01*
X0052907Y0096537D01*
X0049025Y0096537D01*
X0049025Y0092362D01*
X0052030Y0092362D01*
X0052488Y0092485D01*
X0052899Y0092722D01*
X0053234Y0093057D01*
X0053250Y0093085D01*
X0053266Y0093057D01*
X0053601Y0092722D01*
X0054012Y0092485D01*
X0054470Y0092362D01*
X0057475Y0092362D01*
X0057475Y0096537D01*
X0059025Y0096537D01*
X0059025Y0098087D01*
X0067475Y0098087D01*
X0067475Y0096537D01*
X0062907Y0096537D01*
X0059025Y0096537D01*
X0059025Y0092362D01*
X0062030Y0092362D01*
X0062488Y0092485D01*
X0062899Y0092722D01*
X0063234Y0093057D01*
X0063250Y0093085D01*
X0063266Y0093057D01*
X0063601Y0092722D01*
X0064012Y0092485D01*
X0064470Y0092362D01*
X0067475Y0092362D01*
X0067475Y0096537D01*
X0069025Y0096537D01*
X0069025Y0098087D01*
X0077475Y0098087D01*
X0077475Y0096537D01*
X0072907Y0096537D01*
X0069025Y0096537D01*
X0069025Y0092362D01*
X0072030Y0092362D01*
X0072488Y0092485D01*
X0072899Y0092722D01*
X0073234Y0093057D01*
X0073250Y0093085D01*
X0073266Y0093057D01*
X0073601Y0092722D01*
X0074012Y0092485D01*
X0074470Y0092362D01*
X0077475Y0092362D01*
X0077475Y0096537D01*
X0079025Y0096537D01*
X0079025Y0098087D01*
X0087475Y0098087D01*
X0087475Y0096537D01*
X0083593Y0096537D01*
X0079025Y0096537D01*
X0079025Y0092362D01*
X0082030Y0092362D01*
X0082488Y0092485D01*
X0082899Y0092722D01*
X0083234Y0093057D01*
X0083250Y0093085D01*
X0083266Y0093057D01*
X0083601Y0092722D01*
X0084012Y0092485D01*
X0084470Y0092362D01*
X0087475Y0092362D01*
X0087475Y0096537D01*
X0089025Y0096537D01*
X0089025Y0092362D01*
X0092030Y0092362D01*
X0092488Y0092485D01*
X0092899Y0092722D01*
X0093234Y0093057D01*
X0093593Y0094514D02*
X0107907Y0094514D01*
X0107907Y0096112D02*
X0093593Y0096112D01*
X0093593Y0098087D02*
X0089025Y0098087D01*
X0089025Y0102261D01*
X0092030Y0102261D01*
X0092488Y0102139D01*
X0092899Y0101902D01*
X0093234Y0101567D01*
X0093471Y0101156D01*
X0093593Y0100698D01*
X0093593Y0098087D01*
X0093593Y0099309D02*
X0107907Y0099309D01*
X0107907Y0098087D02*
X0112475Y0098087D01*
X0112475Y0102261D01*
X0109470Y0102261D01*
X0109012Y0102139D01*
X0108601Y0101902D01*
X0108266Y0101567D01*
X0108029Y0101156D01*
X0107907Y0100698D01*
X0107907Y0098087D01*
X0112475Y0098087D02*
X0112475Y0096537D01*
X0114025Y0096537D01*
X0114025Y0098087D01*
X0112475Y0098087D01*
X0112475Y0097711D02*
X0089025Y0097711D01*
X0087475Y0097711D02*
X0079025Y0097711D01*
X0077475Y0097711D02*
X0069025Y0097711D01*
X0067475Y0097711D02*
X0059025Y0097711D01*
X0057475Y0097711D02*
X0049025Y0097711D01*
X0047475Y0097711D02*
X0039025Y0097711D01*
X0037475Y0097711D02*
X0029025Y0097711D01*
X0027475Y0097711D02*
X0019025Y0097711D01*
X0017475Y0097711D02*
X0005034Y0097711D01*
X0005034Y0099309D02*
X0012907Y0099309D01*
X0017475Y0099309D02*
X0019025Y0099309D01*
X0019025Y0100908D02*
X0017475Y0100908D01*
X0012963Y0100908D02*
X0005034Y0100908D01*
X0005034Y0102506D02*
X0290296Y0102506D01*
X0290296Y0100908D02*
X0283537Y0100908D01*
X0283593Y0100698D02*
X0283471Y0101156D01*
X0283234Y0101567D01*
X0282899Y0101902D01*
X0282488Y0102139D01*
X0282030Y0102261D01*
X0279025Y0102261D01*
X0279025Y0098087D01*
X0277475Y0098087D01*
X0277475Y0102261D01*
X0274470Y0102261D01*
X0274012Y0102139D01*
X0273601Y0101902D01*
X0273266Y0101567D01*
X0273250Y0101538D01*
X0273234Y0101567D01*
X0272899Y0101902D01*
X0272488Y0102139D01*
X0272030Y0102261D01*
X0269025Y0102261D01*
X0269025Y0098087D01*
X0277475Y0098087D01*
X0277475Y0096537D01*
X0272907Y0096537D01*
X0269025Y0096537D01*
X0269025Y0092362D01*
X0272030Y0092362D01*
X0272488Y0092485D01*
X0272899Y0092722D01*
X0273234Y0093057D01*
X0273250Y0093085D01*
X0273266Y0093057D01*
X0273601Y0092722D01*
X0274012Y0092485D01*
X0274470Y0092362D01*
X0277475Y0092362D01*
X0277475Y0096537D01*
X0279025Y0096537D01*
X0279025Y0098087D01*
X0283593Y0098087D01*
X0283593Y0100698D01*
X0283593Y0099309D02*
X0290296Y0099309D01*
X0290296Y0097711D02*
X0279025Y0097711D01*
X0279135Y0097609D02*
X0278250Y0097312D01*
X0278250Y0104300D01*
X0285750Y0104300D01*
X0290296Y0104105D02*
X0005034Y0104105D01*
X0005034Y0105703D02*
X0290296Y0105703D01*
X0290569Y0107302D02*
X0005034Y0107302D01*
X0005034Y0108900D02*
X0292167Y0108900D01*
X0295500Y0105703D02*
X0343875Y0105703D01*
X0344636Y0104105D02*
X0294913Y0104105D01*
X0294913Y0102506D02*
X0346958Y0102506D01*
X0349542Y0102506D02*
X0356958Y0102506D01*
X0359542Y0102506D02*
X0372554Y0102506D01*
X0372475Y0100908D02*
X0374025Y0100908D01*
X0374025Y0099309D02*
X0372475Y0099309D01*
X0372475Y0097711D02*
X0364025Y0097711D01*
X0362475Y0097711D02*
X0354025Y0097711D01*
X0352475Y0097711D02*
X0344025Y0097711D01*
X0342475Y0097711D02*
X0334025Y0097711D01*
X0332475Y0097711D02*
X0324025Y0097711D01*
X0322475Y0097711D02*
X0314025Y0097711D01*
X0312475Y0097711D02*
X0304025Y0097711D01*
X0303250Y0097312D02*
X0303250Y0104300D01*
X0302475Y0100908D02*
X0304025Y0100908D01*
X0297963Y0100908D02*
X0294913Y0100908D01*
X0294913Y0099309D02*
X0297907Y0099309D01*
X0294913Y0097711D02*
X0302475Y0097711D01*
X0302475Y0099309D02*
X0304025Y0099309D01*
X0304025Y0096112D02*
X0302475Y0096112D01*
X0297907Y0096112D02*
X0294913Y0096112D01*
X0290296Y0096112D02*
X0283593Y0096112D01*
X0283593Y0096537D02*
X0279025Y0096537D01*
X0279025Y0092362D01*
X0282030Y0092362D01*
X0282488Y0092485D01*
X0282899Y0092722D01*
X0283234Y0093057D01*
X0283471Y0093467D01*
X0283593Y0093925D01*
X0283593Y0096537D01*
X0279135Y0097609D02*
X0279135Y0098764D01*
X0277981Y0099918D01*
X0267592Y0099918D01*
X0267592Y0098764D01*
X0267475Y0099309D02*
X0269025Y0099309D01*
X0269025Y0097711D02*
X0277475Y0097711D01*
X0277475Y0099309D02*
X0279025Y0099309D01*
X0279025Y0100908D02*
X0277475Y0100908D01*
X0269025Y0100908D02*
X0267475Y0100908D01*
X0257475Y0097711D02*
X0249025Y0097711D01*
X0247475Y0097711D02*
X0239025Y0097711D01*
X0237475Y0097711D02*
X0229025Y0097711D01*
X0227475Y0097711D02*
X0219025Y0097711D01*
X0217475Y0097711D02*
X0209025Y0097711D01*
X0207475Y0097711D02*
X0184025Y0097711D01*
X0184025Y0098087D02*
X0188593Y0098087D01*
X0188593Y0100698D01*
X0188471Y0101156D01*
X0188234Y0101567D01*
X0187899Y0101902D01*
X0187488Y0102139D01*
X0187030Y0102261D01*
X0184025Y0102261D01*
X0184025Y0098087D01*
X0182475Y0098087D01*
X0182475Y0102261D01*
X0179470Y0102261D01*
X0179012Y0102139D01*
X0178601Y0101902D01*
X0178266Y0101567D01*
X0178250Y0101538D01*
X0178234Y0101567D01*
X0177899Y0101902D01*
X0177488Y0102139D01*
X0177030Y0102261D01*
X0174025Y0102261D01*
X0174025Y0098087D01*
X0172475Y0098087D01*
X0172475Y0102261D01*
X0169470Y0102261D01*
X0169012Y0102139D01*
X0168601Y0101902D01*
X0168266Y0101567D01*
X0168250Y0101538D01*
X0168234Y0101567D01*
X0167899Y0101902D01*
X0167488Y0102139D01*
X0167030Y0102261D01*
X0164025Y0102261D01*
X0164025Y0098087D01*
X0162475Y0098087D01*
X0162475Y0102261D01*
X0159470Y0102261D01*
X0159012Y0102139D01*
X0158601Y0101902D01*
X0158266Y0101567D01*
X0158250Y0101538D01*
X0158234Y0101567D01*
X0157899Y0101902D01*
X0157488Y0102139D01*
X0157030Y0102261D01*
X0154025Y0102261D01*
X0154025Y0098087D01*
X0152475Y0098087D01*
X0152475Y0102261D01*
X0149470Y0102261D01*
X0149012Y0102139D01*
X0148601Y0101902D01*
X0148266Y0101567D01*
X0148250Y0101538D01*
X0148234Y0101567D01*
X0147899Y0101902D01*
X0147488Y0102139D01*
X0147030Y0102261D01*
X0144025Y0102261D01*
X0144025Y0098087D01*
X0142475Y0098087D01*
X0142475Y0102261D01*
X0139470Y0102261D01*
X0139012Y0102139D01*
X0138601Y0101902D01*
X0138266Y0101567D01*
X0138250Y0101538D01*
X0138234Y0101567D01*
X0137899Y0101902D01*
X0137488Y0102139D01*
X0137030Y0102261D01*
X0134025Y0102261D01*
X0134025Y0098087D01*
X0132475Y0098087D01*
X0132475Y0102261D01*
X0129470Y0102261D01*
X0129012Y0102139D01*
X0128601Y0101902D01*
X0128266Y0101567D01*
X0128250Y0101538D01*
X0128234Y0101567D01*
X0127899Y0101902D01*
X0127488Y0102139D01*
X0127030Y0102261D01*
X0124025Y0102261D01*
X0124025Y0098087D01*
X0122475Y0098087D01*
X0122475Y0102261D01*
X0119470Y0102261D01*
X0119012Y0102139D01*
X0118601Y0101902D01*
X0118266Y0101567D01*
X0118250Y0101538D01*
X0118234Y0101567D01*
X0117899Y0101902D01*
X0117488Y0102139D01*
X0117030Y0102261D01*
X0114025Y0102261D01*
X0114025Y0098087D01*
X0122475Y0098087D01*
X0122475Y0096537D01*
X0118593Y0096537D01*
X0114025Y0096537D01*
X0114025Y0092362D01*
X0117030Y0092362D01*
X0117488Y0092485D01*
X0117899Y0092722D01*
X0118234Y0093057D01*
X0118250Y0093085D01*
X0118266Y0093057D01*
X0118601Y0092722D01*
X0119012Y0092485D01*
X0119470Y0092362D01*
X0122475Y0092362D01*
X0122475Y0096537D01*
X0124025Y0096537D01*
X0124025Y0098087D01*
X0132475Y0098087D01*
X0132475Y0096537D01*
X0128593Y0096537D01*
X0124025Y0096537D01*
X0124025Y0092362D01*
X0127030Y0092362D01*
X0127488Y0092485D01*
X0127899Y0092722D01*
X0128234Y0093057D01*
X0128250Y0093085D01*
X0128266Y0093057D01*
X0128601Y0092722D01*
X0129012Y0092485D01*
X0129470Y0092362D01*
X0132475Y0092362D01*
X0132475Y0096537D01*
X0134025Y0096537D01*
X0134025Y0098087D01*
X0142475Y0098087D01*
X0142475Y0096537D01*
X0137907Y0096537D01*
X0134025Y0096537D01*
X0134025Y0092362D01*
X0137030Y0092362D01*
X0137488Y0092485D01*
X0137899Y0092722D01*
X0138234Y0093057D01*
X0138250Y0093085D01*
X0138266Y0093057D01*
X0138601Y0092722D01*
X0139012Y0092485D01*
X0139470Y0092362D01*
X0142475Y0092362D01*
X0142475Y0096537D01*
X0144025Y0096537D01*
X0144025Y0098087D01*
X0152475Y0098087D01*
X0152475Y0096537D01*
X0147907Y0096537D01*
X0144025Y0096537D01*
X0144025Y0092362D01*
X0147030Y0092362D01*
X0147488Y0092485D01*
X0147899Y0092722D01*
X0148234Y0093057D01*
X0148250Y0093085D01*
X0148266Y0093057D01*
X0148601Y0092722D01*
X0149012Y0092485D01*
X0149470Y0092362D01*
X0152475Y0092362D01*
X0152475Y0096537D01*
X0154025Y0096537D01*
X0154025Y0098087D01*
X0162475Y0098087D01*
X0162475Y0096537D01*
X0157907Y0096537D01*
X0154025Y0096537D01*
X0154025Y0092362D01*
X0157030Y0092362D01*
X0157488Y0092485D01*
X0157899Y0092722D01*
X0158234Y0093057D01*
X0158250Y0093085D01*
X0158266Y0093057D01*
X0158601Y0092722D01*
X0159012Y0092485D01*
X0159470Y0092362D01*
X0162475Y0092362D01*
X0162475Y0096537D01*
X0164025Y0096537D01*
X0164025Y0098087D01*
X0172475Y0098087D01*
X0172475Y0096537D01*
X0167907Y0096537D01*
X0164025Y0096537D01*
X0164025Y0092362D01*
X0167030Y0092362D01*
X0167488Y0092485D01*
X0167899Y0092722D01*
X0168234Y0093057D01*
X0168250Y0093085D01*
X0168266Y0093057D01*
X0168601Y0092722D01*
X0169012Y0092485D01*
X0169470Y0092362D01*
X0172475Y0092362D01*
X0172475Y0096537D01*
X0174025Y0096537D01*
X0174025Y0098087D01*
X0182475Y0098087D01*
X0182475Y0096537D01*
X0178593Y0096537D01*
X0174025Y0096537D01*
X0174025Y0092362D01*
X0177030Y0092362D01*
X0177488Y0092485D01*
X0177899Y0092722D01*
X0178234Y0093057D01*
X0178250Y0093085D01*
X0178266Y0093057D01*
X0178601Y0092722D01*
X0179012Y0092485D01*
X0179470Y0092362D01*
X0182475Y0092362D01*
X0182475Y0096537D01*
X0184025Y0096537D01*
X0184025Y0098087D01*
X0184025Y0099309D02*
X0182475Y0099309D01*
X0182475Y0097711D02*
X0174025Y0097711D01*
X0172475Y0097711D02*
X0164025Y0097711D01*
X0162475Y0097711D02*
X0154025Y0097711D01*
X0152475Y0097711D02*
X0144025Y0097711D01*
X0142475Y0097711D02*
X0134025Y0097711D01*
X0132475Y0097711D02*
X0124025Y0097711D01*
X0122475Y0097711D02*
X0114025Y0097711D01*
X0114025Y0099309D02*
X0112475Y0099309D01*
X0112475Y0100908D02*
X0114025Y0100908D01*
X0107963Y0100908D02*
X0093537Y0100908D01*
X0089025Y0100908D02*
X0087475Y0100908D01*
X0087475Y0099309D02*
X0089025Y0099309D01*
X0089025Y0096112D02*
X0087475Y0096112D01*
X0087475Y0094514D02*
X0089025Y0094514D01*
X0089025Y0092915D02*
X0087475Y0092915D01*
X0083408Y0092915D02*
X0083092Y0092915D01*
X0079025Y0092915D02*
X0077475Y0092915D01*
X0077475Y0094514D02*
X0079025Y0094514D01*
X0073408Y0092915D02*
X0073092Y0092915D01*
X0069025Y0092915D02*
X0067475Y0092915D01*
X0067475Y0094514D02*
X0069025Y0094514D01*
X0069025Y0096112D02*
X0067475Y0096112D01*
X0067475Y0099309D02*
X0069025Y0099309D01*
X0069025Y0100908D02*
X0067475Y0100908D01*
X0059025Y0100908D02*
X0057475Y0100908D01*
X0057475Y0099309D02*
X0059025Y0099309D01*
X0059025Y0096112D02*
X0057475Y0096112D01*
X0057475Y0094514D02*
X0059025Y0094514D01*
X0059025Y0092915D02*
X0057475Y0092915D01*
X0053408Y0092915D02*
X0053092Y0092915D01*
X0049025Y0092915D02*
X0047475Y0092915D01*
X0047475Y0094514D02*
X0049025Y0094514D01*
X0049025Y0096112D02*
X0047475Y0096112D01*
X0047475Y0099309D02*
X0049025Y0099309D01*
X0049025Y0100908D02*
X0047475Y0100908D01*
X0039025Y0100908D02*
X0037475Y0100908D01*
X0037475Y0099309D02*
X0039025Y0099309D01*
X0039025Y0096112D02*
X0037475Y0096112D01*
X0037475Y0094514D02*
X0039025Y0094514D01*
X0039025Y0092915D02*
X0037475Y0092915D01*
X0033408Y0092915D02*
X0033092Y0092915D01*
X0029025Y0092915D02*
X0027475Y0092915D01*
X0027475Y0094514D02*
X0029025Y0094514D01*
X0029025Y0096112D02*
X0027475Y0096112D01*
X0027475Y0099309D02*
X0029025Y0099309D01*
X0029025Y0100908D02*
X0027475Y0100908D01*
X0019025Y0096112D02*
X0017475Y0096112D01*
X0012907Y0096112D02*
X0005034Y0096112D01*
X0005034Y0094514D02*
X0012907Y0094514D01*
X0013408Y0092915D02*
X0005034Y0092915D01*
X0005034Y0091317D02*
X0290296Y0091317D01*
X0290296Y0089718D02*
X0283302Y0089718D01*
X0283302Y0088120D02*
X0290296Y0088120D01*
X0294913Y0088120D02*
X0298198Y0088120D01*
X0298198Y0089718D02*
X0294913Y0089718D01*
X0294913Y0091317D02*
X0384898Y0091317D01*
X0386497Y0089718D02*
X0378302Y0089718D01*
X0378302Y0088120D02*
X0388095Y0088120D01*
X0389694Y0086521D02*
X0378302Y0086521D01*
X0378302Y0084923D02*
X0391105Y0084923D01*
X0391105Y0083324D02*
X0378302Y0083324D01*
X0377514Y0081726D02*
X0391105Y0081726D01*
X0391105Y0080127D02*
X0375559Y0080127D01*
X0375559Y0078529D02*
X0391105Y0078529D01*
X0391105Y0076930D02*
X0375559Y0076930D01*
X0377515Y0075332D02*
X0391105Y0075332D01*
X0391105Y0073733D02*
X0377515Y0073733D01*
X0373250Y0072706D02*
X0373250Y0086288D01*
X0363250Y0086288D02*
X0363250Y0072706D01*
X0367515Y0072134D02*
X0368985Y0072134D01*
X0368985Y0070536D02*
X0367515Y0070536D01*
X0366734Y0068937D02*
X0369766Y0068937D01*
X0376734Y0068937D02*
X0391105Y0068937D01*
X0391105Y0070536D02*
X0377515Y0070536D01*
X0377515Y0072134D02*
X0391105Y0072134D01*
X0391105Y0067339D02*
X0308053Y0067339D01*
X0309652Y0065740D02*
X0391105Y0065740D01*
X0391105Y0064142D02*
X0377254Y0064142D01*
X0377515Y0063882D02*
X0376631Y0064765D01*
X0369869Y0064765D01*
X0368985Y0063882D01*
X0368985Y0060285D01*
X0367515Y0058815D01*
X0367515Y0063882D01*
X0366631Y0064765D01*
X0359869Y0064765D01*
X0358985Y0063882D01*
X0358985Y0060674D01*
X0357515Y0059203D01*
X0357515Y0063882D01*
X0356631Y0064765D01*
X0349869Y0064765D01*
X0348985Y0063882D01*
X0348985Y0057907D01*
X0349869Y0057024D01*
X0350704Y0057024D01*
X0350704Y0050344D01*
X0350207Y0049847D01*
X0349704Y0048631D01*
X0349704Y0047315D01*
X0350207Y0046099D01*
X0351138Y0045168D01*
X0352354Y0044665D01*
X0353670Y0044665D01*
X0354886Y0045168D01*
X0355817Y0046099D01*
X0356321Y0047315D01*
X0356321Y0048631D01*
X0355817Y0049847D01*
X0355321Y0050344D01*
X0355321Y0051796D01*
X0355817Y0051591D01*
X0357133Y0051591D01*
X0358349Y0052094D01*
X0359280Y0053025D01*
X0359784Y0054241D01*
X0359784Y0054943D01*
X0361865Y0057024D01*
X0365724Y0057024D01*
X0361136Y0052436D01*
X0360434Y0052436D01*
X0359218Y0051932D01*
X0358288Y0051002D01*
X0357784Y0049786D01*
X0357784Y0048469D01*
X0358288Y0047253D01*
X0359218Y0046323D01*
X0360434Y0045819D01*
X0361751Y0045819D01*
X0362967Y0046323D01*
X0363897Y0047253D01*
X0364401Y0048469D01*
X0364401Y0049171D01*
X0372254Y0057024D01*
X0376631Y0057024D01*
X0377515Y0057907D01*
X0377515Y0063882D01*
X0377515Y0062543D02*
X0391105Y0062543D01*
X0391105Y0060945D02*
X0377515Y0060945D01*
X0377515Y0059346D02*
X0391105Y0059346D01*
X0391105Y0057748D02*
X0377355Y0057748D01*
X0371379Y0056149D02*
X0391105Y0056149D01*
X0391105Y0054551D02*
X0369781Y0054551D01*
X0368182Y0052952D02*
X0391105Y0052952D01*
X0391105Y0051354D02*
X0366584Y0051354D01*
X0361652Y0052952D02*
X0359207Y0052952D01*
X0358640Y0051354D02*
X0355321Y0051354D01*
X0350704Y0051354D02*
X0346086Y0051354D01*
X0346086Y0050344D02*
X0346086Y0057024D01*
X0346631Y0057024D01*
X0347515Y0057907D01*
X0347515Y0063882D01*
X0346631Y0064765D01*
X0339869Y0064765D01*
X0338985Y0063882D01*
X0338985Y0057907D01*
X0339869Y0057024D01*
X0341469Y0057024D01*
X0341469Y0050344D01*
X0340973Y0049847D01*
X0340469Y0048631D01*
X0340469Y0047315D01*
X0340973Y0046099D01*
X0341903Y0045168D01*
X0343119Y0044665D01*
X0344436Y0044665D01*
X0345652Y0045168D01*
X0346582Y0046099D01*
X0347086Y0047315D01*
X0347086Y0048631D01*
X0346582Y0049847D01*
X0346086Y0050344D01*
X0346621Y0049755D02*
X0350169Y0049755D01*
X0349704Y0048157D02*
X0347086Y0048157D01*
X0346773Y0046558D02*
X0350017Y0046558D01*
X0353012Y0047973D02*
X0353012Y0060671D01*
X0353250Y0060894D01*
X0357515Y0060945D02*
X0358985Y0060945D01*
X0358985Y0062543D02*
X0357515Y0062543D01*
X0362247Y0060671D02*
X0363250Y0060894D01*
X0362247Y0060671D02*
X0356475Y0054899D01*
X0359784Y0054551D02*
X0363251Y0054551D01*
X0364849Y0056149D02*
X0360990Y0056149D01*
X0357657Y0059346D02*
X0357515Y0059346D01*
X0349145Y0057748D02*
X0347355Y0057748D01*
X0346086Y0056149D02*
X0350704Y0056149D01*
X0350704Y0054551D02*
X0346086Y0054551D01*
X0346086Y0052952D02*
X0350704Y0052952D01*
X0341469Y0052952D02*
X0336121Y0052952D01*
X0336194Y0053025D02*
X0336697Y0054241D01*
X0336697Y0055557D01*
X0336194Y0056773D01*
X0335943Y0057024D01*
X0336631Y0057024D01*
X0337515Y0057907D01*
X0337515Y0063882D01*
X0336631Y0064765D01*
X0329869Y0064765D01*
X0328985Y0063882D01*
X0328985Y0057907D01*
X0329869Y0057024D01*
X0330834Y0057024D01*
X0330584Y0056773D01*
X0330080Y0055557D01*
X0330080Y0054241D01*
X0330584Y0053025D01*
X0331514Y0052094D01*
X0332730Y0051591D01*
X0334047Y0051591D01*
X0335263Y0052094D01*
X0336194Y0053025D01*
X0336697Y0054551D02*
X0341469Y0054551D01*
X0341469Y0056149D02*
X0336452Y0056149D01*
X0337355Y0057748D02*
X0339145Y0057748D01*
X0338985Y0059346D02*
X0337515Y0059346D01*
X0337515Y0060945D02*
X0338985Y0060945D01*
X0338985Y0062543D02*
X0337515Y0062543D01*
X0333389Y0060671D02*
X0333250Y0060894D01*
X0333389Y0060671D02*
X0333389Y0054899D01*
X0330325Y0056149D02*
X0327323Y0056149D01*
X0327355Y0057748D02*
X0329145Y0057748D01*
X0324154Y0056054D02*
X0332234Y0047973D01*
X0335229Y0046558D02*
X0340782Y0046558D01*
X0340469Y0048157D02*
X0335543Y0048157D01*
X0335077Y0049755D02*
X0340934Y0049755D01*
X0343778Y0047973D02*
X0343778Y0060671D01*
X0343250Y0060894D01*
X0347515Y0060945D02*
X0348985Y0060945D01*
X0348985Y0062543D02*
X0347515Y0062543D01*
X0347254Y0064142D02*
X0349246Y0064142D01*
X0357254Y0064142D02*
X0359246Y0064142D01*
X0367254Y0064142D02*
X0369246Y0064142D01*
X0368985Y0062543D02*
X0367515Y0062543D01*
X0367515Y0060945D02*
X0368985Y0060945D01*
X0368046Y0059346D02*
X0367515Y0059346D01*
X0372636Y0060671D02*
X0373250Y0060894D01*
X0372636Y0060671D02*
X0361093Y0049128D01*
X0364272Y0048157D02*
X0383983Y0048157D01*
X0383789Y0046558D02*
X0363202Y0046558D01*
X0358983Y0046558D02*
X0356007Y0046558D01*
X0356321Y0048157D02*
X0357913Y0048157D01*
X0357784Y0049755D02*
X0355855Y0049755D01*
X0364985Y0049755D02*
X0384896Y0049755D01*
X0384183Y0044960D02*
X0354383Y0044960D01*
X0351641Y0044960D02*
X0345148Y0044960D01*
X0342407Y0044960D02*
X0333605Y0044960D01*
X0330863Y0044960D02*
X0327833Y0044960D01*
X0326259Y0043361D02*
X0385379Y0043361D01*
X0387401Y0041763D02*
X0327858Y0041763D01*
X0321328Y0041763D02*
X0317469Y0041763D01*
X0315870Y0043361D02*
X0319729Y0043361D01*
X0318131Y0044960D02*
X0314272Y0044960D01*
X0309340Y0043361D02*
X0306750Y0043361D01*
X0306750Y0044960D02*
X0307742Y0044960D01*
X0306399Y0041763D02*
X0310939Y0041763D01*
X0312537Y0040164D02*
X0305737Y0040164D01*
X0304537Y0038566D02*
X0314136Y0038566D01*
X0315734Y0036967D02*
X0302759Y0036967D01*
X0303065Y0037094D02*
X0303065Y0037094D01*
X0293741Y0036967D02*
X0289524Y0036967D01*
X0289524Y0038566D02*
X0291963Y0038566D01*
X0291044Y0039485D02*
X0291044Y0039485D01*
X0290763Y0040164D02*
X0289524Y0040164D01*
X0284907Y0040164D02*
X0275203Y0040164D01*
X0276801Y0038566D02*
X0284907Y0038566D01*
X0284907Y0036967D02*
X0278400Y0036967D01*
X0279998Y0035369D02*
X0284907Y0035369D01*
X0289524Y0035369D02*
X0317333Y0035369D01*
X0318931Y0033770D02*
X0289524Y0033770D01*
X0289524Y0032172D02*
X0320530Y0032172D01*
X0325461Y0033770D02*
X0329320Y0033770D01*
X0327722Y0035369D02*
X0323863Y0035369D01*
X0322264Y0036967D02*
X0326123Y0036967D01*
X0324525Y0038566D02*
X0320666Y0038566D01*
X0319067Y0040164D02*
X0322926Y0040164D01*
X0329456Y0040164D02*
X0385803Y0040164D01*
X0384204Y0038566D02*
X0331055Y0038566D01*
X0332653Y0036967D02*
X0382606Y0036967D01*
X0381007Y0035369D02*
X0334252Y0035369D01*
X0335850Y0033770D02*
X0379409Y0033770D01*
X0377810Y0032172D02*
X0337449Y0032172D01*
X0332517Y0030573D02*
X0328658Y0030573D01*
X0330257Y0028975D02*
X0334116Y0028975D01*
X0335714Y0027376D02*
X0331855Y0027376D01*
X0325325Y0027376D02*
X0257186Y0027376D01*
X0260152Y0028975D02*
X0279862Y0028975D01*
X0278264Y0030573D02*
X0261425Y0030573D01*
X0258357Y0031813D02*
X0236425Y0009880D01*
X0211030Y0009880D01*
X0205258Y0004109D01*
X0140615Y0004109D01*
X0126763Y0017961D01*
X0123772Y0019384D02*
X0018615Y0019384D01*
X0018627Y0019405D02*
X0018750Y0019863D01*
X0018750Y0023600D01*
X0013450Y0023600D01*
X0013450Y0024000D01*
X0013050Y0024000D01*
X0013050Y0029300D01*
X0009313Y0029300D01*
X0008855Y0029177D01*
X0008445Y0028940D01*
X0008110Y0028605D01*
X0007873Y0028195D01*
X0007750Y0027737D01*
X0007750Y0024000D01*
X0013050Y0024000D01*
X0013050Y0023600D01*
X0013450Y0023600D01*
X0013450Y0018300D01*
X0017187Y0018300D01*
X0017645Y0018423D01*
X0018055Y0018660D01*
X0018390Y0018995D01*
X0018627Y0019405D01*
X0018750Y0020982D02*
X0077507Y0020982D01*
X0081365Y0020982D02*
X0125412Y0020982D01*
X0128115Y0020982D02*
X0147921Y0020982D01*
X0151779Y0020982D02*
X0228724Y0020982D01*
X0229966Y0019384D02*
X0129755Y0019384D01*
X0130204Y0017785D02*
X0228367Y0017785D01*
X0226769Y0016187D02*
X0131802Y0016187D01*
X0133401Y0014588D02*
X0160527Y0014588D01*
X0162548Y0013343D02*
X0159085Y0009880D01*
X0156776Y0007572D01*
X0142924Y0007572D01*
X0140466Y0009793D02*
X0138196Y0009793D01*
X0136598Y0011391D02*
X0156129Y0011391D01*
X0157945Y0012990D02*
X0134999Y0012990D01*
X0130068Y0011391D02*
X0005034Y0011391D01*
X0005034Y0009793D02*
X0131667Y0009793D01*
X0133265Y0008194D02*
X0005034Y0008194D01*
X0005034Y0006596D02*
X0134864Y0006596D01*
X0136462Y0004997D02*
X0005034Y0004997D01*
X0005034Y0012990D02*
X0128469Y0012990D01*
X0126871Y0014588D02*
X0005034Y0014588D01*
X0005034Y0016187D02*
X0123917Y0016187D01*
X0123455Y0017785D02*
X0005034Y0017785D01*
X0008110Y0018995D02*
X0008445Y0018660D01*
X0008855Y0018423D01*
X0009313Y0018300D01*
X0013050Y0018300D01*
X0013050Y0023600D01*
X0007750Y0023600D01*
X0007750Y0019863D01*
X0007873Y0019405D01*
X0008110Y0018995D01*
X0007885Y0019384D02*
X0005034Y0019384D01*
X0005034Y0020982D02*
X0007750Y0020982D01*
X0007750Y0022581D02*
X0005034Y0022581D01*
X0005034Y0024179D02*
X0007750Y0024179D01*
X0007750Y0025778D02*
X0005034Y0025778D01*
X0005034Y0027376D02*
X0007750Y0027376D01*
X0008504Y0028975D02*
X0005034Y0028975D01*
X0005034Y0030573D02*
X0010111Y0030573D01*
X0010300Y0030384D02*
X0012214Y0029591D01*
X0014286Y0029591D01*
X0016200Y0030384D01*
X0017666Y0031850D01*
X0018459Y0033764D01*
X0018459Y0035836D01*
X0017666Y0037750D01*
X0016200Y0039216D01*
X0014286Y0040009D01*
X0012214Y0040009D01*
X0010300Y0039216D01*
X0008834Y0037750D01*
X0008041Y0035836D01*
X0008041Y0033764D01*
X0008834Y0031850D01*
X0010300Y0030384D01*
X0013050Y0028975D02*
X0013450Y0028975D01*
X0013450Y0029300D02*
X0013450Y0024000D01*
X0018750Y0024000D01*
X0018750Y0027737D01*
X0018627Y0028195D01*
X0018390Y0028605D01*
X0018055Y0028940D01*
X0017645Y0029177D01*
X0017187Y0029300D01*
X0013450Y0029300D01*
X0013450Y0027376D02*
X0013050Y0027376D01*
X0017996Y0028975D02*
X0204258Y0028975D01*
X0204388Y0027376D02*
X0018750Y0027376D01*
X0018750Y0025778D02*
X0076802Y0025778D01*
X0076127Y0024179D02*
X0018750Y0024179D01*
X0018750Y0022581D02*
X0076332Y0022581D01*
X0079436Y0023732D02*
X0149850Y0023732D01*
X0228344Y0023732D01*
X0256048Y0051436D01*
X0260666Y0051436D01*
X0281444Y0030658D01*
X0286061Y0030658D01*
X0287642Y0028975D02*
X0323727Y0028975D01*
X0322128Y0030573D02*
X0289241Y0030573D01*
X0276665Y0032172D02*
X0261666Y0032172D01*
X0261079Y0033770D02*
X0275067Y0033770D01*
X0273468Y0035369D02*
X0260666Y0035369D01*
X0260666Y0036967D02*
X0271870Y0036967D01*
X0270271Y0038566D02*
X0260666Y0038566D01*
X0260666Y0040164D02*
X0268673Y0040164D01*
X0267074Y0041763D02*
X0260666Y0041763D01*
X0261121Y0043361D02*
X0265476Y0043361D01*
X0263877Y0044960D02*
X0262317Y0044960D01*
X0258357Y0045665D02*
X0258250Y0046800D01*
X0258357Y0045665D02*
X0258357Y0031813D01*
X0255587Y0025778D02*
X0326924Y0025778D01*
X0328522Y0024179D02*
X0253989Y0024179D01*
X0252390Y0022581D02*
X0329130Y0022581D01*
X0330305Y0020982D02*
X0250792Y0020982D01*
X0237579Y0023732D02*
X0227190Y0013343D01*
X0162548Y0013343D01*
X0207567Y0028350D02*
X0207567Y0060671D01*
X0208250Y0060894D01*
X0212515Y0060945D02*
X0213985Y0060945D01*
X0213985Y0062543D02*
X0212515Y0062543D01*
X0217956Y0060671D02*
X0218250Y0060894D01*
X0217956Y0060671D02*
X0211030Y0053745D01*
X0205258Y0052952D02*
X0177718Y0052952D01*
X0176119Y0051354D02*
X0185783Y0051354D01*
X0185935Y0051506D02*
X0183544Y0049115D01*
X0183544Y0049115D01*
X0182250Y0045991D01*
X0182250Y0042609D01*
X0183544Y0039485D01*
X0185935Y0037094D01*
X0185935Y0037094D01*
X0189059Y0035800D01*
X0191247Y0035800D01*
X0192441Y0035800D01*
X0195565Y0037094D01*
X0197956Y0039485D01*
X0197956Y0039485D01*
X0199250Y0042609D01*
X0199250Y0045991D01*
X0197956Y0049115D01*
X0195565Y0051506D01*
X0195565Y0051506D01*
X0192441Y0052800D01*
X0189059Y0052800D01*
X0185935Y0051506D01*
X0185935Y0051506D01*
X0184185Y0049755D02*
X0174521Y0049755D01*
X0172922Y0048157D02*
X0183147Y0048157D01*
X0182485Y0046558D02*
X0172469Y0046558D01*
X0172279Y0046099D02*
X0172782Y0047315D01*
X0172782Y0048017D01*
X0181789Y0057024D01*
X0186631Y0057024D01*
X0187515Y0057907D01*
X0187515Y0063882D01*
X0186631Y0064765D01*
X0179869Y0064765D01*
X0178985Y0063882D01*
X0178985Y0060750D01*
X0177515Y0059279D01*
X0177515Y0063882D01*
X0176631Y0064765D01*
X0169869Y0064765D01*
X0168985Y0063882D01*
X0168985Y0059985D01*
X0167515Y0058514D01*
X0167515Y0063882D01*
X0166631Y0064765D01*
X0159869Y0064765D01*
X0158985Y0063882D01*
X0158985Y0060374D01*
X0157515Y0058903D01*
X0157515Y0063882D01*
X0156631Y0064765D01*
X0149869Y0064765D01*
X0148985Y0063882D01*
X0148985Y0060763D01*
X0147515Y0059292D01*
X0147515Y0063882D01*
X0146631Y0064765D01*
X0139869Y0064765D01*
X0138985Y0063882D01*
X0138985Y0057907D01*
X0139869Y0057024D01*
X0140615Y0057024D01*
X0140615Y0050344D01*
X0140119Y0049847D01*
X0139615Y0048631D01*
X0139615Y0047315D01*
X0140119Y0046099D01*
X0141050Y0045168D01*
X0142266Y0044665D01*
X0143582Y0044665D01*
X0144798Y0045168D01*
X0145729Y0046099D01*
X0146233Y0047315D01*
X0146233Y0048631D01*
X0145729Y0049847D01*
X0145233Y0050344D01*
X0145233Y0051796D01*
X0145729Y0051591D01*
X0147045Y0051591D01*
X0148261Y0052094D01*
X0149192Y0053025D01*
X0149696Y0054241D01*
X0149696Y0054943D01*
X0151776Y0057024D01*
X0155635Y0057024D01*
X0151048Y0052436D01*
X0150346Y0052436D01*
X0149130Y0051932D01*
X0148199Y0051002D01*
X0147696Y0049786D01*
X0147696Y0048469D01*
X0148199Y0047253D01*
X0149130Y0046323D01*
X0150346Y0045819D01*
X0151662Y0045819D01*
X0152879Y0046323D01*
X0153809Y0047253D01*
X0154313Y0048469D01*
X0154313Y0049171D01*
X0162165Y0057024D01*
X0166024Y0057024D01*
X0160125Y0051124D01*
X0159743Y0051282D01*
X0158427Y0051282D01*
X0157210Y0050778D01*
X0156280Y0049847D01*
X0155776Y0048631D01*
X0155776Y0047315D01*
X0156280Y0046099D01*
X0157210Y0045168D01*
X0158427Y0044665D01*
X0159743Y0044665D01*
X0160959Y0045168D01*
X0161890Y0046099D01*
X0162073Y0046543D01*
X0162548Y0047017D01*
X0172554Y0057024D01*
X0175259Y0057024D01*
X0169517Y0051282D01*
X0168815Y0051282D01*
X0167599Y0050778D01*
X0166669Y0049847D01*
X0166165Y0048631D01*
X0166165Y0047315D01*
X0166669Y0046099D01*
X0167599Y0045168D01*
X0168815Y0044665D01*
X0170132Y0044665D01*
X0171348Y0045168D01*
X0172279Y0046099D01*
X0170845Y0044960D02*
X0182250Y0044960D01*
X0182250Y0043361D02*
X0117167Y0043361D01*
X0117374Y0041763D02*
X0182601Y0041763D01*
X0183263Y0040164D02*
X0116708Y0040164D01*
X0114066Y0042202D02*
X0114066Y0060671D01*
X0113250Y0060894D01*
X0117515Y0060945D02*
X0118985Y0060945D01*
X0118985Y0062543D02*
X0117515Y0062543D01*
X0118985Y0063882D02*
X0118985Y0057907D01*
X0119869Y0057024D01*
X0120992Y0057024D01*
X0120992Y0051498D01*
X0120495Y0051002D01*
X0119992Y0049786D01*
X0119992Y0048469D01*
X0120495Y0047253D01*
X0121426Y0046323D01*
X0122642Y0045819D01*
X0123959Y0045819D01*
X0125175Y0046323D01*
X0126105Y0047253D01*
X0126609Y0048469D01*
X0126609Y0049786D01*
X0126105Y0051002D01*
X0125609Y0051498D01*
X0125609Y0057024D01*
X0126631Y0057024D01*
X0127515Y0057907D01*
X0127515Y0063882D01*
X0126631Y0064765D01*
X0119869Y0064765D01*
X0118985Y0063882D01*
X0119246Y0064142D02*
X0117254Y0064142D01*
X0127254Y0064142D02*
X0129246Y0064142D01*
X0128985Y0063882D02*
X0129869Y0064765D01*
X0136631Y0064765D01*
X0137515Y0063882D01*
X0137515Y0057907D01*
X0136631Y0057024D01*
X0135998Y0057024D01*
X0135998Y0050344D01*
X0136494Y0049847D01*
X0136998Y0048631D01*
X0136998Y0047315D01*
X0136494Y0046099D01*
X0135564Y0045168D01*
X0134348Y0044665D01*
X0133031Y0044665D01*
X0131815Y0045168D01*
X0130884Y0046099D01*
X0130381Y0047315D01*
X0130381Y0048631D01*
X0130884Y0049847D01*
X0131381Y0050344D01*
X0131381Y0057024D01*
X0129869Y0057024D01*
X0128985Y0057907D01*
X0128985Y0063882D01*
X0128985Y0062543D02*
X0127515Y0062543D01*
X0127515Y0060945D02*
X0128985Y0060945D01*
X0128985Y0059346D02*
X0127515Y0059346D01*
X0123300Y0060671D02*
X0123250Y0060894D01*
X0123300Y0060671D02*
X0123300Y0049128D01*
X0120121Y0048157D02*
X0116374Y0048157D01*
X0116374Y0049755D02*
X0119992Y0049755D01*
X0120848Y0051354D02*
X0116374Y0051354D01*
X0116374Y0052952D02*
X0120992Y0052952D01*
X0120992Y0054551D02*
X0116374Y0054551D01*
X0116374Y0056149D02*
X0120992Y0056149D01*
X0119145Y0057748D02*
X0117355Y0057748D01*
X0117515Y0059346D02*
X0118985Y0059346D01*
X0127355Y0057748D02*
X0129145Y0057748D01*
X0131381Y0056149D02*
X0125609Y0056149D01*
X0125609Y0054551D02*
X0131381Y0054551D01*
X0131381Y0052952D02*
X0125609Y0052952D01*
X0125753Y0051354D02*
X0131381Y0051354D01*
X0135998Y0051354D02*
X0140615Y0051354D01*
X0140615Y0052952D02*
X0135998Y0052952D01*
X0135998Y0054551D02*
X0140615Y0054551D01*
X0146387Y0054899D02*
X0152159Y0060671D01*
X0153250Y0060894D01*
X0157515Y0060945D02*
X0158985Y0060945D01*
X0158985Y0062543D02*
X0157515Y0062543D01*
X0162548Y0060671D02*
X0163250Y0060894D01*
X0162548Y0060671D02*
X0151004Y0049128D01*
X0147825Y0048157D02*
X0146233Y0048157D01*
X0145919Y0046558D02*
X0148894Y0046558D01*
X0153114Y0046558D02*
X0156089Y0046558D01*
X0155776Y0048157D02*
X0154183Y0048157D01*
X0154897Y0049755D02*
X0156242Y0049755D01*
X0159085Y0047973D02*
X0160239Y0047973D01*
X0172937Y0060671D01*
X0173250Y0060894D01*
X0177515Y0060945D02*
X0178985Y0060945D01*
X0178985Y0062543D02*
X0177515Y0062543D01*
X0182171Y0060671D02*
X0183250Y0060894D01*
X0182171Y0060671D02*
X0169474Y0047973D01*
X0166478Y0046558D02*
X0162089Y0046558D01*
X0163688Y0048157D02*
X0166165Y0048157D01*
X0166631Y0049755D02*
X0165286Y0049755D01*
X0166885Y0051354D02*
X0169589Y0051354D01*
X0168483Y0052952D02*
X0171188Y0052952D01*
X0170082Y0054551D02*
X0172786Y0054551D01*
X0179316Y0054551D02*
X0205258Y0054551D01*
X0205258Y0056149D02*
X0180915Y0056149D01*
X0187355Y0057748D02*
X0204145Y0057748D01*
X0203985Y0059346D02*
X0187515Y0059346D01*
X0187515Y0060945D02*
X0203985Y0060945D01*
X0203985Y0062543D02*
X0187515Y0062543D01*
X0187254Y0064142D02*
X0204246Y0064142D01*
X0212254Y0064142D02*
X0214246Y0064142D01*
X0222254Y0064142D02*
X0224246Y0064142D01*
X0223985Y0062543D02*
X0222515Y0062543D01*
X0222515Y0060945D02*
X0223985Y0060945D01*
X0222601Y0059346D02*
X0222515Y0059346D01*
X0227190Y0060671D02*
X0228250Y0060894D01*
X0227190Y0060671D02*
X0216801Y0050282D01*
X0205258Y0049755D02*
X0197315Y0049755D01*
X0197956Y0049115D02*
X0197956Y0049115D01*
X0198353Y0048157D02*
X0205258Y0048157D01*
X0205258Y0046558D02*
X0199015Y0046558D01*
X0199250Y0044960D02*
X0205258Y0044960D01*
X0205258Y0043361D02*
X0199250Y0043361D01*
X0198899Y0041763D02*
X0205258Y0041763D01*
X0205258Y0040164D02*
X0198237Y0040164D01*
X0197037Y0038566D02*
X0205258Y0038566D01*
X0205258Y0036967D02*
X0195259Y0036967D01*
X0195565Y0037094D02*
X0195565Y0037094D01*
X0192441Y0035800D02*
X0192441Y0035800D01*
X0186241Y0036967D02*
X0102759Y0036967D01*
X0103065Y0037094D02*
X0103065Y0037094D01*
X0105456Y0039485D01*
X0105456Y0039485D01*
X0106750Y0042609D01*
X0106750Y0045991D01*
X0105456Y0049115D01*
X0103065Y0051506D01*
X0103065Y0051506D01*
X0099941Y0052800D01*
X0096559Y0052800D01*
X0093435Y0051506D01*
X0091044Y0049115D01*
X0091044Y0049115D01*
X0091044Y0049115D01*
X0089750Y0045991D01*
X0089750Y0042609D01*
X0091044Y0039485D01*
X0093435Y0037094D01*
X0093435Y0037094D01*
X0096559Y0035800D01*
X0097753Y0035800D01*
X0099941Y0035800D01*
X0103065Y0037094D01*
X0104537Y0038566D02*
X0184463Y0038566D01*
X0183544Y0039485D02*
X0183544Y0039485D01*
X0168103Y0044960D02*
X0160456Y0044960D01*
X0157714Y0044960D02*
X0144295Y0044960D01*
X0141553Y0044960D02*
X0135060Y0044960D01*
X0132318Y0044960D02*
X0116374Y0044960D01*
X0116374Y0046558D02*
X0121190Y0046558D01*
X0125410Y0046558D02*
X0130694Y0046558D01*
X0130381Y0048157D02*
X0126480Y0048157D01*
X0126609Y0049755D02*
X0130846Y0049755D01*
X0133689Y0047973D02*
X0133689Y0060671D01*
X0133250Y0060894D01*
X0137515Y0060945D02*
X0138985Y0060945D01*
X0138985Y0062543D02*
X0137515Y0062543D01*
X0142924Y0060671D02*
X0143250Y0060894D01*
X0142924Y0060671D02*
X0142924Y0047973D01*
X0139929Y0046558D02*
X0136685Y0046558D01*
X0136998Y0048157D02*
X0139615Y0048157D01*
X0140081Y0049755D02*
X0136532Y0049755D01*
X0145233Y0051354D02*
X0148551Y0051354D01*
X0149119Y0052952D02*
X0151564Y0052952D01*
X0153163Y0054551D02*
X0149696Y0054551D01*
X0150902Y0056149D02*
X0154761Y0056149D01*
X0159693Y0054551D02*
X0163552Y0054551D01*
X0161953Y0052952D02*
X0158094Y0052952D01*
X0156496Y0051354D02*
X0160355Y0051354D01*
X0161291Y0056149D02*
X0165150Y0056149D01*
X0171680Y0056149D02*
X0174385Y0056149D01*
X0177515Y0059346D02*
X0177582Y0059346D01*
X0168985Y0060945D02*
X0167515Y0060945D01*
X0167515Y0062543D02*
X0168985Y0062543D01*
X0169246Y0064142D02*
X0167254Y0064142D01*
X0159246Y0064142D02*
X0157254Y0064142D01*
X0149246Y0064142D02*
X0147254Y0064142D01*
X0147515Y0062543D02*
X0148985Y0062543D01*
X0148985Y0060945D02*
X0147515Y0060945D01*
X0147515Y0059346D02*
X0147569Y0059346D01*
X0139145Y0057748D02*
X0137355Y0057748D01*
X0135998Y0056149D02*
X0140615Y0056149D01*
X0138985Y0059346D02*
X0137515Y0059346D01*
X0137254Y0064142D02*
X0139246Y0064142D01*
X0157515Y0059346D02*
X0157958Y0059346D01*
X0167515Y0059346D02*
X0168347Y0059346D01*
X0177254Y0064142D02*
X0179246Y0064142D01*
X0212515Y0059346D02*
X0213366Y0059346D01*
X0232515Y0060945D02*
X0233985Y0060945D01*
X0233985Y0062543D02*
X0232515Y0062543D01*
X0237579Y0060671D02*
X0238250Y0060894D01*
X0237579Y0060671D02*
X0232962Y0056054D01*
X0237579Y0052591D02*
X0245659Y0060671D01*
X0247968Y0060671D01*
X0248250Y0060894D01*
X0252515Y0060945D02*
X0253985Y0060945D01*
X0253985Y0062543D02*
X0252515Y0062543D01*
X0257203Y0060671D02*
X0258250Y0060894D01*
X0257203Y0060671D02*
X0244505Y0047973D01*
X0234116Y0047973D01*
X0205258Y0051354D02*
X0195717Y0051354D01*
X0232254Y0064142D02*
X0234246Y0064142D01*
X0242254Y0064142D02*
X0244246Y0064142D01*
X0243985Y0062543D02*
X0242515Y0062543D01*
X0242515Y0060945D02*
X0242669Y0060945D01*
X0252515Y0059346D02*
X0252613Y0059346D01*
X0262515Y0059346D02*
X0263002Y0059346D01*
X0262515Y0060945D02*
X0263985Y0060945D01*
X0263985Y0062543D02*
X0262515Y0062543D01*
X0262254Y0064142D02*
X0264246Y0064142D01*
X0272254Y0064142D02*
X0274246Y0064142D01*
X0274766Y0068937D02*
X0271734Y0068937D01*
X0272515Y0070536D02*
X0273985Y0070536D01*
X0273985Y0072134D02*
X0272515Y0072134D01*
X0268250Y0072706D02*
X0268250Y0086288D01*
X0278250Y0086288D02*
X0278250Y0072706D01*
X0282515Y0072134D02*
X0290296Y0072134D01*
X0290296Y0070536D02*
X0282515Y0070536D01*
X0281734Y0068937D02*
X0291462Y0068937D01*
X0295601Y0067339D02*
X0005034Y0067339D01*
X0005034Y0068937D02*
X0014766Y0068937D01*
X0013985Y0070536D02*
X0005034Y0070536D01*
X0005034Y0072134D02*
X0013985Y0072134D01*
X0018250Y0072706D02*
X0018250Y0086288D01*
X0013198Y0086521D02*
X0005034Y0086521D01*
X0005034Y0084923D02*
X0013198Y0084923D01*
X0013198Y0083324D02*
X0005034Y0083324D01*
X0005034Y0081726D02*
X0013986Y0081726D01*
X0015941Y0080127D02*
X0005034Y0080127D01*
X0005034Y0078529D02*
X0015941Y0078529D01*
X0015941Y0076930D02*
X0005034Y0076930D01*
X0005034Y0075332D02*
X0013985Y0075332D01*
X0013985Y0073733D02*
X0005034Y0073733D01*
X0020559Y0076930D02*
X0025941Y0076930D01*
X0023985Y0075332D02*
X0022515Y0075332D01*
X0022515Y0073733D02*
X0023985Y0073733D01*
X0023985Y0072134D02*
X0022515Y0072134D01*
X0022515Y0070536D02*
X0023985Y0070536D01*
X0024766Y0068937D02*
X0021734Y0068937D01*
X0031734Y0068937D02*
X0034766Y0068937D01*
X0033985Y0070536D02*
X0032515Y0070536D01*
X0032515Y0072134D02*
X0033985Y0072134D01*
X0038250Y0072706D02*
X0038250Y0086288D01*
X0028250Y0086288D02*
X0028250Y0072706D01*
X0032515Y0073733D02*
X0033985Y0073733D01*
X0033985Y0075332D02*
X0032515Y0075332D01*
X0030559Y0076930D02*
X0035941Y0076930D01*
X0035941Y0078529D02*
X0030559Y0078529D01*
X0030559Y0080127D02*
X0035941Y0080127D01*
X0033986Y0081726D02*
X0032514Y0081726D01*
X0025941Y0080127D02*
X0020559Y0080127D01*
X0020559Y0078529D02*
X0025941Y0078529D01*
X0023986Y0081726D02*
X0022514Y0081726D01*
X0040559Y0080127D02*
X0045941Y0080127D01*
X0045941Y0078529D02*
X0040559Y0078529D01*
X0040559Y0076930D02*
X0045941Y0076930D01*
X0043985Y0075332D02*
X0042515Y0075332D01*
X0042515Y0073733D02*
X0043985Y0073733D01*
X0043985Y0072134D02*
X0042515Y0072134D01*
X0042515Y0070536D02*
X0043985Y0070536D01*
X0044766Y0068937D02*
X0041734Y0068937D01*
X0051734Y0068937D02*
X0054766Y0068937D01*
X0053985Y0070536D02*
X0052515Y0070536D01*
X0052515Y0072134D02*
X0053985Y0072134D01*
X0058250Y0072706D02*
X0058250Y0086288D01*
X0048250Y0086288D02*
X0048250Y0072706D01*
X0052515Y0073733D02*
X0053985Y0073733D01*
X0053985Y0075332D02*
X0052515Y0075332D01*
X0050559Y0076930D02*
X0055941Y0076930D01*
X0055941Y0078529D02*
X0050559Y0078529D01*
X0050559Y0080127D02*
X0055941Y0080127D01*
X0053986Y0081726D02*
X0052514Y0081726D01*
X0060559Y0080127D02*
X0065941Y0080127D01*
X0065941Y0078529D02*
X0060559Y0078529D01*
X0060559Y0076930D02*
X0065941Y0076930D01*
X0063985Y0075332D02*
X0062515Y0075332D01*
X0062515Y0073733D02*
X0063985Y0073733D01*
X0063985Y0072134D02*
X0062515Y0072134D01*
X0062515Y0070536D02*
X0063985Y0070536D01*
X0064766Y0068937D02*
X0061734Y0068937D01*
X0072515Y0073733D02*
X0073985Y0073733D01*
X0073985Y0075332D02*
X0072515Y0075332D01*
X0070559Y0076930D02*
X0075941Y0076930D01*
X0075941Y0078529D02*
X0070559Y0078529D01*
X0070559Y0080127D02*
X0075941Y0080127D01*
X0073986Y0081726D02*
X0072514Y0081726D01*
X0080559Y0080127D02*
X0085941Y0080127D01*
X0085941Y0078529D02*
X0080559Y0078529D01*
X0080559Y0076930D02*
X0085941Y0076930D01*
X0083985Y0075332D02*
X0082515Y0075332D01*
X0082515Y0073733D02*
X0083985Y0073733D01*
X0088250Y0072706D02*
X0088250Y0086288D01*
X0083986Y0081726D02*
X0082514Y0081726D01*
X0090559Y0076930D02*
X0110941Y0076930D01*
X0108985Y0075332D02*
X0092515Y0075332D01*
X0092515Y0073733D02*
X0108985Y0073733D01*
X0115559Y0076930D02*
X0120941Y0076930D01*
X0118985Y0075332D02*
X0117515Y0075332D01*
X0117515Y0073733D02*
X0118985Y0073733D01*
X0118985Y0072134D02*
X0117515Y0072134D01*
X0117515Y0070536D02*
X0118985Y0070536D01*
X0119766Y0068937D02*
X0116734Y0068937D01*
X0108985Y0060945D02*
X0097432Y0060945D01*
X0097751Y0059346D02*
X0108985Y0059346D01*
X0109145Y0057748D02*
X0097291Y0057748D01*
X0094340Y0056149D02*
X0111757Y0056149D01*
X0111757Y0054551D02*
X0092741Y0054551D01*
X0091143Y0052952D02*
X0111757Y0052952D01*
X0111757Y0051354D02*
X0103217Y0051354D01*
X0104815Y0049755D02*
X0111757Y0049755D01*
X0111757Y0048157D02*
X0105853Y0048157D01*
X0105456Y0049115D02*
X0105456Y0049115D01*
X0106515Y0046558D02*
X0111757Y0046558D01*
X0111757Y0044960D02*
X0106750Y0044960D01*
X0106750Y0043361D02*
X0110965Y0043361D01*
X0110757Y0041763D02*
X0106399Y0041763D01*
X0105737Y0040164D02*
X0111424Y0040164D01*
X0093741Y0036967D02*
X0075158Y0036967D01*
X0076756Y0038566D02*
X0091963Y0038566D01*
X0091044Y0039485D02*
X0091044Y0039485D01*
X0090763Y0040164D02*
X0078355Y0040164D01*
X0079953Y0041763D02*
X0090101Y0041763D01*
X0089750Y0043361D02*
X0081552Y0043361D01*
X0083150Y0044960D02*
X0089750Y0044960D01*
X0089985Y0046558D02*
X0084749Y0046558D01*
X0086347Y0048157D02*
X0090647Y0048157D01*
X0091685Y0049755D02*
X0087946Y0049755D01*
X0081416Y0049755D02*
X0079866Y0049755D01*
X0079817Y0048157D02*
X0078267Y0048157D01*
X0078219Y0046558D02*
X0077814Y0046558D01*
X0076620Y0044960D02*
X0076189Y0044960D01*
X0073448Y0044960D02*
X0065800Y0044960D01*
X0063059Y0044960D02*
X0060029Y0044960D01*
X0057287Y0044960D02*
X0049640Y0044960D01*
X0070226Y0038566D02*
X0016850Y0038566D01*
X0017990Y0036967D02*
X0067272Y0036967D01*
X0065982Y0035369D02*
X0018459Y0035369D01*
X0018459Y0033770D02*
X0065738Y0033770D01*
X0066317Y0032172D02*
X0017799Y0032172D01*
X0016389Y0030573D02*
X0205111Y0030573D01*
X0205258Y0032172D02*
X0071776Y0032172D01*
X0072355Y0033770D02*
X0205258Y0033770D01*
X0205258Y0035369D02*
X0073559Y0035369D01*
X0069047Y0034121D02*
X0094442Y0059517D01*
X0087810Y0056149D02*
X0086260Y0056149D01*
X0086212Y0054551D02*
X0084661Y0054551D01*
X0084613Y0052952D02*
X0083063Y0052952D01*
X0083015Y0051354D02*
X0081464Y0051354D01*
X0076533Y0052952D02*
X0072674Y0052952D01*
X0074272Y0054551D02*
X0078131Y0054551D01*
X0079730Y0056149D02*
X0075871Y0056149D01*
X0063985Y0059346D02*
X0062515Y0059346D01*
X0061971Y0054551D02*
X0060222Y0054551D01*
X0071075Y0051354D02*
X0074934Y0051354D01*
X0089544Y0051354D02*
X0093283Y0051354D01*
X0093435Y0051506D02*
X0093435Y0051506D01*
X0071825Y0040164D02*
X0005034Y0040164D01*
X0005034Y0038566D02*
X0009650Y0038566D01*
X0008510Y0036967D02*
X0005034Y0036967D01*
X0005034Y0035369D02*
X0008041Y0035369D01*
X0008041Y0033770D02*
X0005034Y0033770D01*
X0005034Y0032172D02*
X0008701Y0032172D01*
X0013050Y0025778D02*
X0013450Y0025778D01*
X0013450Y0024179D02*
X0013050Y0024179D01*
X0013050Y0022581D02*
X0013450Y0022581D01*
X0013450Y0020982D02*
X0013050Y0020982D01*
X0013050Y0019384D02*
X0013450Y0019384D01*
X0020565Y0051354D02*
X0025337Y0051354D01*
X0025692Y0052952D02*
X0020565Y0052952D01*
X0020565Y0054551D02*
X0026337Y0054551D01*
X0026337Y0056149D02*
X0020565Y0056149D01*
X0022355Y0057748D02*
X0024145Y0057748D01*
X0032515Y0059346D02*
X0033985Y0059346D01*
X0042514Y0081726D02*
X0043986Y0081726D01*
X0062514Y0081726D02*
X0063986Y0081726D01*
X0063408Y0092915D02*
X0063092Y0092915D01*
X0077475Y0096112D02*
X0079025Y0096112D01*
X0079025Y0099309D02*
X0077475Y0099309D01*
X0077475Y0100908D02*
X0079025Y0100908D01*
X0112475Y0096112D02*
X0114025Y0096112D01*
X0114025Y0094514D02*
X0112475Y0094514D01*
X0112475Y0092915D02*
X0114025Y0092915D01*
X0118092Y0092915D02*
X0118408Y0092915D01*
X0122475Y0092915D02*
X0124025Y0092915D01*
X0124025Y0094514D02*
X0122475Y0094514D01*
X0122475Y0096112D02*
X0124025Y0096112D01*
X0124025Y0099309D02*
X0122475Y0099309D01*
X0122475Y0100908D02*
X0124025Y0100908D01*
X0132475Y0100908D02*
X0134025Y0100908D01*
X0134025Y0099309D02*
X0132475Y0099309D01*
X0132475Y0096112D02*
X0134025Y0096112D01*
X0134025Y0094514D02*
X0132475Y0094514D01*
X0132475Y0092915D02*
X0134025Y0092915D01*
X0138092Y0092915D02*
X0138408Y0092915D01*
X0142475Y0092915D02*
X0144025Y0092915D01*
X0144025Y0094514D02*
X0142475Y0094514D01*
X0142475Y0096112D02*
X0144025Y0096112D01*
X0144025Y0099309D02*
X0142475Y0099309D01*
X0142475Y0100908D02*
X0144025Y0100908D01*
X0152475Y0100908D02*
X0154025Y0100908D01*
X0154025Y0099309D02*
X0152475Y0099309D01*
X0152475Y0096112D02*
X0154025Y0096112D01*
X0154025Y0094514D02*
X0152475Y0094514D01*
X0152475Y0092915D02*
X0154025Y0092915D01*
X0158092Y0092915D02*
X0158408Y0092915D01*
X0162475Y0092915D02*
X0164025Y0092915D01*
X0164025Y0094514D02*
X0162475Y0094514D01*
X0162475Y0096112D02*
X0164025Y0096112D01*
X0164025Y0099309D02*
X0162475Y0099309D01*
X0162475Y0100908D02*
X0164025Y0100908D01*
X0172475Y0100908D02*
X0174025Y0100908D01*
X0174025Y0099309D02*
X0172475Y0099309D01*
X0172475Y0096112D02*
X0174025Y0096112D01*
X0174025Y0094514D02*
X0172475Y0094514D01*
X0172475Y0092915D02*
X0174025Y0092915D01*
X0178092Y0092915D02*
X0178408Y0092915D01*
X0182475Y0092915D02*
X0184025Y0092915D01*
X0184025Y0092362D02*
X0187030Y0092362D01*
X0187488Y0092485D01*
X0187899Y0092722D01*
X0188234Y0093057D01*
X0188471Y0093467D01*
X0188593Y0093925D01*
X0188593Y0096537D01*
X0184025Y0096537D01*
X0184025Y0092362D01*
X0188092Y0092915D02*
X0203408Y0092915D01*
X0202907Y0094514D02*
X0188593Y0094514D01*
X0184025Y0094514D02*
X0182475Y0094514D01*
X0182475Y0096112D02*
X0184025Y0096112D01*
X0188593Y0096112D02*
X0202907Y0096112D01*
X0207475Y0096112D02*
X0209025Y0096112D01*
X0209025Y0094514D02*
X0207475Y0094514D01*
X0207475Y0092915D02*
X0209025Y0092915D01*
X0213092Y0092915D02*
X0213408Y0092915D01*
X0217475Y0092915D02*
X0219025Y0092915D01*
X0219025Y0094514D02*
X0217475Y0094514D01*
X0223092Y0092915D02*
X0223408Y0092915D01*
X0227475Y0092915D02*
X0229025Y0092915D01*
X0229025Y0094514D02*
X0227475Y0094514D01*
X0227475Y0096112D02*
X0229025Y0096112D01*
X0229025Y0099309D02*
X0227475Y0099309D01*
X0227475Y0100908D02*
X0229025Y0100908D01*
X0237475Y0100908D02*
X0239025Y0100908D01*
X0239025Y0099309D02*
X0237475Y0099309D01*
X0237475Y0096112D02*
X0239025Y0096112D01*
X0239025Y0094514D02*
X0237475Y0094514D01*
X0237475Y0092915D02*
X0239025Y0092915D01*
X0243092Y0092915D02*
X0243408Y0092915D01*
X0247475Y0092915D02*
X0249025Y0092915D01*
X0249025Y0094514D02*
X0247475Y0094514D01*
X0247475Y0096112D02*
X0249025Y0096112D01*
X0249025Y0099309D02*
X0247475Y0099309D01*
X0247475Y0100908D02*
X0249025Y0100908D01*
X0257475Y0096112D02*
X0259025Y0096112D01*
X0259025Y0094514D02*
X0257475Y0094514D01*
X0257475Y0092915D02*
X0259025Y0092915D01*
X0263092Y0092915D02*
X0263408Y0092915D01*
X0267475Y0092915D02*
X0269025Y0092915D01*
X0269025Y0094514D02*
X0267475Y0094514D01*
X0267475Y0096112D02*
X0269025Y0096112D01*
X0277475Y0096112D02*
X0279025Y0096112D01*
X0279025Y0094514D02*
X0277475Y0094514D01*
X0277475Y0092915D02*
X0279025Y0092915D01*
X0283092Y0092915D02*
X0290296Y0092915D01*
X0290296Y0094514D02*
X0283593Y0094514D01*
X0273408Y0092915D02*
X0273092Y0092915D01*
X0253408Y0092915D02*
X0253092Y0092915D01*
X0233408Y0092915D02*
X0233092Y0092915D01*
X0219025Y0096112D02*
X0217475Y0096112D01*
X0217475Y0099309D02*
X0219025Y0099309D01*
X0219025Y0100908D02*
X0217475Y0100908D01*
X0209025Y0100908D02*
X0207475Y0100908D01*
X0202963Y0100908D02*
X0188537Y0100908D01*
X0184025Y0100908D02*
X0182475Y0100908D01*
X0188593Y0099309D02*
X0202907Y0099309D01*
X0207475Y0099309D02*
X0209025Y0099309D01*
X0203198Y0089718D02*
X0188302Y0089718D01*
X0188302Y0088120D02*
X0203198Y0088120D01*
X0203198Y0086521D02*
X0188302Y0086521D01*
X0188302Y0084923D02*
X0203198Y0084923D01*
X0203198Y0083324D02*
X0188302Y0083324D01*
X0187514Y0081726D02*
X0203986Y0081726D01*
X0220559Y0080127D02*
X0225941Y0080127D01*
X0225941Y0078529D02*
X0220559Y0078529D01*
X0220559Y0076930D02*
X0225941Y0076930D01*
X0223985Y0075332D02*
X0222515Y0075332D01*
X0222515Y0073733D02*
X0223985Y0073733D01*
X0223985Y0072134D02*
X0222515Y0072134D01*
X0222515Y0070536D02*
X0223985Y0070536D01*
X0224766Y0068937D02*
X0221734Y0068937D01*
X0231734Y0068937D02*
X0234766Y0068937D01*
X0233985Y0070536D02*
X0232515Y0070536D01*
X0232515Y0072134D02*
X0233985Y0072134D01*
X0238250Y0072706D02*
X0238250Y0086288D01*
X0228250Y0086288D02*
X0228250Y0072706D01*
X0232515Y0073733D02*
X0233985Y0073733D01*
X0233985Y0075332D02*
X0232515Y0075332D01*
X0230559Y0076930D02*
X0235941Y0076930D01*
X0235941Y0078529D02*
X0230559Y0078529D01*
X0230559Y0080127D02*
X0235941Y0080127D01*
X0233986Y0081726D02*
X0232514Y0081726D01*
X0240559Y0080127D02*
X0245941Y0080127D01*
X0245941Y0078529D02*
X0240559Y0078529D01*
X0240559Y0076930D02*
X0245941Y0076930D01*
X0243985Y0075332D02*
X0242515Y0075332D01*
X0242515Y0073733D02*
X0243985Y0073733D01*
X0243985Y0072134D02*
X0242515Y0072134D01*
X0242515Y0070536D02*
X0243985Y0070536D01*
X0244766Y0068937D02*
X0241734Y0068937D01*
X0251734Y0068937D02*
X0254766Y0068937D01*
X0253985Y0070536D02*
X0252515Y0070536D01*
X0252515Y0072134D02*
X0253985Y0072134D01*
X0258250Y0072706D02*
X0258250Y0086288D01*
X0248250Y0086288D02*
X0248250Y0072706D01*
X0252515Y0073733D02*
X0253985Y0073733D01*
X0253985Y0075332D02*
X0252515Y0075332D01*
X0250559Y0076930D02*
X0255941Y0076930D01*
X0255941Y0078529D02*
X0250559Y0078529D01*
X0250559Y0080127D02*
X0255941Y0080127D01*
X0253986Y0081726D02*
X0252514Y0081726D01*
X0260559Y0080127D02*
X0265941Y0080127D01*
X0265941Y0078529D02*
X0260559Y0078529D01*
X0260559Y0076930D02*
X0265941Y0076930D01*
X0263985Y0075332D02*
X0262515Y0075332D01*
X0262515Y0073733D02*
X0263985Y0073733D01*
X0263985Y0072134D02*
X0262515Y0072134D01*
X0262515Y0070536D02*
X0263985Y0070536D01*
X0264766Y0068937D02*
X0261734Y0068937D01*
X0254246Y0064142D02*
X0252254Y0064142D01*
X0272515Y0059346D02*
X0273391Y0059346D01*
X0270194Y0056149D02*
X0266335Y0056149D01*
X0301067Y0067597D02*
X0303376Y0065288D01*
X0306839Y0065288D01*
X0307993Y0064134D01*
X0307993Y0058362D01*
X0342623Y0023732D01*
X0349549Y0023732D01*
X0352653Y0022581D02*
X0354367Y0022581D01*
X0352858Y0024179D02*
X0355966Y0024179D01*
X0352183Y0025778D02*
X0370560Y0025778D01*
X0384340Y0032172D02*
X0395167Y0032172D01*
X0395167Y0033770D02*
X0385939Y0033770D01*
X0387537Y0035369D02*
X0395167Y0035369D01*
X0395167Y0036967D02*
X0389136Y0036967D01*
X0390734Y0038566D02*
X0395167Y0038566D01*
X0395167Y0040164D02*
X0392333Y0040164D01*
X0393931Y0041763D02*
X0395167Y0041763D01*
X0341469Y0051354D02*
X0332119Y0051354D01*
X0330656Y0052952D02*
X0330520Y0052952D01*
X0330080Y0054551D02*
X0328922Y0054551D01*
X0324154Y0056054D02*
X0324154Y0060671D01*
X0323250Y0060894D01*
X0327515Y0060945D02*
X0328985Y0060945D01*
X0328985Y0062543D02*
X0327515Y0062543D01*
X0327254Y0064142D02*
X0329246Y0064142D01*
X0337254Y0064142D02*
X0339246Y0064142D01*
X0339766Y0068937D02*
X0336734Y0068937D01*
X0337515Y0070536D02*
X0338985Y0070536D01*
X0338985Y0072134D02*
X0337515Y0072134D01*
X0333250Y0072706D02*
X0333250Y0086288D01*
X0343250Y0086288D02*
X0343250Y0072706D01*
X0347515Y0072134D02*
X0348985Y0072134D01*
X0348985Y0070536D02*
X0347515Y0070536D01*
X0346734Y0068937D02*
X0349766Y0068937D01*
X0356734Y0068937D02*
X0359766Y0068937D01*
X0358985Y0070536D02*
X0357515Y0070536D01*
X0357515Y0072134D02*
X0358985Y0072134D01*
X0353250Y0072706D02*
X0353250Y0086288D01*
X0357514Y0081726D02*
X0358986Y0081726D01*
X0360941Y0080127D02*
X0355559Y0080127D01*
X0355559Y0078529D02*
X0360941Y0078529D01*
X0365559Y0078529D02*
X0370941Y0078529D01*
X0370941Y0080127D02*
X0365559Y0080127D01*
X0367514Y0081726D02*
X0368986Y0081726D01*
X0370941Y0076930D02*
X0365559Y0076930D01*
X0367515Y0075332D02*
X0368985Y0075332D01*
X0368985Y0073733D02*
X0367515Y0073733D01*
X0360941Y0076930D02*
X0355559Y0076930D01*
X0357515Y0075332D02*
X0358985Y0075332D01*
X0358985Y0073733D02*
X0357515Y0073733D01*
X0350941Y0076930D02*
X0345559Y0076930D01*
X0347515Y0075332D02*
X0348985Y0075332D01*
X0348985Y0073733D02*
X0347515Y0073733D01*
X0340941Y0076930D02*
X0335559Y0076930D01*
X0337515Y0075332D02*
X0338985Y0075332D01*
X0338985Y0073733D02*
X0337515Y0073733D01*
X0330941Y0076930D02*
X0325559Y0076930D01*
X0327515Y0075332D02*
X0328985Y0075332D01*
X0328985Y0073733D02*
X0327515Y0073733D01*
X0323250Y0072706D02*
X0323250Y0086288D01*
X0313250Y0086288D02*
X0313250Y0072706D01*
X0317515Y0072134D02*
X0318985Y0072134D01*
X0318985Y0070536D02*
X0317515Y0070536D01*
X0316734Y0068937D02*
X0319766Y0068937D01*
X0326734Y0068937D02*
X0329766Y0068937D01*
X0328985Y0070536D02*
X0327515Y0070536D01*
X0327515Y0072134D02*
X0328985Y0072134D01*
X0318985Y0073733D02*
X0317515Y0073733D01*
X0317515Y0075332D02*
X0318985Y0075332D01*
X0320941Y0076930D02*
X0315559Y0076930D01*
X0310941Y0076930D02*
X0305559Y0076930D01*
X0307515Y0075332D02*
X0308985Y0075332D01*
X0308985Y0073733D02*
X0307515Y0073733D01*
X0303250Y0072706D02*
X0303250Y0086288D01*
X0298198Y0086521D02*
X0294913Y0086521D01*
X0294913Y0084923D02*
X0298198Y0084923D01*
X0298198Y0083324D02*
X0294913Y0083324D01*
X0290296Y0083324D02*
X0283302Y0083324D01*
X0283302Y0084923D02*
X0290296Y0084923D01*
X0290296Y0086521D02*
X0283302Y0086521D01*
X0282514Y0081726D02*
X0290296Y0081726D01*
X0290296Y0080127D02*
X0280559Y0080127D01*
X0280559Y0078529D02*
X0290296Y0078529D01*
X0294913Y0078529D02*
X0300941Y0078529D01*
X0300941Y0080127D02*
X0294913Y0080127D01*
X0294913Y0081726D02*
X0298986Y0081726D01*
X0305559Y0080127D02*
X0310941Y0080127D01*
X0310941Y0078529D02*
X0305559Y0078529D01*
X0307514Y0081726D02*
X0308986Y0081726D01*
X0315559Y0080127D02*
X0320941Y0080127D01*
X0320941Y0078529D02*
X0315559Y0078529D01*
X0317514Y0081726D02*
X0318986Y0081726D01*
X0325559Y0080127D02*
X0330941Y0080127D01*
X0330941Y0078529D02*
X0325559Y0078529D01*
X0327514Y0081726D02*
X0328986Y0081726D01*
X0335559Y0080127D02*
X0340941Y0080127D01*
X0340941Y0078529D02*
X0335559Y0078529D01*
X0337514Y0081726D02*
X0338986Y0081726D01*
X0345559Y0080127D02*
X0350941Y0080127D01*
X0350941Y0078529D02*
X0345559Y0078529D01*
X0347514Y0081726D02*
X0348986Y0081726D01*
X0374025Y0092362D02*
X0377030Y0092362D01*
X0377488Y0092485D01*
X0377899Y0092722D01*
X0378234Y0093057D01*
X0378471Y0093467D01*
X0378593Y0093925D01*
X0378593Y0096537D01*
X0374025Y0096537D01*
X0374025Y0092362D01*
X0374025Y0092915D02*
X0372475Y0092915D01*
X0372475Y0094514D02*
X0374025Y0094514D01*
X0378092Y0092915D02*
X0383300Y0092915D01*
X0381701Y0094514D02*
X0378593Y0094514D01*
X0378593Y0096112D02*
X0380103Y0096112D01*
X0378504Y0097711D02*
X0374025Y0097711D01*
X0374025Y0096112D02*
X0372475Y0096112D01*
X0368408Y0092915D02*
X0368092Y0092915D01*
X0364025Y0092915D02*
X0362475Y0092915D01*
X0362475Y0094514D02*
X0364025Y0094514D01*
X0358408Y0092915D02*
X0358092Y0092915D01*
X0354025Y0092915D02*
X0352475Y0092915D01*
X0352475Y0094514D02*
X0354025Y0094514D01*
X0348408Y0092915D02*
X0348092Y0092915D01*
X0344025Y0092915D02*
X0342475Y0092915D01*
X0342475Y0094514D02*
X0344025Y0094514D01*
X0338408Y0092915D02*
X0338092Y0092915D01*
X0334025Y0092915D02*
X0332475Y0092915D01*
X0332475Y0094514D02*
X0334025Y0094514D01*
X0328408Y0092915D02*
X0328092Y0092915D01*
X0324025Y0092915D02*
X0322475Y0092915D01*
X0322475Y0094514D02*
X0324025Y0094514D01*
X0318408Y0092915D02*
X0318092Y0092915D01*
X0314025Y0092915D02*
X0312475Y0092915D01*
X0312475Y0094514D02*
X0314025Y0094514D01*
X0308408Y0092915D02*
X0308092Y0092915D01*
X0304025Y0092915D02*
X0302475Y0092915D01*
X0302475Y0094514D02*
X0304025Y0094514D01*
X0298408Y0092915D02*
X0294913Y0092915D01*
X0294913Y0094514D02*
X0297907Y0094514D01*
X0312475Y0096112D02*
X0314025Y0096112D01*
X0314025Y0099309D02*
X0312475Y0099309D01*
X0312475Y0100908D02*
X0314025Y0100908D01*
X0322475Y0100908D02*
X0324025Y0100908D01*
X0324025Y0099309D02*
X0322475Y0099309D01*
X0322475Y0096112D02*
X0324025Y0096112D01*
X0332475Y0096112D02*
X0334025Y0096112D01*
X0334025Y0099309D02*
X0332475Y0099309D01*
X0332475Y0100908D02*
X0334025Y0100908D01*
X0342475Y0100908D02*
X0344025Y0100908D01*
X0344025Y0099309D02*
X0342475Y0099309D01*
X0342475Y0096112D02*
X0344025Y0096112D01*
X0352475Y0096112D02*
X0354025Y0096112D01*
X0354025Y0099309D02*
X0352475Y0099309D01*
X0352475Y0100908D02*
X0354025Y0100908D01*
X0354636Y0104105D02*
X0351864Y0104105D01*
X0362475Y0100908D02*
X0364025Y0100908D01*
X0364025Y0099309D02*
X0362475Y0099309D01*
X0362475Y0096112D02*
X0364025Y0096112D01*
X0300941Y0076930D02*
X0294913Y0076930D01*
X0294913Y0075332D02*
X0298985Y0075332D01*
X0298985Y0073733D02*
X0294913Y0073733D01*
X0290296Y0073733D02*
X0282515Y0073733D01*
X0282515Y0075332D02*
X0290296Y0075332D01*
X0290296Y0076930D02*
X0280559Y0076930D01*
X0275941Y0076930D02*
X0270559Y0076930D01*
X0272515Y0075332D02*
X0273985Y0075332D01*
X0273985Y0073733D02*
X0272515Y0073733D01*
X0270559Y0078529D02*
X0275941Y0078529D01*
X0275941Y0080127D02*
X0270559Y0080127D01*
X0272514Y0081726D02*
X0273986Y0081726D01*
X0263986Y0081726D02*
X0262514Y0081726D01*
X0243986Y0081726D02*
X0242514Y0081726D01*
X0223986Y0081726D02*
X0222514Y0081726D01*
X0180941Y0080127D02*
X0175559Y0080127D01*
X0175559Y0078529D02*
X0180941Y0078529D01*
X0178986Y0081726D02*
X0177514Y0081726D01*
X0170941Y0080127D02*
X0165559Y0080127D01*
X0165559Y0078529D02*
X0170941Y0078529D01*
X0168986Y0081726D02*
X0167514Y0081726D01*
X0160941Y0080127D02*
X0155559Y0080127D01*
X0155559Y0078529D02*
X0160941Y0078529D01*
X0158986Y0081726D02*
X0157514Y0081726D01*
X0150941Y0080127D02*
X0145559Y0080127D01*
X0145559Y0078529D02*
X0150941Y0078529D01*
X0148986Y0081726D02*
X0147514Y0081726D01*
X0140941Y0080127D02*
X0135559Y0080127D01*
X0135559Y0078529D02*
X0140941Y0078529D01*
X0138986Y0081726D02*
X0137514Y0081726D01*
X0128986Y0081726D02*
X0127514Y0081726D01*
X0128092Y0092915D02*
X0128408Y0092915D01*
X0148092Y0092915D02*
X0148408Y0092915D01*
X0168092Y0092915D02*
X0168408Y0092915D01*
X0043408Y0092915D02*
X0043092Y0092915D01*
X0023408Y0092915D02*
X0023092Y0092915D01*
X0019025Y0092915D02*
X0017475Y0092915D01*
X0017475Y0094514D02*
X0019025Y0094514D01*
X0013198Y0089718D02*
X0005034Y0089718D01*
X0005034Y0088120D02*
X0013198Y0088120D01*
X0145767Y0049755D02*
X0147696Y0049755D01*
X0228344Y0023732D02*
X0230653Y0023732D01*
X0247814Y0009793D02*
X0250431Y0009793D01*
X0253740Y0009880D02*
X0336852Y0009880D01*
X0340160Y0009793D02*
X0395167Y0009793D01*
X0395167Y0011391D02*
X0349708Y0011391D01*
X0351306Y0012990D02*
X0395167Y0012990D01*
X0395167Y0014588D02*
X0352905Y0014588D01*
X0354503Y0016187D02*
X0395167Y0016187D01*
X0395167Y0017785D02*
X0356102Y0017785D01*
X0347620Y0020982D02*
X0334163Y0020982D01*
X0330919Y0032172D02*
X0327060Y0032172D01*
X0290101Y0041763D02*
X0289524Y0041763D01*
X0289524Y0043361D02*
X0289750Y0043361D01*
X0289750Y0044960D02*
X0289524Y0044960D01*
X0284907Y0044960D02*
X0270407Y0044960D01*
X0272006Y0043361D02*
X0284907Y0043361D01*
X0284907Y0041763D02*
X0273604Y0041763D01*
X0307878Y0051354D02*
X0311737Y0051354D01*
X0310138Y0052952D02*
X0306279Y0052952D01*
X0305685Y0054551D02*
X0308540Y0054551D01*
X0315070Y0054551D02*
X0316620Y0054551D01*
X0316668Y0052952D02*
X0318219Y0052952D01*
X0318267Y0051354D02*
X0319817Y0051354D01*
X0319865Y0049755D02*
X0321416Y0049755D01*
X0321464Y0048157D02*
X0323014Y0048157D01*
X0323062Y0046558D02*
X0323467Y0046558D01*
X0326463Y0047973D02*
X0313765Y0060671D01*
X0313250Y0060894D01*
X0317515Y0060945D02*
X0318985Y0060945D01*
X0318985Y0062543D02*
X0317515Y0062543D01*
X0317254Y0064142D02*
X0319246Y0064142D01*
X0318985Y0059346D02*
X0318354Y0059346D01*
X0327515Y0059346D02*
X0328985Y0059346D01*
X0315021Y0056149D02*
X0313471Y0056149D01*
X0306941Y0056149D02*
X0305685Y0056149D01*
X0309476Y0049755D02*
X0313335Y0049755D01*
X0314934Y0048157D02*
X0311075Y0048157D01*
X0312673Y0046558D02*
X0316532Y0046558D01*
X0324661Y0044960D02*
X0325092Y0044960D01*
X0347515Y0059346D02*
X0348985Y0059346D01*
X0309766Y0068937D02*
X0306734Y0068937D01*
X0307515Y0070536D02*
X0308985Y0070536D01*
X0308985Y0072134D02*
X0307515Y0072134D01*
X0298985Y0072134D02*
X0296074Y0072134D01*
X0339734Y0008194D02*
X0395167Y0008194D01*
X0395167Y0006596D02*
X0337567Y0006596D01*
X0336136Y0006596D02*
X0254456Y0006596D01*
X0253024Y0006596D02*
X0245221Y0006596D01*
X0243789Y0006596D02*
X0211745Y0006596D01*
X0209411Y0004997D02*
X0395167Y0004997D01*
X0250857Y0008194D02*
X0247388Y0008194D01*
X0241622Y0008194D02*
X0238003Y0008194D01*
D17*
X0244505Y0009880D03*
X0253740Y0009880D03*
X0211030Y0009880D03*
X0230653Y0023732D03*
X0237579Y0023732D03*
X0258357Y0031813D03*
X0283752Y0034121D03*
X0326463Y0047973D03*
X0332234Y0047973D03*
X0343778Y0047973D03*
X0353012Y0047973D03*
X0361093Y0049128D03*
X0356475Y0054899D03*
X0333389Y0054899D03*
X0268746Y0051436D03*
X0261820Y0054899D03*
X0237579Y0052591D03*
X0232962Y0056054D03*
X0216801Y0050282D03*
X0211030Y0053745D03*
X0234116Y0047973D03*
X0169474Y0047973D03*
X0159085Y0047973D03*
X0151004Y0049128D03*
X0142924Y0047973D03*
X0133689Y0047973D03*
X0123300Y0049128D03*
X0114066Y0042202D03*
X0074819Y0047973D03*
X0064430Y0047973D03*
X0058658Y0047973D03*
X0048269Y0047973D03*
X0039034Y0049128D03*
X0028645Y0051436D03*
X0018256Y0045665D03*
X0057504Y0052591D03*
X0094442Y0059517D03*
X0146387Y0054899D03*
X0069047Y0034121D03*
X0079436Y0023732D03*
X0126763Y0017961D03*
X0149850Y0023732D03*
X0159085Y0009880D03*
X0142924Y0007572D03*
X0207567Y0028350D03*
X0332234Y0023732D03*
X0349549Y0023732D03*
X0371481Y0022578D03*
X0336852Y0009880D03*
D18*
X0303250Y0104300D03*
X0285750Y0104300D03*
M02*
