G75*
%MOIN*%
%OFA0B0*%
%FSLAX25Y25*%
%IPPOS*%
%LPD*%
%AMOC8*
5,1,8,0,0,1.08239X$1,22.5*
%
%ADD10C,0.00800*%
%ADD11C,0.01600*%
%ADD12C,0.00600*%
%ADD13C,0.00100*%
%ADD14C,0.00500*%
%ADD15C,0.00400*%
D10*
X0073650Y0010100D02*
X0079789Y0010100D01*
X0073650Y0010100D02*
X0073650Y0019308D01*
X0149313Y0027169D02*
X0157187Y0027169D01*
X0153250Y0032574D01*
X0149313Y0027169D01*
X0149313Y0032574D02*
X0157187Y0032574D01*
X0168650Y0020273D02*
X0170185Y0021808D01*
X0173254Y0021808D01*
X0174789Y0020273D01*
X0170185Y0017204D02*
X0168650Y0018739D01*
X0168650Y0020273D01*
X0170185Y0017204D02*
X0173254Y0017204D01*
X0174789Y0015669D01*
X0174789Y0014135D01*
X0173254Y0012600D01*
X0170185Y0012600D01*
X0168650Y0014135D01*
X0150781Y0050763D02*
X0150781Y0058637D01*
X0145376Y0054700D01*
X0150781Y0050763D01*
X0145376Y0050763D02*
X0145376Y0058637D01*
X0113785Y0051800D02*
X0113787Y0051847D01*
X0113793Y0051894D01*
X0113803Y0051941D01*
X0113816Y0051986D01*
X0113834Y0052030D01*
X0113855Y0052072D01*
X0113879Y0052113D01*
X0113907Y0052151D01*
X0113938Y0052187D01*
X0113972Y0052220D01*
X0114008Y0052250D01*
X0114047Y0052277D01*
X0114088Y0052301D01*
X0114131Y0052321D01*
X0114175Y0052337D01*
X0114221Y0052350D01*
X0114267Y0052359D01*
X0114315Y0052364D01*
X0114362Y0052365D01*
X0114409Y0052362D01*
X0114456Y0052355D01*
X0114502Y0052344D01*
X0114547Y0052330D01*
X0114591Y0052311D01*
X0114632Y0052289D01*
X0114672Y0052264D01*
X0114710Y0052235D01*
X0114745Y0052204D01*
X0114778Y0052169D01*
X0114807Y0052132D01*
X0114833Y0052093D01*
X0114856Y0052051D01*
X0114875Y0052008D01*
X0114891Y0051963D01*
X0114903Y0051917D01*
X0114911Y0051871D01*
X0114915Y0051824D01*
X0114915Y0051776D01*
X0114911Y0051729D01*
X0114903Y0051683D01*
X0114891Y0051637D01*
X0114875Y0051592D01*
X0114856Y0051549D01*
X0114833Y0051507D01*
X0114807Y0051468D01*
X0114778Y0051431D01*
X0114745Y0051396D01*
X0114710Y0051365D01*
X0114672Y0051336D01*
X0114633Y0051311D01*
X0114591Y0051289D01*
X0114547Y0051270D01*
X0114502Y0051256D01*
X0114456Y0051245D01*
X0114409Y0051238D01*
X0114362Y0051235D01*
X0114315Y0051236D01*
X0114267Y0051241D01*
X0114221Y0051250D01*
X0114175Y0051263D01*
X0114131Y0051279D01*
X0114088Y0051299D01*
X0114047Y0051323D01*
X0114008Y0051350D01*
X0113972Y0051380D01*
X0113938Y0051413D01*
X0113907Y0051449D01*
X0113879Y0051487D01*
X0113855Y0051528D01*
X0113834Y0051570D01*
X0113816Y0051614D01*
X0113803Y0051659D01*
X0113793Y0051706D01*
X0113787Y0051753D01*
X0113785Y0051800D01*
D11*
X0113250Y0014700D02*
X0110750Y0012200D01*
X0113250Y0009700D01*
X0110750Y0012200D02*
X0148250Y0012200D01*
D12*
X0130612Y0023519D02*
X0130612Y0025881D01*
X0125888Y0025881D02*
X0125888Y0023519D01*
X0120612Y0023519D02*
X0120612Y0025881D01*
X0115888Y0025881D02*
X0115888Y0023519D01*
X0110612Y0023519D02*
X0110612Y0025881D01*
X0105888Y0025881D02*
X0105888Y0023519D01*
X0100612Y0023519D02*
X0100612Y0025881D01*
X0095888Y0025881D02*
X0095888Y0023519D01*
X0089431Y0032338D02*
X0087069Y0032338D01*
X0087069Y0037062D02*
X0089431Y0037062D01*
X0111152Y0035401D02*
X0125348Y0035401D01*
X0095612Y0043519D02*
X0095612Y0045881D01*
X0090888Y0045881D02*
X0090888Y0043519D01*
X0085612Y0043519D02*
X0085612Y0045881D01*
X0080888Y0045881D02*
X0080888Y0043519D01*
X0111152Y0053999D02*
X0125348Y0053999D01*
X0125888Y0063519D02*
X0125888Y0065881D01*
X0130612Y0065881D02*
X0130612Y0063519D01*
X0160888Y0035881D02*
X0160888Y0033519D01*
X0165612Y0033519D02*
X0165612Y0035881D01*
D13*
X0166549Y0035554D02*
X0166799Y0035804D01*
X0167299Y0035804D01*
X0167550Y0035554D01*
X0167550Y0034803D01*
X0168050Y0034803D02*
X0166549Y0034803D01*
X0166549Y0035554D01*
X0166799Y0036277D02*
X0166549Y0036527D01*
X0166549Y0037027D01*
X0166799Y0037278D01*
X0167049Y0037278D01*
X0168050Y0036277D01*
X0168050Y0037278D01*
X0168050Y0035804D02*
X0167550Y0035304D01*
X0133050Y0027278D02*
X0133050Y0026277D01*
X0133050Y0026777D02*
X0131549Y0026777D01*
X0132049Y0026277D01*
X0131799Y0025804D02*
X0131549Y0025554D01*
X0131549Y0025054D01*
X0131799Y0024803D01*
X0132800Y0024803D01*
X0133050Y0025054D01*
X0133050Y0025554D01*
X0132800Y0025804D01*
X0123050Y0025804D02*
X0122550Y0025304D01*
X0122550Y0025554D02*
X0122550Y0024803D01*
X0123050Y0024803D02*
X0121549Y0024803D01*
X0121549Y0025554D01*
X0121799Y0025804D01*
X0122299Y0025804D01*
X0122550Y0025554D01*
X0122800Y0026277D02*
X0123050Y0026527D01*
X0123050Y0027027D01*
X0122800Y0027278D01*
X0122550Y0027278D01*
X0122299Y0027027D01*
X0122299Y0026777D01*
X0122299Y0027027D02*
X0122049Y0027278D01*
X0121799Y0027278D01*
X0121549Y0027027D01*
X0121549Y0026527D01*
X0121799Y0026277D01*
X0104950Y0023974D02*
X0103449Y0023974D01*
X0104199Y0023223D01*
X0104199Y0024224D01*
X0103050Y0025054D02*
X0102800Y0024803D01*
X0101799Y0024803D01*
X0101549Y0025054D01*
X0101549Y0025554D01*
X0101799Y0025804D01*
X0101799Y0026277D02*
X0101549Y0026527D01*
X0101549Y0027027D01*
X0101799Y0027278D01*
X0102049Y0027278D01*
X0103050Y0026277D01*
X0103050Y0027278D01*
X0102800Y0025804D02*
X0103050Y0025554D01*
X0103050Y0025054D01*
X0103699Y0022751D02*
X0104199Y0022751D01*
X0104450Y0022501D01*
X0104450Y0021750D01*
X0104950Y0021750D02*
X0103449Y0021750D01*
X0103449Y0022501D01*
X0103699Y0022751D01*
X0104450Y0022250D02*
X0104950Y0022751D01*
X0087774Y0038250D02*
X0087524Y0038000D01*
X0087023Y0038000D01*
X0086773Y0038250D01*
X0086301Y0038250D02*
X0086051Y0038000D01*
X0085550Y0038000D01*
X0085300Y0038250D01*
X0085300Y0039251D01*
X0085550Y0039501D01*
X0086051Y0039501D01*
X0086301Y0039251D01*
X0086773Y0039251D02*
X0087023Y0039501D01*
X0087524Y0039501D01*
X0087774Y0039251D01*
X0087774Y0039001D01*
X0087524Y0038751D01*
X0087774Y0038500D01*
X0087774Y0038250D01*
X0087524Y0038751D02*
X0087274Y0038751D01*
X0087550Y0044803D02*
X0087550Y0045554D01*
X0087299Y0045804D01*
X0086799Y0045804D01*
X0086549Y0045554D01*
X0086549Y0044803D01*
X0088050Y0044803D01*
X0087550Y0045304D02*
X0088050Y0045804D01*
X0087800Y0046277D02*
X0088050Y0046527D01*
X0088050Y0047027D01*
X0087800Y0047278D01*
X0087299Y0047278D01*
X0087049Y0047027D01*
X0087049Y0046777D01*
X0087299Y0046277D01*
X0086549Y0046277D01*
X0086549Y0047278D01*
X0096549Y0047278D02*
X0096799Y0046777D01*
X0097299Y0046277D01*
X0097299Y0047027D01*
X0097550Y0047278D01*
X0097800Y0047278D01*
X0098050Y0047027D01*
X0098050Y0046527D01*
X0097800Y0046277D01*
X0097299Y0046277D01*
X0097299Y0045804D02*
X0097550Y0045554D01*
X0097550Y0044803D01*
X0098050Y0044803D02*
X0096549Y0044803D01*
X0096549Y0045554D01*
X0096799Y0045804D01*
X0097299Y0045804D01*
X0097550Y0045304D02*
X0098050Y0045804D01*
X0118049Y0047304D02*
X0120050Y0047304D01*
X0119800Y0047054D02*
X0119800Y0047554D01*
X0119550Y0047804D01*
X0119300Y0047804D01*
X0119049Y0047554D01*
X0119049Y0047054D01*
X0118799Y0046803D01*
X0118549Y0046803D01*
X0118299Y0047054D01*
X0118299Y0047554D01*
X0118549Y0047804D01*
X0118799Y0048277D02*
X0118299Y0048777D01*
X0119800Y0048777D01*
X0119800Y0048277D02*
X0119800Y0049278D01*
X0119800Y0047054D02*
X0119550Y0046803D01*
X0119550Y0046331D02*
X0118299Y0046331D01*
X0118299Y0045330D02*
X0119550Y0045330D01*
X0119800Y0045580D01*
X0119800Y0046081D01*
X0119550Y0046331D01*
X0085774Y0065501D02*
X0084773Y0064500D01*
X0084773Y0064250D01*
X0084301Y0064250D02*
X0083800Y0064750D01*
X0084051Y0064750D02*
X0083300Y0064750D01*
X0083300Y0064250D02*
X0083300Y0065751D01*
X0084051Y0065751D01*
X0084301Y0065501D01*
X0084301Y0065001D01*
X0084051Y0064750D01*
X0084773Y0065751D02*
X0085774Y0065751D01*
X0085774Y0065501D01*
X0131549Y0065554D02*
X0131549Y0064803D01*
X0133050Y0064803D01*
X0132550Y0064803D02*
X0132550Y0065554D01*
X0132299Y0065804D01*
X0131799Y0065804D01*
X0131549Y0065554D01*
X0132049Y0066277D02*
X0131549Y0066777D01*
X0133050Y0066777D01*
X0133050Y0066277D02*
X0133050Y0067278D01*
X0133050Y0065804D02*
X0132550Y0065304D01*
D14*
X0001250Y0044974D02*
X0001250Y0013700D01*
X0051250Y0013700D01*
X0051250Y0044974D01*
X0051250Y0076247D01*
X0073250Y0076247D02*
X0073250Y0044974D01*
X0051250Y0044974D01*
X0001250Y0044974D01*
X0001250Y0076247D01*
X0073250Y0076247D01*
X0103250Y0081700D02*
X0123250Y0081700D01*
X0123250Y0059700D01*
X0118250Y0059700D01*
X0118250Y0064700D01*
X0108250Y0064700D01*
X0108250Y0059700D01*
X0103250Y0059700D01*
X0103250Y0081700D01*
X0178250Y0075700D02*
X0178250Y0044426D01*
X0200250Y0044426D01*
X0200250Y0013153D01*
X0178250Y0013153D02*
X0178250Y0044426D01*
X0200250Y0044426D02*
X0200250Y0075700D01*
X0250250Y0075700D01*
X0250250Y0044426D01*
X0200250Y0044426D01*
X0250250Y0044426D02*
X0250250Y0013153D01*
X0178250Y0013153D01*
X0073250Y0013700D02*
X0073250Y0044974D01*
X0108250Y0059700D02*
X0118250Y0059700D01*
X0178250Y0075700D02*
X0200250Y0075700D01*
X0073250Y0013700D02*
X0051250Y0013700D01*
D15*
X0145750Y0020800D02*
X0145750Y0038600D01*
X0160750Y0038600D02*
X0160750Y0020800D01*
X0161946Y0024588D02*
X0165783Y0024588D01*
X0166550Y0025356D01*
X0166550Y0026890D01*
X0165783Y0027657D01*
X0161946Y0027657D01*
X0162713Y0029192D02*
X0161946Y0029959D01*
X0161946Y0031494D01*
X0162713Y0032261D01*
X0164248Y0031494D02*
X0165015Y0032261D01*
X0165783Y0032261D01*
X0166550Y0031494D01*
X0166550Y0029959D01*
X0165783Y0029192D01*
X0164248Y0029959D02*
X0163481Y0029192D01*
X0162713Y0029192D01*
X0164248Y0029959D02*
X0164248Y0031494D01*
X0161179Y0030727D02*
X0167317Y0030727D01*
X0166550Y0033796D02*
X0163481Y0036865D01*
X0162713Y0036865D01*
X0161946Y0036098D01*
X0161946Y0034563D01*
X0162713Y0033796D01*
X0166550Y0033796D02*
X0166550Y0036865D01*
X0157150Y0047200D02*
X0139350Y0047200D01*
X0139350Y0062200D02*
X0157150Y0062200D01*
X0152227Y0064167D02*
X0151460Y0063400D01*
X0149925Y0063400D01*
X0149158Y0064167D01*
X0147623Y0064167D02*
X0146856Y0063400D01*
X0145321Y0063400D01*
X0144554Y0064167D01*
X0143019Y0064167D02*
X0143019Y0068004D01*
X0144554Y0067237D02*
X0145321Y0068004D01*
X0146856Y0068004D01*
X0147623Y0067237D01*
X0149158Y0067237D02*
X0149925Y0068004D01*
X0151460Y0068004D01*
X0152227Y0067237D01*
X0152227Y0066469D01*
X0151460Y0065702D01*
X0152227Y0064935D01*
X0152227Y0064167D01*
X0151460Y0065702D02*
X0150692Y0065702D01*
X0147623Y0064935D02*
X0146856Y0065702D01*
X0145321Y0065702D01*
X0144554Y0066469D01*
X0144554Y0067237D01*
X0146089Y0068771D02*
X0146089Y0062633D01*
X0147623Y0064167D02*
X0147623Y0064935D01*
X0143019Y0064167D02*
X0142252Y0063400D01*
X0140717Y0063400D01*
X0139950Y0064167D01*
X0139950Y0068004D01*
M02*
