G75*
%MOIN*%
%OFA0B0*%
%FSLAX25Y25*%
%IPPOS*%
%LPD*%
%AMOC8*
5,1,8,0,0,1.08239X$1,22.5*
%
%ADD10C,0.00300*%
%ADD11C,0.00400*%
%ADD12C,0.00800*%
%ADD13C,0.00100*%
%ADD14C,0.00500*%
%ADD15C,0.00200*%
D10*
X0043400Y0004450D02*
X0043400Y0007352D01*
X0044851Y0007352D01*
X0045335Y0006869D01*
X0045335Y0005901D01*
X0044851Y0005417D01*
X0043400Y0005417D01*
X0044367Y0005417D02*
X0045335Y0004450D01*
X0046347Y0004934D02*
X0046830Y0004450D01*
X0048281Y0004450D01*
X0048281Y0006385D01*
X0049293Y0006385D02*
X0049777Y0006385D01*
X0050261Y0005901D01*
X0050744Y0006385D01*
X0051228Y0005901D01*
X0051228Y0004450D01*
X0050261Y0004450D02*
X0050261Y0005901D01*
X0049293Y0006385D02*
X0049293Y0004450D01*
X0052240Y0004450D02*
X0052240Y0006385D01*
X0052723Y0006385D01*
X0053207Y0005901D01*
X0053691Y0006385D01*
X0054175Y0005901D01*
X0054175Y0004450D01*
X0053207Y0004450D02*
X0053207Y0005901D01*
X0055186Y0004934D02*
X0055670Y0005417D01*
X0057121Y0005417D01*
X0057121Y0005901D02*
X0057121Y0004450D01*
X0055670Y0004450D01*
X0055186Y0004934D01*
X0055670Y0006385D02*
X0056637Y0006385D01*
X0057121Y0005901D01*
X0058133Y0006385D02*
X0058133Y0004450D01*
X0060068Y0004450D02*
X0060068Y0005901D01*
X0059584Y0006385D01*
X0058133Y0006385D01*
X0064026Y0007352D02*
X0064026Y0004450D01*
X0064993Y0005417D01*
X0065961Y0004450D01*
X0065961Y0007352D01*
X0067456Y0006385D02*
X0068423Y0006385D01*
X0068907Y0005901D01*
X0068907Y0004450D01*
X0067456Y0004450D01*
X0066972Y0004934D01*
X0067456Y0005417D01*
X0068907Y0005417D01*
X0069919Y0004934D02*
X0070402Y0004450D01*
X0071854Y0004450D01*
X0071854Y0003483D02*
X0071854Y0006385D01*
X0070402Y0006385D01*
X0069919Y0005901D01*
X0069919Y0004934D01*
X0072865Y0004934D02*
X0073349Y0004450D01*
X0074800Y0004450D01*
X0074800Y0005901D01*
X0074316Y0006385D01*
X0073349Y0006385D01*
X0073349Y0005417D02*
X0074800Y0005417D01*
X0075812Y0005417D02*
X0076779Y0006385D01*
X0077263Y0006385D01*
X0075812Y0006385D02*
X0075812Y0004450D01*
X0073349Y0005417D02*
X0072865Y0004934D01*
X0081214Y0005417D02*
X0082181Y0004450D01*
X0083178Y0004450D02*
X0085113Y0006385D01*
X0085113Y0006869D01*
X0084629Y0007352D01*
X0083662Y0007352D01*
X0083178Y0006869D01*
X0082181Y0007352D02*
X0081214Y0006385D01*
X0081214Y0005417D01*
X0083178Y0004450D02*
X0085113Y0004450D01*
X0086125Y0004934D02*
X0086608Y0004450D01*
X0087576Y0004450D01*
X0088059Y0004934D01*
X0088059Y0006869D01*
X0086125Y0004934D01*
X0086125Y0006869D01*
X0086608Y0007352D01*
X0087576Y0007352D01*
X0088059Y0006869D01*
X0089071Y0006385D02*
X0090039Y0007352D01*
X0090039Y0004450D01*
X0091006Y0004450D02*
X0089071Y0004450D01*
X0092018Y0004934D02*
X0092501Y0004450D01*
X0093469Y0004450D01*
X0093953Y0004934D01*
X0093953Y0005901D01*
X0093469Y0006385D01*
X0092985Y0006385D01*
X0092018Y0005901D01*
X0092018Y0007352D01*
X0093953Y0007352D01*
X0094964Y0007352D02*
X0095932Y0006385D01*
X0095932Y0005417D01*
X0094964Y0004450D01*
X0046347Y0004934D02*
X0046347Y0006385D01*
D11*
X0100946Y0074500D02*
X0105550Y0074500D01*
X0103248Y0074500D02*
X0103248Y0077569D01*
X0101713Y0079104D02*
X0104783Y0079104D01*
X0105550Y0079871D01*
X0105550Y0081406D01*
X0104783Y0082173D01*
X0101713Y0082173D01*
X0100946Y0081406D01*
X0100946Y0079871D01*
X0101713Y0079104D01*
X0100946Y0077569D02*
X0105550Y0077569D01*
X0105550Y0083708D02*
X0100946Y0083708D01*
X0100946Y0086010D01*
X0101713Y0086777D01*
X0103248Y0086777D01*
X0104015Y0086010D01*
X0104015Y0083708D01*
X0104015Y0085242D02*
X0105550Y0086777D01*
X0195946Y0086010D02*
X0195946Y0083708D01*
X0200550Y0083708D01*
X0199015Y0083708D02*
X0199015Y0086010D01*
X0198248Y0086777D01*
X0196713Y0086777D01*
X0195946Y0086010D01*
X0199015Y0085242D02*
X0200550Y0086777D01*
X0200550Y0082173D02*
X0200550Y0079104D01*
X0195946Y0079104D01*
X0195946Y0082173D01*
X0198248Y0080639D02*
X0198248Y0079104D01*
X0199015Y0077569D02*
X0195946Y0077569D01*
X0199015Y0077569D02*
X0200550Y0076035D01*
X0199015Y0074500D01*
X0195946Y0074500D01*
X0290946Y0075267D02*
X0291713Y0074500D01*
X0292481Y0074500D01*
X0293248Y0075267D01*
X0293248Y0076802D01*
X0294015Y0077569D01*
X0294783Y0077569D01*
X0295550Y0076802D01*
X0295550Y0075267D01*
X0294783Y0074500D01*
X0290946Y0075267D02*
X0290946Y0076802D01*
X0291713Y0077569D01*
X0290946Y0079104D02*
X0290946Y0082173D01*
X0290946Y0083708D02*
X0290946Y0086010D01*
X0291713Y0086777D01*
X0293248Y0086777D01*
X0294015Y0086010D01*
X0294015Y0083708D01*
X0294015Y0085242D02*
X0295550Y0086777D01*
X0295550Y0083708D02*
X0290946Y0083708D01*
X0290946Y0080639D02*
X0295550Y0080639D01*
X0010550Y0079896D02*
X0010550Y0082965D01*
X0008248Y0081431D02*
X0008248Y0079896D01*
X0005946Y0079896D02*
X0010550Y0079896D01*
X0010550Y0078361D02*
X0010550Y0075292D01*
X0005946Y0075292D01*
X0005946Y0078361D01*
X0005946Y0079896D02*
X0005946Y0082965D01*
X0008248Y0076827D02*
X0008248Y0075292D01*
D12*
X0014313Y0076249D02*
X0022187Y0076249D01*
X0022187Y0070737D01*
X0024313Y0070737D02*
X0024313Y0076249D01*
X0032187Y0076249D01*
X0032187Y0070737D01*
X0034313Y0070737D02*
X0034313Y0076249D01*
X0042187Y0076249D01*
X0042187Y0070737D01*
X0044313Y0070737D02*
X0044313Y0076249D01*
X0052187Y0076249D01*
X0052187Y0070737D01*
X0054313Y0070737D02*
X0054313Y0076249D01*
X0062187Y0076249D01*
X0062187Y0070737D01*
X0064313Y0070737D02*
X0064313Y0076249D01*
X0072187Y0076249D01*
X0072187Y0070737D01*
X0074313Y0070737D02*
X0074313Y0076249D01*
X0082187Y0076249D01*
X0082187Y0070737D01*
X0084313Y0070737D02*
X0084313Y0076249D01*
X0092187Y0076249D01*
X0092187Y0070737D01*
X0091006Y0067981D02*
X0088250Y0067981D01*
X0090612Y0065619D01*
X0085888Y0065619D01*
X0088250Y0067981D01*
X0085494Y0067981D01*
X0081006Y0067981D02*
X0078250Y0067981D01*
X0080612Y0065619D01*
X0075888Y0065619D01*
X0078250Y0067981D01*
X0075494Y0067981D01*
X0071006Y0067981D02*
X0068250Y0067981D01*
X0070612Y0065619D01*
X0065888Y0065619D01*
X0068250Y0067981D01*
X0065494Y0067981D01*
X0061006Y0067981D02*
X0058250Y0067981D01*
X0060612Y0065619D01*
X0055888Y0065619D01*
X0058250Y0067981D01*
X0055494Y0067981D01*
X0051006Y0067981D02*
X0048250Y0067981D01*
X0050612Y0065619D01*
X0045888Y0065619D01*
X0048250Y0067981D01*
X0045494Y0067981D01*
X0041006Y0067981D02*
X0038250Y0067981D01*
X0040612Y0065619D01*
X0035888Y0065619D01*
X0038250Y0067981D01*
X0035494Y0067981D01*
X0031006Y0067981D02*
X0028250Y0067981D01*
X0030612Y0065619D01*
X0025888Y0065619D01*
X0028250Y0067981D01*
X0025494Y0067981D01*
X0021006Y0067981D02*
X0018250Y0067981D01*
X0020612Y0065619D01*
X0015888Y0065619D01*
X0018250Y0067981D01*
X0015494Y0067981D01*
X0014313Y0070737D02*
X0014313Y0076249D01*
X0014313Y0062863D02*
X0014313Y0057351D01*
X0022187Y0057351D01*
X0022187Y0062863D01*
X0024313Y0062863D02*
X0024313Y0057351D01*
X0032187Y0057351D01*
X0032187Y0062863D01*
X0034313Y0062863D02*
X0034313Y0057351D01*
X0042187Y0057351D01*
X0042187Y0062863D01*
X0044313Y0062863D02*
X0044313Y0057351D01*
X0052187Y0057351D01*
X0052187Y0062863D01*
X0054313Y0062863D02*
X0054313Y0057351D01*
X0062187Y0057351D01*
X0062187Y0062863D01*
X0064313Y0062863D02*
X0064313Y0057351D01*
X0072187Y0057351D01*
X0072187Y0062863D01*
X0074313Y0062863D02*
X0074313Y0057351D01*
X0082187Y0057351D01*
X0082187Y0062863D01*
X0084313Y0062863D02*
X0084313Y0057351D01*
X0092187Y0057351D01*
X0092187Y0062863D01*
X0109313Y0062863D02*
X0109313Y0057351D01*
X0117187Y0057351D01*
X0117187Y0062863D01*
X0119313Y0062863D02*
X0119313Y0057351D01*
X0127187Y0057351D01*
X0127187Y0062863D01*
X0129313Y0062863D02*
X0129313Y0057351D01*
X0137187Y0057351D01*
X0137187Y0062863D01*
X0139313Y0062863D02*
X0139313Y0057351D01*
X0147187Y0057351D01*
X0147187Y0062863D01*
X0149313Y0062863D02*
X0149313Y0057351D01*
X0157187Y0057351D01*
X0157187Y0062863D01*
X0159313Y0062863D02*
X0159313Y0057351D01*
X0167187Y0057351D01*
X0167187Y0062863D01*
X0169313Y0062863D02*
X0169313Y0057351D01*
X0177187Y0057351D01*
X0177187Y0062863D01*
X0179313Y0062863D02*
X0179313Y0057351D01*
X0187187Y0057351D01*
X0187187Y0062863D01*
X0185612Y0065619D02*
X0180888Y0065619D01*
X0183250Y0067981D01*
X0185612Y0065619D01*
X0186006Y0067981D02*
X0183250Y0067981D01*
X0180494Y0067981D01*
X0179313Y0070737D02*
X0179313Y0076249D01*
X0187187Y0076249D01*
X0187187Y0070737D01*
X0177187Y0070737D02*
X0177187Y0076249D01*
X0169313Y0076249D01*
X0169313Y0070737D01*
X0167187Y0070737D02*
X0167187Y0076249D01*
X0159313Y0076249D01*
X0159313Y0070737D01*
X0157187Y0070737D02*
X0157187Y0076249D01*
X0149313Y0076249D01*
X0149313Y0070737D01*
X0147187Y0070737D02*
X0147187Y0076249D01*
X0139313Y0076249D01*
X0139313Y0070737D01*
X0137187Y0070737D02*
X0137187Y0076249D01*
X0129313Y0076249D01*
X0129313Y0070737D01*
X0127187Y0070737D02*
X0127187Y0076249D01*
X0119313Y0076249D01*
X0119313Y0070737D01*
X0117187Y0070737D02*
X0117187Y0076249D01*
X0109313Y0076249D01*
X0109313Y0070737D01*
X0110494Y0067981D02*
X0113250Y0067981D01*
X0115612Y0065619D01*
X0110888Y0065619D01*
X0113250Y0067981D01*
X0116006Y0067981D01*
X0120494Y0067981D02*
X0123250Y0067981D01*
X0125612Y0065619D01*
X0120888Y0065619D01*
X0123250Y0067981D01*
X0126006Y0067981D01*
X0130494Y0067981D02*
X0133250Y0067981D01*
X0135612Y0065619D01*
X0130888Y0065619D01*
X0133250Y0067981D01*
X0136006Y0067981D01*
X0140494Y0067981D02*
X0143250Y0067981D01*
X0145612Y0065619D01*
X0140888Y0065619D01*
X0143250Y0067981D01*
X0146006Y0067981D01*
X0150494Y0067981D02*
X0153250Y0067981D01*
X0155612Y0065619D01*
X0150888Y0065619D01*
X0153250Y0067981D01*
X0156006Y0067981D01*
X0160494Y0067981D02*
X0163250Y0067981D01*
X0165612Y0065619D01*
X0160888Y0065619D01*
X0163250Y0067981D01*
X0166006Y0067981D01*
X0170494Y0067981D02*
X0173250Y0067981D01*
X0175612Y0065619D01*
X0170888Y0065619D01*
X0173250Y0067981D01*
X0176006Y0067981D01*
X0204313Y0070737D02*
X0204313Y0076249D01*
X0212187Y0076249D01*
X0212187Y0070737D01*
X0214313Y0070737D02*
X0214313Y0076249D01*
X0222187Y0076249D01*
X0222187Y0070737D01*
X0224313Y0070737D02*
X0224313Y0076249D01*
X0232187Y0076249D01*
X0232187Y0070737D01*
X0234313Y0070737D02*
X0234313Y0076249D01*
X0242187Y0076249D01*
X0242187Y0070737D01*
X0244313Y0070737D02*
X0244313Y0076249D01*
X0252187Y0076249D01*
X0252187Y0070737D01*
X0254313Y0070737D02*
X0254313Y0076249D01*
X0262187Y0076249D01*
X0262187Y0070737D01*
X0264313Y0070737D02*
X0264313Y0076249D01*
X0272187Y0076249D01*
X0272187Y0070737D01*
X0274313Y0070737D02*
X0274313Y0076249D01*
X0282187Y0076249D01*
X0282187Y0070737D01*
X0281006Y0067981D02*
X0278250Y0067981D01*
X0280612Y0065619D01*
X0275888Y0065619D01*
X0278250Y0067981D01*
X0275494Y0067981D01*
X0271006Y0067981D02*
X0268250Y0067981D01*
X0270612Y0065619D01*
X0265888Y0065619D01*
X0268250Y0067981D01*
X0265494Y0067981D01*
X0261006Y0067981D02*
X0258250Y0067981D01*
X0260612Y0065619D01*
X0255888Y0065619D01*
X0258250Y0067981D01*
X0255494Y0067981D01*
X0251006Y0067981D02*
X0248250Y0067981D01*
X0250612Y0065619D01*
X0245888Y0065619D01*
X0248250Y0067981D01*
X0245494Y0067981D01*
X0241006Y0067981D02*
X0238250Y0067981D01*
X0240612Y0065619D01*
X0235888Y0065619D01*
X0238250Y0067981D01*
X0235494Y0067981D01*
X0231006Y0067981D02*
X0228250Y0067981D01*
X0230612Y0065619D01*
X0225888Y0065619D01*
X0228250Y0067981D01*
X0225494Y0067981D01*
X0221006Y0067981D02*
X0218250Y0067981D01*
X0220612Y0065619D01*
X0215888Y0065619D01*
X0218250Y0067981D01*
X0215494Y0067981D01*
X0211006Y0067981D02*
X0208250Y0067981D01*
X0210612Y0065619D01*
X0205888Y0065619D01*
X0208250Y0067981D01*
X0205494Y0067981D01*
X0204313Y0062863D02*
X0204313Y0057351D01*
X0212187Y0057351D01*
X0212187Y0062863D01*
X0214313Y0062863D02*
X0214313Y0057351D01*
X0222187Y0057351D01*
X0222187Y0062863D01*
X0224313Y0062863D02*
X0224313Y0057351D01*
X0232187Y0057351D01*
X0232187Y0062863D01*
X0234313Y0062863D02*
X0234313Y0057351D01*
X0242187Y0057351D01*
X0242187Y0062863D01*
X0244313Y0062863D02*
X0244313Y0057351D01*
X0252187Y0057351D01*
X0252187Y0062863D01*
X0254313Y0062863D02*
X0254313Y0057351D01*
X0262187Y0057351D01*
X0262187Y0062863D01*
X0264313Y0062863D02*
X0264313Y0057351D01*
X0272187Y0057351D01*
X0272187Y0062863D01*
X0274313Y0062863D02*
X0274313Y0057351D01*
X0282187Y0057351D01*
X0282187Y0062863D01*
X0299313Y0062863D02*
X0299313Y0057351D01*
X0307187Y0057351D01*
X0307187Y0062863D01*
X0309313Y0062863D02*
X0309313Y0057351D01*
X0317187Y0057351D01*
X0317187Y0062863D01*
X0319313Y0062863D02*
X0319313Y0057351D01*
X0327187Y0057351D01*
X0327187Y0062863D01*
X0329313Y0062863D02*
X0329313Y0057351D01*
X0337187Y0057351D01*
X0337187Y0062863D01*
X0339313Y0062863D02*
X0339313Y0057351D01*
X0347187Y0057351D01*
X0347187Y0062863D01*
X0349313Y0062863D02*
X0349313Y0057351D01*
X0357187Y0057351D01*
X0357187Y0062863D01*
X0359313Y0062863D02*
X0359313Y0057351D01*
X0367187Y0057351D01*
X0367187Y0062863D01*
X0369313Y0062863D02*
X0369313Y0057351D01*
X0377187Y0057351D01*
X0377187Y0062863D01*
X0375612Y0065619D02*
X0370888Y0065619D01*
X0373250Y0067981D01*
X0375612Y0065619D01*
X0376006Y0067981D02*
X0373250Y0067981D01*
X0370494Y0067981D01*
X0366006Y0067981D02*
X0363250Y0067981D01*
X0365612Y0065619D01*
X0360888Y0065619D01*
X0363250Y0067981D01*
X0360494Y0067981D01*
X0359313Y0070737D02*
X0359313Y0076249D01*
X0367187Y0076249D01*
X0367187Y0070737D01*
X0369313Y0070737D02*
X0369313Y0076249D01*
X0377187Y0076249D01*
X0377187Y0070737D01*
X0357187Y0070737D02*
X0357187Y0076249D01*
X0349313Y0076249D01*
X0349313Y0070737D01*
X0347187Y0070737D02*
X0347187Y0076249D01*
X0339313Y0076249D01*
X0339313Y0070737D01*
X0337187Y0070737D02*
X0337187Y0076249D01*
X0329313Y0076249D01*
X0329313Y0070737D01*
X0327187Y0070737D02*
X0327187Y0076249D01*
X0319313Y0076249D01*
X0319313Y0070737D01*
X0317187Y0070737D02*
X0317187Y0076249D01*
X0309313Y0076249D01*
X0309313Y0070737D01*
X0307187Y0070737D02*
X0307187Y0076249D01*
X0299313Y0076249D01*
X0299313Y0070737D01*
X0300494Y0067981D02*
X0303250Y0067981D01*
X0305612Y0065619D01*
X0300888Y0065619D01*
X0303250Y0067981D01*
X0306006Y0067981D01*
X0310494Y0067981D02*
X0313250Y0067981D01*
X0315612Y0065619D01*
X0310888Y0065619D01*
X0313250Y0067981D01*
X0316006Y0067981D01*
X0320494Y0067981D02*
X0323250Y0067981D01*
X0325612Y0065619D01*
X0320888Y0065619D01*
X0323250Y0067981D01*
X0326006Y0067981D01*
X0330494Y0067981D02*
X0333250Y0067981D01*
X0335612Y0065619D01*
X0330888Y0065619D01*
X0333250Y0067981D01*
X0336006Y0067981D01*
X0340494Y0067981D02*
X0343250Y0067981D01*
X0345612Y0065619D01*
X0340888Y0065619D01*
X0343250Y0067981D01*
X0346006Y0067981D01*
X0350494Y0067981D02*
X0353250Y0067981D01*
X0355612Y0065619D01*
X0350888Y0065619D01*
X0353250Y0067981D01*
X0356006Y0067981D01*
D13*
X0356199Y0068020D02*
X0356199Y0068520D01*
X0356449Y0068771D01*
X0356699Y0068771D01*
X0356949Y0068520D01*
X0357200Y0068771D01*
X0357450Y0068771D01*
X0357700Y0068520D01*
X0357700Y0068020D01*
X0357450Y0067770D01*
X0357450Y0067297D02*
X0356449Y0067297D01*
X0356199Y0067047D01*
X0356199Y0066297D01*
X0357700Y0066297D01*
X0357700Y0067047D01*
X0357450Y0067297D01*
X0356949Y0068270D02*
X0356949Y0068520D01*
X0356449Y0069243D02*
X0356199Y0069493D01*
X0356199Y0069994D01*
X0356449Y0070244D01*
X0356699Y0070244D01*
X0357700Y0069243D01*
X0357700Y0070244D01*
X0356199Y0068020D02*
X0356449Y0067770D01*
X0356199Y0065824D02*
X0356199Y0064823D01*
X0357700Y0064823D01*
X0357700Y0065824D01*
X0356949Y0065324D02*
X0356949Y0064823D01*
X0357700Y0064351D02*
X0357700Y0063350D01*
X0356199Y0063350D01*
X0366199Y0063350D02*
X0367700Y0063350D01*
X0367700Y0064351D01*
X0367700Y0064823D02*
X0367700Y0065824D01*
X0367700Y0066297D02*
X0367700Y0067047D01*
X0367450Y0067297D01*
X0366449Y0067297D01*
X0366199Y0067047D01*
X0366199Y0066297D01*
X0367700Y0066297D01*
X0366949Y0065324D02*
X0366949Y0064823D01*
X0366199Y0064823D02*
X0367700Y0064823D01*
X0366199Y0064823D02*
X0366199Y0065824D01*
X0366449Y0067770D02*
X0366199Y0068020D01*
X0366199Y0068520D01*
X0366449Y0068771D01*
X0366699Y0068771D01*
X0366949Y0068520D01*
X0367200Y0068771D01*
X0367450Y0068771D01*
X0367700Y0068520D01*
X0367700Y0068020D01*
X0367450Y0067770D01*
X0366949Y0068270D02*
X0366949Y0068520D01*
X0366449Y0069243D02*
X0366199Y0069493D01*
X0366199Y0069994D01*
X0366449Y0070244D01*
X0366699Y0070244D01*
X0366949Y0069994D01*
X0367200Y0070244D01*
X0367450Y0070244D01*
X0367700Y0069994D01*
X0367700Y0069493D01*
X0367450Y0069243D01*
X0366949Y0069743D02*
X0366949Y0069994D01*
X0347700Y0070244D02*
X0347700Y0069243D01*
X0347700Y0069743D02*
X0346199Y0069743D01*
X0346699Y0069243D01*
X0346699Y0068771D02*
X0346949Y0068520D01*
X0347200Y0068771D01*
X0347450Y0068771D01*
X0347700Y0068520D01*
X0347700Y0068020D01*
X0347450Y0067770D01*
X0347450Y0067297D02*
X0346449Y0067297D01*
X0346199Y0067047D01*
X0346199Y0066297D01*
X0347700Y0066297D01*
X0347700Y0067047D01*
X0347450Y0067297D01*
X0346949Y0068270D02*
X0346949Y0068520D01*
X0346699Y0068771D02*
X0346449Y0068771D01*
X0346199Y0068520D01*
X0346199Y0068020D01*
X0346449Y0067770D01*
X0346199Y0065824D02*
X0346199Y0064823D01*
X0347700Y0064823D01*
X0347700Y0065824D01*
X0346949Y0065324D02*
X0346949Y0064823D01*
X0347700Y0064351D02*
X0347700Y0063350D01*
X0346199Y0063350D01*
X0337700Y0063350D02*
X0337700Y0064351D01*
X0337700Y0064823D02*
X0337700Y0065824D01*
X0337700Y0066297D02*
X0337700Y0067047D01*
X0337450Y0067297D01*
X0336449Y0067297D01*
X0336199Y0067047D01*
X0336199Y0066297D01*
X0337700Y0066297D01*
X0336949Y0065324D02*
X0336949Y0064823D01*
X0336199Y0064823D02*
X0337700Y0064823D01*
X0337700Y0063350D02*
X0336199Y0063350D01*
X0336199Y0064823D02*
X0336199Y0065824D01*
X0336449Y0067770D02*
X0336199Y0068020D01*
X0336199Y0068520D01*
X0336449Y0068771D01*
X0336699Y0068771D01*
X0336949Y0068520D01*
X0337200Y0068771D01*
X0337450Y0068771D01*
X0337700Y0068520D01*
X0337700Y0068020D01*
X0337450Y0067770D01*
X0336949Y0068270D02*
X0336949Y0068520D01*
X0336449Y0069243D02*
X0336199Y0069493D01*
X0336199Y0069994D01*
X0336449Y0070244D01*
X0337450Y0069243D01*
X0337700Y0069493D01*
X0337700Y0069994D01*
X0337450Y0070244D01*
X0336449Y0070244D01*
X0336449Y0069243D02*
X0337450Y0069243D01*
X0327700Y0069493D02*
X0327700Y0069994D01*
X0327450Y0070244D01*
X0326449Y0070244D01*
X0326199Y0069994D01*
X0326199Y0069493D01*
X0326449Y0069243D01*
X0326699Y0069243D01*
X0326949Y0069493D01*
X0326949Y0070244D01*
X0327700Y0069493D02*
X0327450Y0069243D01*
X0327700Y0068771D02*
X0327700Y0067770D01*
X0326699Y0068771D01*
X0326449Y0068771D01*
X0326199Y0068520D01*
X0326199Y0068020D01*
X0326449Y0067770D01*
X0326449Y0067297D02*
X0326199Y0067047D01*
X0326199Y0066297D01*
X0327700Y0066297D01*
X0327700Y0067047D01*
X0327450Y0067297D01*
X0326449Y0067297D01*
X0326199Y0065824D02*
X0326199Y0064823D01*
X0327700Y0064823D01*
X0327700Y0065824D01*
X0326949Y0065324D02*
X0326949Y0064823D01*
X0327700Y0064351D02*
X0327700Y0063350D01*
X0326199Y0063350D01*
X0317700Y0063350D02*
X0317700Y0064351D01*
X0317700Y0064823D02*
X0317700Y0065824D01*
X0317700Y0066297D02*
X0317700Y0067047D01*
X0317450Y0067297D01*
X0316449Y0067297D01*
X0316199Y0067047D01*
X0316199Y0066297D01*
X0317700Y0066297D01*
X0316949Y0065324D02*
X0316949Y0064823D01*
X0316199Y0064823D02*
X0317700Y0064823D01*
X0317700Y0063350D02*
X0316199Y0063350D01*
X0316199Y0064823D02*
X0316199Y0065824D01*
X0316449Y0067770D02*
X0316199Y0068020D01*
X0316199Y0068520D01*
X0316449Y0068771D01*
X0316699Y0068771D01*
X0317700Y0067770D01*
X0317700Y0068771D01*
X0317450Y0069243D02*
X0317200Y0069243D01*
X0316949Y0069493D01*
X0316949Y0069994D01*
X0317200Y0070244D01*
X0317450Y0070244D01*
X0317700Y0069994D01*
X0317700Y0069493D01*
X0317450Y0069243D01*
X0316949Y0069493D02*
X0316699Y0069243D01*
X0316449Y0069243D01*
X0316199Y0069493D01*
X0316199Y0069994D01*
X0316449Y0070244D01*
X0316699Y0070244D01*
X0316949Y0069994D01*
X0307700Y0069243D02*
X0307450Y0069243D01*
X0306449Y0070244D01*
X0306199Y0070244D01*
X0306199Y0069243D01*
X0306449Y0068771D02*
X0306199Y0068520D01*
X0306199Y0068020D01*
X0306449Y0067770D01*
X0306449Y0067297D02*
X0306199Y0067047D01*
X0306199Y0066297D01*
X0307700Y0066297D01*
X0307700Y0067047D01*
X0307450Y0067297D01*
X0306449Y0067297D01*
X0307700Y0067770D02*
X0306699Y0068771D01*
X0306449Y0068771D01*
X0307700Y0068771D02*
X0307700Y0067770D01*
X0307700Y0065824D02*
X0307700Y0064823D01*
X0306199Y0064823D01*
X0306199Y0065824D01*
X0306949Y0065324D02*
X0306949Y0064823D01*
X0307700Y0064351D02*
X0307700Y0063350D01*
X0306199Y0063350D01*
X0297700Y0063350D02*
X0297700Y0064351D01*
X0297700Y0064823D02*
X0297700Y0065824D01*
X0297700Y0066297D02*
X0297700Y0067047D01*
X0297450Y0067297D01*
X0296449Y0067297D01*
X0296199Y0067047D01*
X0296199Y0066297D01*
X0297700Y0066297D01*
X0296949Y0065324D02*
X0296949Y0064823D01*
X0296199Y0064823D02*
X0297700Y0064823D01*
X0297700Y0063350D02*
X0296199Y0063350D01*
X0296199Y0064823D02*
X0296199Y0065824D01*
X0296449Y0067770D02*
X0296199Y0068020D01*
X0296199Y0068520D01*
X0296449Y0068771D01*
X0296699Y0068771D01*
X0297700Y0067770D01*
X0297700Y0068771D01*
X0297450Y0069243D02*
X0297700Y0069493D01*
X0297700Y0069994D01*
X0297450Y0070244D01*
X0297200Y0070244D01*
X0296949Y0069994D01*
X0296949Y0069243D01*
X0297450Y0069243D01*
X0296949Y0069243D02*
X0296449Y0069743D01*
X0296199Y0070244D01*
X0272700Y0069994D02*
X0272700Y0069493D01*
X0272450Y0069243D01*
X0271949Y0069243D02*
X0271699Y0069743D01*
X0271699Y0069994D01*
X0271949Y0070244D01*
X0272450Y0070244D01*
X0272700Y0069994D01*
X0271949Y0069243D02*
X0271199Y0069243D01*
X0271199Y0070244D01*
X0271449Y0068771D02*
X0271199Y0068520D01*
X0271199Y0068020D01*
X0271449Y0067770D01*
X0271449Y0067297D02*
X0271199Y0067047D01*
X0271199Y0066297D01*
X0272700Y0066297D01*
X0272700Y0067047D01*
X0272450Y0067297D01*
X0271449Y0067297D01*
X0272700Y0067770D02*
X0271699Y0068771D01*
X0271449Y0068771D01*
X0272700Y0068771D02*
X0272700Y0067770D01*
X0272700Y0065824D02*
X0272700Y0064823D01*
X0271199Y0064823D01*
X0271199Y0065824D01*
X0271949Y0065324D02*
X0271949Y0064823D01*
X0272700Y0064351D02*
X0272700Y0063350D01*
X0271199Y0063350D01*
X0262700Y0063350D02*
X0262700Y0064351D01*
X0262700Y0064823D02*
X0262700Y0065824D01*
X0262700Y0066297D02*
X0262700Y0067047D01*
X0262450Y0067297D01*
X0261449Y0067297D01*
X0261199Y0067047D01*
X0261199Y0066297D01*
X0262700Y0066297D01*
X0261949Y0065324D02*
X0261949Y0064823D01*
X0261199Y0064823D02*
X0262700Y0064823D01*
X0262700Y0063350D02*
X0261199Y0063350D01*
X0261199Y0064823D02*
X0261199Y0065824D01*
X0261449Y0067770D02*
X0261199Y0068020D01*
X0261199Y0068520D01*
X0261449Y0068771D01*
X0261699Y0068771D01*
X0262700Y0067770D01*
X0262700Y0068771D01*
X0261949Y0069243D02*
X0261949Y0070244D01*
X0261199Y0069994D02*
X0261949Y0069243D01*
X0261199Y0069994D02*
X0262700Y0069994D01*
X0252700Y0069994D02*
X0252700Y0069493D01*
X0252450Y0069243D01*
X0252700Y0068771D02*
X0252700Y0067770D01*
X0251699Y0068771D01*
X0251449Y0068771D01*
X0251199Y0068520D01*
X0251199Y0068020D01*
X0251449Y0067770D01*
X0251449Y0067297D02*
X0251199Y0067047D01*
X0251199Y0066297D01*
X0252700Y0066297D01*
X0252700Y0067047D01*
X0252450Y0067297D01*
X0251449Y0067297D01*
X0251199Y0065824D02*
X0251199Y0064823D01*
X0252700Y0064823D01*
X0252700Y0065824D01*
X0251949Y0065324D02*
X0251949Y0064823D01*
X0252700Y0064351D02*
X0252700Y0063350D01*
X0251199Y0063350D01*
X0242700Y0063350D02*
X0242700Y0064351D01*
X0242700Y0064823D02*
X0242700Y0065824D01*
X0242700Y0066297D02*
X0242700Y0067047D01*
X0242450Y0067297D01*
X0241449Y0067297D01*
X0241199Y0067047D01*
X0241199Y0066297D01*
X0242700Y0066297D01*
X0241949Y0065324D02*
X0241949Y0064823D01*
X0241199Y0064823D02*
X0242700Y0064823D01*
X0242700Y0063350D02*
X0241199Y0063350D01*
X0241199Y0064823D02*
X0241199Y0065824D01*
X0241449Y0067770D02*
X0241199Y0068020D01*
X0241199Y0068520D01*
X0241449Y0068771D01*
X0241699Y0068771D01*
X0242700Y0067770D01*
X0242700Y0068771D01*
X0242700Y0069243D02*
X0241699Y0070244D01*
X0241449Y0070244D01*
X0241199Y0069994D01*
X0241199Y0069493D01*
X0241449Y0069243D01*
X0242700Y0069243D02*
X0242700Y0070244D01*
X0251199Y0069994D02*
X0251199Y0069493D01*
X0251449Y0069243D01*
X0251949Y0069743D02*
X0251949Y0069994D01*
X0252200Y0070244D01*
X0252450Y0070244D01*
X0252700Y0069994D01*
X0251949Y0069994D02*
X0251699Y0070244D01*
X0251449Y0070244D01*
X0251199Y0069994D01*
X0232700Y0070244D02*
X0232700Y0069243D01*
X0232700Y0068771D02*
X0232700Y0067770D01*
X0231699Y0068771D01*
X0231449Y0068771D01*
X0231199Y0068520D01*
X0231199Y0068020D01*
X0231449Y0067770D01*
X0231449Y0067297D02*
X0231199Y0067047D01*
X0231199Y0066297D01*
X0232700Y0066297D01*
X0232700Y0067047D01*
X0232450Y0067297D01*
X0231449Y0067297D01*
X0231199Y0065824D02*
X0231199Y0064823D01*
X0232700Y0064823D01*
X0232700Y0065824D01*
X0231949Y0065324D02*
X0231949Y0064823D01*
X0232700Y0064351D02*
X0232700Y0063350D01*
X0231199Y0063350D01*
X0222700Y0063350D02*
X0222700Y0064351D01*
X0222700Y0064823D02*
X0222700Y0065824D01*
X0222700Y0066297D02*
X0222700Y0067047D01*
X0222450Y0067297D01*
X0221449Y0067297D01*
X0221199Y0067047D01*
X0221199Y0066297D01*
X0222700Y0066297D01*
X0221949Y0065324D02*
X0221949Y0064823D01*
X0221199Y0064823D02*
X0222700Y0064823D01*
X0222700Y0063350D02*
X0221199Y0063350D01*
X0221199Y0064823D02*
X0221199Y0065824D01*
X0221449Y0067770D02*
X0221199Y0068020D01*
X0221199Y0068520D01*
X0221449Y0068771D01*
X0221699Y0068771D01*
X0222700Y0067770D01*
X0222700Y0068771D01*
X0222450Y0069243D02*
X0221449Y0070244D01*
X0222450Y0070244D01*
X0222700Y0069994D01*
X0222700Y0069493D01*
X0222450Y0069243D01*
X0221449Y0069243D01*
X0221199Y0069493D01*
X0221199Y0069994D01*
X0221449Y0070244D01*
X0212700Y0069994D02*
X0212700Y0069493D01*
X0212450Y0069243D01*
X0212700Y0068771D02*
X0212700Y0067770D01*
X0212700Y0068270D02*
X0211199Y0068270D01*
X0211699Y0067770D01*
X0211449Y0067297D02*
X0211199Y0067047D01*
X0211199Y0066297D01*
X0212700Y0066297D01*
X0212700Y0067047D01*
X0212450Y0067297D01*
X0211449Y0067297D01*
X0211199Y0065824D02*
X0211199Y0064823D01*
X0212700Y0064823D01*
X0212700Y0065824D01*
X0211949Y0065324D02*
X0211949Y0064823D01*
X0212700Y0064351D02*
X0212700Y0063350D01*
X0211199Y0063350D01*
X0202700Y0063350D02*
X0202700Y0064351D01*
X0202700Y0064823D02*
X0202700Y0065824D01*
X0202700Y0066297D02*
X0202700Y0067047D01*
X0202450Y0067297D01*
X0201449Y0067297D01*
X0201199Y0067047D01*
X0201199Y0066297D01*
X0202700Y0066297D01*
X0201949Y0065324D02*
X0201949Y0064823D01*
X0201199Y0064823D02*
X0202700Y0064823D01*
X0202700Y0063350D02*
X0201199Y0063350D01*
X0201199Y0064823D02*
X0201199Y0065824D01*
X0201699Y0067770D02*
X0201199Y0068270D01*
X0202700Y0068270D01*
X0202700Y0067770D02*
X0202700Y0068771D01*
X0202450Y0069243D02*
X0202200Y0069243D01*
X0201949Y0069493D01*
X0201949Y0069994D01*
X0202200Y0070244D01*
X0202450Y0070244D01*
X0202700Y0069994D01*
X0202700Y0069493D01*
X0202450Y0069243D01*
X0201949Y0069493D02*
X0201699Y0069243D01*
X0201449Y0069243D01*
X0201199Y0069493D01*
X0201199Y0069994D01*
X0201449Y0070244D01*
X0201699Y0070244D01*
X0201949Y0069994D01*
X0211199Y0069994D02*
X0211199Y0069493D01*
X0211449Y0069243D01*
X0211699Y0069243D01*
X0211949Y0069493D01*
X0211949Y0070244D01*
X0211449Y0070244D02*
X0211199Y0069994D01*
X0211449Y0070244D02*
X0212450Y0070244D01*
X0212700Y0069994D01*
X0231199Y0069743D02*
X0232700Y0069743D01*
X0231699Y0069243D02*
X0231199Y0069743D01*
X0177700Y0069243D02*
X0177450Y0069243D01*
X0176449Y0070244D01*
X0176199Y0070244D01*
X0176199Y0069243D01*
X0176199Y0068270D02*
X0177700Y0068270D01*
X0177700Y0067770D02*
X0177700Y0068771D01*
X0176699Y0067770D02*
X0176199Y0068270D01*
X0176449Y0067297D02*
X0176199Y0067047D01*
X0176199Y0066297D01*
X0177700Y0066297D01*
X0177700Y0067047D01*
X0177450Y0067297D01*
X0176449Y0067297D01*
X0176199Y0065824D02*
X0176199Y0064823D01*
X0177700Y0064823D01*
X0177700Y0065824D01*
X0176949Y0065324D02*
X0176949Y0064823D01*
X0177700Y0064351D02*
X0177700Y0063350D01*
X0176199Y0063350D01*
X0167700Y0063350D02*
X0167700Y0064351D01*
X0167700Y0064823D02*
X0167700Y0065824D01*
X0167700Y0066297D02*
X0167700Y0067047D01*
X0167450Y0067297D01*
X0166449Y0067297D01*
X0166199Y0067047D01*
X0166199Y0066297D01*
X0167700Y0066297D01*
X0166949Y0065324D02*
X0166949Y0064823D01*
X0166199Y0064823D02*
X0167700Y0064823D01*
X0167700Y0063350D02*
X0166199Y0063350D01*
X0166199Y0064823D02*
X0166199Y0065824D01*
X0166699Y0067770D02*
X0166199Y0068270D01*
X0167700Y0068270D01*
X0167700Y0067770D02*
X0167700Y0068771D01*
X0167450Y0069243D02*
X0167700Y0069493D01*
X0167700Y0069994D01*
X0167450Y0070244D01*
X0167200Y0070244D01*
X0166949Y0069994D01*
X0166949Y0069243D01*
X0167450Y0069243D01*
X0166949Y0069243D02*
X0166449Y0069743D01*
X0166199Y0070244D01*
X0157700Y0069994D02*
X0157700Y0069493D01*
X0157450Y0069243D01*
X0156949Y0069243D02*
X0156699Y0069743D01*
X0156699Y0069994D01*
X0156949Y0070244D01*
X0157450Y0070244D01*
X0157700Y0069994D01*
X0156949Y0069243D02*
X0156199Y0069243D01*
X0156199Y0070244D01*
X0156199Y0068270D02*
X0157700Y0068270D01*
X0157700Y0067770D02*
X0157700Y0068771D01*
X0156699Y0067770D02*
X0156199Y0068270D01*
X0156449Y0067297D02*
X0156199Y0067047D01*
X0156199Y0066297D01*
X0157700Y0066297D01*
X0157700Y0067047D01*
X0157450Y0067297D01*
X0156449Y0067297D01*
X0156199Y0065824D02*
X0156199Y0064823D01*
X0157700Y0064823D01*
X0157700Y0065824D01*
X0156949Y0065324D02*
X0156949Y0064823D01*
X0157700Y0064351D02*
X0157700Y0063350D01*
X0156199Y0063350D01*
X0147700Y0063350D02*
X0147700Y0064351D01*
X0147700Y0064823D02*
X0147700Y0065824D01*
X0147700Y0066297D02*
X0147700Y0067047D01*
X0147450Y0067297D01*
X0146449Y0067297D01*
X0146199Y0067047D01*
X0146199Y0066297D01*
X0147700Y0066297D01*
X0146949Y0065324D02*
X0146949Y0064823D01*
X0146199Y0064823D02*
X0147700Y0064823D01*
X0147700Y0063350D02*
X0146199Y0063350D01*
X0146199Y0064823D02*
X0146199Y0065824D01*
X0146699Y0067770D02*
X0146199Y0068270D01*
X0147700Y0068270D01*
X0147700Y0067770D02*
X0147700Y0068771D01*
X0146949Y0069243D02*
X0146949Y0070244D01*
X0146199Y0069994D02*
X0146949Y0069243D01*
X0146199Y0069994D02*
X0147700Y0069994D01*
X0137700Y0069994D02*
X0137700Y0069493D01*
X0137450Y0069243D01*
X0137700Y0068771D02*
X0137700Y0067770D01*
X0137700Y0068270D02*
X0136199Y0068270D01*
X0136699Y0067770D01*
X0136449Y0067297D02*
X0136199Y0067047D01*
X0136199Y0066297D01*
X0137700Y0066297D01*
X0137700Y0067047D01*
X0137450Y0067297D01*
X0136449Y0067297D01*
X0136199Y0065824D02*
X0136199Y0064823D01*
X0137700Y0064823D01*
X0137700Y0065824D01*
X0136949Y0065324D02*
X0136949Y0064823D01*
X0137700Y0064351D02*
X0137700Y0063350D01*
X0136199Y0063350D01*
X0127700Y0063350D02*
X0127700Y0064351D01*
X0127700Y0064823D02*
X0127700Y0065824D01*
X0127700Y0066297D02*
X0127700Y0067047D01*
X0127450Y0067297D01*
X0126449Y0067297D01*
X0126199Y0067047D01*
X0126199Y0066297D01*
X0127700Y0066297D01*
X0126949Y0065324D02*
X0126949Y0064823D01*
X0126199Y0064823D02*
X0127700Y0064823D01*
X0127700Y0063350D02*
X0126199Y0063350D01*
X0126199Y0064823D02*
X0126199Y0065824D01*
X0126699Y0067770D02*
X0126199Y0068270D01*
X0127700Y0068270D01*
X0127700Y0067770D02*
X0127700Y0068771D01*
X0127700Y0069243D02*
X0126699Y0070244D01*
X0126449Y0070244D01*
X0126199Y0069994D01*
X0126199Y0069493D01*
X0126449Y0069243D01*
X0127700Y0069243D02*
X0127700Y0070244D01*
X0117700Y0070244D02*
X0117700Y0069243D01*
X0117700Y0068771D02*
X0117700Y0067770D01*
X0117700Y0068270D02*
X0116199Y0068270D01*
X0116699Y0067770D01*
X0116449Y0067297D02*
X0116199Y0067047D01*
X0116199Y0066297D01*
X0117700Y0066297D01*
X0117700Y0067047D01*
X0117450Y0067297D01*
X0116449Y0067297D01*
X0116199Y0065824D02*
X0116199Y0064823D01*
X0117700Y0064823D01*
X0117700Y0065824D01*
X0116949Y0065324D02*
X0116949Y0064823D01*
X0117700Y0064351D02*
X0117700Y0063350D01*
X0116199Y0063350D01*
X0107700Y0063350D02*
X0107700Y0064351D01*
X0107700Y0064823D02*
X0107700Y0065824D01*
X0107700Y0066297D02*
X0107700Y0067047D01*
X0107450Y0067297D01*
X0106449Y0067297D01*
X0106199Y0067047D01*
X0106199Y0066297D01*
X0107700Y0066297D01*
X0106949Y0065324D02*
X0106949Y0064823D01*
X0106199Y0064823D02*
X0107700Y0064823D01*
X0107700Y0063350D02*
X0106199Y0063350D01*
X0106199Y0064823D02*
X0106199Y0065824D01*
X0106699Y0067770D02*
X0106199Y0068270D01*
X0107700Y0068270D01*
X0107700Y0067770D02*
X0107700Y0068771D01*
X0107450Y0069243D02*
X0106449Y0070244D01*
X0107450Y0070244D01*
X0107700Y0069994D01*
X0107700Y0069493D01*
X0107450Y0069243D01*
X0106449Y0069243D01*
X0106199Y0069493D01*
X0106199Y0069994D01*
X0106449Y0070244D01*
X0116199Y0069743D02*
X0117700Y0069743D01*
X0116699Y0069243D02*
X0116199Y0069743D01*
X0136199Y0069493D02*
X0136199Y0069994D01*
X0136449Y0070244D01*
X0136699Y0070244D01*
X0136949Y0069994D01*
X0137200Y0070244D01*
X0137450Y0070244D01*
X0137700Y0069994D01*
X0136949Y0069994D02*
X0136949Y0069743D01*
X0136449Y0069243D02*
X0136199Y0069493D01*
X0082700Y0068520D02*
X0082450Y0068771D01*
X0081449Y0068771D01*
X0081199Y0068520D01*
X0081199Y0068020D01*
X0081449Y0067770D01*
X0081699Y0067770D01*
X0081949Y0068020D01*
X0081949Y0068771D01*
X0082700Y0068520D02*
X0082700Y0068020D01*
X0082450Y0067770D01*
X0082450Y0067297D02*
X0081449Y0067297D01*
X0081199Y0067047D01*
X0081199Y0066297D01*
X0082700Y0066297D01*
X0082700Y0067047D01*
X0082450Y0067297D01*
X0082700Y0065824D02*
X0082700Y0064823D01*
X0081199Y0064823D01*
X0081199Y0065824D01*
X0081949Y0065324D02*
X0081949Y0064823D01*
X0082700Y0064351D02*
X0082700Y0063350D01*
X0081199Y0063350D01*
X0072700Y0063350D02*
X0072700Y0064351D01*
X0072700Y0064823D02*
X0072700Y0065824D01*
X0072700Y0066297D02*
X0072700Y0067047D01*
X0072450Y0067297D01*
X0071449Y0067297D01*
X0071199Y0067047D01*
X0071199Y0066297D01*
X0072700Y0066297D01*
X0071949Y0065324D02*
X0071949Y0064823D01*
X0071199Y0064823D02*
X0072700Y0064823D01*
X0072700Y0063350D02*
X0071199Y0063350D01*
X0071199Y0064823D02*
X0071199Y0065824D01*
X0071449Y0067770D02*
X0071699Y0067770D01*
X0071949Y0068020D01*
X0071949Y0068520D01*
X0072200Y0068771D01*
X0072450Y0068771D01*
X0072700Y0068520D01*
X0072700Y0068020D01*
X0072450Y0067770D01*
X0072200Y0067770D01*
X0071949Y0068020D01*
X0071949Y0068520D02*
X0071699Y0068771D01*
X0071449Y0068771D01*
X0071199Y0068520D01*
X0071199Y0068020D01*
X0071449Y0067770D01*
X0062700Y0067770D02*
X0062450Y0067770D01*
X0061449Y0068771D01*
X0061199Y0068771D01*
X0061199Y0067770D01*
X0061449Y0067297D02*
X0061199Y0067047D01*
X0061199Y0066297D01*
X0062700Y0066297D01*
X0062700Y0067047D01*
X0062450Y0067297D01*
X0061449Y0067297D01*
X0061199Y0065824D02*
X0061199Y0064823D01*
X0062700Y0064823D01*
X0062700Y0065824D01*
X0061949Y0065324D02*
X0061949Y0064823D01*
X0062700Y0064351D02*
X0062700Y0063350D01*
X0061199Y0063350D01*
X0052700Y0063350D02*
X0052700Y0064351D01*
X0052700Y0064823D02*
X0052700Y0065824D01*
X0052700Y0066297D02*
X0052700Y0067047D01*
X0052450Y0067297D01*
X0051449Y0067297D01*
X0051199Y0067047D01*
X0051199Y0066297D01*
X0052700Y0066297D01*
X0051949Y0065324D02*
X0051949Y0064823D01*
X0051199Y0064823D02*
X0052700Y0064823D01*
X0052700Y0063350D02*
X0051199Y0063350D01*
X0051199Y0064823D02*
X0051199Y0065824D01*
X0051949Y0067770D02*
X0051949Y0068520D01*
X0052200Y0068771D01*
X0052450Y0068771D01*
X0052700Y0068520D01*
X0052700Y0068020D01*
X0052450Y0067770D01*
X0051949Y0067770D01*
X0051449Y0068270D01*
X0051199Y0068771D01*
X0042700Y0068520D02*
X0042700Y0068020D01*
X0042450Y0067770D01*
X0042450Y0067297D02*
X0041449Y0067297D01*
X0041199Y0067047D01*
X0041199Y0066297D01*
X0042700Y0066297D01*
X0042700Y0067047D01*
X0042450Y0067297D01*
X0041949Y0067770D02*
X0041699Y0068270D01*
X0041699Y0068520D01*
X0041949Y0068771D01*
X0042450Y0068771D01*
X0042700Y0068520D01*
X0041949Y0067770D02*
X0041199Y0067770D01*
X0041199Y0068771D01*
X0041199Y0065824D02*
X0041199Y0064823D01*
X0042700Y0064823D01*
X0042700Y0065824D01*
X0041949Y0065324D02*
X0041949Y0064823D01*
X0042700Y0064351D02*
X0042700Y0063350D01*
X0041199Y0063350D01*
X0032700Y0063350D02*
X0032700Y0064351D01*
X0032700Y0064823D02*
X0032700Y0065824D01*
X0032700Y0066297D02*
X0032700Y0067047D01*
X0032450Y0067297D01*
X0031449Y0067297D01*
X0031199Y0067047D01*
X0031199Y0066297D01*
X0032700Y0066297D01*
X0031949Y0065324D02*
X0031949Y0064823D01*
X0031199Y0064823D02*
X0032700Y0064823D01*
X0032700Y0063350D02*
X0031199Y0063350D01*
X0031199Y0064823D02*
X0031199Y0065824D01*
X0031949Y0067770D02*
X0031949Y0068771D01*
X0031199Y0068520D02*
X0031949Y0067770D01*
X0031199Y0068520D02*
X0032700Y0068520D01*
X0022700Y0068520D02*
X0022700Y0068020D01*
X0022450Y0067770D01*
X0022450Y0067297D02*
X0021449Y0067297D01*
X0021199Y0067047D01*
X0021199Y0066297D01*
X0022700Y0066297D01*
X0022700Y0067047D01*
X0022450Y0067297D01*
X0021949Y0068270D02*
X0021949Y0068520D01*
X0022200Y0068771D01*
X0022450Y0068771D01*
X0022700Y0068520D01*
X0021949Y0068520D02*
X0021699Y0068771D01*
X0021449Y0068771D01*
X0021199Y0068520D01*
X0021199Y0068020D01*
X0021449Y0067770D01*
X0021199Y0065824D02*
X0021199Y0064823D01*
X0022700Y0064823D01*
X0022700Y0065824D01*
X0021949Y0065324D02*
X0021949Y0064823D01*
X0022700Y0064351D02*
X0022700Y0063350D01*
X0021199Y0063350D01*
X0012700Y0063350D02*
X0012700Y0064351D01*
X0012700Y0064823D02*
X0012700Y0065824D01*
X0012700Y0066297D02*
X0012700Y0067047D01*
X0012450Y0067297D01*
X0011449Y0067297D01*
X0011199Y0067047D01*
X0011199Y0066297D01*
X0012700Y0066297D01*
X0011949Y0065324D02*
X0011949Y0064823D01*
X0011199Y0064823D02*
X0012700Y0064823D01*
X0012700Y0063350D02*
X0011199Y0063350D01*
X0011199Y0064823D02*
X0011199Y0065824D01*
X0011449Y0067770D02*
X0011199Y0068020D01*
X0011199Y0068520D01*
X0011449Y0068771D01*
X0011699Y0068771D01*
X0012700Y0067770D01*
X0012700Y0068771D01*
X0013200Y0086850D02*
X0013200Y0087601D01*
X0012949Y0087851D01*
X0012449Y0087851D01*
X0012199Y0087601D01*
X0012199Y0086850D01*
X0013700Y0086850D01*
X0013200Y0087350D02*
X0013700Y0087851D01*
X0013700Y0088323D02*
X0012699Y0089324D01*
X0012449Y0089324D01*
X0012199Y0089074D01*
X0012199Y0088573D01*
X0012449Y0088323D01*
X0013700Y0088323D02*
X0013700Y0089324D01*
X0022199Y0089074D02*
X0022199Y0088573D01*
X0022449Y0088323D01*
X0022449Y0087851D02*
X0022949Y0087851D01*
X0023200Y0087601D01*
X0023200Y0086850D01*
X0023700Y0086850D02*
X0022199Y0086850D01*
X0022199Y0087601D01*
X0022449Y0087851D01*
X0023200Y0087350D02*
X0023700Y0087851D01*
X0023450Y0088323D02*
X0023700Y0088573D01*
X0023700Y0089074D01*
X0023450Y0089324D01*
X0023200Y0089324D01*
X0022949Y0089074D01*
X0022949Y0088824D01*
X0022949Y0089074D02*
X0022699Y0089324D01*
X0022449Y0089324D01*
X0022199Y0089074D01*
X0032199Y0089074D02*
X0032949Y0088323D01*
X0032949Y0089324D01*
X0032199Y0089074D02*
X0033700Y0089074D01*
X0033700Y0087851D02*
X0033200Y0087350D01*
X0033200Y0087601D02*
X0033200Y0086850D01*
X0033700Y0086850D02*
X0032199Y0086850D01*
X0032199Y0087601D01*
X0032449Y0087851D01*
X0032949Y0087851D01*
X0033200Y0087601D01*
X0042199Y0087601D02*
X0042449Y0087851D01*
X0042949Y0087851D01*
X0043200Y0087601D01*
X0043200Y0086850D01*
X0043700Y0086850D02*
X0042199Y0086850D01*
X0042199Y0087601D01*
X0042199Y0088323D02*
X0042949Y0088323D01*
X0042699Y0088824D01*
X0042699Y0089074D01*
X0042949Y0089324D01*
X0043450Y0089324D01*
X0043700Y0089074D01*
X0043700Y0088573D01*
X0043450Y0088323D01*
X0043700Y0087851D02*
X0043200Y0087350D01*
X0042199Y0088323D02*
X0042199Y0089324D01*
X0052199Y0089324D02*
X0052449Y0088824D01*
X0052949Y0088323D01*
X0052949Y0089074D01*
X0053200Y0089324D01*
X0053450Y0089324D01*
X0053700Y0089074D01*
X0053700Y0088573D01*
X0053450Y0088323D01*
X0052949Y0088323D01*
X0052949Y0087851D02*
X0053200Y0087601D01*
X0053200Y0086850D01*
X0053700Y0086850D02*
X0052199Y0086850D01*
X0052199Y0087601D01*
X0052449Y0087851D01*
X0052949Y0087851D01*
X0053200Y0087350D02*
X0053700Y0087851D01*
X0062199Y0087601D02*
X0062449Y0087851D01*
X0062949Y0087851D01*
X0063200Y0087601D01*
X0063200Y0086850D01*
X0063700Y0086850D02*
X0062199Y0086850D01*
X0062199Y0087601D01*
X0062199Y0088323D02*
X0062199Y0089324D01*
X0062449Y0089324D01*
X0063450Y0088323D01*
X0063700Y0088323D01*
X0063700Y0087851D02*
X0063200Y0087350D01*
X0072199Y0087601D02*
X0072449Y0087851D01*
X0072949Y0087851D01*
X0073200Y0087601D01*
X0073200Y0086850D01*
X0073700Y0086850D02*
X0072199Y0086850D01*
X0072199Y0087601D01*
X0072449Y0088323D02*
X0072699Y0088323D01*
X0072949Y0088573D01*
X0072949Y0089074D01*
X0073200Y0089324D01*
X0073450Y0089324D01*
X0073700Y0089074D01*
X0073700Y0088573D01*
X0073450Y0088323D01*
X0073200Y0088323D01*
X0072949Y0088573D01*
X0072949Y0089074D02*
X0072699Y0089324D01*
X0072449Y0089324D01*
X0072199Y0089074D01*
X0072199Y0088573D01*
X0072449Y0088323D01*
X0073200Y0087350D02*
X0073700Y0087851D01*
X0082199Y0087601D02*
X0082449Y0087851D01*
X0082949Y0087851D01*
X0083200Y0087601D01*
X0083200Y0086850D01*
X0083700Y0086850D02*
X0082199Y0086850D01*
X0082199Y0087601D01*
X0082449Y0088323D02*
X0082699Y0088323D01*
X0082949Y0088573D01*
X0082949Y0089324D01*
X0082449Y0089324D02*
X0082199Y0089074D01*
X0082199Y0088573D01*
X0082449Y0088323D01*
X0083450Y0088323D02*
X0083700Y0088573D01*
X0083700Y0089074D01*
X0083450Y0089324D01*
X0082449Y0089324D01*
X0083700Y0087851D02*
X0083200Y0087350D01*
X0107199Y0087601D02*
X0107449Y0087851D01*
X0107949Y0087851D01*
X0108200Y0087601D01*
X0108200Y0086850D01*
X0108700Y0086850D02*
X0107199Y0086850D01*
X0107199Y0087601D01*
X0107699Y0088323D02*
X0107199Y0088824D01*
X0108700Y0088824D01*
X0108700Y0089324D02*
X0108700Y0088323D01*
X0108700Y0087851D02*
X0108200Y0087350D01*
X0108450Y0089797D02*
X0107449Y0089797D01*
X0107199Y0090047D01*
X0107199Y0090547D01*
X0107449Y0090797D01*
X0108450Y0089797D01*
X0108700Y0090047D01*
X0108700Y0090547D01*
X0108450Y0090797D01*
X0107449Y0090797D01*
X0117199Y0090297D02*
X0117699Y0089797D01*
X0117199Y0090297D02*
X0118700Y0090297D01*
X0118700Y0089797D02*
X0118700Y0090797D01*
X0118700Y0089324D02*
X0118700Y0088323D01*
X0118700Y0087851D02*
X0118200Y0087350D01*
X0118200Y0087601D02*
X0118200Y0086850D01*
X0118700Y0086850D02*
X0117199Y0086850D01*
X0117199Y0087601D01*
X0117449Y0087851D01*
X0117949Y0087851D01*
X0118200Y0087601D01*
X0117699Y0088323D02*
X0117199Y0088824D01*
X0118700Y0088824D01*
X0127199Y0088824D02*
X0128700Y0088824D01*
X0128700Y0089324D02*
X0128700Y0088323D01*
X0128700Y0087851D02*
X0128200Y0087350D01*
X0128200Y0087601D02*
X0128200Y0086850D01*
X0128700Y0086850D02*
X0127199Y0086850D01*
X0127199Y0087601D01*
X0127449Y0087851D01*
X0127949Y0087851D01*
X0128200Y0087601D01*
X0127699Y0088323D02*
X0127199Y0088824D01*
X0127449Y0089797D02*
X0127199Y0090047D01*
X0127199Y0090547D01*
X0127449Y0090797D01*
X0127699Y0090797D01*
X0128700Y0089797D01*
X0128700Y0090797D01*
X0137199Y0090547D02*
X0137199Y0090047D01*
X0137449Y0089797D01*
X0137949Y0090297D02*
X0137949Y0090547D01*
X0138200Y0090797D01*
X0138450Y0090797D01*
X0138700Y0090547D01*
X0138700Y0090047D01*
X0138450Y0089797D01*
X0138700Y0089324D02*
X0138700Y0088323D01*
X0138700Y0087851D02*
X0138200Y0087350D01*
X0138200Y0087601D02*
X0138200Y0086850D01*
X0138700Y0086850D02*
X0137199Y0086850D01*
X0137199Y0087601D01*
X0137449Y0087851D01*
X0137949Y0087851D01*
X0138200Y0087601D01*
X0137699Y0088323D02*
X0137199Y0088824D01*
X0138700Y0088824D01*
X0137949Y0090547D02*
X0137699Y0090797D01*
X0137449Y0090797D01*
X0137199Y0090547D01*
X0147199Y0090547D02*
X0147949Y0089797D01*
X0147949Y0090797D01*
X0147199Y0090547D02*
X0148700Y0090547D01*
X0148700Y0089324D02*
X0148700Y0088323D01*
X0148700Y0087851D02*
X0148200Y0087350D01*
X0148200Y0087601D02*
X0148200Y0086850D01*
X0148700Y0086850D02*
X0147199Y0086850D01*
X0147199Y0087601D01*
X0147449Y0087851D01*
X0147949Y0087851D01*
X0148200Y0087601D01*
X0147699Y0088323D02*
X0147199Y0088824D01*
X0148700Y0088824D01*
X0157199Y0088824D02*
X0158700Y0088824D01*
X0158700Y0089324D02*
X0158700Y0088323D01*
X0158700Y0087851D02*
X0158200Y0087350D01*
X0158200Y0087601D02*
X0158200Y0086850D01*
X0158700Y0086850D02*
X0157199Y0086850D01*
X0157199Y0087601D01*
X0157449Y0087851D01*
X0157949Y0087851D01*
X0158200Y0087601D01*
X0157699Y0088323D02*
X0157199Y0088824D01*
X0157199Y0089797D02*
X0157949Y0089797D01*
X0157699Y0090297D01*
X0157699Y0090547D01*
X0157949Y0090797D01*
X0158450Y0090797D01*
X0158700Y0090547D01*
X0158700Y0090047D01*
X0158450Y0089797D01*
X0157199Y0089797D02*
X0157199Y0090797D01*
X0167199Y0090797D02*
X0167449Y0090297D01*
X0167949Y0089797D01*
X0167949Y0090547D01*
X0168200Y0090797D01*
X0168450Y0090797D01*
X0168700Y0090547D01*
X0168700Y0090047D01*
X0168450Y0089797D01*
X0167949Y0089797D01*
X0168700Y0089324D02*
X0168700Y0088323D01*
X0168700Y0087851D02*
X0168200Y0087350D01*
X0168200Y0087601D02*
X0168200Y0086850D01*
X0168700Y0086850D02*
X0167199Y0086850D01*
X0167199Y0087601D01*
X0167449Y0087851D01*
X0167949Y0087851D01*
X0168200Y0087601D01*
X0167699Y0088323D02*
X0167199Y0088824D01*
X0168700Y0088824D01*
X0177199Y0088824D02*
X0178700Y0088824D01*
X0178700Y0089324D02*
X0178700Y0088323D01*
X0178700Y0087851D02*
X0178200Y0087350D01*
X0178200Y0087601D02*
X0178200Y0086850D01*
X0178700Y0086850D02*
X0177199Y0086850D01*
X0177199Y0087601D01*
X0177449Y0087851D01*
X0177949Y0087851D01*
X0178200Y0087601D01*
X0177699Y0088323D02*
X0177199Y0088824D01*
X0177199Y0089797D02*
X0177199Y0090797D01*
X0177449Y0090797D01*
X0178450Y0089797D01*
X0178700Y0089797D01*
X0202199Y0090047D02*
X0202199Y0090547D01*
X0202449Y0090797D01*
X0202699Y0090797D01*
X0202949Y0090547D01*
X0202949Y0090047D01*
X0202699Y0089797D01*
X0202449Y0089797D01*
X0202199Y0090047D01*
X0202949Y0090047D02*
X0203200Y0089797D01*
X0203450Y0089797D01*
X0203700Y0090047D01*
X0203700Y0090547D01*
X0203450Y0090797D01*
X0203200Y0090797D01*
X0202949Y0090547D01*
X0203700Y0089324D02*
X0203700Y0088323D01*
X0203700Y0087851D02*
X0203200Y0087350D01*
X0203200Y0087601D02*
X0203200Y0086850D01*
X0203700Y0086850D02*
X0202199Y0086850D01*
X0202199Y0087601D01*
X0202449Y0087851D01*
X0202949Y0087851D01*
X0203200Y0087601D01*
X0202699Y0088323D02*
X0202199Y0088824D01*
X0203700Y0088824D01*
X0212199Y0088824D02*
X0213700Y0088824D01*
X0213700Y0089324D02*
X0213700Y0088323D01*
X0213700Y0087851D02*
X0213200Y0087350D01*
X0213200Y0087601D02*
X0213200Y0086850D01*
X0213700Y0086850D02*
X0212199Y0086850D01*
X0212199Y0087601D01*
X0212449Y0087851D01*
X0212949Y0087851D01*
X0213200Y0087601D01*
X0212699Y0088323D02*
X0212199Y0088824D01*
X0212449Y0089797D02*
X0212699Y0089797D01*
X0212949Y0090047D01*
X0212949Y0090797D01*
X0212449Y0090797D02*
X0212199Y0090547D01*
X0212199Y0090047D01*
X0212449Y0089797D01*
X0212449Y0090797D02*
X0213450Y0090797D01*
X0213700Y0090547D01*
X0213700Y0090047D01*
X0213450Y0089797D01*
X0222199Y0090047D02*
X0222199Y0090547D01*
X0222449Y0090797D01*
X0223450Y0089797D01*
X0223700Y0090047D01*
X0223700Y0090547D01*
X0223450Y0090797D01*
X0222449Y0090797D01*
X0222199Y0090047D02*
X0222449Y0089797D01*
X0223450Y0089797D01*
X0223700Y0089324D02*
X0223700Y0088323D01*
X0222699Y0089324D01*
X0222449Y0089324D01*
X0222199Y0089074D01*
X0222199Y0088573D01*
X0222449Y0088323D01*
X0222449Y0087851D02*
X0222949Y0087851D01*
X0223200Y0087601D01*
X0223200Y0086850D01*
X0223700Y0086850D02*
X0222199Y0086850D01*
X0222199Y0087601D01*
X0222449Y0087851D01*
X0223200Y0087350D02*
X0223700Y0087851D01*
X0232199Y0087601D02*
X0232449Y0087851D01*
X0232949Y0087851D01*
X0233200Y0087601D01*
X0233200Y0086850D01*
X0233700Y0086850D02*
X0232199Y0086850D01*
X0232199Y0087601D01*
X0232449Y0088323D02*
X0232199Y0088573D01*
X0232199Y0089074D01*
X0232449Y0089324D01*
X0232699Y0089324D01*
X0233700Y0088323D01*
X0233700Y0089324D01*
X0233700Y0089797D02*
X0233700Y0090797D01*
X0233700Y0090297D02*
X0232199Y0090297D01*
X0232699Y0089797D01*
X0233700Y0087851D02*
X0233200Y0087350D01*
X0242199Y0087601D02*
X0242449Y0087851D01*
X0242949Y0087851D01*
X0243200Y0087601D01*
X0243200Y0086850D01*
X0243700Y0086850D02*
X0242199Y0086850D01*
X0242199Y0087601D01*
X0242449Y0088323D02*
X0242199Y0088573D01*
X0242199Y0089074D01*
X0242449Y0089324D01*
X0242699Y0089324D01*
X0243700Y0088323D01*
X0243700Y0089324D01*
X0243700Y0089797D02*
X0242699Y0090797D01*
X0242449Y0090797D01*
X0242199Y0090547D01*
X0242199Y0090047D01*
X0242449Y0089797D01*
X0243700Y0089797D02*
X0243700Y0090797D01*
X0243700Y0087851D02*
X0243200Y0087350D01*
X0252199Y0087601D02*
X0252449Y0087851D01*
X0252949Y0087851D01*
X0253200Y0087601D01*
X0253200Y0086850D01*
X0253700Y0086850D02*
X0252199Y0086850D01*
X0252199Y0087601D01*
X0252449Y0088323D02*
X0252199Y0088573D01*
X0252199Y0089074D01*
X0252449Y0089324D01*
X0252699Y0089324D01*
X0253700Y0088323D01*
X0253700Y0089324D01*
X0253450Y0089797D02*
X0253700Y0090047D01*
X0253700Y0090547D01*
X0253450Y0090797D01*
X0253200Y0090797D01*
X0252949Y0090547D01*
X0252949Y0090297D01*
X0252949Y0090547D02*
X0252699Y0090797D01*
X0252449Y0090797D01*
X0252199Y0090547D01*
X0252199Y0090047D01*
X0252449Y0089797D01*
X0253700Y0087851D02*
X0253200Y0087350D01*
X0262199Y0087601D02*
X0262449Y0087851D01*
X0262949Y0087851D01*
X0263200Y0087601D01*
X0263200Y0086850D01*
X0263700Y0086850D02*
X0262199Y0086850D01*
X0262199Y0087601D01*
X0262449Y0088323D02*
X0262199Y0088573D01*
X0262199Y0089074D01*
X0262449Y0089324D01*
X0262699Y0089324D01*
X0263700Y0088323D01*
X0263700Y0089324D01*
X0262949Y0089797D02*
X0262949Y0090797D01*
X0262199Y0090547D02*
X0262949Y0089797D01*
X0262199Y0090547D02*
X0263700Y0090547D01*
X0263700Y0087851D02*
X0263200Y0087350D01*
X0272199Y0087601D02*
X0272449Y0087851D01*
X0272949Y0087851D01*
X0273200Y0087601D01*
X0273200Y0086850D01*
X0273700Y0086850D02*
X0272199Y0086850D01*
X0272199Y0087601D01*
X0272449Y0088323D02*
X0272199Y0088573D01*
X0272199Y0089074D01*
X0272449Y0089324D01*
X0272699Y0089324D01*
X0273700Y0088323D01*
X0273700Y0089324D01*
X0273450Y0089797D02*
X0273700Y0090047D01*
X0273700Y0090547D01*
X0273450Y0090797D01*
X0272949Y0090797D01*
X0272699Y0090547D01*
X0272699Y0090297D01*
X0272949Y0089797D01*
X0272199Y0089797D01*
X0272199Y0090797D01*
X0273700Y0087851D02*
X0273200Y0087350D01*
X0297199Y0087601D02*
X0297449Y0087851D01*
X0297949Y0087851D01*
X0298200Y0087601D01*
X0298200Y0086850D01*
X0298700Y0086850D02*
X0297199Y0086850D01*
X0297199Y0087601D01*
X0297449Y0088323D02*
X0297199Y0088573D01*
X0297199Y0089074D01*
X0297449Y0089324D01*
X0297699Y0089324D01*
X0298700Y0088323D01*
X0298700Y0089324D01*
X0298450Y0089797D02*
X0298700Y0090047D01*
X0298700Y0090547D01*
X0298450Y0090797D01*
X0298200Y0090797D01*
X0297949Y0090547D01*
X0297949Y0089797D01*
X0298450Y0089797D01*
X0297949Y0089797D02*
X0297449Y0090297D01*
X0297199Y0090797D01*
X0298700Y0087851D02*
X0298200Y0087350D01*
X0307199Y0087601D02*
X0307449Y0087851D01*
X0307949Y0087851D01*
X0308200Y0087601D01*
X0308200Y0086850D01*
X0308700Y0086850D02*
X0307199Y0086850D01*
X0307199Y0087601D01*
X0307449Y0088323D02*
X0307199Y0088573D01*
X0307199Y0089074D01*
X0307449Y0089324D01*
X0307699Y0089324D01*
X0308700Y0088323D01*
X0308700Y0089324D01*
X0308700Y0089797D02*
X0308450Y0089797D01*
X0307449Y0090797D01*
X0307199Y0090797D01*
X0307199Y0089797D01*
X0308700Y0087851D02*
X0308200Y0087350D01*
X0317199Y0087601D02*
X0317449Y0087851D01*
X0317949Y0087851D01*
X0318200Y0087601D01*
X0318200Y0086850D01*
X0318700Y0086850D02*
X0317199Y0086850D01*
X0317199Y0087601D01*
X0317449Y0088323D02*
X0317199Y0088573D01*
X0317199Y0089074D01*
X0317449Y0089324D01*
X0317699Y0089324D01*
X0318700Y0088323D01*
X0318700Y0089324D01*
X0318450Y0089797D02*
X0318200Y0089797D01*
X0317949Y0090047D01*
X0317949Y0090547D01*
X0318200Y0090797D01*
X0318450Y0090797D01*
X0318700Y0090547D01*
X0318700Y0090047D01*
X0318450Y0089797D01*
X0317949Y0090047D02*
X0317699Y0089797D01*
X0317449Y0089797D01*
X0317199Y0090047D01*
X0317199Y0090547D01*
X0317449Y0090797D01*
X0317699Y0090797D01*
X0317949Y0090547D01*
X0318700Y0087851D02*
X0318200Y0087350D01*
X0327199Y0087601D02*
X0327449Y0087851D01*
X0327949Y0087851D01*
X0328200Y0087601D01*
X0328200Y0086850D01*
X0328700Y0086850D02*
X0327199Y0086850D01*
X0327199Y0087601D01*
X0327449Y0088323D02*
X0327199Y0088573D01*
X0327199Y0089074D01*
X0327449Y0089324D01*
X0327699Y0089324D01*
X0328700Y0088323D01*
X0328700Y0089324D01*
X0328450Y0089797D02*
X0328700Y0090047D01*
X0328700Y0090547D01*
X0328450Y0090797D01*
X0327449Y0090797D01*
X0327199Y0090547D01*
X0327199Y0090047D01*
X0327449Y0089797D01*
X0327699Y0089797D01*
X0327949Y0090047D01*
X0327949Y0090797D01*
X0328700Y0087851D02*
X0328200Y0087350D01*
X0337199Y0087601D02*
X0337449Y0087851D01*
X0337949Y0087851D01*
X0338200Y0087601D01*
X0338200Y0086850D01*
X0338700Y0086850D02*
X0337199Y0086850D01*
X0337199Y0087601D01*
X0337449Y0088323D02*
X0337199Y0088573D01*
X0337199Y0089074D01*
X0337449Y0089324D01*
X0337699Y0089324D01*
X0337949Y0089074D01*
X0338200Y0089324D01*
X0338450Y0089324D01*
X0338700Y0089074D01*
X0338700Y0088573D01*
X0338450Y0088323D01*
X0338700Y0087851D02*
X0338200Y0087350D01*
X0337949Y0088824D02*
X0337949Y0089074D01*
X0337449Y0089797D02*
X0337199Y0090047D01*
X0337199Y0090547D01*
X0337449Y0090797D01*
X0338450Y0089797D01*
X0338700Y0090047D01*
X0338700Y0090547D01*
X0338450Y0090797D01*
X0337449Y0090797D01*
X0337449Y0089797D02*
X0338450Y0089797D01*
X0347199Y0090297D02*
X0347699Y0089797D01*
X0347699Y0089324D02*
X0347949Y0089074D01*
X0348200Y0089324D01*
X0348450Y0089324D01*
X0348700Y0089074D01*
X0348700Y0088573D01*
X0348450Y0088323D01*
X0348700Y0087851D02*
X0348200Y0087350D01*
X0348200Y0087601D02*
X0348200Y0086850D01*
X0348700Y0086850D02*
X0347199Y0086850D01*
X0347199Y0087601D01*
X0347449Y0087851D01*
X0347949Y0087851D01*
X0348200Y0087601D01*
X0347449Y0088323D02*
X0347199Y0088573D01*
X0347199Y0089074D01*
X0347449Y0089324D01*
X0347699Y0089324D01*
X0347949Y0089074D02*
X0347949Y0088824D01*
X0348700Y0089797D02*
X0348700Y0090797D01*
X0348700Y0090297D02*
X0347199Y0090297D01*
X0357199Y0090047D02*
X0357449Y0089797D01*
X0357199Y0090047D02*
X0357199Y0090547D01*
X0357449Y0090797D01*
X0357699Y0090797D01*
X0358700Y0089797D01*
X0358700Y0090797D01*
X0358450Y0089324D02*
X0358700Y0089074D01*
X0358700Y0088573D01*
X0358450Y0088323D01*
X0358700Y0087851D02*
X0358200Y0087350D01*
X0358200Y0087601D02*
X0358200Y0086850D01*
X0358700Y0086850D02*
X0357199Y0086850D01*
X0357199Y0087601D01*
X0357449Y0087851D01*
X0357949Y0087851D01*
X0358200Y0087601D01*
X0357449Y0088323D02*
X0357199Y0088573D01*
X0357199Y0089074D01*
X0357449Y0089324D01*
X0357699Y0089324D01*
X0357949Y0089074D01*
X0358200Y0089324D01*
X0358450Y0089324D01*
X0357949Y0089074D02*
X0357949Y0088824D01*
X0367199Y0088573D02*
X0367199Y0089074D01*
X0367449Y0089324D01*
X0367699Y0089324D01*
X0367949Y0089074D01*
X0368200Y0089324D01*
X0368450Y0089324D01*
X0368700Y0089074D01*
X0368700Y0088573D01*
X0368450Y0088323D01*
X0368700Y0087851D02*
X0368200Y0087350D01*
X0368200Y0087601D02*
X0368200Y0086850D01*
X0368700Y0086850D02*
X0367199Y0086850D01*
X0367199Y0087601D01*
X0367449Y0087851D01*
X0367949Y0087851D01*
X0368200Y0087601D01*
X0367449Y0088323D02*
X0367199Y0088573D01*
X0367949Y0088824D02*
X0367949Y0089074D01*
X0367449Y0089797D02*
X0367199Y0090047D01*
X0367199Y0090547D01*
X0367449Y0090797D01*
X0367699Y0090797D01*
X0367949Y0090547D01*
X0368200Y0090797D01*
X0368450Y0090797D01*
X0368700Y0090547D01*
X0368700Y0090047D01*
X0368450Y0089797D01*
X0367949Y0090297D02*
X0367949Y0090547D01*
D14*
X0100050Y0018200D02*
X0100050Y0014800D01*
X0100050Y0014700D01*
X0100050Y0014800D02*
X0100049Y0014749D01*
X0100044Y0014699D01*
X0100036Y0014650D01*
X0100024Y0014601D01*
X0100009Y0014553D01*
X0099990Y0014506D01*
X0099968Y0014461D01*
X0099943Y0014417D01*
X0099915Y0014375D01*
X0099883Y0014336D01*
X0099849Y0014299D01*
X0099812Y0014265D01*
X0099773Y0014233D01*
X0099732Y0014204D01*
X0099688Y0014178D01*
X0099643Y0014156D01*
X0099597Y0014137D01*
X0099549Y0014121D01*
X0099500Y0014109D01*
X0099450Y0014100D01*
X0099350Y0014100D02*
X0086950Y0014100D01*
X0086950Y0012200D01*
X0086950Y0014100D02*
X0086950Y0018800D01*
X0099350Y0018800D01*
X0099401Y0018799D01*
X0099451Y0018794D01*
X0099500Y0018786D01*
X0099549Y0018774D01*
X0099597Y0018759D01*
X0099644Y0018740D01*
X0099689Y0018718D01*
X0099733Y0018693D01*
X0099775Y0018665D01*
X0099814Y0018633D01*
X0099851Y0018599D01*
X0099885Y0018562D01*
X0099917Y0018523D01*
X0099946Y0018482D01*
X0099972Y0018438D01*
X0099994Y0018393D01*
X0100013Y0018347D01*
X0100029Y0018299D01*
X0100041Y0018250D01*
X0100050Y0018200D01*
X0085450Y0018800D02*
X0072650Y0012400D01*
X0072650Y0018900D01*
X0071050Y0018200D02*
X0071050Y0014800D01*
X0071050Y0014700D01*
X0071050Y0014800D02*
X0071049Y0014749D01*
X0071044Y0014699D01*
X0071036Y0014650D01*
X0071024Y0014601D01*
X0071009Y0014553D01*
X0070990Y0014506D01*
X0070968Y0014461D01*
X0070943Y0014417D01*
X0070915Y0014375D01*
X0070883Y0014336D01*
X0070849Y0014299D01*
X0070812Y0014265D01*
X0070773Y0014233D01*
X0070732Y0014204D01*
X0070688Y0014178D01*
X0070643Y0014156D01*
X0070597Y0014137D01*
X0070549Y0014121D01*
X0070500Y0014109D01*
X0070450Y0014100D01*
X0070350Y0014100D02*
X0070250Y0014100D01*
X0057950Y0014100D01*
X0057950Y0012200D01*
X0056650Y0012200D02*
X0056650Y0018900D01*
X0056450Y0018800D02*
X0044150Y0012200D01*
X0047750Y0014100D02*
X0056450Y0014100D01*
X0057950Y0014100D02*
X0057950Y0018800D01*
X0070350Y0018800D01*
X0070401Y0018799D01*
X0070451Y0018794D01*
X0070500Y0018786D01*
X0070549Y0018774D01*
X0070597Y0018759D01*
X0070644Y0018740D01*
X0070689Y0018718D01*
X0070733Y0018693D01*
X0070775Y0018665D01*
X0070814Y0018633D01*
X0070851Y0018599D01*
X0070885Y0018562D01*
X0070917Y0018523D01*
X0070946Y0018482D01*
X0070972Y0018438D01*
X0070994Y0018393D01*
X0071013Y0018347D01*
X0071029Y0018299D01*
X0071041Y0018250D01*
X0071050Y0018200D01*
X0070950Y0013600D02*
X0070950Y0012200D01*
X0070950Y0013500D02*
X0070941Y0013550D01*
X0070929Y0013599D01*
X0070913Y0013646D01*
X0070894Y0013693D01*
X0070872Y0013738D01*
X0070846Y0013782D01*
X0070817Y0013823D01*
X0070786Y0013862D01*
X0070751Y0013899D01*
X0070714Y0013933D01*
X0070675Y0013965D01*
X0070633Y0013993D01*
X0070589Y0014018D01*
X0070544Y0014040D01*
X0070497Y0014059D01*
X0070449Y0014075D01*
X0070400Y0014086D01*
X0070350Y0014094D01*
X0070300Y0014099D01*
X0070250Y0014100D01*
X0023250Y0019300D02*
X0023250Y0024300D01*
X0018250Y0024300D01*
X0018250Y0034300D01*
X0023250Y0034300D01*
X0023250Y0024300D01*
X0023250Y0019300D02*
X0001250Y0019300D01*
X0001250Y0039300D01*
X0023250Y0039300D01*
X0023250Y0034300D01*
D15*
X0045450Y0016800D02*
X0044950Y0015700D01*
X0044250Y0016000D01*
X0044650Y0014400D01*
X0043850Y0015100D01*
X0043750Y0014600D01*
X0042950Y0014800D01*
X0043250Y0014100D01*
X0042750Y0013900D01*
X0043950Y0013000D01*
X0047333Y0010901D02*
X0047333Y0009700D01*
X0047634Y0009400D01*
X0048261Y0009700D02*
X0048561Y0009400D01*
X0049162Y0009400D01*
X0049462Y0009700D01*
X0049462Y0010301D01*
X0049162Y0010601D01*
X0048561Y0010601D01*
X0048261Y0010301D01*
X0048261Y0009700D01*
X0047634Y0010601D02*
X0047033Y0010601D01*
X0046393Y0010601D02*
X0046393Y0009400D01*
X0045492Y0009400D01*
X0045192Y0009700D01*
X0045192Y0010601D01*
X0044551Y0010301D02*
X0044551Y0009400D01*
X0043650Y0009400D01*
X0043350Y0009700D01*
X0043650Y0010001D01*
X0044551Y0010001D01*
X0044551Y0010301D02*
X0044251Y0010601D01*
X0043650Y0010601D01*
X0050102Y0010601D02*
X0050102Y0009400D01*
X0050102Y0010601D02*
X0051003Y0010601D01*
X0051303Y0010301D01*
X0051303Y0009400D01*
X0051944Y0009700D02*
X0052244Y0009400D01*
X0052845Y0009400D01*
X0053145Y0009700D01*
X0053145Y0010301D01*
X0052845Y0010601D01*
X0052244Y0010601D01*
X0051944Y0010301D01*
X0051944Y0009700D01*
X0053786Y0009400D02*
X0053786Y0010601D01*
X0054086Y0010601D01*
X0054386Y0010301D01*
X0054686Y0010601D01*
X0054987Y0010301D01*
X0054987Y0009400D01*
X0054386Y0009400D02*
X0054386Y0010301D01*
X0055627Y0010301D02*
X0055627Y0009700D01*
X0055927Y0009400D01*
X0056528Y0009400D01*
X0056828Y0009700D01*
X0056828Y0010301D01*
X0056528Y0010601D01*
X0055927Y0010601D01*
X0055627Y0010301D01*
X0057469Y0010601D02*
X0057469Y0009700D01*
X0057769Y0009400D01*
X0058670Y0009400D01*
X0058670Y0010601D01*
X0059310Y0010301D02*
X0059611Y0010601D01*
X0060511Y0010601D01*
X0060211Y0010001D02*
X0059611Y0010001D01*
X0059310Y0010301D01*
X0059310Y0009400D02*
X0060211Y0009400D01*
X0060511Y0009700D01*
X0060211Y0010001D01*
X0062993Y0010001D02*
X0063594Y0010601D01*
X0063894Y0010601D01*
X0064528Y0010301D02*
X0064528Y0009700D01*
X0064828Y0009400D01*
X0065429Y0009400D01*
X0065729Y0009700D01*
X0065729Y0010301D01*
X0065429Y0010601D01*
X0064828Y0010601D01*
X0064528Y0010301D01*
X0062993Y0010601D02*
X0062993Y0009400D01*
X0066370Y0009400D02*
X0067270Y0009400D01*
X0067571Y0009700D01*
X0067571Y0010301D01*
X0067270Y0010601D01*
X0066370Y0010601D01*
X0066370Y0011202D02*
X0066370Y0009400D01*
X0068211Y0009700D02*
X0068511Y0009400D01*
X0069112Y0009400D01*
X0069412Y0009700D01*
X0069412Y0010301D01*
X0069112Y0010601D01*
X0068511Y0010601D01*
X0068211Y0010301D01*
X0068211Y0009700D01*
X0070053Y0010601D02*
X0070653Y0010601D01*
X0070353Y0010901D02*
X0070353Y0009700D01*
X0070653Y0009400D01*
X0071280Y0009400D02*
X0071881Y0009400D01*
X0071581Y0009400D02*
X0071581Y0010601D01*
X0071280Y0010601D01*
X0071581Y0011202D02*
X0071581Y0011502D01*
X0072508Y0010301D02*
X0072508Y0009700D01*
X0072808Y0009400D01*
X0073709Y0009400D01*
X0073709Y0010601D02*
X0072808Y0010601D01*
X0072508Y0010301D01*
X0076191Y0010601D02*
X0076792Y0009400D01*
X0077392Y0010601D01*
X0078033Y0010301D02*
X0078333Y0010601D01*
X0078934Y0010601D01*
X0079234Y0010301D01*
X0079234Y0010001D01*
X0078033Y0010001D01*
X0078033Y0010301D02*
X0078033Y0009700D01*
X0078333Y0009400D01*
X0078934Y0009400D01*
X0079874Y0009400D02*
X0079874Y0011202D01*
X0080175Y0010601D02*
X0079874Y0010301D01*
X0080175Y0010601D02*
X0080775Y0010601D01*
X0081076Y0010301D01*
X0081076Y0009400D01*
X0081716Y0009400D02*
X0082317Y0009400D01*
X0082016Y0009400D02*
X0082016Y0010601D01*
X0081716Y0010601D01*
X0082016Y0011202D02*
X0082016Y0011502D01*
X0082944Y0010301D02*
X0082944Y0009700D01*
X0083244Y0009400D01*
X0084145Y0009400D01*
X0084785Y0009400D02*
X0085386Y0009400D01*
X0085086Y0009400D02*
X0085086Y0011202D01*
X0084785Y0011202D01*
X0084145Y0010601D02*
X0083244Y0010601D01*
X0082944Y0010301D01*
X0086013Y0010301D02*
X0086313Y0010601D01*
X0086914Y0010601D01*
X0087214Y0010301D01*
X0087214Y0010001D01*
X0086013Y0010001D01*
X0086013Y0010301D02*
X0086013Y0009700D01*
X0086313Y0009400D01*
X0086914Y0009400D01*
X0089696Y0009400D02*
X0090597Y0009400D01*
X0090897Y0009700D01*
X0090897Y0010301D01*
X0090597Y0010601D01*
X0089696Y0010601D01*
X0089696Y0008799D01*
X0091538Y0009400D02*
X0091538Y0010601D01*
X0091538Y0010001D02*
X0092138Y0010601D01*
X0092439Y0010601D01*
X0093072Y0010301D02*
X0093072Y0009700D01*
X0093373Y0009400D01*
X0093973Y0009400D01*
X0094273Y0009700D01*
X0094273Y0010301D01*
X0093973Y0010601D01*
X0093373Y0010601D01*
X0093072Y0010301D01*
X0094914Y0008799D02*
X0095214Y0008799D01*
X0095514Y0009100D01*
X0095514Y0010601D01*
X0095514Y0011202D02*
X0095514Y0011502D01*
X0096442Y0010601D02*
X0097042Y0010601D01*
X0097343Y0010301D01*
X0097343Y0010001D01*
X0096142Y0010001D01*
X0096142Y0010301D02*
X0096442Y0010601D01*
X0096142Y0010301D02*
X0096142Y0009700D01*
X0096442Y0009400D01*
X0097042Y0009400D01*
X0097983Y0009700D02*
X0098283Y0009400D01*
X0099184Y0009400D01*
X0100125Y0009700D02*
X0100425Y0009400D01*
X0100125Y0009700D02*
X0100125Y0010901D01*
X0099825Y0010601D02*
X0100425Y0010601D01*
X0099184Y0010601D02*
X0098283Y0010601D01*
X0097983Y0010301D01*
X0097983Y0009700D01*
X0046550Y0016000D02*
X0046150Y0014400D01*
X0045950Y0015700D02*
X0045450Y0016800D01*
X0045950Y0015700D02*
X0046550Y0016000D01*
M02*
