G75*
%MOIN*%
%OFA0B0*%
%FSLAX25Y25*%
%IPPOS*%
%LPD*%
%AMOC8*
5,1,8,0,0,1.08239X$1,22.5*
%
%ADD10C,0.00100*%
%ADD11C,0.00600*%
%ADD12C,0.00200*%
%ADD13C,0.00500*%
D10*
X0079800Y0021600D02*
X0080050Y0021350D01*
X0081051Y0022351D01*
X0080050Y0022351D01*
X0079800Y0022101D01*
X0079800Y0021600D01*
X0080050Y0021350D02*
X0081051Y0021350D01*
X0081301Y0021600D01*
X0081301Y0022101D01*
X0081051Y0022351D01*
X0080050Y0022823D02*
X0079800Y0022823D01*
X0079800Y0023073D01*
X0080050Y0023073D01*
X0080050Y0022823D01*
X0079800Y0023560D02*
X0079800Y0024561D01*
X0079800Y0024060D02*
X0081301Y0024060D01*
X0080801Y0023560D01*
X0080801Y0025033D02*
X0080050Y0025033D01*
X0079800Y0025283D01*
X0079800Y0026034D01*
X0080801Y0026034D01*
X0080551Y0026506D02*
X0080551Y0027007D01*
X0081301Y0026506D02*
X0081301Y0027507D01*
X0081301Y0026506D02*
X0079800Y0026506D01*
X0090300Y0024324D02*
X0090300Y0023323D01*
X0090300Y0023824D02*
X0091801Y0023824D01*
X0091301Y0023323D01*
X0091551Y0022851D02*
X0091801Y0022601D01*
X0091801Y0022100D01*
X0091551Y0021850D01*
X0090550Y0021850D01*
X0090300Y0022100D01*
X0090300Y0022601D01*
X0090550Y0022851D01*
X0172300Y0023073D02*
X0172300Y0022823D01*
X0172550Y0022823D01*
X0172550Y0023073D01*
X0172300Y0023073D01*
X0172300Y0023560D02*
X0172300Y0024561D01*
X0172300Y0024060D02*
X0173801Y0024060D01*
X0173301Y0023560D01*
X0173551Y0022351D02*
X0172550Y0021350D01*
X0172300Y0021600D01*
X0172300Y0022101D01*
X0172550Y0022351D01*
X0173551Y0022351D01*
X0173801Y0022101D01*
X0173801Y0021600D01*
X0173551Y0021350D01*
X0172550Y0021350D01*
X0182800Y0022100D02*
X0182800Y0022601D01*
X0183050Y0022851D01*
X0182800Y0023323D02*
X0183801Y0024324D01*
X0184051Y0024324D01*
X0184301Y0024074D01*
X0184301Y0023573D01*
X0184051Y0023323D01*
X0184051Y0022851D02*
X0184301Y0022601D01*
X0184301Y0022100D01*
X0184051Y0021850D01*
X0183050Y0021850D01*
X0182800Y0022100D01*
X0182800Y0023323D02*
X0182800Y0024324D01*
X0173801Y0026506D02*
X0173801Y0027507D01*
X0173051Y0027007D02*
X0173051Y0026506D01*
X0173301Y0026034D02*
X0172300Y0026034D01*
X0172300Y0025283D01*
X0172550Y0025033D01*
X0173301Y0025033D01*
X0173801Y0026506D02*
X0172300Y0026506D01*
X0259800Y0026560D02*
X0261301Y0026560D01*
X0260801Y0026060D01*
X0260050Y0025573D02*
X0259800Y0025573D01*
X0259800Y0025323D01*
X0260050Y0025323D01*
X0260050Y0025573D01*
X0259800Y0026060D02*
X0259800Y0027061D01*
X0260050Y0027533D02*
X0259800Y0027783D01*
X0259800Y0028534D01*
X0260801Y0028534D01*
X0260551Y0029006D02*
X0260551Y0029507D01*
X0261301Y0029006D02*
X0261301Y0030007D01*
X0261301Y0029006D02*
X0259800Y0029006D01*
X0260050Y0027533D02*
X0260801Y0027533D01*
X0270300Y0026574D02*
X0270300Y0026073D01*
X0270550Y0025823D01*
X0270550Y0025351D02*
X0270300Y0025101D01*
X0270300Y0024600D01*
X0270550Y0024350D01*
X0271551Y0024350D01*
X0271801Y0024600D01*
X0271801Y0025101D01*
X0271551Y0025351D01*
X0271551Y0025823D02*
X0271801Y0026073D01*
X0271801Y0026574D01*
X0271551Y0026824D01*
X0271301Y0026824D01*
X0271051Y0026574D01*
X0270800Y0026824D01*
X0270550Y0026824D01*
X0270300Y0026574D01*
X0271051Y0026574D02*
X0271051Y0026324D01*
X0261301Y0024601D02*
X0261051Y0024851D01*
X0260050Y0023850D01*
X0259800Y0024100D01*
X0259800Y0024601D01*
X0260050Y0024851D01*
X0261051Y0024851D01*
X0261301Y0024601D02*
X0261301Y0024100D01*
X0261051Y0023850D01*
X0260050Y0023850D01*
X0372300Y0024060D02*
X0373801Y0024060D01*
X0373301Y0023560D01*
X0372550Y0023073D02*
X0372300Y0023073D01*
X0372300Y0022823D01*
X0372550Y0022823D01*
X0372550Y0023073D01*
X0372300Y0023560D02*
X0372300Y0024561D01*
X0372550Y0025033D02*
X0372300Y0025283D01*
X0372300Y0026034D01*
X0373301Y0026034D01*
X0373051Y0026506D02*
X0373051Y0027007D01*
X0373801Y0026506D02*
X0373801Y0027507D01*
X0373801Y0026506D02*
X0372300Y0026506D01*
X0372550Y0025033D02*
X0373301Y0025033D01*
X0382800Y0024074D02*
X0384301Y0024074D01*
X0383551Y0023323D01*
X0383551Y0024324D01*
X0384051Y0022851D02*
X0384301Y0022601D01*
X0384301Y0022100D01*
X0384051Y0021850D01*
X0383050Y0021850D01*
X0382800Y0022100D01*
X0382800Y0022601D01*
X0383050Y0022851D01*
X0373801Y0022101D02*
X0373551Y0022351D01*
X0372550Y0021350D01*
X0372300Y0021600D01*
X0372300Y0022101D01*
X0372550Y0022351D01*
X0373551Y0022351D01*
X0373801Y0022101D02*
X0373801Y0021600D01*
X0373551Y0021350D01*
X0372550Y0021350D01*
D11*
X0035750Y0023100D02*
X0035750Y0027300D01*
X0035750Y0031300D01*
X0035750Y0035500D01*
X0035752Y0035576D01*
X0035758Y0035652D01*
X0035767Y0035727D01*
X0035781Y0035802D01*
X0035798Y0035876D01*
X0035819Y0035949D01*
X0035843Y0036021D01*
X0035872Y0036092D01*
X0035903Y0036161D01*
X0035938Y0036228D01*
X0035977Y0036293D01*
X0036019Y0036357D01*
X0036064Y0036418D01*
X0036112Y0036477D01*
X0036163Y0036533D01*
X0036217Y0036587D01*
X0036273Y0036638D01*
X0036332Y0036686D01*
X0036393Y0036731D01*
X0036457Y0036773D01*
X0036522Y0036812D01*
X0036589Y0036847D01*
X0036658Y0036878D01*
X0036729Y0036907D01*
X0036801Y0036931D01*
X0036874Y0036952D01*
X0036948Y0036969D01*
X0037023Y0036983D01*
X0037098Y0036992D01*
X0037174Y0036998D01*
X0037250Y0037000D01*
X0035750Y0031300D02*
X0035838Y0031298D01*
X0035927Y0031292D01*
X0036015Y0031282D01*
X0036102Y0031269D01*
X0036189Y0031251D01*
X0036275Y0031230D01*
X0036360Y0031205D01*
X0036443Y0031176D01*
X0036526Y0031143D01*
X0036606Y0031107D01*
X0036685Y0031068D01*
X0036763Y0031025D01*
X0036838Y0030978D01*
X0036911Y0030928D01*
X0036982Y0030875D01*
X0037051Y0030819D01*
X0037117Y0030760D01*
X0037180Y0030698D01*
X0037240Y0030634D01*
X0037298Y0030567D01*
X0037352Y0030497D01*
X0037404Y0030425D01*
X0037452Y0030351D01*
X0037497Y0030274D01*
X0037538Y0030196D01*
X0037576Y0030116D01*
X0037610Y0030035D01*
X0037641Y0029952D01*
X0037668Y0029867D01*
X0037691Y0029782D01*
X0037710Y0029696D01*
X0037726Y0029608D01*
X0037738Y0029521D01*
X0037746Y0029433D01*
X0037750Y0029344D01*
X0037750Y0029256D01*
X0037746Y0029167D01*
X0037738Y0029079D01*
X0037726Y0028992D01*
X0037710Y0028904D01*
X0037691Y0028818D01*
X0037668Y0028733D01*
X0037641Y0028648D01*
X0037610Y0028565D01*
X0037576Y0028484D01*
X0037538Y0028404D01*
X0037497Y0028326D01*
X0037452Y0028249D01*
X0037404Y0028175D01*
X0037352Y0028103D01*
X0037298Y0028033D01*
X0037240Y0027966D01*
X0037180Y0027902D01*
X0037117Y0027840D01*
X0037051Y0027781D01*
X0036982Y0027725D01*
X0036911Y0027672D01*
X0036838Y0027622D01*
X0036763Y0027575D01*
X0036685Y0027532D01*
X0036606Y0027493D01*
X0036526Y0027457D01*
X0036443Y0027424D01*
X0036360Y0027395D01*
X0036275Y0027370D01*
X0036189Y0027349D01*
X0036102Y0027331D01*
X0036015Y0027318D01*
X0035927Y0027308D01*
X0035838Y0027302D01*
X0035750Y0027300D01*
X0035750Y0023100D02*
X0035752Y0023024D01*
X0035758Y0022948D01*
X0035767Y0022873D01*
X0035781Y0022798D01*
X0035798Y0022724D01*
X0035819Y0022651D01*
X0035843Y0022579D01*
X0035872Y0022508D01*
X0035903Y0022439D01*
X0035938Y0022372D01*
X0035977Y0022307D01*
X0036019Y0022243D01*
X0036064Y0022182D01*
X0036112Y0022123D01*
X0036163Y0022067D01*
X0036217Y0022013D01*
X0036273Y0021962D01*
X0036332Y0021914D01*
X0036393Y0021869D01*
X0036457Y0021827D01*
X0036522Y0021788D01*
X0036589Y0021753D01*
X0036658Y0021722D01*
X0036729Y0021693D01*
X0036801Y0021669D01*
X0036874Y0021648D01*
X0036948Y0021631D01*
X0037023Y0021617D01*
X0037098Y0021608D01*
X0037174Y0021602D01*
X0037250Y0021600D01*
X0074250Y0021600D02*
X0074326Y0021602D01*
X0074402Y0021608D01*
X0074477Y0021617D01*
X0074552Y0021631D01*
X0074626Y0021648D01*
X0074699Y0021669D01*
X0074771Y0021693D01*
X0074842Y0021722D01*
X0074911Y0021753D01*
X0074978Y0021788D01*
X0075043Y0021827D01*
X0075107Y0021869D01*
X0075168Y0021914D01*
X0075227Y0021962D01*
X0075283Y0022013D01*
X0075337Y0022067D01*
X0075388Y0022123D01*
X0075436Y0022182D01*
X0075481Y0022243D01*
X0075523Y0022307D01*
X0075562Y0022372D01*
X0075597Y0022439D01*
X0075628Y0022508D01*
X0075657Y0022579D01*
X0075681Y0022651D01*
X0075702Y0022724D01*
X0075719Y0022798D01*
X0075733Y0022873D01*
X0075742Y0022948D01*
X0075748Y0023024D01*
X0075750Y0023100D01*
X0075750Y0035500D01*
X0075748Y0035576D01*
X0075742Y0035652D01*
X0075733Y0035727D01*
X0075719Y0035802D01*
X0075702Y0035876D01*
X0075681Y0035949D01*
X0075657Y0036021D01*
X0075628Y0036092D01*
X0075597Y0036161D01*
X0075562Y0036228D01*
X0075523Y0036293D01*
X0075481Y0036357D01*
X0075436Y0036418D01*
X0075388Y0036477D01*
X0075337Y0036533D01*
X0075283Y0036587D01*
X0075227Y0036638D01*
X0075168Y0036686D01*
X0075107Y0036731D01*
X0075043Y0036773D01*
X0074978Y0036812D01*
X0074911Y0036847D01*
X0074842Y0036878D01*
X0074771Y0036907D01*
X0074699Y0036931D01*
X0074626Y0036952D01*
X0074552Y0036969D01*
X0074477Y0036983D01*
X0074402Y0036992D01*
X0074326Y0036998D01*
X0074250Y0037000D01*
X0128250Y0035500D02*
X0128250Y0031300D01*
X0128250Y0027300D01*
X0128250Y0023100D01*
X0128252Y0023024D01*
X0128258Y0022948D01*
X0128267Y0022873D01*
X0128281Y0022798D01*
X0128298Y0022724D01*
X0128319Y0022651D01*
X0128343Y0022579D01*
X0128372Y0022508D01*
X0128403Y0022439D01*
X0128438Y0022372D01*
X0128477Y0022307D01*
X0128519Y0022243D01*
X0128564Y0022182D01*
X0128612Y0022123D01*
X0128663Y0022067D01*
X0128717Y0022013D01*
X0128773Y0021962D01*
X0128832Y0021914D01*
X0128893Y0021869D01*
X0128957Y0021827D01*
X0129022Y0021788D01*
X0129089Y0021753D01*
X0129158Y0021722D01*
X0129229Y0021693D01*
X0129301Y0021669D01*
X0129374Y0021648D01*
X0129448Y0021631D01*
X0129523Y0021617D01*
X0129598Y0021608D01*
X0129674Y0021602D01*
X0129750Y0021600D01*
X0128250Y0027300D02*
X0128338Y0027302D01*
X0128427Y0027308D01*
X0128515Y0027318D01*
X0128602Y0027331D01*
X0128689Y0027349D01*
X0128775Y0027370D01*
X0128860Y0027395D01*
X0128943Y0027424D01*
X0129026Y0027457D01*
X0129106Y0027493D01*
X0129185Y0027532D01*
X0129263Y0027575D01*
X0129338Y0027622D01*
X0129411Y0027672D01*
X0129482Y0027725D01*
X0129551Y0027781D01*
X0129617Y0027840D01*
X0129680Y0027902D01*
X0129740Y0027966D01*
X0129798Y0028033D01*
X0129852Y0028103D01*
X0129904Y0028175D01*
X0129952Y0028249D01*
X0129997Y0028326D01*
X0130038Y0028404D01*
X0130076Y0028484D01*
X0130110Y0028565D01*
X0130141Y0028648D01*
X0130168Y0028733D01*
X0130191Y0028818D01*
X0130210Y0028904D01*
X0130226Y0028992D01*
X0130238Y0029079D01*
X0130246Y0029167D01*
X0130250Y0029256D01*
X0130250Y0029344D01*
X0130246Y0029433D01*
X0130238Y0029521D01*
X0130226Y0029608D01*
X0130210Y0029696D01*
X0130191Y0029782D01*
X0130168Y0029867D01*
X0130141Y0029952D01*
X0130110Y0030035D01*
X0130076Y0030116D01*
X0130038Y0030196D01*
X0129997Y0030274D01*
X0129952Y0030351D01*
X0129904Y0030425D01*
X0129852Y0030497D01*
X0129798Y0030567D01*
X0129740Y0030634D01*
X0129680Y0030698D01*
X0129617Y0030760D01*
X0129551Y0030819D01*
X0129482Y0030875D01*
X0129411Y0030928D01*
X0129338Y0030978D01*
X0129263Y0031025D01*
X0129185Y0031068D01*
X0129106Y0031107D01*
X0129026Y0031143D01*
X0128943Y0031176D01*
X0128860Y0031205D01*
X0128775Y0031230D01*
X0128689Y0031251D01*
X0128602Y0031269D01*
X0128515Y0031282D01*
X0128427Y0031292D01*
X0128338Y0031298D01*
X0128250Y0031300D01*
X0128250Y0035500D02*
X0128252Y0035576D01*
X0128258Y0035652D01*
X0128267Y0035727D01*
X0128281Y0035802D01*
X0128298Y0035876D01*
X0128319Y0035949D01*
X0128343Y0036021D01*
X0128372Y0036092D01*
X0128403Y0036161D01*
X0128438Y0036228D01*
X0128477Y0036293D01*
X0128519Y0036357D01*
X0128564Y0036418D01*
X0128612Y0036477D01*
X0128663Y0036533D01*
X0128717Y0036587D01*
X0128773Y0036638D01*
X0128832Y0036686D01*
X0128893Y0036731D01*
X0128957Y0036773D01*
X0129022Y0036812D01*
X0129089Y0036847D01*
X0129158Y0036878D01*
X0129229Y0036907D01*
X0129301Y0036931D01*
X0129374Y0036952D01*
X0129448Y0036969D01*
X0129523Y0036983D01*
X0129598Y0036992D01*
X0129674Y0036998D01*
X0129750Y0037000D01*
X0166750Y0037000D02*
X0166826Y0036998D01*
X0166902Y0036992D01*
X0166977Y0036983D01*
X0167052Y0036969D01*
X0167126Y0036952D01*
X0167199Y0036931D01*
X0167271Y0036907D01*
X0167342Y0036878D01*
X0167411Y0036847D01*
X0167478Y0036812D01*
X0167543Y0036773D01*
X0167607Y0036731D01*
X0167668Y0036686D01*
X0167727Y0036638D01*
X0167783Y0036587D01*
X0167837Y0036533D01*
X0167888Y0036477D01*
X0167936Y0036418D01*
X0167981Y0036357D01*
X0168023Y0036293D01*
X0168062Y0036228D01*
X0168097Y0036161D01*
X0168128Y0036092D01*
X0168157Y0036021D01*
X0168181Y0035949D01*
X0168202Y0035876D01*
X0168219Y0035802D01*
X0168233Y0035727D01*
X0168242Y0035652D01*
X0168248Y0035576D01*
X0168250Y0035500D01*
X0168250Y0023100D01*
X0168248Y0023024D01*
X0168242Y0022948D01*
X0168233Y0022873D01*
X0168219Y0022798D01*
X0168202Y0022724D01*
X0168181Y0022651D01*
X0168157Y0022579D01*
X0168128Y0022508D01*
X0168097Y0022439D01*
X0168062Y0022372D01*
X0168023Y0022307D01*
X0167981Y0022243D01*
X0167936Y0022182D01*
X0167888Y0022123D01*
X0167837Y0022067D01*
X0167783Y0022013D01*
X0167727Y0021962D01*
X0167668Y0021914D01*
X0167607Y0021869D01*
X0167543Y0021827D01*
X0167478Y0021788D01*
X0167411Y0021753D01*
X0167342Y0021722D01*
X0167271Y0021693D01*
X0167199Y0021669D01*
X0167126Y0021648D01*
X0167052Y0021631D01*
X0166977Y0021617D01*
X0166902Y0021608D01*
X0166826Y0021602D01*
X0166750Y0021600D01*
X0208250Y0023100D02*
X0208250Y0027300D01*
X0208250Y0031300D01*
X0208250Y0035500D01*
X0208252Y0035576D01*
X0208258Y0035652D01*
X0208267Y0035727D01*
X0208281Y0035802D01*
X0208298Y0035876D01*
X0208319Y0035949D01*
X0208343Y0036021D01*
X0208372Y0036092D01*
X0208403Y0036161D01*
X0208438Y0036228D01*
X0208477Y0036293D01*
X0208519Y0036357D01*
X0208564Y0036418D01*
X0208612Y0036477D01*
X0208663Y0036533D01*
X0208717Y0036587D01*
X0208773Y0036638D01*
X0208832Y0036686D01*
X0208893Y0036731D01*
X0208957Y0036773D01*
X0209022Y0036812D01*
X0209089Y0036847D01*
X0209158Y0036878D01*
X0209229Y0036907D01*
X0209301Y0036931D01*
X0209374Y0036952D01*
X0209448Y0036969D01*
X0209523Y0036983D01*
X0209598Y0036992D01*
X0209674Y0036998D01*
X0209750Y0037000D01*
X0208250Y0031300D02*
X0208338Y0031298D01*
X0208427Y0031292D01*
X0208515Y0031282D01*
X0208602Y0031269D01*
X0208689Y0031251D01*
X0208775Y0031230D01*
X0208860Y0031205D01*
X0208943Y0031176D01*
X0209026Y0031143D01*
X0209106Y0031107D01*
X0209185Y0031068D01*
X0209263Y0031025D01*
X0209338Y0030978D01*
X0209411Y0030928D01*
X0209482Y0030875D01*
X0209551Y0030819D01*
X0209617Y0030760D01*
X0209680Y0030698D01*
X0209740Y0030634D01*
X0209798Y0030567D01*
X0209852Y0030497D01*
X0209904Y0030425D01*
X0209952Y0030351D01*
X0209997Y0030274D01*
X0210038Y0030196D01*
X0210076Y0030116D01*
X0210110Y0030035D01*
X0210141Y0029952D01*
X0210168Y0029867D01*
X0210191Y0029782D01*
X0210210Y0029696D01*
X0210226Y0029608D01*
X0210238Y0029521D01*
X0210246Y0029433D01*
X0210250Y0029344D01*
X0210250Y0029256D01*
X0210246Y0029167D01*
X0210238Y0029079D01*
X0210226Y0028992D01*
X0210210Y0028904D01*
X0210191Y0028818D01*
X0210168Y0028733D01*
X0210141Y0028648D01*
X0210110Y0028565D01*
X0210076Y0028484D01*
X0210038Y0028404D01*
X0209997Y0028326D01*
X0209952Y0028249D01*
X0209904Y0028175D01*
X0209852Y0028103D01*
X0209798Y0028033D01*
X0209740Y0027966D01*
X0209680Y0027902D01*
X0209617Y0027840D01*
X0209551Y0027781D01*
X0209482Y0027725D01*
X0209411Y0027672D01*
X0209338Y0027622D01*
X0209263Y0027575D01*
X0209185Y0027532D01*
X0209106Y0027493D01*
X0209026Y0027457D01*
X0208943Y0027424D01*
X0208860Y0027395D01*
X0208775Y0027370D01*
X0208689Y0027349D01*
X0208602Y0027331D01*
X0208515Y0027318D01*
X0208427Y0027308D01*
X0208338Y0027302D01*
X0208250Y0027300D01*
X0208250Y0023100D02*
X0208252Y0023024D01*
X0208258Y0022948D01*
X0208267Y0022873D01*
X0208281Y0022798D01*
X0208298Y0022724D01*
X0208319Y0022651D01*
X0208343Y0022579D01*
X0208372Y0022508D01*
X0208403Y0022439D01*
X0208438Y0022372D01*
X0208477Y0022307D01*
X0208519Y0022243D01*
X0208564Y0022182D01*
X0208612Y0022123D01*
X0208663Y0022067D01*
X0208717Y0022013D01*
X0208773Y0021962D01*
X0208832Y0021914D01*
X0208893Y0021869D01*
X0208957Y0021827D01*
X0209022Y0021788D01*
X0209089Y0021753D01*
X0209158Y0021722D01*
X0209229Y0021693D01*
X0209301Y0021669D01*
X0209374Y0021648D01*
X0209448Y0021631D01*
X0209523Y0021617D01*
X0209598Y0021608D01*
X0209674Y0021602D01*
X0209750Y0021600D01*
X0246750Y0021600D02*
X0246826Y0021602D01*
X0246902Y0021608D01*
X0246977Y0021617D01*
X0247052Y0021631D01*
X0247126Y0021648D01*
X0247199Y0021669D01*
X0247271Y0021693D01*
X0247342Y0021722D01*
X0247411Y0021753D01*
X0247478Y0021788D01*
X0247543Y0021827D01*
X0247607Y0021869D01*
X0247668Y0021914D01*
X0247727Y0021962D01*
X0247783Y0022013D01*
X0247837Y0022067D01*
X0247888Y0022123D01*
X0247936Y0022182D01*
X0247981Y0022243D01*
X0248023Y0022307D01*
X0248062Y0022372D01*
X0248097Y0022439D01*
X0248128Y0022508D01*
X0248157Y0022579D01*
X0248181Y0022651D01*
X0248202Y0022724D01*
X0248219Y0022798D01*
X0248233Y0022873D01*
X0248242Y0022948D01*
X0248248Y0023024D01*
X0248250Y0023100D01*
X0248250Y0035500D01*
X0248248Y0035576D01*
X0248242Y0035652D01*
X0248233Y0035727D01*
X0248219Y0035802D01*
X0248202Y0035876D01*
X0248181Y0035949D01*
X0248157Y0036021D01*
X0248128Y0036092D01*
X0248097Y0036161D01*
X0248062Y0036228D01*
X0248023Y0036293D01*
X0247981Y0036357D01*
X0247936Y0036418D01*
X0247888Y0036477D01*
X0247837Y0036533D01*
X0247783Y0036587D01*
X0247727Y0036638D01*
X0247668Y0036686D01*
X0247607Y0036731D01*
X0247543Y0036773D01*
X0247478Y0036812D01*
X0247411Y0036847D01*
X0247342Y0036878D01*
X0247271Y0036907D01*
X0247199Y0036931D01*
X0247126Y0036952D01*
X0247052Y0036969D01*
X0246977Y0036983D01*
X0246902Y0036992D01*
X0246826Y0036998D01*
X0246750Y0037000D01*
X0328250Y0035500D02*
X0328250Y0031300D01*
X0328250Y0027300D01*
X0328250Y0023100D01*
X0328252Y0023024D01*
X0328258Y0022948D01*
X0328267Y0022873D01*
X0328281Y0022798D01*
X0328298Y0022724D01*
X0328319Y0022651D01*
X0328343Y0022579D01*
X0328372Y0022508D01*
X0328403Y0022439D01*
X0328438Y0022372D01*
X0328477Y0022307D01*
X0328519Y0022243D01*
X0328564Y0022182D01*
X0328612Y0022123D01*
X0328663Y0022067D01*
X0328717Y0022013D01*
X0328773Y0021962D01*
X0328832Y0021914D01*
X0328893Y0021869D01*
X0328957Y0021827D01*
X0329022Y0021788D01*
X0329089Y0021753D01*
X0329158Y0021722D01*
X0329229Y0021693D01*
X0329301Y0021669D01*
X0329374Y0021648D01*
X0329448Y0021631D01*
X0329523Y0021617D01*
X0329598Y0021608D01*
X0329674Y0021602D01*
X0329750Y0021600D01*
X0328250Y0027300D02*
X0328338Y0027302D01*
X0328427Y0027308D01*
X0328515Y0027318D01*
X0328602Y0027331D01*
X0328689Y0027349D01*
X0328775Y0027370D01*
X0328860Y0027395D01*
X0328943Y0027424D01*
X0329026Y0027457D01*
X0329106Y0027493D01*
X0329185Y0027532D01*
X0329263Y0027575D01*
X0329338Y0027622D01*
X0329411Y0027672D01*
X0329482Y0027725D01*
X0329551Y0027781D01*
X0329617Y0027840D01*
X0329680Y0027902D01*
X0329740Y0027966D01*
X0329798Y0028033D01*
X0329852Y0028103D01*
X0329904Y0028175D01*
X0329952Y0028249D01*
X0329997Y0028326D01*
X0330038Y0028404D01*
X0330076Y0028484D01*
X0330110Y0028565D01*
X0330141Y0028648D01*
X0330168Y0028733D01*
X0330191Y0028818D01*
X0330210Y0028904D01*
X0330226Y0028992D01*
X0330238Y0029079D01*
X0330246Y0029167D01*
X0330250Y0029256D01*
X0330250Y0029344D01*
X0330246Y0029433D01*
X0330238Y0029521D01*
X0330226Y0029608D01*
X0330210Y0029696D01*
X0330191Y0029782D01*
X0330168Y0029867D01*
X0330141Y0029952D01*
X0330110Y0030035D01*
X0330076Y0030116D01*
X0330038Y0030196D01*
X0329997Y0030274D01*
X0329952Y0030351D01*
X0329904Y0030425D01*
X0329852Y0030497D01*
X0329798Y0030567D01*
X0329740Y0030634D01*
X0329680Y0030698D01*
X0329617Y0030760D01*
X0329551Y0030819D01*
X0329482Y0030875D01*
X0329411Y0030928D01*
X0329338Y0030978D01*
X0329263Y0031025D01*
X0329185Y0031068D01*
X0329106Y0031107D01*
X0329026Y0031143D01*
X0328943Y0031176D01*
X0328860Y0031205D01*
X0328775Y0031230D01*
X0328689Y0031251D01*
X0328602Y0031269D01*
X0328515Y0031282D01*
X0328427Y0031292D01*
X0328338Y0031298D01*
X0328250Y0031300D01*
X0328250Y0035500D02*
X0328252Y0035576D01*
X0328258Y0035652D01*
X0328267Y0035727D01*
X0328281Y0035802D01*
X0328298Y0035876D01*
X0328319Y0035949D01*
X0328343Y0036021D01*
X0328372Y0036092D01*
X0328403Y0036161D01*
X0328438Y0036228D01*
X0328477Y0036293D01*
X0328519Y0036357D01*
X0328564Y0036418D01*
X0328612Y0036477D01*
X0328663Y0036533D01*
X0328717Y0036587D01*
X0328773Y0036638D01*
X0328832Y0036686D01*
X0328893Y0036731D01*
X0328957Y0036773D01*
X0329022Y0036812D01*
X0329089Y0036847D01*
X0329158Y0036878D01*
X0329229Y0036907D01*
X0329301Y0036931D01*
X0329374Y0036952D01*
X0329448Y0036969D01*
X0329523Y0036983D01*
X0329598Y0036992D01*
X0329674Y0036998D01*
X0329750Y0037000D01*
X0366750Y0037000D02*
X0366826Y0036998D01*
X0366902Y0036992D01*
X0366977Y0036983D01*
X0367052Y0036969D01*
X0367126Y0036952D01*
X0367199Y0036931D01*
X0367271Y0036907D01*
X0367342Y0036878D01*
X0367411Y0036847D01*
X0367478Y0036812D01*
X0367543Y0036773D01*
X0367607Y0036731D01*
X0367668Y0036686D01*
X0367727Y0036638D01*
X0367783Y0036587D01*
X0367837Y0036533D01*
X0367888Y0036477D01*
X0367936Y0036418D01*
X0367981Y0036357D01*
X0368023Y0036293D01*
X0368062Y0036228D01*
X0368097Y0036161D01*
X0368128Y0036092D01*
X0368157Y0036021D01*
X0368181Y0035949D01*
X0368202Y0035876D01*
X0368219Y0035802D01*
X0368233Y0035727D01*
X0368242Y0035652D01*
X0368248Y0035576D01*
X0368250Y0035500D01*
X0368250Y0023100D01*
X0368248Y0023024D01*
X0368242Y0022948D01*
X0368233Y0022873D01*
X0368219Y0022798D01*
X0368202Y0022724D01*
X0368181Y0022651D01*
X0368157Y0022579D01*
X0368128Y0022508D01*
X0368097Y0022439D01*
X0368062Y0022372D01*
X0368023Y0022307D01*
X0367981Y0022243D01*
X0367936Y0022182D01*
X0367888Y0022123D01*
X0367837Y0022067D01*
X0367783Y0022013D01*
X0367727Y0021962D01*
X0367668Y0021914D01*
X0367607Y0021869D01*
X0367543Y0021827D01*
X0367478Y0021788D01*
X0367411Y0021753D01*
X0367342Y0021722D01*
X0367271Y0021693D01*
X0367199Y0021669D01*
X0367126Y0021648D01*
X0367052Y0021631D01*
X0366977Y0021617D01*
X0366902Y0021608D01*
X0366826Y0021602D01*
X0366750Y0021600D01*
D12*
X0368250Y0035600D02*
X0328250Y0035600D01*
X0248250Y0035600D02*
X0208250Y0035600D01*
X0168250Y0035600D02*
X0128250Y0035600D01*
X0075750Y0035600D02*
X0035750Y0035600D01*
D13*
X0029500Y0035449D02*
X0029500Y0032446D01*
X0029500Y0033947D02*
X0034004Y0033947D01*
X0032503Y0032446D01*
X0033253Y0030845D02*
X0034004Y0030094D01*
X0034004Y0028593D01*
X0033253Y0027842D01*
X0030251Y0027842D01*
X0029500Y0028593D01*
X0029500Y0030094D01*
X0030251Y0030845D01*
X0042101Y0031303D02*
X0042101Y0028301D01*
X0042852Y0027550D01*
X0045104Y0027550D01*
X0045104Y0032054D01*
X0042852Y0032054D01*
X0042101Y0031303D01*
X0046705Y0032054D02*
X0049708Y0032054D01*
X0049708Y0029802D01*
X0048207Y0030553D01*
X0047456Y0030553D01*
X0046705Y0029802D01*
X0046705Y0028301D01*
X0047456Y0027550D01*
X0048957Y0027550D01*
X0049708Y0028301D01*
X0051309Y0028301D02*
X0051309Y0031303D01*
X0052060Y0032054D01*
X0053561Y0032054D01*
X0054312Y0031303D01*
X0054312Y0030553D01*
X0053561Y0029802D01*
X0051309Y0029802D01*
X0055913Y0029802D02*
X0055913Y0028301D01*
X0056664Y0027550D01*
X0058165Y0027550D01*
X0058916Y0028301D01*
X0060517Y0028301D02*
X0061268Y0027550D01*
X0062769Y0027550D01*
X0063520Y0028301D01*
X0063520Y0031303D01*
X0062769Y0032054D01*
X0061268Y0032054D01*
X0060517Y0031303D01*
X0058916Y0032054D02*
X0058916Y0029802D01*
X0057414Y0030553D01*
X0056664Y0030553D01*
X0055913Y0029802D01*
X0054312Y0028301D02*
X0053561Y0027550D01*
X0052060Y0027550D01*
X0051309Y0028301D01*
X0055913Y0032054D02*
X0058916Y0032054D01*
X0065121Y0032054D02*
X0065121Y0027550D01*
X0068124Y0027550D02*
X0068124Y0032054D01*
X0070476Y0032054D02*
X0072728Y0029802D01*
X0069725Y0029802D01*
X0068124Y0029802D02*
X0065121Y0029802D01*
X0070476Y0027550D02*
X0070476Y0032054D01*
X0074329Y0032054D02*
X0074329Y0031303D01*
X0077331Y0028301D01*
X0077331Y0027550D01*
X0077331Y0032054D02*
X0074329Y0032054D01*
X0034004Y0026274D02*
X0034004Y0024773D01*
X0034004Y0025523D02*
X0029500Y0025523D01*
X0029500Y0024773D02*
X0029500Y0026274D01*
X0122000Y0026274D02*
X0122000Y0024773D01*
X0122000Y0025523D02*
X0126504Y0025523D01*
X0126504Y0024773D02*
X0126504Y0026274D01*
X0125753Y0027842D02*
X0122751Y0027842D01*
X0122000Y0028593D01*
X0122000Y0030094D01*
X0122751Y0030845D01*
X0122000Y0032446D02*
X0125003Y0035449D01*
X0125753Y0035449D01*
X0126504Y0034698D01*
X0126504Y0033197D01*
X0125753Y0032446D01*
X0125753Y0030845D02*
X0126504Y0030094D01*
X0126504Y0028593D01*
X0125753Y0027842D01*
X0134601Y0028301D02*
X0134601Y0031303D01*
X0135352Y0032054D01*
X0137604Y0032054D01*
X0137604Y0027550D01*
X0135352Y0027550D01*
X0134601Y0028301D01*
X0139205Y0028301D02*
X0139956Y0027550D01*
X0141457Y0027550D01*
X0142208Y0028301D01*
X0143809Y0028301D02*
X0143809Y0031303D01*
X0144560Y0032054D01*
X0146061Y0032054D01*
X0146812Y0031303D01*
X0146812Y0030553D01*
X0146061Y0029802D01*
X0143809Y0029802D01*
X0142208Y0029802D02*
X0140707Y0030553D01*
X0139956Y0030553D01*
X0139205Y0029802D01*
X0139205Y0028301D01*
X0143809Y0028301D02*
X0144560Y0027550D01*
X0146061Y0027550D01*
X0146812Y0028301D01*
X0148413Y0028301D02*
X0149164Y0027550D01*
X0150665Y0027550D01*
X0151416Y0028301D01*
X0153017Y0028301D02*
X0153768Y0027550D01*
X0155269Y0027550D01*
X0156020Y0028301D01*
X0156020Y0031303D01*
X0155269Y0032054D01*
X0153768Y0032054D01*
X0153017Y0031303D01*
X0151416Y0032054D02*
X0151416Y0029802D01*
X0149914Y0030553D01*
X0149164Y0030553D01*
X0148413Y0029802D01*
X0148413Y0028301D01*
X0142208Y0029802D02*
X0142208Y0032054D01*
X0139205Y0032054D01*
X0148413Y0032054D02*
X0151416Y0032054D01*
X0157621Y0032054D02*
X0157621Y0027550D01*
X0160624Y0027550D02*
X0160624Y0032054D01*
X0162976Y0032054D02*
X0165228Y0029802D01*
X0162225Y0029802D01*
X0160624Y0029802D02*
X0157621Y0029802D01*
X0162976Y0027550D02*
X0162976Y0032054D01*
X0166829Y0032054D02*
X0166829Y0031303D01*
X0169831Y0028301D01*
X0169831Y0027550D01*
X0169831Y0032054D02*
X0166829Y0032054D01*
X0202000Y0033197D02*
X0202751Y0032446D01*
X0202000Y0033197D02*
X0202000Y0034698D01*
X0202751Y0035449D01*
X0203501Y0035449D01*
X0204252Y0034698D01*
X0204252Y0033947D01*
X0204252Y0034698D02*
X0205003Y0035449D01*
X0205753Y0035449D01*
X0206504Y0034698D01*
X0206504Y0033197D01*
X0205753Y0032446D01*
X0205753Y0030845D02*
X0206504Y0030094D01*
X0206504Y0028593D01*
X0205753Y0027842D01*
X0202751Y0027842D01*
X0202000Y0028593D01*
X0202000Y0030094D01*
X0202751Y0030845D01*
X0214601Y0031303D02*
X0214601Y0028301D01*
X0215352Y0027550D01*
X0217604Y0027550D01*
X0217604Y0032054D01*
X0215352Y0032054D01*
X0214601Y0031303D01*
X0219205Y0032054D02*
X0222208Y0032054D01*
X0222208Y0029802D01*
X0220707Y0030553D01*
X0219956Y0030553D01*
X0219205Y0029802D01*
X0219205Y0028301D01*
X0219956Y0027550D01*
X0221457Y0027550D01*
X0222208Y0028301D01*
X0223809Y0028301D02*
X0223809Y0031303D01*
X0224560Y0032054D01*
X0226061Y0032054D01*
X0226812Y0031303D01*
X0226812Y0030553D01*
X0226061Y0029802D01*
X0223809Y0029802D01*
X0223809Y0028301D02*
X0224560Y0027550D01*
X0226061Y0027550D01*
X0226812Y0028301D01*
X0228413Y0028301D02*
X0229164Y0027550D01*
X0230665Y0027550D01*
X0231416Y0028301D01*
X0233017Y0028301D02*
X0233768Y0027550D01*
X0235269Y0027550D01*
X0236020Y0028301D01*
X0236020Y0031303D01*
X0235269Y0032054D01*
X0233768Y0032054D01*
X0233017Y0031303D01*
X0231416Y0032054D02*
X0231416Y0029802D01*
X0229914Y0030553D01*
X0229164Y0030553D01*
X0228413Y0029802D01*
X0228413Y0028301D01*
X0237621Y0027550D02*
X0237621Y0032054D01*
X0240624Y0032054D02*
X0240624Y0027550D01*
X0242976Y0027550D02*
X0242976Y0032054D01*
X0245228Y0029802D01*
X0242225Y0029802D01*
X0240624Y0029802D02*
X0237621Y0029802D01*
X0231416Y0032054D02*
X0228413Y0032054D01*
X0246829Y0032054D02*
X0246829Y0031303D01*
X0249831Y0028301D01*
X0249831Y0027550D01*
X0249831Y0032054D02*
X0246829Y0032054D01*
X0206504Y0026274D02*
X0206504Y0024773D01*
X0206504Y0025523D02*
X0202000Y0025523D01*
X0202000Y0024773D02*
X0202000Y0026274D01*
X0122000Y0032446D02*
X0122000Y0035449D01*
X0322000Y0034698D02*
X0326504Y0034698D01*
X0324252Y0032446D01*
X0324252Y0035449D01*
X0334601Y0031303D02*
X0335352Y0032054D01*
X0337604Y0032054D01*
X0337604Y0027550D01*
X0335352Y0027550D01*
X0334601Y0028301D01*
X0334601Y0031303D01*
X0339205Y0032054D02*
X0342208Y0032054D01*
X0342208Y0029802D01*
X0340707Y0030553D01*
X0339956Y0030553D01*
X0339205Y0029802D01*
X0339205Y0028301D01*
X0339956Y0027550D01*
X0341457Y0027550D01*
X0342208Y0028301D01*
X0343809Y0028301D02*
X0343809Y0031303D01*
X0344560Y0032054D01*
X0346061Y0032054D01*
X0346812Y0031303D01*
X0346812Y0030553D01*
X0346061Y0029802D01*
X0343809Y0029802D01*
X0343809Y0028301D02*
X0344560Y0027550D01*
X0346061Y0027550D01*
X0346812Y0028301D01*
X0348413Y0028301D02*
X0349164Y0027550D01*
X0350665Y0027550D01*
X0351416Y0028301D01*
X0353017Y0028301D02*
X0353768Y0027550D01*
X0355269Y0027550D01*
X0356020Y0028301D01*
X0356020Y0031303D01*
X0355269Y0032054D01*
X0353768Y0032054D01*
X0353017Y0031303D01*
X0351416Y0032054D02*
X0351416Y0029802D01*
X0349914Y0030553D01*
X0349164Y0030553D01*
X0348413Y0029802D01*
X0348413Y0028301D01*
X0357621Y0027550D02*
X0357621Y0032054D01*
X0360624Y0032054D02*
X0360624Y0027550D01*
X0362976Y0027550D02*
X0362976Y0032054D01*
X0365228Y0029802D01*
X0362225Y0029802D01*
X0360624Y0029802D02*
X0357621Y0029802D01*
X0351416Y0032054D02*
X0348413Y0032054D01*
X0366829Y0032054D02*
X0366829Y0031303D01*
X0369831Y0028301D01*
X0369831Y0027550D01*
X0369831Y0032054D02*
X0366829Y0032054D01*
X0326504Y0030094D02*
X0326504Y0028593D01*
X0325753Y0027842D01*
X0322751Y0027842D01*
X0322000Y0028593D01*
X0322000Y0030094D01*
X0322751Y0030845D01*
X0325753Y0030845D02*
X0326504Y0030094D01*
X0326504Y0026274D02*
X0326504Y0024773D01*
X0326504Y0025523D02*
X0322000Y0025523D01*
X0322000Y0024773D02*
X0322000Y0026274D01*
M02*
