G75*
%MOIN*%
%OFA0B0*%
%FSLAX25Y25*%
%IPPOS*%
%LPD*%
%AMOC8*
5,1,8,0,0,1.08239X$1,22.5*
%
%ADD10C,0.00000*%
%ADD11R,0.04724X0.03150*%
%ADD12R,0.03150X0.04724*%
%ADD13R,0.15000X0.15000*%
%ADD14C,0.15000*%
%ADD15R,0.07400X0.07400*%
%ADD16C,0.07400*%
%ADD17R,0.06299X0.07087*%
%ADD18R,0.08700X0.02400*%
%ADD19R,0.09449X0.09449*%
%ADD20C,0.02400*%
%ADD21C,0.05000*%
%ADD22C,0.01600*%
%ADD23C,0.04000*%
D10*
X0048250Y0007200D02*
X0048250Y0079661D01*
X0206951Y0079661D01*
X0206951Y0007200D01*
X0048250Y0007200D01*
D11*
X0098250Y0021157D03*
X0108250Y0021157D03*
X0118250Y0021157D03*
X0128250Y0021157D03*
X0128250Y0028243D03*
X0118250Y0028243D03*
X0108250Y0028243D03*
X0098250Y0028243D03*
X0093250Y0041157D03*
X0083250Y0041157D03*
X0083250Y0048243D03*
X0093250Y0048243D03*
X0128250Y0061157D03*
X0128250Y0068243D03*
X0163250Y0038243D03*
X0163250Y0031157D03*
D12*
X0091793Y0034700D03*
X0084707Y0034700D03*
D13*
X0063250Y0029700D03*
X0188250Y0059700D03*
D14*
X0188250Y0028653D03*
X0063250Y0060747D03*
D15*
X0107750Y0069700D03*
D16*
X0118750Y0069700D03*
D17*
X0093762Y0059700D03*
X0082738Y0059700D03*
D18*
X0107950Y0052200D03*
X0107950Y0047200D03*
X0107950Y0042200D03*
X0107950Y0037200D03*
X0128550Y0037200D03*
X0128550Y0042200D03*
X0128550Y0047200D03*
X0128550Y0052200D03*
D19*
X0139589Y0054700D03*
X0156911Y0054700D03*
X0153250Y0038361D03*
X0153250Y0021039D03*
D20*
X0154412Y0021693D02*
X0181493Y0021693D01*
X0181776Y0021409D02*
X0181006Y0022179D01*
X0180327Y0023031D01*
X0179747Y0023954D01*
X0179274Y0024935D01*
X0178914Y0025964D01*
X0178672Y0027026D01*
X0178550Y0028108D01*
X0178550Y0028353D01*
X0187950Y0028353D01*
X0188550Y0028353D01*
X0188550Y0018953D01*
X0188795Y0018953D01*
X0189877Y0019075D01*
X0190940Y0019318D01*
X0191968Y0019677D01*
X0192949Y0020150D01*
X0193872Y0020730D01*
X0194724Y0021409D01*
X0195494Y0022179D01*
X0196173Y0023031D01*
X0196753Y0023954D01*
X0197226Y0024935D01*
X0197586Y0025964D01*
X0197828Y0027026D01*
X0197950Y0028108D01*
X0197950Y0028353D01*
X0188550Y0028353D01*
X0188550Y0028953D01*
X0197950Y0028953D01*
X0197950Y0029198D01*
X0197828Y0030281D01*
X0197586Y0031343D01*
X0197226Y0032371D01*
X0196753Y0033353D01*
X0196173Y0034275D01*
X0195494Y0035127D01*
X0194724Y0035897D01*
X0193872Y0036577D01*
X0192949Y0037156D01*
X0191968Y0037629D01*
X0190940Y0037989D01*
X0189877Y0038231D01*
X0188795Y0038353D01*
X0188550Y0038353D01*
X0188550Y0028953D01*
X0187950Y0028953D01*
X0187950Y0028353D01*
X0187950Y0018953D01*
X0187705Y0018953D01*
X0186623Y0019075D01*
X0185560Y0019318D01*
X0184532Y0019677D01*
X0183551Y0020150D01*
X0182628Y0020730D01*
X0181776Y0021409D01*
X0185664Y0019294D02*
X0160174Y0019294D01*
X0160174Y0019876D02*
X0160174Y0016025D01*
X0160024Y0015465D01*
X0159735Y0014963D01*
X0159325Y0014554D01*
X0158824Y0014264D01*
X0158264Y0014114D01*
X0154412Y0014114D01*
X0154412Y0019876D01*
X0152088Y0019876D01*
X0152088Y0014114D01*
X0148236Y0014114D01*
X0147676Y0014264D01*
X0147175Y0014554D01*
X0146765Y0014963D01*
X0146476Y0015465D01*
X0146326Y0016025D01*
X0146326Y0019876D01*
X0152088Y0019876D01*
X0152088Y0022201D01*
X0152088Y0027963D01*
X0148236Y0027963D01*
X0147676Y0027813D01*
X0147175Y0027523D01*
X0146765Y0027114D01*
X0146476Y0026612D01*
X0146326Y0026053D01*
X0146326Y0022201D01*
X0152088Y0022201D01*
X0154412Y0022201D01*
X0154412Y0027963D01*
X0158264Y0027963D01*
X0158824Y0027813D01*
X0159325Y0027523D01*
X0159735Y0027114D01*
X0160024Y0026612D01*
X0160174Y0026053D01*
X0160174Y0022201D01*
X0154412Y0022201D01*
X0154412Y0019876D01*
X0160174Y0019876D01*
X0154412Y0019294D02*
X0152088Y0019294D01*
X0146326Y0019294D02*
X0132812Y0019294D01*
X0132812Y0019292D02*
X0132812Y0021157D01*
X0132812Y0023021D01*
X0132662Y0023581D01*
X0132373Y0024082D01*
X0131963Y0024492D01*
X0131461Y0024782D01*
X0131432Y0024789D01*
X0132521Y0025878D01*
X0132521Y0030609D01*
X0131403Y0031727D01*
X0131359Y0031727D01*
X0131359Y0034091D01*
X0146617Y0034091D01*
X0146617Y0032846D01*
X0147735Y0031728D01*
X0158765Y0031728D01*
X0158841Y0031805D01*
X0158841Y0030280D01*
X0158979Y0029947D01*
X0158979Y0028791D01*
X0160097Y0027673D01*
X0160499Y0027673D01*
X0160753Y0027419D01*
X0162373Y0026748D01*
X0170584Y0026748D01*
X0172204Y0027419D01*
X0175747Y0030963D01*
X0176987Y0032203D01*
X0177659Y0033823D01*
X0177659Y0052874D01*
X0178841Y0054057D01*
X0178841Y0051409D01*
X0179959Y0050291D01*
X0196541Y0050291D01*
X0197659Y0051409D01*
X0197659Y0067991D01*
X0196541Y0069109D01*
X0179959Y0069109D01*
X0178841Y0067991D01*
X0178841Y0064109D01*
X0177373Y0064109D01*
X0175753Y0063437D01*
X0174513Y0062197D01*
X0169513Y0057197D01*
X0168841Y0055577D01*
X0168841Y0036526D01*
X0167881Y0035565D01*
X0167208Y0035565D01*
X0167521Y0035878D01*
X0167521Y0040609D01*
X0166403Y0041727D01*
X0160097Y0041727D01*
X0159883Y0041513D01*
X0159883Y0043876D01*
X0158765Y0044994D01*
X0147735Y0044994D01*
X0146617Y0043876D01*
X0146617Y0040309D01*
X0134809Y0040309D01*
X0134809Y0044191D01*
X0134299Y0044700D01*
X0134809Y0045209D01*
X0134809Y0048067D01*
X0145104Y0048067D01*
X0146222Y0049185D01*
X0146222Y0060215D01*
X0145104Y0061333D01*
X0134074Y0061333D01*
X0132956Y0060215D01*
X0132956Y0055309D01*
X0131359Y0055309D01*
X0131359Y0057673D01*
X0131403Y0057673D01*
X0132521Y0058791D01*
X0132521Y0063522D01*
X0131403Y0064640D01*
X0125097Y0064640D01*
X0123979Y0063522D01*
X0123979Y0058791D01*
X0125097Y0057673D01*
X0125141Y0057673D01*
X0125141Y0055309D01*
X0123409Y0055309D01*
X0122291Y0054191D01*
X0122291Y0050209D01*
X0122801Y0049700D01*
X0122291Y0049191D01*
X0122291Y0045209D01*
X0122801Y0044700D01*
X0122291Y0044191D01*
X0122291Y0040209D01*
X0122801Y0039700D01*
X0122291Y0039191D01*
X0122291Y0035209D01*
X0123409Y0034091D01*
X0125141Y0034091D01*
X0125141Y0031727D01*
X0125097Y0031727D01*
X0123979Y0030609D01*
X0123979Y0025878D01*
X0125068Y0024789D01*
X0125039Y0024782D01*
X0124537Y0024492D01*
X0124127Y0024082D01*
X0123838Y0023581D01*
X0123688Y0023021D01*
X0123688Y0021157D01*
X0128250Y0021157D01*
X0132812Y0021157D01*
X0128250Y0021157D01*
X0128250Y0021157D01*
X0128250Y0021157D01*
X0123688Y0021157D01*
X0123688Y0019292D01*
X0123838Y0018733D01*
X0124127Y0018231D01*
X0124537Y0017821D01*
X0125039Y0017532D01*
X0125598Y0017382D01*
X0128250Y0017382D01*
X0130902Y0017382D01*
X0131461Y0017532D01*
X0131963Y0017821D01*
X0132373Y0018231D01*
X0132662Y0018733D01*
X0132812Y0019292D01*
X0128250Y0019294D02*
X0128250Y0019294D01*
X0123688Y0019294D02*
X0122521Y0019294D01*
X0122521Y0018791D02*
X0122521Y0023522D01*
X0121403Y0024640D01*
X0120054Y0024640D01*
X0119765Y0024760D01*
X0121403Y0024760D01*
X0122521Y0025878D01*
X0122521Y0030609D01*
X0121403Y0031727D01*
X0115097Y0031727D01*
X0114722Y0031352D01*
X0111778Y0031352D01*
X0111403Y0031727D01*
X0111359Y0031727D01*
X0111359Y0034091D01*
X0113091Y0034091D01*
X0114209Y0035209D01*
X0114209Y0039191D01*
X0113699Y0039700D01*
X0114209Y0040209D01*
X0114209Y0044191D01*
X0113699Y0044700D01*
X0114209Y0045209D01*
X0114209Y0049191D01*
X0113905Y0049494D01*
X0114060Y0049649D01*
X0114350Y0050151D01*
X0114500Y0050710D01*
X0114500Y0052200D01*
X0114500Y0053690D01*
X0114350Y0054249D01*
X0114060Y0054751D01*
X0113651Y0055160D01*
X0113149Y0055450D01*
X0112590Y0055600D01*
X0107950Y0055600D01*
X0107950Y0052200D01*
X0107950Y0052200D01*
X0114500Y0052200D01*
X0107950Y0052200D01*
X0107950Y0052200D01*
X0107950Y0052200D01*
X0101400Y0052200D01*
X0101400Y0053690D01*
X0101550Y0054249D01*
X0101840Y0054751D01*
X0102249Y0055160D01*
X0102751Y0055450D01*
X0103310Y0055600D01*
X0107950Y0055600D01*
X0107950Y0052200D01*
X0101400Y0052200D01*
X0101400Y0050710D01*
X0101550Y0050151D01*
X0101690Y0049909D01*
X0100211Y0049909D01*
X0099216Y0049496D01*
X0097521Y0047801D01*
X0097521Y0050609D01*
X0096403Y0051727D01*
X0096359Y0051727D01*
X0096359Y0054248D01*
X0097702Y0054248D01*
X0098820Y0055366D01*
X0098820Y0064034D01*
X0098170Y0064683D01*
X0098170Y0065065D01*
X0097499Y0066685D01*
X0090747Y0073437D01*
X0089127Y0074109D01*
X0067373Y0074109D01*
X0065753Y0073437D01*
X0064513Y0072197D01*
X0062471Y0070155D01*
X0061378Y0070155D01*
X0057920Y0068723D01*
X0055274Y0066076D01*
X0053841Y0062618D01*
X0053841Y0058875D01*
X0055274Y0055417D01*
X0057920Y0052771D01*
X0061378Y0051338D01*
X0065121Y0051338D01*
X0068580Y0052771D01*
X0071226Y0055417D01*
X0072659Y0058875D01*
X0072659Y0062618D01*
X0071551Y0065291D01*
X0078736Y0065291D01*
X0078238Y0065004D01*
X0077828Y0064594D01*
X0077539Y0064092D01*
X0077389Y0063533D01*
X0077389Y0060075D01*
X0082363Y0060075D01*
X0082363Y0059325D01*
X0077389Y0059325D01*
X0077389Y0055867D01*
X0077539Y0055308D01*
X0077828Y0054806D01*
X0078238Y0054396D01*
X0078739Y0054107D01*
X0079299Y0053957D01*
X0082363Y0053957D01*
X0082363Y0059325D01*
X0083113Y0059325D01*
X0083113Y0053957D01*
X0086177Y0053957D01*
X0086737Y0054107D01*
X0087239Y0054396D01*
X0087648Y0054806D01*
X0087938Y0055308D01*
X0088088Y0055867D01*
X0088088Y0059325D01*
X0083113Y0059325D01*
X0083113Y0060075D01*
X0088088Y0060075D01*
X0088088Y0063533D01*
X0088053Y0063662D01*
X0088704Y0063012D01*
X0088704Y0055366D01*
X0089822Y0054248D01*
X0090141Y0054248D01*
X0090141Y0051727D01*
X0090097Y0051727D01*
X0088979Y0050609D01*
X0088979Y0047409D01*
X0087812Y0047409D01*
X0087812Y0048243D01*
X0083250Y0048243D01*
X0078688Y0048243D01*
X0078688Y0046379D01*
X0078838Y0045819D01*
X0079127Y0045318D01*
X0079537Y0044908D01*
X0080039Y0044618D01*
X0080068Y0044611D01*
X0078979Y0043522D01*
X0078979Y0038791D01*
X0080097Y0037673D01*
X0080141Y0037673D01*
X0080141Y0034082D01*
X0080615Y0032939D01*
X0081223Y0032330D01*
X0081223Y0031547D01*
X0082341Y0030429D01*
X0087072Y0030429D01*
X0088190Y0031547D01*
X0088190Y0037853D01*
X0087386Y0038657D01*
X0087521Y0038791D01*
X0087521Y0040140D01*
X0088979Y0041599D01*
X0088979Y0038791D01*
X0089114Y0038657D01*
X0088310Y0037853D01*
X0088310Y0031547D01*
X0089428Y0030429D01*
X0093979Y0030429D01*
X0093979Y0025878D01*
X0095068Y0024789D01*
X0095039Y0024782D01*
X0094537Y0024492D01*
X0094127Y0024082D01*
X0093838Y0023581D01*
X0093688Y0023021D01*
X0093688Y0021157D01*
X0098250Y0021157D01*
X0098250Y0021157D01*
X0102812Y0021157D01*
X0102812Y0023021D01*
X0102662Y0023581D01*
X0102373Y0024082D01*
X0101963Y0024492D01*
X0101461Y0024782D01*
X0101432Y0024789D01*
X0101778Y0025135D01*
X0104722Y0025135D01*
X0105068Y0024789D01*
X0105039Y0024782D01*
X0104537Y0024492D01*
X0104127Y0024082D01*
X0103838Y0023581D01*
X0103688Y0023021D01*
X0103688Y0021157D01*
X0108250Y0021157D01*
X0112812Y0021157D01*
X0112812Y0023021D01*
X0112662Y0023581D01*
X0112373Y0024082D01*
X0111963Y0024492D01*
X0111461Y0024782D01*
X0111432Y0024789D01*
X0111778Y0025135D01*
X0114722Y0025135D01*
X0115097Y0024760D01*
X0116735Y0024760D01*
X0116446Y0024640D01*
X0115097Y0024640D01*
X0113979Y0023522D01*
X0113979Y0020957D01*
X0112812Y0019790D01*
X0112812Y0021157D01*
X0108250Y0021157D01*
X0108250Y0021157D01*
X0108250Y0021157D01*
X0103688Y0021157D01*
X0103688Y0019292D01*
X0103838Y0018733D01*
X0103909Y0018609D01*
X0102591Y0018609D01*
X0102662Y0018733D01*
X0102812Y0019292D01*
X0102812Y0021157D01*
X0098250Y0021157D01*
X0098250Y0021157D01*
X0093688Y0021157D01*
X0093688Y0019292D01*
X0093838Y0018733D01*
X0093909Y0018609D01*
X0069869Y0018609D01*
X0068186Y0020291D01*
X0071541Y0020291D01*
X0072659Y0021409D01*
X0072659Y0037991D01*
X0071541Y0039109D01*
X0054959Y0039109D01*
X0053841Y0037991D01*
X0053841Y0021409D01*
X0054959Y0020291D01*
X0059341Y0020291D01*
X0059341Y0018923D01*
X0059936Y0017486D01*
X0061036Y0016386D01*
X0066036Y0011386D01*
X0067473Y0010791D01*
X0114027Y0010791D01*
X0115464Y0011386D01*
X0116564Y0012486D01*
X0121564Y0017486D01*
X0121810Y0018080D01*
X0122521Y0018791D01*
X0120973Y0016896D02*
X0146326Y0016896D01*
X0152088Y0016896D02*
X0154412Y0016896D01*
X0160174Y0016896D02*
X0204767Y0016896D01*
X0204767Y0019294D02*
X0190836Y0019294D01*
X0188550Y0019294D02*
X0187950Y0019294D01*
X0187950Y0021693D02*
X0188550Y0021693D01*
X0195007Y0021693D02*
X0204767Y0021693D01*
X0204767Y0024091D02*
X0196819Y0024091D01*
X0197706Y0026490D02*
X0204767Y0026490D01*
X0204767Y0028888D02*
X0188550Y0028888D01*
X0187950Y0028888D02*
X0173673Y0028888D01*
X0178550Y0028953D02*
X0187950Y0028953D01*
X0187950Y0038353D01*
X0187705Y0038353D01*
X0186623Y0038231D01*
X0185560Y0037989D01*
X0184532Y0037629D01*
X0183551Y0037156D01*
X0182628Y0036577D01*
X0181776Y0035897D01*
X0181006Y0035127D01*
X0180327Y0034275D01*
X0179747Y0033353D01*
X0179274Y0032371D01*
X0178914Y0031343D01*
X0178672Y0030281D01*
X0178550Y0029198D01*
X0178550Y0028953D01*
X0178902Y0031287D02*
X0176071Y0031287D01*
X0177602Y0033685D02*
X0179956Y0033685D01*
X0187950Y0033685D02*
X0188550Y0033685D01*
X0196544Y0033685D02*
X0204767Y0033685D01*
X0204767Y0031287D02*
X0197598Y0031287D01*
X0188550Y0031287D02*
X0187950Y0031287D01*
X0187950Y0036084D02*
X0188550Y0036084D01*
X0194490Y0036084D02*
X0204767Y0036084D01*
X0204767Y0038482D02*
X0177659Y0038482D01*
X0177659Y0036084D02*
X0182010Y0036084D01*
X0168841Y0038482D02*
X0167521Y0038482D01*
X0163250Y0038243D02*
X0163132Y0038361D01*
X0153250Y0038361D01*
X0152089Y0037200D01*
X0128550Y0037200D01*
X0128250Y0036900D01*
X0128250Y0028243D01*
X0123979Y0028888D02*
X0122521Y0028888D01*
X0118250Y0028243D02*
X0108250Y0028243D01*
X0108250Y0036900D01*
X0107950Y0037200D01*
X0114209Y0036084D02*
X0122291Y0036084D01*
X0122291Y0038482D02*
X0114209Y0038482D01*
X0114209Y0040881D02*
X0122291Y0040881D01*
X0122291Y0043279D02*
X0114209Y0043279D01*
X0114209Y0045678D02*
X0122291Y0045678D01*
X0122291Y0048076D02*
X0114209Y0048076D01*
X0114437Y0050475D02*
X0122291Y0050475D01*
X0122291Y0052873D02*
X0114500Y0052873D01*
X0113458Y0055272D02*
X0123372Y0055272D01*
X0125141Y0057670D02*
X0098820Y0057670D01*
X0093762Y0059700D02*
X0093250Y0059700D01*
X0093250Y0048243D01*
X0088979Y0048076D02*
X0087812Y0048076D01*
X0087812Y0048243D02*
X0083250Y0048243D01*
X0083250Y0048243D01*
X0083250Y0048243D01*
X0083250Y0059700D01*
X0083113Y0060069D02*
X0088704Y0060069D01*
X0088704Y0062467D02*
X0088088Y0062467D01*
X0082363Y0060069D02*
X0072659Y0060069D01*
X0072659Y0062467D02*
X0077389Y0062467D01*
X0078100Y0064866D02*
X0071728Y0064866D01*
X0060189Y0069663D02*
X0050434Y0069663D01*
X0050434Y0067264D02*
X0056462Y0067264D01*
X0054772Y0064866D02*
X0050434Y0064866D01*
X0050434Y0062467D02*
X0053841Y0062467D01*
X0053841Y0060069D02*
X0050434Y0060069D01*
X0050434Y0057670D02*
X0054341Y0057670D01*
X0055419Y0055272D02*
X0050434Y0055272D01*
X0050434Y0052873D02*
X0057818Y0052873D01*
X0050434Y0050475D02*
X0078786Y0050475D01*
X0078838Y0050667D02*
X0078688Y0050108D01*
X0078688Y0048243D01*
X0083250Y0048243D01*
X0083250Y0052018D01*
X0083250Y0048243D01*
X0083250Y0048243D01*
X0087812Y0048243D02*
X0087812Y0050108D01*
X0087662Y0050667D01*
X0087373Y0051169D01*
X0086963Y0051579D01*
X0086461Y0051868D01*
X0085902Y0052018D01*
X0083250Y0052018D01*
X0080598Y0052018D01*
X0080039Y0051868D01*
X0079537Y0051579D01*
X0079127Y0051169D01*
X0078838Y0050667D01*
X0083250Y0050475D02*
X0083250Y0050475D01*
X0087714Y0050475D02*
X0088979Y0050475D01*
X0090141Y0052873D02*
X0068682Y0052873D01*
X0071081Y0055272D02*
X0077559Y0055272D01*
X0082363Y0055272D02*
X0083113Y0055272D01*
X0087917Y0055272D02*
X0088798Y0055272D01*
X0088704Y0057670D02*
X0088088Y0057670D01*
X0083113Y0057670D02*
X0082363Y0057670D01*
X0077389Y0057670D02*
X0072159Y0057670D01*
X0096359Y0052873D02*
X0101400Y0052873D01*
X0107950Y0052873D02*
X0107950Y0052873D01*
X0107950Y0055272D02*
X0107950Y0055272D01*
X0102442Y0055272D02*
X0098726Y0055272D01*
X0098820Y0060069D02*
X0123979Y0060069D01*
X0128250Y0061157D02*
X0128250Y0052500D01*
X0128550Y0052200D01*
X0137089Y0052200D01*
X0139589Y0054700D01*
X0146222Y0055272D02*
X0155749Y0055272D01*
X0155749Y0055862D02*
X0155749Y0053538D01*
X0149987Y0053538D01*
X0149987Y0049686D01*
X0150137Y0049126D01*
X0150427Y0048625D01*
X0150836Y0048215D01*
X0151338Y0047926D01*
X0151897Y0047776D01*
X0155749Y0047776D01*
X0155749Y0053538D01*
X0158074Y0053538D01*
X0158074Y0055862D01*
X0163836Y0055862D01*
X0163836Y0059714D01*
X0163686Y0060274D01*
X0163396Y0060775D01*
X0162987Y0061185D01*
X0162485Y0061474D01*
X0161925Y0061624D01*
X0158074Y0061624D01*
X0158074Y0055862D01*
X0155749Y0055862D01*
X0149987Y0055862D01*
X0149987Y0059714D01*
X0150137Y0060274D01*
X0150427Y0060775D01*
X0150836Y0061185D01*
X0151338Y0061474D01*
X0151897Y0061624D01*
X0155749Y0061624D01*
X0155749Y0055862D01*
X0158074Y0055272D02*
X0168841Y0055272D01*
X0163836Y0053538D02*
X0158074Y0053538D01*
X0158074Y0047776D01*
X0161925Y0047776D01*
X0162485Y0047926D01*
X0162987Y0048215D01*
X0163396Y0048625D01*
X0163686Y0049126D01*
X0163836Y0049686D01*
X0163836Y0053538D01*
X0163836Y0052873D02*
X0168841Y0052873D01*
X0168841Y0050475D02*
X0163836Y0050475D01*
X0158074Y0050475D02*
X0155749Y0050475D01*
X0149987Y0050475D02*
X0146222Y0050475D01*
X0146222Y0052873D02*
X0149987Y0052873D01*
X0155749Y0052873D02*
X0158074Y0052873D01*
X0158074Y0048076D02*
X0155749Y0048076D01*
X0151077Y0048076D02*
X0145113Y0048076D01*
X0134809Y0045678D02*
X0168841Y0045678D01*
X0168841Y0048076D02*
X0162746Y0048076D01*
X0159883Y0043279D02*
X0168841Y0043279D01*
X0168841Y0040881D02*
X0167249Y0040881D01*
X0177659Y0040881D02*
X0204767Y0040881D01*
X0204767Y0043279D02*
X0177659Y0043279D01*
X0177659Y0045678D02*
X0204767Y0045678D01*
X0204767Y0048076D02*
X0177659Y0048076D01*
X0177659Y0050475D02*
X0179776Y0050475D01*
X0178841Y0052873D02*
X0177659Y0052873D01*
X0169985Y0057670D02*
X0163836Y0057670D01*
X0158074Y0057670D02*
X0155749Y0057670D01*
X0149987Y0057670D02*
X0146222Y0057670D01*
X0146222Y0060069D02*
X0150082Y0060069D01*
X0155749Y0060069D02*
X0158074Y0060069D01*
X0163741Y0060069D02*
X0172384Y0060069D01*
X0174782Y0062467D02*
X0132521Y0062467D01*
X0132521Y0060069D02*
X0132956Y0060069D01*
X0132956Y0057670D02*
X0131359Y0057670D01*
X0123979Y0062467D02*
X0098820Y0062467D01*
X0102290Y0064649D02*
X0102699Y0064240D01*
X0103201Y0063950D01*
X0103760Y0063800D01*
X0107750Y0063800D01*
X0111740Y0063800D01*
X0112299Y0063950D01*
X0112801Y0064240D01*
X0113210Y0064649D01*
X0113500Y0065151D01*
X0113650Y0065710D01*
X0113650Y0067356D01*
X0113995Y0066523D01*
X0115573Y0064945D01*
X0117634Y0064091D01*
X0119866Y0064091D01*
X0121927Y0064945D01*
X0122116Y0065135D01*
X0124722Y0065135D01*
X0125097Y0064760D01*
X0131403Y0064760D01*
X0132521Y0065878D01*
X0132521Y0070609D01*
X0131403Y0071727D01*
X0125097Y0071727D01*
X0124722Y0071352D01*
X0124136Y0071352D01*
X0123505Y0072877D01*
X0121927Y0074455D01*
X0119866Y0075309D01*
X0117634Y0075309D01*
X0115573Y0074455D01*
X0113995Y0072877D01*
X0113650Y0072044D01*
X0113650Y0073690D01*
X0113500Y0074249D01*
X0113210Y0074751D01*
X0112801Y0075160D01*
X0112299Y0075450D01*
X0111740Y0075600D01*
X0107750Y0075600D01*
X0107750Y0069700D01*
X0107750Y0069700D01*
X0107750Y0063800D01*
X0107750Y0069700D01*
X0107750Y0069700D01*
X0107750Y0069700D01*
X0101850Y0069700D01*
X0101850Y0073690D01*
X0102000Y0074249D01*
X0102290Y0074751D01*
X0102699Y0075160D01*
X0103201Y0075450D01*
X0103760Y0075600D01*
X0107750Y0075600D01*
X0107750Y0069700D01*
X0101850Y0069700D01*
X0101850Y0065710D01*
X0102000Y0065151D01*
X0102290Y0064649D01*
X0102164Y0064866D02*
X0098170Y0064866D01*
X0096920Y0067264D02*
X0101850Y0067264D01*
X0101850Y0069663D02*
X0094522Y0069663D01*
X0092123Y0072061D02*
X0101850Y0072061D01*
X0107750Y0072061D02*
X0107750Y0072061D01*
X0113650Y0072061D02*
X0113657Y0072061D01*
X0118750Y0069700D02*
X0120207Y0068243D01*
X0128250Y0068243D01*
X0132521Y0067264D02*
X0178841Y0067264D01*
X0178841Y0064866D02*
X0131509Y0064866D01*
X0124991Y0064866D02*
X0121735Y0064866D01*
X0115765Y0064866D02*
X0113335Y0064866D01*
X0107750Y0064866D02*
X0107750Y0064866D01*
X0107750Y0067264D02*
X0107750Y0067264D01*
X0107750Y0069663D02*
X0107750Y0069663D01*
X0113650Y0067264D02*
X0113688Y0067264D01*
X0123843Y0072061D02*
X0204767Y0072061D01*
X0204767Y0069663D02*
X0132521Y0069663D01*
X0121915Y0074460D02*
X0204767Y0074460D01*
X0204767Y0076858D02*
X0050434Y0076858D01*
X0050434Y0077476D02*
X0204767Y0077476D01*
X0204767Y0009384D01*
X0050434Y0009384D01*
X0050434Y0077476D01*
X0050434Y0074460D02*
X0102122Y0074460D01*
X0107750Y0074460D02*
X0107750Y0074460D01*
X0113378Y0074460D02*
X0115585Y0074460D01*
X0064377Y0072061D02*
X0050434Y0072061D01*
X0097521Y0050475D02*
X0101463Y0050475D01*
X0097796Y0048076D02*
X0097521Y0048076D01*
X0107950Y0042200D02*
X0107950Y0041157D01*
X0093250Y0041157D01*
X0093250Y0034700D01*
X0091793Y0034700D01*
X0088310Y0033685D02*
X0088190Y0033685D01*
X0084707Y0034700D02*
X0083250Y0034700D01*
X0083250Y0041157D01*
X0088261Y0040881D02*
X0088979Y0040881D01*
X0088939Y0038482D02*
X0087561Y0038482D01*
X0088190Y0036084D02*
X0088310Y0036084D01*
X0080141Y0036084D02*
X0072659Y0036084D01*
X0072659Y0033685D02*
X0080306Y0033685D01*
X0081484Y0031287D02*
X0072659Y0031287D01*
X0072659Y0028888D02*
X0093979Y0028888D01*
X0098250Y0028243D02*
X0108250Y0028243D01*
X0112364Y0024091D02*
X0114548Y0024091D01*
X0121952Y0024091D02*
X0124136Y0024091D01*
X0123979Y0026490D02*
X0122521Y0026490D01*
X0132521Y0026490D02*
X0146443Y0026490D01*
X0146326Y0024091D02*
X0132364Y0024091D01*
X0132812Y0021693D02*
X0152088Y0021693D01*
X0152088Y0024091D02*
X0154412Y0024091D01*
X0154412Y0026490D02*
X0152088Y0026490D01*
X0158979Y0028888D02*
X0132521Y0028888D01*
X0131843Y0031287D02*
X0158841Y0031287D01*
X0146617Y0033685D02*
X0131359Y0033685D01*
X0125141Y0033685D02*
X0111359Y0033685D01*
X0121843Y0031287D02*
X0124657Y0031287D01*
X0104136Y0024091D02*
X0102364Y0024091D01*
X0102812Y0021693D02*
X0103688Y0021693D01*
X0103688Y0019294D02*
X0102812Y0019294D01*
X0112812Y0021693D02*
X0113979Y0021693D01*
X0122521Y0021693D02*
X0123688Y0021693D01*
X0128250Y0021157D02*
X0128250Y0021157D01*
X0128250Y0017382D01*
X0128250Y0021157D01*
X0118575Y0014497D02*
X0147273Y0014497D01*
X0152088Y0014497D02*
X0154412Y0014497D01*
X0159227Y0014497D02*
X0204767Y0014497D01*
X0204767Y0012099D02*
X0116176Y0012099D01*
X0093688Y0019294D02*
X0069184Y0019294D01*
X0072659Y0021693D02*
X0093688Y0021693D01*
X0094136Y0024091D02*
X0072659Y0024091D01*
X0072659Y0026490D02*
X0093979Y0026490D01*
X0088570Y0031287D02*
X0087930Y0031287D01*
X0079288Y0038482D02*
X0072167Y0038482D01*
X0078979Y0040881D02*
X0050434Y0040881D01*
X0050434Y0043279D02*
X0078979Y0043279D01*
X0078920Y0045678D02*
X0050434Y0045678D01*
X0050434Y0048076D02*
X0078688Y0048076D01*
X0054333Y0038482D02*
X0050434Y0038482D01*
X0050434Y0036084D02*
X0053841Y0036084D01*
X0053841Y0033685D02*
X0050434Y0033685D01*
X0050434Y0031287D02*
X0053841Y0031287D01*
X0053841Y0028888D02*
X0050434Y0028888D01*
X0050434Y0026490D02*
X0053841Y0026490D01*
X0053841Y0024091D02*
X0050434Y0024091D01*
X0050434Y0021693D02*
X0053841Y0021693D01*
X0050434Y0019294D02*
X0059341Y0019294D01*
X0060527Y0016896D02*
X0050434Y0016896D01*
X0050434Y0014497D02*
X0062925Y0014497D01*
X0065324Y0012099D02*
X0050434Y0012099D01*
X0050434Y0009700D02*
X0204767Y0009700D01*
X0188550Y0024091D02*
X0187950Y0024091D01*
X0187950Y0026490D02*
X0188550Y0026490D01*
X0179681Y0024091D02*
X0160174Y0024091D01*
X0160057Y0026490D02*
X0178794Y0026490D01*
X0168399Y0036084D02*
X0167521Y0036084D01*
X0146617Y0040881D02*
X0134809Y0040881D01*
X0134809Y0043279D02*
X0146617Y0043279D01*
X0196724Y0050475D02*
X0204767Y0050475D01*
X0204767Y0052873D02*
X0197659Y0052873D01*
X0197659Y0055272D02*
X0204767Y0055272D01*
X0204767Y0057670D02*
X0197659Y0057670D01*
X0197659Y0060069D02*
X0204767Y0060069D01*
X0204767Y0062467D02*
X0197659Y0062467D01*
X0197659Y0064866D02*
X0204767Y0064866D01*
X0204767Y0067264D02*
X0197659Y0067264D01*
D21*
X0188250Y0059700D02*
X0178250Y0059700D01*
X0173250Y0054700D01*
X0173250Y0034700D01*
X0169707Y0031157D01*
X0163250Y0031157D01*
X0093762Y0059700D02*
X0093762Y0064188D01*
X0088250Y0069700D01*
X0068250Y0069700D01*
X0063250Y0064700D01*
X0063250Y0060747D01*
D22*
X0098250Y0044700D02*
X0100750Y0047200D01*
X0107950Y0047200D01*
X0098250Y0044700D02*
X0088250Y0044700D01*
X0084707Y0041157D01*
X0083250Y0041157D01*
D23*
X0063250Y0029700D02*
X0063250Y0019700D01*
X0068250Y0014700D01*
X0113250Y0014700D01*
X0118250Y0019700D01*
X0118250Y0021157D01*
M02*
