%
M48
M72
T01C0.0200
T02C0.0280
T04C0.0380
T05C0.0420
T09C0.1250
%
T01
X7944Y2373
X6905Y3412
X11407Y4220
X13369Y4797
X14292Y4797
X15100Y4913
X15908Y4797
X16947Y4797
X14639Y5490
X12330Y4913
X9444Y5952
X5750Y5259
X5866Y4797
X6443Y4797
X7482Y4797
X4827Y4797
X3903Y4913
X2865Y5144
X1826Y4566
X12676Y1796
X14985Y2373
X15908Y988
X14292Y757
X20757Y2835
X23065Y2373
X23758Y2373
X25836Y3181
X28375Y3412
X32646Y4797
X33223Y4797
X34378Y4797
X35301Y4797
X36109Y4913
X35648Y5490
X33339Y5490
X26875Y5144
X26182Y5490
X23758Y5259
X23296Y5605
X21680Y5028
X21103Y5374
X23412Y4797
X33223Y2373
X34955Y2373
X37148Y2258
X33685Y988
X25374Y988
X24451Y988
X21103Y988
T02
X28575Y10430
X30325Y10430
T04
X25825Y10680
X34825Y10680
X35825Y10680
X37825Y10680
X38825Y4680
X25825Y4680
T05
X1325Y2380
X1325Y3480
T09
X9825Y4430
X19075Y4430
X29825Y4430
M30
