G75*
%MOIN*%
%OFA0B0*%
%FSLAX25Y25*%
%IPPOS*%
%LPD*%
%AMOC8*
5,1,8,0,0,1.08239X$1,22.5*
%
%ADD10R,0.15000X0.15000*%
%ADD11C,0.15000*%
%ADD12R,0.07400X0.07400*%
%ADD13C,0.07400*%
%ADD14C,0.01600*%
D10*
X0063250Y0029700D03*
X0188250Y0059700D03*
D11*
X0188250Y0028653D03*
X0063250Y0060747D03*
D12*
X0107750Y0069700D03*
D13*
X0118750Y0069700D03*
D14*
X0050034Y0077876D02*
X0050034Y0008984D01*
X0200969Y0008984D01*
X0203191Y0077876D01*
X0050034Y0077876D01*
X0050034Y0076837D02*
X0203158Y0076837D01*
X0203106Y0075239D02*
X0050034Y0075239D01*
X0050034Y0073640D02*
X0102541Y0073640D01*
X0102541Y0074025D02*
X0102541Y0065375D01*
X0103425Y0064491D01*
X0112075Y0064491D01*
X0112959Y0065375D01*
X0112959Y0074025D01*
X0112075Y0074909D01*
X0103425Y0074909D01*
X0102541Y0074025D01*
X0102541Y0072042D02*
X0050034Y0072042D01*
X0050034Y0070443D02*
X0102541Y0070443D01*
X0102541Y0068845D02*
X0067240Y0068845D01*
X0068353Y0068384D02*
X0065042Y0069755D01*
X0061458Y0069755D01*
X0058147Y0068384D01*
X0055613Y0065850D01*
X0054241Y0062539D01*
X0054241Y0058955D01*
X0055613Y0055644D01*
X0058147Y0053110D01*
X0061458Y0051738D01*
X0065042Y0051738D01*
X0068353Y0053110D01*
X0070887Y0055644D01*
X0072259Y0058955D01*
X0072259Y0062539D01*
X0070887Y0065850D01*
X0068353Y0068384D01*
X0069491Y0067246D02*
X0102541Y0067246D01*
X0102541Y0065648D02*
X0070971Y0065648D01*
X0071633Y0064049D02*
X0178950Y0064049D01*
X0178950Y0062451D02*
X0072259Y0062451D01*
X0072259Y0060852D02*
X0178950Y0060852D01*
X0178950Y0060400D02*
X0187550Y0060400D01*
X0187550Y0069000D01*
X0180513Y0069000D01*
X0180055Y0068877D01*
X0179645Y0068640D01*
X0179310Y0068305D01*
X0179073Y0067895D01*
X0178950Y0067437D01*
X0178950Y0060400D01*
X0178950Y0059000D02*
X0178950Y0051963D01*
X0179073Y0051505D01*
X0179310Y0051095D01*
X0179645Y0050760D01*
X0180055Y0050523D01*
X0180513Y0050400D01*
X0187550Y0050400D01*
X0187550Y0059000D01*
X0188950Y0059000D01*
X0188950Y0060400D01*
X0197550Y0060400D01*
X0197550Y0067437D01*
X0197427Y0067895D01*
X0197190Y0068305D01*
X0196855Y0068640D01*
X0196445Y0068877D01*
X0195987Y0069000D01*
X0188950Y0069000D01*
X0188950Y0060400D01*
X0187550Y0060400D01*
X0187550Y0059000D01*
X0178950Y0059000D01*
X0178950Y0057655D02*
X0071720Y0057655D01*
X0072259Y0059254D02*
X0187550Y0059254D01*
X0188950Y0059254D02*
X0202590Y0059254D01*
X0197550Y0059000D02*
X0188950Y0059000D01*
X0188950Y0050400D01*
X0195987Y0050400D01*
X0196445Y0050523D01*
X0196855Y0050760D01*
X0197190Y0051095D01*
X0197427Y0051505D01*
X0197550Y0051963D01*
X0197550Y0059000D01*
X0197550Y0057655D02*
X0202539Y0057655D01*
X0202487Y0056057D02*
X0197550Y0056057D01*
X0197550Y0054458D02*
X0202436Y0054458D01*
X0202384Y0052860D02*
X0197550Y0052860D01*
X0197286Y0051261D02*
X0202333Y0051261D01*
X0202281Y0049663D02*
X0050034Y0049663D01*
X0050034Y0051261D02*
X0179213Y0051261D01*
X0178950Y0052860D02*
X0067750Y0052860D01*
X0069702Y0054458D02*
X0178950Y0054458D01*
X0178950Y0056057D02*
X0071058Y0056057D01*
X0058750Y0052860D02*
X0050034Y0052860D01*
X0050034Y0054458D02*
X0056798Y0054458D01*
X0055442Y0056057D02*
X0050034Y0056057D01*
X0050034Y0057655D02*
X0054780Y0057655D01*
X0054241Y0059254D02*
X0050034Y0059254D01*
X0050034Y0060852D02*
X0054241Y0060852D01*
X0054241Y0062451D02*
X0050034Y0062451D01*
X0050034Y0064049D02*
X0054867Y0064049D01*
X0055529Y0065648D02*
X0050034Y0065648D01*
X0050034Y0067246D02*
X0057009Y0067246D01*
X0059260Y0068845D02*
X0050034Y0068845D01*
X0112959Y0068845D02*
X0113541Y0068845D01*
X0113541Y0068664D02*
X0114334Y0066750D01*
X0115800Y0065284D01*
X0117714Y0064491D01*
X0119786Y0064491D01*
X0121700Y0065284D01*
X0123166Y0066750D01*
X0123959Y0068664D01*
X0123959Y0070736D01*
X0123166Y0072650D01*
X0121700Y0074116D01*
X0119786Y0074909D01*
X0117714Y0074909D01*
X0115800Y0074116D01*
X0114334Y0072650D01*
X0113541Y0070736D01*
X0113541Y0068664D01*
X0112959Y0067246D02*
X0114128Y0067246D01*
X0112959Y0065648D02*
X0115436Y0065648D01*
X0122064Y0065648D02*
X0178950Y0065648D01*
X0178950Y0067246D02*
X0123371Y0067246D01*
X0123959Y0068845D02*
X0179999Y0068845D01*
X0187550Y0068845D02*
X0188950Y0068845D01*
X0188950Y0067246D02*
X0187550Y0067246D01*
X0187550Y0065648D02*
X0188950Y0065648D01*
X0188950Y0064049D02*
X0187550Y0064049D01*
X0187550Y0062451D02*
X0188950Y0062451D01*
X0188950Y0060852D02*
X0187550Y0060852D01*
X0187550Y0057655D02*
X0188950Y0057655D01*
X0188950Y0056057D02*
X0187550Y0056057D01*
X0187550Y0054458D02*
X0188950Y0054458D01*
X0188950Y0052860D02*
X0187550Y0052860D01*
X0187550Y0051261D02*
X0188950Y0051261D01*
X0202229Y0048064D02*
X0050034Y0048064D01*
X0050034Y0046466D02*
X0202178Y0046466D01*
X0202126Y0044867D02*
X0050034Y0044867D01*
X0050034Y0043269D02*
X0202075Y0043269D01*
X0202023Y0041670D02*
X0050034Y0041670D01*
X0050034Y0040072D02*
X0201972Y0040072D01*
X0201920Y0038473D02*
X0072022Y0038473D01*
X0071855Y0038640D02*
X0071445Y0038877D01*
X0070987Y0039000D01*
X0063950Y0039000D01*
X0063950Y0030400D01*
X0062550Y0030400D01*
X0062550Y0039000D01*
X0055513Y0039000D01*
X0055055Y0038877D01*
X0054645Y0038640D01*
X0054310Y0038305D01*
X0054073Y0037895D01*
X0053950Y0037437D01*
X0053950Y0030400D01*
X0062550Y0030400D01*
X0062550Y0029000D01*
X0053950Y0029000D01*
X0053950Y0021963D01*
X0054073Y0021505D01*
X0054310Y0021095D01*
X0054645Y0020760D01*
X0055055Y0020523D01*
X0055513Y0020400D01*
X0062550Y0020400D01*
X0062550Y0029000D01*
X0063950Y0029000D01*
X0063950Y0030400D01*
X0072550Y0030400D01*
X0072550Y0037437D01*
X0072427Y0037895D01*
X0072190Y0038305D01*
X0071855Y0038640D01*
X0072550Y0036875D02*
X0184558Y0036875D01*
X0183147Y0036290D02*
X0180613Y0033756D01*
X0179241Y0030445D01*
X0179241Y0026861D01*
X0180613Y0023550D01*
X0183147Y0021016D01*
X0186458Y0019644D01*
X0190042Y0019644D01*
X0193353Y0021016D01*
X0195887Y0023550D01*
X0197259Y0026861D01*
X0197259Y0030445D01*
X0195887Y0033756D01*
X0193353Y0036290D01*
X0190042Y0037662D01*
X0186458Y0037662D01*
X0183147Y0036290D01*
X0182133Y0035276D02*
X0072550Y0035276D01*
X0072550Y0033678D02*
X0180580Y0033678D01*
X0179918Y0032079D02*
X0072550Y0032079D01*
X0072550Y0030481D02*
X0179256Y0030481D01*
X0179241Y0028882D02*
X0072550Y0028882D01*
X0072550Y0029000D02*
X0063950Y0029000D01*
X0063950Y0020400D01*
X0070987Y0020400D01*
X0071445Y0020523D01*
X0071855Y0020760D01*
X0072190Y0021095D01*
X0072427Y0021505D01*
X0072550Y0021963D01*
X0072550Y0029000D01*
X0072550Y0027284D02*
X0179241Y0027284D01*
X0179728Y0025685D02*
X0072550Y0025685D01*
X0072550Y0024087D02*
X0180391Y0024087D01*
X0181675Y0022488D02*
X0072550Y0022488D01*
X0071985Y0020890D02*
X0183452Y0020890D01*
X0193048Y0020890D02*
X0201353Y0020890D01*
X0201404Y0022488D02*
X0194825Y0022488D01*
X0196109Y0024087D02*
X0201456Y0024087D01*
X0201508Y0025685D02*
X0196771Y0025685D01*
X0197259Y0027284D02*
X0201559Y0027284D01*
X0201611Y0028882D02*
X0197259Y0028882D01*
X0197244Y0030481D02*
X0201662Y0030481D01*
X0201714Y0032079D02*
X0196582Y0032079D01*
X0195920Y0033678D02*
X0201765Y0033678D01*
X0201817Y0035276D02*
X0194367Y0035276D01*
X0191942Y0036875D02*
X0201869Y0036875D01*
X0201301Y0019291D02*
X0050034Y0019291D01*
X0050034Y0017693D02*
X0201250Y0017693D01*
X0201198Y0016094D02*
X0050034Y0016094D01*
X0050034Y0014496D02*
X0201147Y0014496D01*
X0201095Y0012897D02*
X0050034Y0012897D01*
X0050034Y0011299D02*
X0201043Y0011299D01*
X0200992Y0009700D02*
X0050034Y0009700D01*
X0050034Y0020890D02*
X0054515Y0020890D01*
X0053950Y0022488D02*
X0050034Y0022488D01*
X0050034Y0024087D02*
X0053950Y0024087D01*
X0053950Y0025685D02*
X0050034Y0025685D01*
X0050034Y0027284D02*
X0053950Y0027284D01*
X0053950Y0028882D02*
X0050034Y0028882D01*
X0050034Y0030481D02*
X0053950Y0030481D01*
X0053950Y0032079D02*
X0050034Y0032079D01*
X0050034Y0033678D02*
X0053950Y0033678D01*
X0053950Y0035276D02*
X0050034Y0035276D01*
X0050034Y0036875D02*
X0053950Y0036875D01*
X0054478Y0038473D02*
X0050034Y0038473D01*
X0062550Y0038473D02*
X0063950Y0038473D01*
X0063950Y0036875D02*
X0062550Y0036875D01*
X0062550Y0035276D02*
X0063950Y0035276D01*
X0063950Y0033678D02*
X0062550Y0033678D01*
X0062550Y0032079D02*
X0063950Y0032079D01*
X0063950Y0030481D02*
X0062550Y0030481D01*
X0062550Y0028882D02*
X0063950Y0028882D01*
X0063950Y0027284D02*
X0062550Y0027284D01*
X0062550Y0025685D02*
X0063950Y0025685D01*
X0063950Y0024087D02*
X0062550Y0024087D01*
X0062550Y0022488D02*
X0063950Y0022488D01*
X0063950Y0020890D02*
X0062550Y0020890D01*
X0197550Y0060852D02*
X0202642Y0060852D01*
X0202694Y0062451D02*
X0197550Y0062451D01*
X0197550Y0064049D02*
X0202745Y0064049D01*
X0202797Y0065648D02*
X0197550Y0065648D01*
X0197550Y0067246D02*
X0202848Y0067246D01*
X0202900Y0068845D02*
X0196501Y0068845D01*
X0202951Y0070443D02*
X0123959Y0070443D01*
X0123418Y0072042D02*
X0203003Y0072042D01*
X0203055Y0073640D02*
X0122176Y0073640D01*
X0115324Y0073640D02*
X0112959Y0073640D01*
X0112959Y0072042D02*
X0114082Y0072042D01*
X0113541Y0070443D02*
X0112959Y0070443D01*
M02*
