G75*
%MOIN*%
%OFA0B0*%
%FSLAX25Y25*%
%IPPOS*%
%LPD*%
%AMOC8*
5,1,8,0,0,1.08239X$1,22.5*
%
%ADD10R,0.05512X0.04724*%
%ADD11R,0.07087X0.06299*%
D10*
X0018250Y0060894D03*
X0028250Y0060894D03*
X0038250Y0060894D03*
X0048250Y0060894D03*
X0058250Y0060894D03*
X0068250Y0060894D03*
X0078250Y0060894D03*
X0088250Y0060894D03*
X0113250Y0060894D03*
X0123250Y0060894D03*
X0133250Y0060894D03*
X0143250Y0060894D03*
X0153250Y0060894D03*
X0163250Y0060894D03*
X0173250Y0060894D03*
X0183250Y0060894D03*
X0208250Y0060894D03*
X0218250Y0060894D03*
X0228250Y0060894D03*
X0238250Y0060894D03*
X0248250Y0060894D03*
X0258250Y0060894D03*
X0268250Y0060894D03*
X0278250Y0060894D03*
X0303250Y0060894D03*
X0313250Y0060894D03*
X0323250Y0060894D03*
X0333250Y0060894D03*
X0343250Y0060894D03*
X0353250Y0060894D03*
X0363250Y0060894D03*
X0373250Y0060894D03*
X0373250Y0072706D03*
X0363250Y0072706D03*
X0353250Y0072706D03*
X0343250Y0072706D03*
X0333250Y0072706D03*
X0323250Y0072706D03*
X0313250Y0072706D03*
X0303250Y0072706D03*
X0278250Y0072706D03*
X0268250Y0072706D03*
X0258250Y0072706D03*
X0248250Y0072706D03*
X0238250Y0072706D03*
X0228250Y0072706D03*
X0218250Y0072706D03*
X0208250Y0072706D03*
X0183250Y0072706D03*
X0173250Y0072706D03*
X0163250Y0072706D03*
X0153250Y0072706D03*
X0143250Y0072706D03*
X0133250Y0072706D03*
X0123250Y0072706D03*
X0113250Y0072706D03*
X0088250Y0072706D03*
X0078250Y0072706D03*
X0068250Y0072706D03*
X0058250Y0072706D03*
X0048250Y0072706D03*
X0038250Y0072706D03*
X0028250Y0072706D03*
X0018250Y0072706D03*
D11*
X0018250Y0086288D03*
X0028250Y0086288D03*
X0038250Y0086288D03*
X0048250Y0086288D03*
X0058250Y0086288D03*
X0068250Y0086288D03*
X0078250Y0086288D03*
X0088250Y0086288D03*
X0113250Y0086288D03*
X0123250Y0086288D03*
X0133250Y0086288D03*
X0143250Y0086288D03*
X0153250Y0086288D03*
X0163250Y0086288D03*
X0173250Y0086288D03*
X0183250Y0086288D03*
X0208250Y0086288D03*
X0218250Y0086288D03*
X0228250Y0086288D03*
X0238250Y0086288D03*
X0248250Y0086288D03*
X0258250Y0086288D03*
X0268250Y0086288D03*
X0278250Y0086288D03*
X0303250Y0086288D03*
X0313250Y0086288D03*
X0323250Y0086288D03*
X0333250Y0086288D03*
X0343250Y0086288D03*
X0353250Y0086288D03*
X0363250Y0086288D03*
X0373250Y0086288D03*
X0373250Y0097312D03*
X0363250Y0097312D03*
X0353250Y0097312D03*
X0343250Y0097312D03*
X0333250Y0097312D03*
X0323250Y0097312D03*
X0313250Y0097312D03*
X0303250Y0097312D03*
X0278250Y0097312D03*
X0268250Y0097312D03*
X0258250Y0097312D03*
X0248250Y0097312D03*
X0238250Y0097312D03*
X0228250Y0097312D03*
X0218250Y0097312D03*
X0208250Y0097312D03*
X0183250Y0097312D03*
X0173250Y0097312D03*
X0163250Y0097312D03*
X0153250Y0097312D03*
X0143250Y0097312D03*
X0133250Y0097312D03*
X0123250Y0097312D03*
X0113250Y0097312D03*
X0088250Y0097312D03*
X0078250Y0097312D03*
X0068250Y0097312D03*
X0058250Y0097312D03*
X0048250Y0097312D03*
X0038250Y0097312D03*
X0028250Y0097312D03*
X0018250Y0097312D03*
M02*
