G75*
%MOIN*%
%OFA0B0*%
%FSLAX25Y25*%
%IPPOS*%
%LPD*%
%AMOC8*
5,1,8,0,0,1.08239X$1,22.5*
%
%ADD10C,0.00800*%
%ADD11C,0.00100*%
%ADD12C,0.00500*%
%ADD13C,0.00600*%
%ADD14C,0.00400*%
%ADD15R,0.02000X0.02000*%
%ADD16C,0.00300*%
%ADD17C,0.00200*%
D10*
X0053100Y0122783D02*
X0078900Y0122783D01*
X0078900Y0135783D01*
X0053100Y0135783D01*
X0053100Y0122783D01*
X0088100Y0122783D02*
X0113900Y0122783D01*
X0113900Y0135783D01*
X0088100Y0135783D01*
X0088100Y0122783D01*
X0123100Y0122783D02*
X0148900Y0122783D01*
X0148900Y0135783D01*
X0123100Y0135783D01*
X0123100Y0122783D01*
X0094937Y0247335D02*
X0087063Y0247335D01*
X0087063Y0252846D01*
X0084937Y0252846D02*
X0084937Y0247335D01*
X0077063Y0247335D01*
X0077063Y0252846D01*
X0074937Y0252846D02*
X0074937Y0247335D01*
X0067063Y0247335D01*
X0067063Y0252846D01*
X0068638Y0255602D02*
X0073362Y0255602D01*
X0071000Y0257965D01*
X0068638Y0255602D01*
X0068244Y0257965D02*
X0071000Y0257965D01*
X0073756Y0257965D01*
X0074937Y0260720D02*
X0074937Y0266232D01*
X0067063Y0266232D01*
X0067063Y0260720D01*
X0077063Y0260720D02*
X0077063Y0266232D01*
X0084937Y0266232D01*
X0084937Y0260720D01*
X0087063Y0260720D02*
X0087063Y0266232D01*
X0094937Y0266232D01*
X0094937Y0260720D01*
X0093756Y0257965D02*
X0091000Y0257965D01*
X0093362Y0255602D01*
X0088638Y0255602D01*
X0091000Y0257965D01*
X0088244Y0257965D01*
X0083756Y0257965D02*
X0081000Y0257965D01*
X0083362Y0255602D01*
X0078638Y0255602D01*
X0081000Y0257965D01*
X0078244Y0257965D01*
X0094937Y0252846D02*
X0094937Y0247335D01*
X0341276Y0027551D02*
X0341276Y0023220D01*
X0341276Y0027551D02*
X0342850Y0029126D01*
X0349150Y0029126D01*
X0350724Y0027551D01*
X0350724Y0023220D01*
X0350724Y0015346D02*
X0350724Y0009441D01*
X0341276Y0009441D01*
X0341276Y0015346D01*
D11*
X0340513Y0011808D02*
X0340513Y0010807D01*
X0339512Y0011808D01*
X0339262Y0011808D01*
X0339012Y0011557D01*
X0339012Y0011057D01*
X0339262Y0010807D01*
X0339262Y0010334D02*
X0339012Y0010084D01*
X0339012Y0009584D01*
X0339262Y0009333D01*
X0340263Y0009333D01*
X0340513Y0009584D01*
X0340513Y0010084D01*
X0340263Y0010334D01*
X0354949Y0014584D02*
X0355199Y0014333D01*
X0356200Y0014333D01*
X0356450Y0014584D01*
X0356450Y0015084D01*
X0356200Y0015334D01*
X0356450Y0015807D02*
X0356450Y0016808D01*
X0356450Y0016307D02*
X0354949Y0016307D01*
X0355449Y0015807D01*
X0355199Y0015334D02*
X0354949Y0015084D01*
X0354949Y0014584D01*
X0366199Y0083833D02*
X0366199Y0084584D01*
X0366449Y0084834D01*
X0366949Y0084834D01*
X0367200Y0084584D01*
X0367200Y0083833D01*
X0367700Y0083833D02*
X0366199Y0083833D01*
X0367200Y0084334D02*
X0367700Y0084834D01*
X0367700Y0085307D02*
X0367700Y0086308D01*
X0367700Y0085807D02*
X0366199Y0085807D01*
X0366699Y0085307D01*
X0141450Y0156833D02*
X0139949Y0156833D01*
X0139949Y0157584D01*
X0140199Y0157834D01*
X0140699Y0157834D01*
X0140950Y0157584D01*
X0140950Y0156833D01*
X0140950Y0157334D02*
X0141450Y0157834D01*
X0141200Y0158307D02*
X0141450Y0158557D01*
X0141450Y0159057D01*
X0141200Y0159308D01*
X0140699Y0159308D01*
X0140449Y0159057D01*
X0140449Y0158807D01*
X0140699Y0158307D01*
X0139949Y0158307D01*
X0139949Y0159308D01*
X0106450Y0159057D02*
X0106200Y0159308D01*
X0105950Y0159308D01*
X0105699Y0159057D01*
X0105699Y0158307D01*
X0106200Y0158307D01*
X0106450Y0158557D01*
X0106450Y0159057D01*
X0105699Y0158307D02*
X0105199Y0158807D01*
X0104949Y0159308D01*
X0105199Y0157834D02*
X0105699Y0157834D01*
X0105950Y0157584D01*
X0105950Y0156833D01*
X0106450Y0156833D02*
X0104949Y0156833D01*
X0104949Y0157584D01*
X0105199Y0157834D01*
X0105950Y0157334D02*
X0106450Y0157834D01*
X0071450Y0157834D02*
X0070950Y0157334D01*
X0070950Y0157584D02*
X0070950Y0156833D01*
X0071450Y0156833D02*
X0069949Y0156833D01*
X0069949Y0157584D01*
X0070199Y0157834D01*
X0070699Y0157834D01*
X0070950Y0157584D01*
X0071200Y0158307D02*
X0071450Y0158307D01*
X0071200Y0158307D02*
X0070199Y0159308D01*
X0069949Y0159308D01*
X0069949Y0158307D01*
X0068577Y0111485D02*
X0068077Y0111485D01*
X0067827Y0111235D01*
X0067354Y0111235D02*
X0067354Y0110234D01*
X0067104Y0109983D01*
X0066604Y0109983D01*
X0066353Y0110234D01*
X0066353Y0111235D01*
X0066604Y0111485D01*
X0067104Y0111485D01*
X0067354Y0111235D01*
X0066854Y0110484D02*
X0067354Y0109983D01*
X0067827Y0110234D02*
X0068077Y0109983D01*
X0068577Y0109983D01*
X0068828Y0110234D01*
X0068828Y0110484D01*
X0068577Y0110734D01*
X0068327Y0110734D01*
X0068577Y0110734D02*
X0068828Y0110984D01*
X0068828Y0111235D01*
X0068577Y0111485D01*
X0101353Y0111235D02*
X0101604Y0111485D01*
X0102104Y0111485D01*
X0102354Y0111235D01*
X0102354Y0110234D01*
X0102104Y0109983D01*
X0101604Y0109983D01*
X0101353Y0110234D01*
X0101353Y0111235D01*
X0101854Y0110484D02*
X0102354Y0109983D01*
X0102827Y0109983D02*
X0103828Y0110984D01*
X0103828Y0111235D01*
X0103577Y0111485D01*
X0103077Y0111485D01*
X0102827Y0111235D01*
X0102827Y0109983D02*
X0103828Y0109983D01*
X0136353Y0110234D02*
X0136604Y0109983D01*
X0137104Y0109983D01*
X0137354Y0110234D01*
X0137354Y0111235D01*
X0137104Y0111485D01*
X0136604Y0111485D01*
X0136353Y0111235D01*
X0136353Y0110234D01*
X0136854Y0110484D02*
X0137354Y0109983D01*
X0137827Y0109983D02*
X0138828Y0109983D01*
X0138327Y0109983D02*
X0138327Y0111485D01*
X0137827Y0110984D01*
X0086450Y0231833D02*
X0084949Y0231833D01*
X0084949Y0232584D01*
X0085199Y0232834D01*
X0085699Y0232834D01*
X0085950Y0232584D01*
X0085950Y0231833D01*
X0085950Y0232334D02*
X0086450Y0232834D01*
X0086200Y0233307D02*
X0086450Y0233557D01*
X0086450Y0234057D01*
X0086200Y0234308D01*
X0085950Y0234308D01*
X0085699Y0234057D01*
X0085699Y0233807D01*
X0085699Y0234057D02*
X0085449Y0234308D01*
X0085199Y0234308D01*
X0084949Y0234057D01*
X0084949Y0233557D01*
X0085199Y0233307D01*
X0076450Y0233307D02*
X0075449Y0234308D01*
X0075199Y0234308D01*
X0074949Y0234057D01*
X0074949Y0233557D01*
X0075199Y0233307D01*
X0075199Y0232834D02*
X0075699Y0232834D01*
X0075950Y0232584D01*
X0075950Y0231833D01*
X0076450Y0231833D02*
X0074949Y0231833D01*
X0074949Y0232584D01*
X0075199Y0232834D01*
X0075950Y0232334D02*
X0076450Y0232834D01*
X0076450Y0233307D02*
X0076450Y0234308D01*
X0066450Y0234057D02*
X0064949Y0234057D01*
X0065699Y0233307D01*
X0065699Y0234308D01*
X0065699Y0232834D02*
X0065950Y0232584D01*
X0065950Y0231833D01*
X0066450Y0231833D02*
X0064949Y0231833D01*
X0064949Y0232584D01*
X0065199Y0232834D01*
X0065699Y0232834D01*
X0065950Y0232334D02*
X0066450Y0232834D01*
X0065450Y0253333D02*
X0063949Y0253333D01*
X0063949Y0254084D01*
X0064199Y0254334D01*
X0064699Y0254334D01*
X0064950Y0254084D01*
X0064950Y0253333D01*
X0064950Y0253834D02*
X0065450Y0254334D01*
X0065450Y0254807D02*
X0065450Y0255808D01*
X0065450Y0256280D02*
X0063949Y0256280D01*
X0063949Y0257031D01*
X0064199Y0257281D01*
X0065200Y0257281D01*
X0065450Y0257031D01*
X0065450Y0256280D01*
X0064699Y0255307D02*
X0064699Y0254807D01*
X0063949Y0254807D02*
X0065450Y0254807D01*
X0063949Y0254807D02*
X0063949Y0255808D01*
X0073949Y0256280D02*
X0075200Y0256280D01*
X0075450Y0256530D01*
X0075450Y0257031D01*
X0075200Y0257281D01*
X0073949Y0257281D01*
X0073949Y0257753D02*
X0075450Y0257753D01*
X0075450Y0258754D01*
X0074699Y0258254D02*
X0074699Y0257753D01*
X0073949Y0257753D02*
X0073949Y0258754D01*
X0075450Y0255808D02*
X0075450Y0254807D01*
X0073949Y0254807D01*
X0074199Y0254334D02*
X0074449Y0254334D01*
X0074699Y0254084D01*
X0074699Y0253333D01*
X0073949Y0253333D02*
X0073949Y0254084D01*
X0074199Y0254334D01*
X0074699Y0254084D02*
X0074950Y0254334D01*
X0075200Y0254334D01*
X0075450Y0254084D01*
X0075450Y0253333D01*
X0073949Y0253333D01*
X0083949Y0253584D02*
X0084199Y0253333D01*
X0085200Y0253333D01*
X0085450Y0253584D01*
X0085450Y0254084D01*
X0085200Y0254334D01*
X0084699Y0254334D01*
X0084699Y0253834D01*
X0084199Y0254334D02*
X0083949Y0254084D01*
X0083949Y0253584D01*
X0083949Y0254807D02*
X0083949Y0255557D01*
X0084199Y0255808D01*
X0084699Y0255808D01*
X0084950Y0255557D01*
X0084950Y0254807D01*
X0085450Y0254807D02*
X0083949Y0254807D01*
X0084950Y0255307D02*
X0085450Y0255808D01*
X0085450Y0256280D02*
X0085450Y0257281D01*
X0085450Y0257753D02*
X0085450Y0258754D01*
X0085450Y0259227D02*
X0083949Y0259227D01*
X0085450Y0260227D01*
X0083949Y0260227D01*
X0083949Y0258754D02*
X0083949Y0257753D01*
X0085450Y0257753D01*
X0084699Y0257753D02*
X0084699Y0258254D01*
X0083949Y0257281D02*
X0083949Y0256280D01*
X0085450Y0256280D01*
X0084699Y0256280D02*
X0084699Y0256780D01*
D12*
X0031000Y0019283D02*
X0366000Y0019283D01*
X0366000Y0249283D01*
X0031000Y0249283D01*
X0031000Y0019283D01*
X0041000Y0026783D02*
X0043500Y0024283D01*
X0048500Y0024283D01*
X0051000Y0026783D01*
X0053500Y0024283D01*
X0058500Y0024283D01*
X0061000Y0026783D01*
X0063500Y0024283D01*
X0068500Y0024283D01*
X0071000Y0026783D01*
X0073500Y0024283D01*
X0078500Y0024283D01*
X0081000Y0026783D01*
X0083500Y0024283D01*
X0088500Y0024283D01*
X0091000Y0026783D01*
X0093500Y0024283D01*
X0098500Y0024283D01*
X0101000Y0026783D01*
X0103500Y0024283D01*
X0108500Y0024283D01*
X0111000Y0026783D01*
X0113500Y0024283D01*
X0118500Y0024283D01*
X0121000Y0026783D01*
X0121000Y0031783D01*
X0118500Y0034283D01*
X0113500Y0034283D01*
X0111000Y0031783D01*
X0108500Y0034283D01*
X0103500Y0034283D01*
X0101000Y0031783D01*
X0098500Y0034283D01*
X0093500Y0034283D01*
X0091000Y0031783D01*
X0088500Y0034283D01*
X0083500Y0034283D01*
X0081000Y0031783D01*
X0078500Y0034283D01*
X0073500Y0034283D01*
X0071000Y0031783D01*
X0068500Y0034283D01*
X0063500Y0034283D01*
X0061000Y0031783D01*
X0058500Y0034283D01*
X0053500Y0034283D01*
X0051000Y0031783D01*
X0048500Y0034283D01*
X0043500Y0034283D01*
X0041000Y0031783D01*
X0041000Y0026783D01*
X0049400Y0047183D02*
X0061700Y0053783D01*
X0061900Y0053883D02*
X0061900Y0047183D01*
X0063200Y0047183D02*
X0063200Y0049083D01*
X0075500Y0049083D01*
X0075600Y0049083D01*
X0075700Y0049084D02*
X0075750Y0049093D01*
X0075799Y0049105D01*
X0075847Y0049121D01*
X0075893Y0049140D01*
X0075938Y0049162D01*
X0075982Y0049188D01*
X0076023Y0049217D01*
X0076062Y0049249D01*
X0076099Y0049283D01*
X0076133Y0049320D01*
X0076165Y0049359D01*
X0076193Y0049401D01*
X0076218Y0049445D01*
X0076240Y0049490D01*
X0076259Y0049537D01*
X0076274Y0049585D01*
X0076286Y0049634D01*
X0076294Y0049683D01*
X0076299Y0049733D01*
X0076300Y0049784D01*
X0076300Y0049783D02*
X0076300Y0049683D01*
X0076300Y0049783D02*
X0076300Y0053183D01*
X0076291Y0053233D01*
X0076279Y0053282D01*
X0076263Y0053330D01*
X0076244Y0053376D01*
X0076222Y0053421D01*
X0076196Y0053465D01*
X0076167Y0053506D01*
X0076135Y0053545D01*
X0076101Y0053582D01*
X0076064Y0053616D01*
X0076025Y0053648D01*
X0075983Y0053676D01*
X0075939Y0053701D01*
X0075894Y0053723D01*
X0075847Y0053742D01*
X0075799Y0053757D01*
X0075750Y0053769D01*
X0075701Y0053777D01*
X0075651Y0053782D01*
X0075600Y0053783D01*
X0063200Y0053783D01*
X0063200Y0049083D01*
X0061700Y0049083D02*
X0053000Y0049083D01*
X0075500Y0049084D02*
X0075550Y0049083D01*
X0075600Y0049078D01*
X0075650Y0049070D01*
X0075699Y0049059D01*
X0075747Y0049043D01*
X0075794Y0049024D01*
X0075839Y0049002D01*
X0075883Y0048977D01*
X0075925Y0048949D01*
X0075964Y0048917D01*
X0076001Y0048883D01*
X0076036Y0048846D01*
X0076067Y0048807D01*
X0076096Y0048766D01*
X0076122Y0048722D01*
X0076144Y0048677D01*
X0076163Y0048630D01*
X0076179Y0048583D01*
X0076191Y0048534D01*
X0076200Y0048484D01*
X0076200Y0048583D02*
X0076200Y0047183D01*
X0077900Y0047383D02*
X0090700Y0053783D01*
X0092200Y0053783D02*
X0104600Y0053783D01*
X0104651Y0053782D01*
X0104701Y0053777D01*
X0104750Y0053769D01*
X0104799Y0053757D01*
X0104847Y0053742D01*
X0104894Y0053723D01*
X0104939Y0053701D01*
X0104983Y0053676D01*
X0105025Y0053648D01*
X0105064Y0053616D01*
X0105101Y0053582D01*
X0105135Y0053545D01*
X0105167Y0053506D01*
X0105196Y0053465D01*
X0105222Y0053421D01*
X0105244Y0053376D01*
X0105263Y0053330D01*
X0105279Y0053282D01*
X0105291Y0053233D01*
X0105300Y0053183D01*
X0105300Y0049783D01*
X0105300Y0049683D01*
X0105300Y0049784D02*
X0105299Y0049733D01*
X0105294Y0049683D01*
X0105286Y0049634D01*
X0105274Y0049585D01*
X0105259Y0049537D01*
X0105240Y0049490D01*
X0105218Y0049445D01*
X0105193Y0049401D01*
X0105165Y0049359D01*
X0105133Y0049320D01*
X0105099Y0049283D01*
X0105062Y0049249D01*
X0105023Y0049217D01*
X0104982Y0049188D01*
X0104938Y0049162D01*
X0104893Y0049140D01*
X0104847Y0049121D01*
X0104799Y0049105D01*
X0104750Y0049093D01*
X0104700Y0049084D01*
X0104600Y0049083D02*
X0092200Y0049083D01*
X0092200Y0047183D01*
X0092200Y0049083D02*
X0092200Y0053783D01*
X0077900Y0053883D02*
X0077900Y0047383D01*
X0131000Y0031783D02*
X0131000Y0026783D01*
X0133500Y0024283D01*
X0138500Y0024283D01*
X0141000Y0026783D01*
X0143500Y0024283D01*
X0148500Y0024283D01*
X0151000Y0026783D01*
X0153500Y0024283D01*
X0158500Y0024283D01*
X0161000Y0026783D01*
X0163500Y0024283D01*
X0168500Y0024283D01*
X0171000Y0026783D01*
X0173500Y0024283D01*
X0178500Y0024283D01*
X0181000Y0026783D01*
X0183500Y0024283D01*
X0188500Y0024283D01*
X0191000Y0026783D01*
X0193500Y0024283D01*
X0198500Y0024283D01*
X0201000Y0026783D01*
X0203500Y0024283D01*
X0208500Y0024283D01*
X0211000Y0026783D01*
X0211000Y0031783D01*
X0208500Y0034283D01*
X0203500Y0034283D01*
X0201000Y0031783D01*
X0198500Y0034283D01*
X0193500Y0034283D01*
X0191000Y0031783D01*
X0188500Y0034283D01*
X0183500Y0034283D01*
X0181000Y0031783D01*
X0178500Y0034283D01*
X0173500Y0034283D01*
X0171000Y0031783D01*
X0168500Y0034283D01*
X0163500Y0034283D01*
X0161000Y0031783D01*
X0158500Y0034283D01*
X0153500Y0034283D01*
X0151000Y0031783D01*
X0148500Y0034283D01*
X0143500Y0034283D01*
X0141000Y0031783D01*
X0138500Y0034283D01*
X0133500Y0034283D01*
X0131000Y0031783D01*
X0221000Y0031783D02*
X0221000Y0026783D01*
X0223500Y0024283D01*
X0228500Y0024283D01*
X0231000Y0026783D01*
X0233500Y0024283D01*
X0238500Y0024283D01*
X0241000Y0026783D01*
X0243500Y0024283D01*
X0248500Y0024283D01*
X0251000Y0026783D01*
X0253500Y0024283D01*
X0258500Y0024283D01*
X0261000Y0026783D01*
X0263500Y0024283D01*
X0268500Y0024283D01*
X0271000Y0026783D01*
X0273500Y0024283D01*
X0278500Y0024283D01*
X0281000Y0026783D01*
X0283500Y0024283D01*
X0288500Y0024283D01*
X0291000Y0026783D01*
X0293500Y0024283D01*
X0298500Y0024283D01*
X0301000Y0026783D01*
X0301000Y0031783D01*
X0298500Y0034283D01*
X0293500Y0034283D01*
X0291000Y0031783D01*
X0288500Y0034283D01*
X0283500Y0034283D01*
X0281000Y0031783D01*
X0278500Y0034283D01*
X0273500Y0034283D01*
X0271000Y0031783D01*
X0268500Y0034283D01*
X0263500Y0034283D01*
X0261000Y0031783D01*
X0258500Y0034283D01*
X0253500Y0034283D01*
X0251000Y0031783D01*
X0248500Y0034283D01*
X0243500Y0034283D01*
X0241000Y0031783D01*
X0238500Y0034283D01*
X0233500Y0034283D01*
X0231000Y0031783D01*
X0228500Y0034283D01*
X0223500Y0034283D01*
X0221000Y0031783D01*
X0301000Y0046783D02*
X0303500Y0044283D01*
X0318500Y0044283D01*
X0321000Y0046783D01*
X0321000Y0051783D01*
X0318500Y0054283D01*
X0321000Y0056783D01*
X0321000Y0061783D01*
X0318500Y0064283D01*
X0321000Y0066783D01*
X0321000Y0071783D01*
X0318500Y0074283D01*
X0321000Y0076783D01*
X0321000Y0081783D01*
X0318500Y0084283D01*
X0321000Y0086783D01*
X0321000Y0091783D01*
X0318500Y0094283D01*
X0321000Y0096783D01*
X0321000Y0101783D01*
X0318500Y0104283D01*
X0321000Y0106783D01*
X0321000Y0111783D01*
X0318500Y0114283D01*
X0321000Y0116783D01*
X0321000Y0121783D01*
X0318500Y0124283D01*
X0321000Y0126783D01*
X0321000Y0131783D01*
X0318500Y0134283D01*
X0321000Y0136783D01*
X0321000Y0141783D01*
X0318500Y0144283D01*
X0321000Y0146783D01*
X0321000Y0151783D01*
X0318500Y0154283D01*
X0321000Y0156783D01*
X0321000Y0161783D01*
X0318500Y0164283D01*
X0321000Y0166783D01*
X0321000Y0171783D01*
X0318500Y0174283D01*
X0321000Y0176783D01*
X0321000Y0181783D01*
X0318500Y0184283D01*
X0321000Y0186783D01*
X0321000Y0191783D01*
X0318500Y0194283D01*
X0321000Y0196783D01*
X0321000Y0201783D01*
X0318500Y0204283D01*
X0321000Y0206783D01*
X0321000Y0211783D01*
X0318500Y0214283D01*
X0321000Y0216783D01*
X0321000Y0221783D01*
X0318500Y0224283D01*
X0303500Y0224283D01*
X0301000Y0221783D01*
X0301000Y0216783D01*
X0303500Y0214283D01*
X0301000Y0211783D01*
X0301000Y0206783D01*
X0303500Y0204283D01*
X0301000Y0201783D01*
X0301000Y0196783D01*
X0303500Y0194283D01*
X0301000Y0191783D01*
X0301000Y0186783D01*
X0303500Y0184283D01*
X0301000Y0181783D01*
X0301000Y0176783D01*
X0303500Y0174283D01*
X0301000Y0171783D01*
X0301000Y0166783D01*
X0303500Y0164283D01*
X0301000Y0161783D01*
X0301000Y0156783D01*
X0303500Y0154283D01*
X0301000Y0151783D01*
X0301000Y0146783D01*
X0303500Y0144283D01*
X0301000Y0141783D01*
X0301000Y0136783D01*
X0303500Y0134283D01*
X0301000Y0131783D01*
X0301000Y0126783D01*
X0303500Y0124283D01*
X0301000Y0121783D01*
X0301000Y0116783D01*
X0303500Y0114283D01*
X0301000Y0111783D01*
X0301000Y0106783D01*
X0303500Y0104283D01*
X0301000Y0101783D01*
X0301000Y0096783D01*
X0303500Y0094283D01*
X0301000Y0091783D01*
X0301000Y0086783D01*
X0303500Y0084283D01*
X0301000Y0081783D01*
X0301000Y0076783D01*
X0303500Y0074283D01*
X0301000Y0071783D01*
X0301000Y0066783D01*
X0303500Y0064283D01*
X0301000Y0061783D01*
X0301000Y0056783D01*
X0303500Y0054283D01*
X0301000Y0051783D01*
X0301000Y0046783D01*
X0342000Y0020783D02*
X0350000Y0020783D01*
X0201000Y0116783D02*
X0198500Y0114283D01*
X0183500Y0114283D01*
X0181000Y0116783D01*
X0181000Y0121783D01*
X0183500Y0124283D01*
X0181000Y0126783D01*
X0181000Y0131783D01*
X0183500Y0134283D01*
X0181000Y0136783D01*
X0181000Y0144283D01*
X0198500Y0144283D01*
X0201000Y0141783D01*
X0201000Y0136783D01*
X0198500Y0134283D01*
X0201000Y0131783D01*
X0201000Y0126783D01*
X0198500Y0124283D01*
X0201000Y0121783D01*
X0201000Y0116783D01*
X0071000Y0191783D02*
X0071000Y0196783D01*
X0068500Y0199283D01*
X0063500Y0199283D01*
X0061000Y0196783D01*
X0058500Y0199283D01*
X0053500Y0199283D01*
X0051000Y0196783D01*
X0048500Y0199283D01*
X0043500Y0199283D01*
X0041000Y0196783D01*
X0038500Y0199283D01*
X0033500Y0199283D01*
X0031000Y0196783D01*
X0031000Y0191783D01*
X0033500Y0189283D01*
X0038500Y0189283D01*
X0041000Y0191783D01*
X0043500Y0189283D01*
X0048500Y0189283D01*
X0051000Y0191783D01*
X0053500Y0189283D01*
X0058500Y0189283D01*
X0061000Y0191783D01*
X0063500Y0189283D01*
X0068500Y0189283D01*
X0071000Y0191783D01*
X0068500Y0214283D02*
X0066000Y0216783D01*
X0063500Y0214283D01*
X0058500Y0214283D01*
X0056000Y0216783D01*
X0053500Y0214283D01*
X0048500Y0214283D01*
X0046000Y0216783D01*
X0043500Y0214283D01*
X0038500Y0214283D01*
X0036000Y0216783D01*
X0033500Y0214283D01*
X0028500Y0214283D01*
X0026000Y0216783D01*
X0023500Y0214283D01*
X0018500Y0214283D01*
X0016000Y0216783D01*
X0013500Y0214283D01*
X0008500Y0214283D01*
X0006000Y0216783D01*
X0006000Y0221783D01*
X0008500Y0224283D01*
X0013500Y0224283D01*
X0016000Y0221783D01*
X0018500Y0224283D01*
X0023500Y0224283D01*
X0026000Y0221783D01*
X0028500Y0224283D01*
X0033500Y0224283D01*
X0036000Y0221783D01*
X0038500Y0224283D01*
X0043500Y0224283D01*
X0046000Y0221783D01*
X0048500Y0224283D01*
X0053500Y0224283D01*
X0056000Y0221783D01*
X0058500Y0224283D01*
X0063500Y0224283D01*
X0066000Y0221783D01*
X0068500Y0224283D01*
X0073500Y0224283D01*
X0076000Y0221783D01*
X0078500Y0224283D01*
X0083500Y0224283D01*
X0086000Y0221783D01*
X0088500Y0224283D01*
X0093500Y0224283D01*
X0096000Y0221783D01*
X0098500Y0224283D01*
X0103500Y0224283D01*
X0106000Y0221783D01*
X0106000Y0216783D01*
X0103500Y0214283D01*
X0098500Y0214283D01*
X0096000Y0216783D01*
X0093500Y0214283D01*
X0088500Y0214283D01*
X0086000Y0216783D01*
X0083500Y0214283D01*
X0078500Y0214283D01*
X0076000Y0216783D01*
X0073500Y0214283D01*
X0068500Y0214283D01*
X0111000Y0216783D02*
X0113500Y0214283D01*
X0118500Y0214283D01*
X0121000Y0216783D01*
X0123500Y0214283D01*
X0128500Y0214283D01*
X0131000Y0216783D01*
X0133500Y0214283D01*
X0138500Y0214283D01*
X0141000Y0216783D01*
X0143500Y0214283D01*
X0148500Y0214283D01*
X0151000Y0216783D01*
X0153500Y0214283D01*
X0158500Y0214283D01*
X0161000Y0216783D01*
X0163500Y0214283D01*
X0168500Y0214283D01*
X0171000Y0216783D01*
X0173500Y0214283D01*
X0178500Y0214283D01*
X0181000Y0216783D01*
X0183500Y0214283D01*
X0188500Y0214283D01*
X0191000Y0216783D01*
X0191000Y0221783D01*
X0188500Y0224283D01*
X0183500Y0224283D01*
X0181000Y0221783D01*
X0178500Y0224283D01*
X0173500Y0224283D01*
X0171000Y0221783D01*
X0168500Y0224283D01*
X0163500Y0224283D01*
X0161000Y0221783D01*
X0158500Y0224283D01*
X0153500Y0224283D01*
X0151000Y0221783D01*
X0148500Y0224283D01*
X0143500Y0224283D01*
X0141000Y0221783D01*
X0138500Y0224283D01*
X0133500Y0224283D01*
X0131000Y0221783D01*
X0128500Y0224283D01*
X0123500Y0224283D01*
X0121000Y0221783D01*
X0118500Y0224283D01*
X0113500Y0224283D01*
X0111000Y0221783D01*
X0111000Y0216783D01*
X0201000Y0216783D02*
X0203500Y0214283D01*
X0208500Y0214283D01*
X0211000Y0216783D01*
X0213500Y0214283D01*
X0218500Y0214283D01*
X0221000Y0216783D01*
X0223500Y0214283D01*
X0228500Y0214283D01*
X0231000Y0216783D01*
X0233500Y0214283D01*
X0238500Y0214283D01*
X0241000Y0216783D01*
X0243500Y0214283D01*
X0248500Y0214283D01*
X0251000Y0216783D01*
X0253500Y0214283D01*
X0258500Y0214283D01*
X0261000Y0216783D01*
X0263500Y0214283D01*
X0268500Y0214283D01*
X0271000Y0216783D01*
X0273500Y0214283D01*
X0278500Y0214283D01*
X0281000Y0216783D01*
X0281000Y0221783D01*
X0278500Y0224283D01*
X0273500Y0224283D01*
X0271000Y0221783D01*
X0268500Y0224283D01*
X0263500Y0224283D01*
X0261000Y0221783D01*
X0258500Y0224283D01*
X0253500Y0224283D01*
X0251000Y0221783D01*
X0248500Y0224283D01*
X0243500Y0224283D01*
X0241000Y0221783D01*
X0238500Y0224283D01*
X0233500Y0224283D01*
X0231000Y0221783D01*
X0228500Y0224283D01*
X0223500Y0224283D01*
X0221000Y0221783D01*
X0218500Y0224283D01*
X0213500Y0224283D01*
X0211000Y0221783D01*
X0208500Y0224283D01*
X0203500Y0224283D01*
X0201000Y0221783D01*
X0201000Y0216783D01*
X0025500Y0161783D02*
X0025500Y0121783D01*
X0003500Y0121783D01*
X0003500Y0126783D01*
X0008500Y0126783D01*
X0008500Y0156783D01*
X0003500Y0156783D01*
X0003500Y0161783D01*
X0025500Y0161783D01*
X0003500Y0156783D02*
X0003500Y0126783D01*
D13*
X0368638Y0087965D02*
X0368638Y0085602D01*
X0373362Y0085602D02*
X0373362Y0087965D01*
D14*
X0331373Y0090820D02*
X0328304Y0087751D01*
X0328304Y0086983D01*
X0326002Y0086983D02*
X0326002Y0091587D01*
X0323700Y0089285D01*
X0326769Y0089285D01*
X0328304Y0091587D02*
X0331373Y0091587D01*
X0331373Y0090820D01*
X0330606Y0096983D02*
X0329071Y0096983D01*
X0328304Y0097751D01*
X0328304Y0099285D02*
X0329839Y0100053D01*
X0330606Y0100053D01*
X0331373Y0099285D01*
X0331373Y0097751D01*
X0330606Y0096983D01*
X0328304Y0099285D02*
X0328304Y0101587D01*
X0331373Y0101587D01*
X0326769Y0099285D02*
X0323700Y0099285D01*
X0326002Y0101587D01*
X0326002Y0096983D01*
X0326002Y0106983D02*
X0326002Y0111587D01*
X0323700Y0109285D01*
X0326769Y0109285D01*
X0328304Y0107751D02*
X0329071Y0106983D01*
X0330606Y0106983D01*
X0331373Y0107751D01*
X0331373Y0108518D01*
X0330606Y0109285D01*
X0329839Y0109285D01*
X0330606Y0109285D02*
X0331373Y0110053D01*
X0331373Y0110820D01*
X0330606Y0111587D01*
X0329071Y0111587D01*
X0328304Y0110820D01*
X0328304Y0116983D02*
X0331373Y0116983D01*
X0329839Y0116983D02*
X0329839Y0121587D01*
X0328304Y0120053D01*
X0326769Y0119285D02*
X0323700Y0119285D01*
X0326002Y0121587D01*
X0326002Y0116983D01*
X0326002Y0126983D02*
X0324467Y0126983D01*
X0323700Y0127751D01*
X0325235Y0129285D02*
X0326002Y0129285D01*
X0326769Y0128518D01*
X0326769Y0127751D01*
X0326002Y0126983D01*
X0326002Y0129285D02*
X0326769Y0130053D01*
X0326769Y0130820D01*
X0326002Y0131587D01*
X0324467Y0131587D01*
X0323700Y0130820D01*
X0328304Y0130820D02*
X0328304Y0130053D01*
X0329071Y0129285D01*
X0331373Y0129285D01*
X0331373Y0127751D02*
X0331373Y0130820D01*
X0330606Y0131587D01*
X0329071Y0131587D01*
X0328304Y0130820D01*
X0328304Y0127751D02*
X0329071Y0126983D01*
X0330606Y0126983D01*
X0331373Y0127751D01*
X0328304Y0136983D02*
X0328304Y0137751D01*
X0331373Y0140820D01*
X0331373Y0141587D01*
X0328304Y0141587D01*
X0326769Y0140820D02*
X0326769Y0140053D01*
X0326002Y0139285D01*
X0326769Y0138518D01*
X0326769Y0137751D01*
X0326002Y0136983D01*
X0324467Y0136983D01*
X0323700Y0137751D01*
X0325235Y0139285D02*
X0326002Y0139285D01*
X0326769Y0140820D02*
X0326002Y0141587D01*
X0324467Y0141587D01*
X0323700Y0140820D01*
X0324467Y0146983D02*
X0323700Y0147751D01*
X0324467Y0146983D02*
X0326002Y0146983D01*
X0326769Y0147751D01*
X0326769Y0148518D01*
X0326002Y0149285D01*
X0325235Y0149285D01*
X0326002Y0149285D02*
X0326769Y0150053D01*
X0326769Y0150820D01*
X0326002Y0151587D01*
X0324467Y0151587D01*
X0323700Y0150820D01*
X0328304Y0151587D02*
X0328304Y0149285D01*
X0329839Y0150053D01*
X0330606Y0150053D01*
X0331373Y0149285D01*
X0331373Y0147751D01*
X0330606Y0146983D01*
X0329071Y0146983D01*
X0328304Y0147751D01*
X0328304Y0151587D02*
X0331373Y0151587D01*
X0330606Y0156983D02*
X0329071Y0156983D01*
X0328304Y0157751D01*
X0326769Y0157751D02*
X0326002Y0156983D01*
X0324467Y0156983D01*
X0323700Y0157751D01*
X0325235Y0159285D02*
X0326002Y0159285D01*
X0326769Y0158518D01*
X0326769Y0157751D01*
X0326002Y0159285D02*
X0326769Y0160053D01*
X0326769Y0160820D01*
X0326002Y0161587D01*
X0324467Y0161587D01*
X0323700Y0160820D01*
X0328304Y0160820D02*
X0329071Y0161587D01*
X0330606Y0161587D01*
X0331373Y0160820D01*
X0331373Y0160053D01*
X0330606Y0159285D01*
X0331373Y0158518D01*
X0331373Y0157751D01*
X0330606Y0156983D01*
X0330606Y0159285D02*
X0329839Y0159285D01*
X0329839Y0166983D02*
X0329839Y0171587D01*
X0328304Y0170053D01*
X0326769Y0170053D02*
X0326769Y0170820D01*
X0326002Y0171587D01*
X0324467Y0171587D01*
X0323700Y0170820D01*
X0325235Y0169285D02*
X0326002Y0169285D01*
X0326769Y0168518D01*
X0326769Y0167751D01*
X0326002Y0166983D01*
X0324467Y0166983D01*
X0323700Y0167751D01*
X0326002Y0169285D02*
X0326769Y0170053D01*
X0328304Y0166983D02*
X0331373Y0166983D01*
X0330606Y0176983D02*
X0331373Y0177751D01*
X0331373Y0180820D01*
X0330606Y0181587D01*
X0329071Y0181587D01*
X0328304Y0180820D01*
X0328304Y0180053D01*
X0329071Y0179285D01*
X0331373Y0179285D01*
X0330606Y0176983D02*
X0329071Y0176983D01*
X0328304Y0177751D01*
X0326769Y0176983D02*
X0323700Y0176983D01*
X0326769Y0180053D01*
X0326769Y0180820D01*
X0326002Y0181587D01*
X0324467Y0181587D01*
X0323700Y0180820D01*
X0323700Y0186983D02*
X0326769Y0190053D01*
X0326769Y0190820D01*
X0326002Y0191587D01*
X0324467Y0191587D01*
X0323700Y0190820D01*
X0328304Y0191587D02*
X0331373Y0191587D01*
X0331373Y0190820D01*
X0328304Y0187751D01*
X0328304Y0186983D01*
X0326769Y0186983D02*
X0323700Y0186983D01*
X0323700Y0196983D02*
X0326769Y0200053D01*
X0326769Y0200820D01*
X0326002Y0201587D01*
X0324467Y0201587D01*
X0323700Y0200820D01*
X0323700Y0196983D02*
X0326769Y0196983D01*
X0328304Y0197751D02*
X0329071Y0196983D01*
X0330606Y0196983D01*
X0331373Y0197751D01*
X0331373Y0199285D01*
X0330606Y0200053D01*
X0329839Y0200053D01*
X0328304Y0199285D01*
X0328304Y0201587D01*
X0331373Y0201587D01*
X0330606Y0206983D02*
X0329071Y0206983D01*
X0328304Y0207751D01*
X0326769Y0206983D02*
X0323700Y0206983D01*
X0326769Y0210053D01*
X0326769Y0210820D01*
X0326002Y0211587D01*
X0324467Y0211587D01*
X0323700Y0210820D01*
X0328304Y0210820D02*
X0329071Y0211587D01*
X0330606Y0211587D01*
X0331373Y0210820D01*
X0331373Y0210053D01*
X0330606Y0209285D01*
X0331373Y0208518D01*
X0331373Y0207751D01*
X0330606Y0206983D01*
X0330606Y0209285D02*
X0329839Y0209285D01*
X0329839Y0216983D02*
X0331373Y0220053D01*
X0328304Y0220053D02*
X0329839Y0216983D01*
X0326769Y0217751D02*
X0326002Y0216983D01*
X0324467Y0216983D01*
X0323700Y0217751D01*
X0323700Y0219285D02*
X0325235Y0220053D01*
X0326002Y0220053D01*
X0326769Y0219285D01*
X0326769Y0217751D01*
X0323700Y0219285D02*
X0323700Y0221587D01*
X0326769Y0221587D01*
X0297165Y0220053D02*
X0295631Y0216983D01*
X0294096Y0220053D01*
X0292561Y0219285D02*
X0292561Y0217751D01*
X0291794Y0216983D01*
X0290259Y0216983D01*
X0289492Y0217751D01*
X0289492Y0219285D02*
X0291027Y0220053D01*
X0291794Y0220053D01*
X0292561Y0219285D01*
X0292561Y0221587D02*
X0289492Y0221587D01*
X0289492Y0219285D01*
X0290259Y0211587D02*
X0289492Y0210820D01*
X0290259Y0211587D02*
X0291794Y0211587D01*
X0292561Y0210820D01*
X0292561Y0210053D01*
X0289492Y0206983D01*
X0292561Y0206983D01*
X0294096Y0206983D02*
X0297165Y0210053D01*
X0297165Y0210820D01*
X0296398Y0211587D01*
X0294863Y0211587D01*
X0294096Y0210820D01*
X0294096Y0206983D02*
X0297165Y0206983D01*
X0296398Y0201587D02*
X0294096Y0199285D01*
X0297165Y0199285D01*
X0296398Y0196983D02*
X0296398Y0201587D01*
X0292561Y0200820D02*
X0291794Y0201587D01*
X0290259Y0201587D01*
X0289492Y0200820D01*
X0292561Y0200820D02*
X0292561Y0200053D01*
X0289492Y0196983D01*
X0292561Y0196983D01*
X0291794Y0191587D02*
X0290259Y0191587D01*
X0289492Y0190820D01*
X0291794Y0191587D02*
X0292561Y0190820D01*
X0292561Y0190053D01*
X0289492Y0186983D01*
X0292561Y0186983D01*
X0294096Y0187751D02*
X0294863Y0186983D01*
X0296398Y0186983D01*
X0297165Y0187751D01*
X0297165Y0188518D01*
X0296398Y0189285D01*
X0294096Y0189285D01*
X0294096Y0187751D01*
X0294096Y0189285D02*
X0295631Y0190820D01*
X0297165Y0191587D01*
X0296398Y0181587D02*
X0297165Y0180820D01*
X0297165Y0180053D01*
X0296398Y0179285D01*
X0294863Y0179285D01*
X0294096Y0180053D01*
X0294096Y0180820D01*
X0294863Y0181587D01*
X0296398Y0181587D01*
X0296398Y0179285D02*
X0297165Y0178518D01*
X0297165Y0177751D01*
X0296398Y0176983D01*
X0294863Y0176983D01*
X0294096Y0177751D01*
X0294096Y0178518D01*
X0294863Y0179285D01*
X0292561Y0180053D02*
X0289492Y0176983D01*
X0292561Y0176983D01*
X0292561Y0180053D02*
X0292561Y0180820D01*
X0291794Y0181587D01*
X0290259Y0181587D01*
X0289492Y0180820D01*
X0290259Y0171587D02*
X0291794Y0171587D01*
X0292561Y0170820D01*
X0292561Y0170053D01*
X0291794Y0169285D01*
X0292561Y0168518D01*
X0292561Y0167751D01*
X0291794Y0166983D01*
X0290259Y0166983D01*
X0289492Y0167751D01*
X0291027Y0169285D02*
X0291794Y0169285D01*
X0294096Y0167751D02*
X0297165Y0170820D01*
X0297165Y0167751D01*
X0296398Y0166983D01*
X0294863Y0166983D01*
X0294096Y0167751D01*
X0294096Y0170820D01*
X0294863Y0171587D01*
X0296398Y0171587D01*
X0297165Y0170820D01*
X0290259Y0171587D02*
X0289492Y0170820D01*
X0290259Y0161587D02*
X0291794Y0161587D01*
X0292561Y0160820D01*
X0292561Y0160053D01*
X0291794Y0159285D01*
X0292561Y0158518D01*
X0292561Y0157751D01*
X0291794Y0156983D01*
X0290259Y0156983D01*
X0289492Y0157751D01*
X0291027Y0159285D02*
X0291794Y0159285D01*
X0289492Y0160820D02*
X0290259Y0161587D01*
X0294096Y0160820D02*
X0294863Y0161587D01*
X0296398Y0161587D01*
X0297165Y0160820D01*
X0297165Y0160053D01*
X0294096Y0156983D01*
X0297165Y0156983D01*
X0296398Y0151587D02*
X0294096Y0149285D01*
X0297165Y0149285D01*
X0296398Y0146983D02*
X0296398Y0151587D01*
X0292561Y0150820D02*
X0292561Y0150053D01*
X0291794Y0149285D01*
X0292561Y0148518D01*
X0292561Y0147751D01*
X0291794Y0146983D01*
X0290259Y0146983D01*
X0289492Y0147751D01*
X0291027Y0149285D02*
X0291794Y0149285D01*
X0292561Y0150820D02*
X0291794Y0151587D01*
X0290259Y0151587D01*
X0289492Y0150820D01*
X0290259Y0141587D02*
X0291794Y0141587D01*
X0292561Y0140820D01*
X0292561Y0140053D01*
X0291794Y0139285D01*
X0292561Y0138518D01*
X0292561Y0137751D01*
X0291794Y0136983D01*
X0290259Y0136983D01*
X0289492Y0137751D01*
X0291027Y0139285D02*
X0291794Y0139285D01*
X0294096Y0139285D02*
X0295631Y0140820D01*
X0297165Y0141587D01*
X0296398Y0139285D02*
X0294096Y0139285D01*
X0294096Y0137751D01*
X0294863Y0136983D01*
X0296398Y0136983D01*
X0297165Y0137751D01*
X0297165Y0138518D01*
X0296398Y0139285D01*
X0290259Y0141587D02*
X0289492Y0140820D01*
X0290259Y0131587D02*
X0291794Y0131587D01*
X0292561Y0130820D01*
X0292561Y0130053D01*
X0291794Y0129285D01*
X0292561Y0128518D01*
X0292561Y0127751D01*
X0291794Y0126983D01*
X0290259Y0126983D01*
X0289492Y0127751D01*
X0291027Y0129285D02*
X0291794Y0129285D01*
X0294096Y0128518D02*
X0294863Y0129285D01*
X0296398Y0129285D01*
X0297165Y0128518D01*
X0297165Y0127751D01*
X0296398Y0126983D01*
X0294863Y0126983D01*
X0294096Y0127751D01*
X0294096Y0128518D01*
X0294863Y0129285D02*
X0294096Y0130053D01*
X0294096Y0130820D01*
X0294863Y0131587D01*
X0296398Y0131587D01*
X0297165Y0130820D01*
X0297165Y0130053D01*
X0296398Y0129285D01*
X0290259Y0131587D02*
X0289492Y0130820D01*
X0291794Y0121587D02*
X0289492Y0119285D01*
X0292561Y0119285D01*
X0294096Y0117751D02*
X0297165Y0120820D01*
X0297165Y0117751D01*
X0296398Y0116983D01*
X0294863Y0116983D01*
X0294096Y0117751D01*
X0294096Y0120820D01*
X0294863Y0121587D01*
X0296398Y0121587D01*
X0297165Y0120820D01*
X0291794Y0121587D02*
X0291794Y0116983D01*
X0291794Y0111587D02*
X0289492Y0109285D01*
X0292561Y0109285D01*
X0294096Y0110820D02*
X0294863Y0111587D01*
X0296398Y0111587D01*
X0297165Y0110820D01*
X0297165Y0110053D01*
X0294096Y0106983D01*
X0297165Y0106983D01*
X0291794Y0106983D02*
X0291794Y0111587D01*
X0291794Y0101587D02*
X0289492Y0099285D01*
X0292561Y0099285D01*
X0294096Y0099285D02*
X0297165Y0099285D01*
X0296398Y0096983D02*
X0296398Y0101587D01*
X0294096Y0099285D01*
X0291794Y0096983D02*
X0291794Y0101587D01*
X0291794Y0091587D02*
X0289492Y0089285D01*
X0292561Y0089285D01*
X0294096Y0089285D02*
X0294096Y0087751D01*
X0294863Y0086983D01*
X0296398Y0086983D01*
X0297165Y0087751D01*
X0297165Y0088518D01*
X0296398Y0089285D01*
X0294096Y0089285D01*
X0295631Y0090820D01*
X0297165Y0091587D01*
X0291794Y0091587D02*
X0291794Y0086983D01*
X0291794Y0081587D02*
X0289492Y0079285D01*
X0292561Y0079285D01*
X0294096Y0078518D02*
X0294863Y0079285D01*
X0296398Y0079285D01*
X0297165Y0078518D01*
X0297165Y0077751D01*
X0296398Y0076983D01*
X0294863Y0076983D01*
X0294096Y0077751D01*
X0294096Y0078518D01*
X0294863Y0079285D02*
X0294096Y0080053D01*
X0294096Y0080820D01*
X0294863Y0081587D01*
X0296398Y0081587D01*
X0297165Y0080820D01*
X0297165Y0080053D01*
X0296398Y0079285D01*
X0291794Y0076983D02*
X0291794Y0081587D01*
X0292561Y0071587D02*
X0289492Y0071587D01*
X0289492Y0069285D01*
X0291027Y0070053D01*
X0291794Y0070053D01*
X0292561Y0069285D01*
X0292561Y0067751D01*
X0291794Y0066983D01*
X0290259Y0066983D01*
X0289492Y0067751D01*
X0294096Y0067751D02*
X0294096Y0070820D01*
X0294863Y0071587D01*
X0296398Y0071587D01*
X0297165Y0070820D01*
X0294096Y0067751D01*
X0294863Y0066983D01*
X0296398Y0066983D01*
X0297165Y0067751D01*
X0297165Y0070820D01*
X0296398Y0061587D02*
X0294863Y0061587D01*
X0294096Y0060820D01*
X0292561Y0061587D02*
X0289492Y0061587D01*
X0289492Y0059285D01*
X0291027Y0060053D01*
X0291794Y0060053D01*
X0292561Y0059285D01*
X0292561Y0057751D01*
X0291794Y0056983D01*
X0290259Y0056983D01*
X0289492Y0057751D01*
X0294096Y0056983D02*
X0297165Y0060053D01*
X0297165Y0060820D01*
X0296398Y0061587D01*
X0297165Y0056983D02*
X0294096Y0056983D01*
X0297165Y0051587D02*
X0297165Y0046983D01*
X0294863Y0046983D01*
X0294096Y0047751D01*
X0294096Y0049285D01*
X0294863Y0050053D01*
X0297165Y0050053D01*
X0292561Y0049285D02*
X0292561Y0046983D01*
X0292561Y0049285D02*
X0291794Y0050053D01*
X0289492Y0050053D01*
X0289492Y0046983D01*
X0287957Y0047751D02*
X0287957Y0049285D01*
X0286423Y0049285D01*
X0287957Y0047751D02*
X0287190Y0046983D01*
X0285656Y0046983D01*
X0284888Y0047751D01*
X0284888Y0050820D01*
X0285656Y0051587D01*
X0287190Y0051587D01*
X0287957Y0050820D01*
X0323700Y0050820D02*
X0323700Y0047751D01*
X0324467Y0046983D01*
X0326002Y0046983D01*
X0326769Y0047751D01*
X0326769Y0049285D01*
X0325235Y0049285D01*
X0326769Y0050820D02*
X0326002Y0051587D01*
X0324467Y0051587D01*
X0323700Y0050820D01*
X0328304Y0050053D02*
X0328304Y0046983D01*
X0331373Y0046983D02*
X0331373Y0049285D01*
X0330606Y0050053D01*
X0328304Y0050053D01*
X0332908Y0049285D02*
X0333675Y0050053D01*
X0335977Y0050053D01*
X0335977Y0051587D02*
X0335977Y0046983D01*
X0333675Y0046983D01*
X0332908Y0047751D01*
X0332908Y0049285D01*
X0330606Y0056983D02*
X0329071Y0056983D01*
X0328304Y0057751D01*
X0326769Y0057751D02*
X0326769Y0059285D01*
X0326002Y0060053D01*
X0325235Y0060053D01*
X0323700Y0059285D01*
X0323700Y0061587D01*
X0326769Y0061587D01*
X0328304Y0060820D02*
X0329071Y0061587D01*
X0330606Y0061587D01*
X0331373Y0060820D01*
X0331373Y0060053D01*
X0330606Y0059285D01*
X0331373Y0058518D01*
X0331373Y0057751D01*
X0330606Y0056983D01*
X0330606Y0059285D02*
X0329839Y0059285D01*
X0326769Y0057751D02*
X0326002Y0056983D01*
X0324467Y0056983D01*
X0323700Y0057751D01*
X0324467Y0066983D02*
X0323700Y0067751D01*
X0324467Y0066983D02*
X0326002Y0066983D01*
X0326769Y0067751D01*
X0326769Y0069285D01*
X0326002Y0070053D01*
X0325235Y0070053D01*
X0323700Y0069285D01*
X0323700Y0071587D01*
X0326769Y0071587D01*
X0328304Y0070053D02*
X0329839Y0071587D01*
X0329839Y0066983D01*
X0331373Y0066983D02*
X0328304Y0066983D01*
X0329071Y0076983D02*
X0330606Y0076983D01*
X0331373Y0077751D01*
X0331373Y0080820D01*
X0330606Y0081587D01*
X0329071Y0081587D01*
X0328304Y0080820D01*
X0328304Y0080053D01*
X0329071Y0079285D01*
X0331373Y0079285D01*
X0329071Y0076983D02*
X0328304Y0077751D01*
X0326769Y0079285D02*
X0323700Y0079285D01*
X0326002Y0081587D01*
X0326002Y0076983D01*
X0298300Y0020449D02*
X0293696Y0017380D01*
X0293696Y0015845D02*
X0293696Y0012776D01*
X0293696Y0014310D02*
X0298300Y0014310D01*
X0298300Y0011241D02*
X0295998Y0011241D01*
X0295231Y0010474D01*
X0295231Y0008172D01*
X0298300Y0008172D01*
X0298300Y0006637D02*
X0298300Y0004335D01*
X0297533Y0003568D01*
X0295998Y0003568D01*
X0295231Y0004335D01*
X0295231Y0006637D01*
X0288300Y0006637D02*
X0288300Y0004335D01*
X0287533Y0003568D01*
X0285998Y0003568D01*
X0285231Y0004335D01*
X0285231Y0006637D01*
X0285231Y0008172D02*
X0285231Y0010474D01*
X0285998Y0011241D01*
X0288300Y0011241D01*
X0288300Y0012776D02*
X0283696Y0012776D01*
X0283696Y0015078D01*
X0284463Y0015845D01*
X0285998Y0015845D01*
X0286765Y0015078D01*
X0286765Y0012776D01*
X0286765Y0014310D02*
X0288300Y0015845D01*
X0288300Y0017380D02*
X0283696Y0020449D01*
X0283696Y0017380D02*
X0288300Y0020449D01*
X0293696Y0020449D02*
X0298300Y0017380D01*
X0288300Y0008172D02*
X0285231Y0008172D01*
X0278300Y0008172D02*
X0275231Y0008172D01*
X0273696Y0009706D01*
X0275231Y0011241D01*
X0278300Y0011241D01*
X0277533Y0012776D02*
X0278300Y0013543D01*
X0278300Y0015078D01*
X0277533Y0015845D01*
X0278300Y0017380D02*
X0278300Y0020449D01*
X0278300Y0018914D02*
X0273696Y0018914D01*
X0275231Y0017380D01*
X0274463Y0015845D02*
X0273696Y0015078D01*
X0273696Y0013543D01*
X0274463Y0012776D01*
X0277533Y0012776D01*
X0275998Y0011241D02*
X0275998Y0008172D01*
X0274463Y0006637D02*
X0273696Y0005870D01*
X0273696Y0003568D01*
X0278300Y0003568D01*
X0278300Y0005870D01*
X0277533Y0006637D01*
X0274463Y0006637D01*
X0268300Y0005870D02*
X0268300Y0003568D01*
X0263696Y0003568D01*
X0263696Y0005870D01*
X0264463Y0006637D01*
X0267533Y0006637D01*
X0268300Y0005870D01*
X0268300Y0008172D02*
X0265231Y0008172D01*
X0263696Y0009706D01*
X0265231Y0011241D01*
X0268300Y0011241D01*
X0267533Y0012776D02*
X0268300Y0013543D01*
X0268300Y0015078D01*
X0267533Y0015845D01*
X0267533Y0017380D02*
X0264463Y0017380D01*
X0263696Y0018147D01*
X0263696Y0019681D01*
X0264463Y0020449D01*
X0267533Y0017380D01*
X0268300Y0018147D01*
X0268300Y0019681D01*
X0267533Y0020449D01*
X0264463Y0020449D01*
X0264463Y0015845D02*
X0263696Y0015078D01*
X0263696Y0013543D01*
X0264463Y0012776D01*
X0267533Y0012776D01*
X0265998Y0011241D02*
X0265998Y0008172D01*
X0258300Y0008172D02*
X0255231Y0008172D01*
X0253696Y0009706D01*
X0255231Y0011241D01*
X0258300Y0011241D01*
X0258300Y0012776D02*
X0258300Y0015845D01*
X0258300Y0017380D02*
X0258300Y0020449D01*
X0258300Y0018914D02*
X0253696Y0018914D01*
X0255231Y0017380D01*
X0253696Y0014310D02*
X0258300Y0014310D01*
X0255231Y0012776D02*
X0253696Y0014310D01*
X0255998Y0011241D02*
X0255998Y0008172D01*
X0248300Y0008172D02*
X0245231Y0008172D01*
X0243696Y0009706D01*
X0245231Y0011241D01*
X0248300Y0011241D01*
X0248300Y0012776D02*
X0248300Y0015845D01*
X0248300Y0014310D02*
X0243696Y0014310D01*
X0245231Y0012776D01*
X0245998Y0011241D02*
X0245998Y0008172D01*
X0238300Y0012776D02*
X0235231Y0012776D01*
X0233696Y0014310D01*
X0235231Y0015845D01*
X0238300Y0015845D01*
X0237533Y0017380D02*
X0238300Y0018147D01*
X0238300Y0019682D01*
X0237533Y0020449D01*
X0234463Y0020449D01*
X0233696Y0019682D01*
X0233696Y0018147D01*
X0234463Y0017380D01*
X0235231Y0017380D01*
X0235998Y0018147D01*
X0235998Y0020449D01*
X0235998Y0015845D02*
X0235998Y0012776D01*
X0228300Y0012776D02*
X0225231Y0012776D01*
X0223696Y0014310D01*
X0225231Y0015845D01*
X0228300Y0015845D01*
X0227533Y0017380D02*
X0226765Y0017380D01*
X0225998Y0018147D01*
X0225998Y0019682D01*
X0226765Y0020449D01*
X0227533Y0020449D01*
X0228300Y0019682D01*
X0228300Y0018147D01*
X0227533Y0017380D01*
X0225998Y0018147D02*
X0225231Y0017380D01*
X0224463Y0017380D01*
X0223696Y0018147D01*
X0223696Y0019682D01*
X0224463Y0020449D01*
X0225231Y0020449D01*
X0225998Y0019682D01*
X0225998Y0015845D02*
X0225998Y0012776D01*
X0208300Y0012776D02*
X0205231Y0012776D01*
X0203696Y0014310D01*
X0205231Y0015845D01*
X0208300Y0015845D01*
X0208300Y0017380D02*
X0207533Y0017380D01*
X0204463Y0020449D01*
X0203696Y0020449D01*
X0203696Y0017380D01*
X0205998Y0015845D02*
X0205998Y0012776D01*
X0198300Y0012776D02*
X0195231Y0012776D01*
X0193696Y0014310D01*
X0195231Y0015845D01*
X0198300Y0015845D01*
X0197533Y0017380D02*
X0198300Y0018147D01*
X0198300Y0019682D01*
X0197533Y0020449D01*
X0196765Y0020449D01*
X0195998Y0019682D01*
X0195998Y0017380D01*
X0197533Y0017380D01*
X0195998Y0017380D02*
X0194463Y0018914D01*
X0193696Y0020449D01*
X0188300Y0019682D02*
X0188300Y0018147D01*
X0187533Y0017380D01*
X0185998Y0017380D02*
X0185231Y0018914D01*
X0185231Y0019682D01*
X0185998Y0020449D01*
X0187533Y0020449D01*
X0188300Y0019682D01*
X0185998Y0017380D02*
X0183696Y0017380D01*
X0183696Y0020449D01*
X0185231Y0015845D02*
X0188300Y0015845D01*
X0185998Y0015845D02*
X0185998Y0012776D01*
X0185231Y0012776D02*
X0183696Y0014310D01*
X0185231Y0015845D01*
X0185231Y0012776D02*
X0188300Y0012776D01*
X0195998Y0012776D02*
X0195998Y0015845D01*
X0178300Y0015845D02*
X0175231Y0015845D01*
X0173696Y0014310D01*
X0175231Y0012776D01*
X0178300Y0012776D01*
X0175998Y0012776D02*
X0175998Y0015845D01*
X0175998Y0017380D02*
X0175998Y0020449D01*
X0178300Y0019682D02*
X0173696Y0019682D01*
X0175998Y0017380D01*
X0168300Y0018147D02*
X0167533Y0017380D01*
X0168300Y0018147D02*
X0168300Y0019682D01*
X0167533Y0020449D01*
X0166765Y0020449D01*
X0165998Y0019682D01*
X0165998Y0018914D01*
X0165998Y0019682D02*
X0165231Y0020449D01*
X0164463Y0020449D01*
X0163696Y0019682D01*
X0163696Y0018147D01*
X0164463Y0017380D01*
X0165231Y0015845D02*
X0163696Y0014310D01*
X0165231Y0012776D01*
X0168300Y0012776D01*
X0165998Y0012776D02*
X0165998Y0015845D01*
X0165231Y0015845D02*
X0168300Y0015845D01*
X0158300Y0015845D02*
X0155231Y0015845D01*
X0153696Y0014310D01*
X0155231Y0012776D01*
X0158300Y0012776D01*
X0155998Y0012776D02*
X0155998Y0015845D01*
X0154463Y0017380D02*
X0153696Y0018147D01*
X0153696Y0019682D01*
X0154463Y0020449D01*
X0155231Y0020449D01*
X0158300Y0017380D01*
X0158300Y0020449D01*
X0148300Y0020449D02*
X0148300Y0017380D01*
X0148300Y0018914D02*
X0143696Y0018914D01*
X0145231Y0017380D01*
X0145231Y0015845D02*
X0143696Y0014310D01*
X0145231Y0012776D01*
X0148300Y0012776D01*
X0145998Y0012776D02*
X0145998Y0015845D01*
X0145231Y0015845D02*
X0148300Y0015845D01*
X0138300Y0015845D02*
X0135231Y0015845D01*
X0133696Y0014310D01*
X0135231Y0012776D01*
X0138300Y0012776D01*
X0135998Y0012776D02*
X0135998Y0015845D01*
X0134463Y0017380D02*
X0133696Y0018147D01*
X0133696Y0019682D01*
X0134463Y0020449D01*
X0137533Y0017380D01*
X0138300Y0018147D01*
X0138300Y0019682D01*
X0137533Y0020449D01*
X0134463Y0020449D01*
X0134463Y0017380D02*
X0137533Y0017380D01*
X0118300Y0017380D02*
X0115231Y0017380D01*
X0115231Y0019681D01*
X0115998Y0020449D01*
X0118300Y0020449D01*
X0118300Y0015845D02*
X0118300Y0014310D01*
X0118300Y0015078D02*
X0115231Y0015078D01*
X0115231Y0014310D01*
X0113696Y0015078D02*
X0112929Y0015078D01*
X0113696Y0012776D02*
X0116765Y0012776D01*
X0118300Y0011241D01*
X0116765Y0009706D01*
X0113696Y0009706D01*
X0108300Y0008939D02*
X0107533Y0008172D01*
X0104463Y0008172D01*
X0103696Y0008939D01*
X0103696Y0010474D01*
X0104463Y0011241D01*
X0105998Y0011241D02*
X0105998Y0009706D01*
X0105998Y0011241D02*
X0107533Y0011241D01*
X0108300Y0010474D01*
X0108300Y0008939D01*
X0108300Y0012776D02*
X0105231Y0012776D01*
X0105231Y0015078D01*
X0105998Y0015845D01*
X0108300Y0015845D01*
X0107533Y0017380D02*
X0105998Y0017380D01*
X0105231Y0018147D01*
X0105231Y0020449D01*
X0103696Y0020449D02*
X0108300Y0020449D01*
X0108300Y0018147D01*
X0107533Y0017380D01*
X0098300Y0018147D02*
X0097533Y0017380D01*
X0095998Y0017380D01*
X0095231Y0018147D01*
X0095231Y0020449D01*
X0093696Y0020449D02*
X0098300Y0020449D01*
X0098300Y0018147D01*
X0098300Y0015845D02*
X0095998Y0015845D01*
X0095231Y0015078D01*
X0095231Y0012776D01*
X0098300Y0012776D01*
X0097533Y0011241D02*
X0095998Y0011241D01*
X0095998Y0009706D01*
X0094463Y0008172D02*
X0097533Y0008172D01*
X0098300Y0008939D01*
X0098300Y0010474D01*
X0097533Y0011241D01*
X0094463Y0011241D02*
X0093696Y0010474D01*
X0093696Y0008939D01*
X0094463Y0008172D01*
X0088300Y0013543D02*
X0087533Y0012776D01*
X0088300Y0013543D02*
X0088300Y0015078D01*
X0087533Y0015845D01*
X0085998Y0015845D01*
X0085231Y0015078D01*
X0085231Y0014310D01*
X0085998Y0012776D01*
X0083696Y0012776D01*
X0083696Y0015845D01*
X0085231Y0017380D02*
X0088300Y0018914D01*
X0085231Y0020449D01*
X0078300Y0019681D02*
X0078300Y0018147D01*
X0077533Y0017380D01*
X0075998Y0018914D02*
X0075998Y0019681D01*
X0076765Y0020449D01*
X0077533Y0020449D01*
X0078300Y0019681D01*
X0075998Y0019681D02*
X0075231Y0020449D01*
X0074463Y0020449D01*
X0073696Y0019681D01*
X0073696Y0018147D01*
X0074463Y0017380D01*
X0075231Y0015845D02*
X0078300Y0014310D01*
X0075231Y0012776D01*
X0075231Y0011241D02*
X0075998Y0010474D01*
X0076765Y0011241D01*
X0077533Y0011241D01*
X0078300Y0010474D01*
X0078300Y0008939D01*
X0077533Y0008172D01*
X0075998Y0009706D02*
X0075998Y0010474D01*
X0075231Y0011241D02*
X0074463Y0011241D01*
X0073696Y0010474D01*
X0073696Y0008939D01*
X0074463Y0008172D01*
X0068300Y0009706D02*
X0063696Y0009706D01*
X0063696Y0012008D01*
X0064463Y0012776D01*
X0065998Y0012776D01*
X0066765Y0012008D01*
X0066765Y0009706D01*
X0066765Y0011241D02*
X0068300Y0012776D01*
X0068300Y0014310D02*
X0068300Y0016612D01*
X0067533Y0017380D01*
X0066765Y0016612D01*
X0066765Y0015078D01*
X0065998Y0014310D01*
X0065231Y0015078D01*
X0065231Y0017380D01*
X0065231Y0018914D02*
X0065231Y0020449D01*
X0064463Y0019681D02*
X0067533Y0019681D01*
X0068300Y0020449D01*
X0243696Y0019681D02*
X0243696Y0018147D01*
X0244463Y0017380D01*
X0247533Y0017380D01*
X0244463Y0020449D01*
X0247533Y0020449D01*
X0248300Y0019681D01*
X0248300Y0018147D01*
X0247533Y0017380D01*
X0244463Y0020449D02*
X0243696Y0019681D01*
X0243696Y0226983D02*
X0243696Y0230053D01*
X0243696Y0228518D02*
X0248300Y0228518D01*
X0248300Y0231587D02*
X0245231Y0234657D01*
X0245231Y0236191D02*
X0243696Y0237726D01*
X0248300Y0237726D01*
X0248300Y0236191D02*
X0248300Y0239261D01*
X0246765Y0240795D02*
X0245231Y0240795D01*
X0243696Y0242330D01*
X0245231Y0243865D02*
X0243696Y0245399D01*
X0248300Y0245399D01*
X0248300Y0243865D02*
X0248300Y0246934D01*
X0247533Y0248468D02*
X0246765Y0248468D01*
X0245998Y0249236D01*
X0245998Y0250770D01*
X0246765Y0251538D01*
X0247533Y0251538D01*
X0248300Y0250770D01*
X0248300Y0249236D01*
X0247533Y0248468D01*
X0245998Y0249236D02*
X0245231Y0248468D01*
X0244463Y0248468D01*
X0243696Y0249236D01*
X0243696Y0250770D01*
X0244463Y0251538D01*
X0245231Y0251538D01*
X0245998Y0250770D01*
X0243696Y0253072D02*
X0245231Y0254607D01*
X0246765Y0254607D01*
X0248300Y0253072D01*
X0253696Y0253072D02*
X0255231Y0254607D01*
X0256765Y0254607D01*
X0258300Y0253072D01*
X0257533Y0251538D02*
X0254463Y0251538D01*
X0253696Y0250770D01*
X0253696Y0249236D01*
X0254463Y0248468D01*
X0255231Y0248468D01*
X0255998Y0249236D01*
X0255998Y0251538D01*
X0257533Y0251538D02*
X0258300Y0250770D01*
X0258300Y0249236D01*
X0257533Y0248468D01*
X0258300Y0246934D02*
X0258300Y0243865D01*
X0258300Y0245399D02*
X0253696Y0245399D01*
X0255231Y0243865D01*
X0253696Y0242330D02*
X0255231Y0240795D01*
X0256765Y0240795D01*
X0258300Y0242330D01*
X0258300Y0239261D02*
X0258300Y0236191D01*
X0258300Y0234657D02*
X0255231Y0231587D01*
X0254463Y0230053D02*
X0255998Y0230053D01*
X0256765Y0229285D01*
X0256765Y0226983D01*
X0258300Y0226983D02*
X0253696Y0226983D01*
X0253696Y0229285D01*
X0254463Y0230053D01*
X0256765Y0228518D02*
X0258300Y0230053D01*
X0258300Y0231587D02*
X0255231Y0234657D01*
X0255231Y0236191D02*
X0253696Y0237726D01*
X0258300Y0237726D01*
X0263696Y0237726D02*
X0265231Y0236191D01*
X0268300Y0236191D01*
X0267533Y0234657D02*
X0264463Y0234657D01*
X0263696Y0233889D01*
X0263696Y0231587D01*
X0268300Y0231587D01*
X0268300Y0233889D01*
X0267533Y0234657D01*
X0265998Y0236191D02*
X0265998Y0239261D01*
X0265231Y0239261D02*
X0268300Y0239261D01*
X0266765Y0240795D02*
X0265231Y0240795D01*
X0263696Y0242330D01*
X0264463Y0243865D02*
X0263696Y0244632D01*
X0263696Y0246166D01*
X0264463Y0246934D01*
X0265231Y0246934D01*
X0268300Y0243865D01*
X0268300Y0246934D01*
X0267533Y0248468D02*
X0264463Y0248468D01*
X0263696Y0249236D01*
X0263696Y0250770D01*
X0264463Y0251538D01*
X0267533Y0248468D01*
X0268300Y0249236D01*
X0268300Y0250770D01*
X0267533Y0251538D01*
X0264463Y0251538D01*
X0263696Y0253072D02*
X0265231Y0254607D01*
X0266765Y0254607D01*
X0268300Y0253072D01*
X0273696Y0253072D02*
X0275231Y0254607D01*
X0276765Y0254607D01*
X0278300Y0253072D01*
X0278300Y0251538D02*
X0278300Y0248468D01*
X0278300Y0246934D02*
X0278300Y0243865D01*
X0275231Y0246934D01*
X0274463Y0246934D01*
X0273696Y0246166D01*
X0273696Y0244632D01*
X0274463Y0243865D01*
X0273696Y0242330D02*
X0275231Y0240795D01*
X0276765Y0240795D01*
X0278300Y0242330D01*
X0278300Y0239261D02*
X0278300Y0236191D01*
X0273696Y0236191D01*
X0274463Y0234657D02*
X0273696Y0233889D01*
X0273696Y0232355D01*
X0274463Y0231587D01*
X0277533Y0231587D01*
X0278300Y0232355D01*
X0278300Y0233889D01*
X0277533Y0234657D01*
X0277533Y0230053D02*
X0278300Y0229285D01*
X0278300Y0227751D01*
X0277533Y0226983D01*
X0275998Y0227751D02*
X0275998Y0229285D01*
X0276765Y0230053D01*
X0277533Y0230053D01*
X0275998Y0227751D02*
X0275231Y0226983D01*
X0274463Y0226983D01*
X0273696Y0227751D01*
X0273696Y0229285D01*
X0274463Y0230053D01*
X0268300Y0229285D02*
X0268300Y0227751D01*
X0267533Y0226983D01*
X0265998Y0227751D02*
X0265998Y0229285D01*
X0266765Y0230053D01*
X0267533Y0230053D01*
X0268300Y0229285D01*
X0265998Y0227751D02*
X0265231Y0226983D01*
X0264463Y0226983D01*
X0263696Y0227751D01*
X0263696Y0229285D01*
X0264463Y0230053D01*
X0263696Y0237726D02*
X0265231Y0239261D01*
X0266765Y0240795D02*
X0268300Y0242330D01*
X0275231Y0248468D02*
X0273696Y0250003D01*
X0278300Y0250003D01*
X0248300Y0242330D02*
X0246765Y0240795D01*
X0248300Y0234657D02*
X0245231Y0231587D01*
X0238300Y0231587D02*
X0235231Y0234657D01*
X0234463Y0236191D02*
X0233696Y0236959D01*
X0233696Y0238493D01*
X0234463Y0239261D01*
X0235231Y0239261D01*
X0238300Y0236191D01*
X0238300Y0239261D01*
X0236765Y0240795D02*
X0235231Y0240795D01*
X0233696Y0242330D01*
X0235231Y0243865D02*
X0233696Y0245399D01*
X0238300Y0245399D01*
X0238300Y0243865D02*
X0238300Y0246934D01*
X0238300Y0248468D02*
X0237533Y0248468D01*
X0234463Y0251538D01*
X0233696Y0251538D01*
X0233696Y0248468D01*
X0233696Y0253072D02*
X0235231Y0254607D01*
X0236765Y0254607D01*
X0238300Y0253072D01*
X0228300Y0253072D02*
X0226765Y0254607D01*
X0225231Y0254607D01*
X0223696Y0253072D01*
X0223696Y0251538D02*
X0224463Y0250003D01*
X0225998Y0248468D01*
X0225998Y0250770D01*
X0226765Y0251538D01*
X0227533Y0251538D01*
X0228300Y0250770D01*
X0228300Y0249236D01*
X0227533Y0248468D01*
X0225998Y0248468D01*
X0228300Y0246934D02*
X0228300Y0243865D01*
X0228300Y0245399D02*
X0223696Y0245399D01*
X0225231Y0243865D01*
X0223696Y0242330D02*
X0225231Y0240795D01*
X0226765Y0240795D01*
X0228300Y0242330D01*
X0228300Y0239261D02*
X0228300Y0236191D01*
X0225231Y0239261D01*
X0224463Y0239261D01*
X0223696Y0238493D01*
X0223696Y0236959D01*
X0224463Y0236191D01*
X0225231Y0234657D02*
X0228300Y0231587D01*
X0228300Y0228518D02*
X0223696Y0228518D01*
X0223696Y0226983D02*
X0223696Y0230053D01*
X0225231Y0231587D02*
X0228300Y0234657D01*
X0235231Y0231587D02*
X0238300Y0234657D01*
X0238300Y0230053D02*
X0236765Y0228518D01*
X0236765Y0229285D02*
X0236765Y0226983D01*
X0238300Y0226983D02*
X0233696Y0226983D01*
X0233696Y0229285D01*
X0234463Y0230053D01*
X0235998Y0230053D01*
X0236765Y0229285D01*
X0236765Y0240795D02*
X0238300Y0242330D01*
X0218300Y0242330D02*
X0216765Y0240795D01*
X0215231Y0240795D01*
X0213696Y0242330D01*
X0215231Y0243865D02*
X0213696Y0245399D01*
X0218300Y0245399D01*
X0218300Y0243865D02*
X0218300Y0246934D01*
X0217533Y0248468D02*
X0218300Y0249236D01*
X0218300Y0250770D01*
X0217533Y0251538D01*
X0215998Y0251538D01*
X0215231Y0250770D01*
X0215231Y0250003D01*
X0215998Y0248468D01*
X0213696Y0248468D01*
X0213696Y0251538D01*
X0213696Y0253072D02*
X0215231Y0254607D01*
X0216765Y0254607D01*
X0218300Y0253072D01*
X0208300Y0253072D02*
X0206765Y0254607D01*
X0205231Y0254607D01*
X0203696Y0253072D01*
X0203696Y0250770D02*
X0205998Y0248468D01*
X0205998Y0251538D01*
X0208300Y0250770D02*
X0203696Y0250770D01*
X0203696Y0245399D02*
X0208300Y0245399D01*
X0208300Y0243865D02*
X0208300Y0246934D01*
X0205231Y0243865D02*
X0203696Y0245399D01*
X0203696Y0242330D02*
X0205231Y0240795D01*
X0206765Y0240795D01*
X0208300Y0242330D01*
X0207533Y0239261D02*
X0208300Y0238493D01*
X0208300Y0236959D01*
X0207533Y0236191D01*
X0208300Y0234657D02*
X0205231Y0231587D01*
X0203696Y0230053D02*
X0203696Y0226983D01*
X0203696Y0228518D02*
X0208300Y0228518D01*
X0208300Y0231587D02*
X0205231Y0234657D01*
X0204463Y0236191D02*
X0203696Y0236959D01*
X0203696Y0238493D01*
X0204463Y0239261D01*
X0205231Y0239261D01*
X0205998Y0238493D01*
X0206765Y0239261D01*
X0207533Y0239261D01*
X0205998Y0238493D02*
X0205998Y0237726D01*
X0213696Y0236959D02*
X0214463Y0236191D01*
X0213696Y0236959D02*
X0213696Y0238493D01*
X0214463Y0239261D01*
X0215231Y0239261D01*
X0215998Y0238493D01*
X0216765Y0239261D01*
X0217533Y0239261D01*
X0218300Y0238493D01*
X0218300Y0236959D01*
X0217533Y0236191D01*
X0218300Y0234657D02*
X0215231Y0231587D01*
X0215998Y0230053D02*
X0216765Y0229285D01*
X0216765Y0226983D01*
X0218300Y0226983D02*
X0213696Y0226983D01*
X0213696Y0229285D01*
X0214463Y0230053D01*
X0215998Y0230053D01*
X0216765Y0228518D02*
X0218300Y0230053D01*
X0218300Y0231587D02*
X0215231Y0234657D01*
X0215998Y0237726D02*
X0215998Y0238493D01*
X0188300Y0238493D02*
X0188300Y0236959D01*
X0187533Y0236191D01*
X0184463Y0239261D01*
X0187533Y0239261D01*
X0188300Y0238493D01*
X0187533Y0236191D02*
X0184463Y0236191D01*
X0183696Y0236959D01*
X0183696Y0238493D01*
X0184463Y0239261D01*
X0185231Y0234657D02*
X0188300Y0231587D01*
X0188300Y0230053D02*
X0186765Y0228518D01*
X0186765Y0229285D02*
X0186765Y0226983D01*
X0188300Y0226983D02*
X0183696Y0226983D01*
X0183696Y0229285D01*
X0184463Y0230053D01*
X0185998Y0230053D01*
X0186765Y0229285D01*
X0185231Y0231587D02*
X0188300Y0234657D01*
X0178300Y0234657D02*
X0175231Y0231587D01*
X0173696Y0230053D02*
X0173696Y0226983D01*
X0173696Y0228518D02*
X0178300Y0228518D01*
X0178300Y0231587D02*
X0175231Y0234657D01*
X0174463Y0236191D02*
X0177533Y0236191D01*
X0174463Y0239261D01*
X0177533Y0239261D01*
X0178300Y0238493D01*
X0178300Y0236959D01*
X0177533Y0236191D01*
X0174463Y0236191D02*
X0173696Y0236959D01*
X0173696Y0238493D01*
X0174463Y0239261D01*
X0168300Y0230053D02*
X0168300Y0226983D01*
X0165231Y0230053D01*
X0164463Y0230053D01*
X0163696Y0229285D01*
X0163696Y0227751D01*
X0164463Y0226983D01*
X0158300Y0227751D02*
X0157533Y0226983D01*
X0158300Y0227751D02*
X0158300Y0229285D01*
X0157533Y0230053D01*
X0156765Y0230053D01*
X0155998Y0229285D01*
X0155998Y0228518D01*
X0155998Y0229285D02*
X0155231Y0230053D01*
X0154463Y0230053D01*
X0153696Y0229285D01*
X0153696Y0227751D01*
X0154463Y0226983D01*
X0148300Y0229285D02*
X0143696Y0229285D01*
X0145998Y0226983D01*
X0145998Y0230053D01*
X0138300Y0229285D02*
X0138300Y0227751D01*
X0137533Y0226983D01*
X0135998Y0226983D02*
X0135231Y0228518D01*
X0135231Y0229285D01*
X0135998Y0230053D01*
X0137533Y0230053D01*
X0138300Y0229285D01*
X0135998Y0226983D02*
X0133696Y0226983D01*
X0133696Y0230053D01*
X0128300Y0229285D02*
X0128300Y0227751D01*
X0127533Y0226983D01*
X0125998Y0226983D01*
X0125998Y0229285D01*
X0126765Y0230053D01*
X0127533Y0230053D01*
X0128300Y0229285D01*
X0125998Y0226983D02*
X0124463Y0228518D01*
X0123696Y0230053D01*
X0118300Y0226983D02*
X0117533Y0226983D01*
X0114463Y0230053D01*
X0113696Y0230053D01*
X0113696Y0226983D01*
X0103300Y0227751D02*
X0102533Y0226983D01*
X0101765Y0226983D01*
X0100998Y0227751D01*
X0100998Y0229285D01*
X0101765Y0230053D01*
X0102533Y0230053D01*
X0103300Y0229285D01*
X0103300Y0227751D01*
X0100998Y0227751D02*
X0100231Y0226983D01*
X0099463Y0226983D01*
X0098696Y0227751D01*
X0098696Y0229285D01*
X0099463Y0230053D01*
X0100231Y0230053D01*
X0100998Y0229285D01*
X0093300Y0229285D02*
X0093300Y0227751D01*
X0092533Y0226983D01*
X0090998Y0227751D02*
X0090998Y0230053D01*
X0089463Y0230053D02*
X0088696Y0229285D01*
X0088696Y0227751D01*
X0089463Y0226983D01*
X0090231Y0226983D01*
X0090998Y0227751D01*
X0092533Y0230053D02*
X0089463Y0230053D01*
X0092533Y0230053D02*
X0093300Y0229285D01*
X0083300Y0228518D02*
X0078696Y0228518D01*
X0080231Y0226983D01*
X0083300Y0226983D02*
X0083300Y0230053D01*
X0082533Y0231587D02*
X0079463Y0231587D01*
X0078696Y0232355D01*
X0078696Y0233889D01*
X0079463Y0234657D01*
X0082533Y0231587D01*
X0083300Y0232355D01*
X0083300Y0233889D01*
X0082533Y0234657D01*
X0079463Y0234657D01*
X0073300Y0234657D02*
X0073300Y0231587D01*
X0073300Y0230053D02*
X0073300Y0226983D01*
X0073300Y0228518D02*
X0068696Y0228518D01*
X0070231Y0226983D01*
X0070231Y0231587D02*
X0068696Y0233122D01*
X0073300Y0233122D01*
X0063300Y0231587D02*
X0060231Y0234657D01*
X0059463Y0234657D01*
X0058696Y0233889D01*
X0058696Y0232355D01*
X0059463Y0231587D01*
X0058696Y0228518D02*
X0063300Y0228518D01*
X0063300Y0226983D02*
X0063300Y0230053D01*
X0063300Y0231587D02*
X0063300Y0234657D01*
X0058696Y0228518D02*
X0060231Y0226983D01*
X0053300Y0226983D02*
X0053300Y0230053D01*
X0053300Y0228518D02*
X0048696Y0228518D01*
X0050231Y0226983D01*
X0049463Y0231587D02*
X0048696Y0232355D01*
X0048696Y0233889D01*
X0049463Y0234657D01*
X0050231Y0234657D01*
X0050998Y0233889D01*
X0051765Y0234657D01*
X0052533Y0234657D01*
X0053300Y0233889D01*
X0053300Y0232355D01*
X0052533Y0231587D01*
X0050998Y0233122D02*
X0050998Y0233889D01*
X0043300Y0234657D02*
X0040998Y0234657D01*
X0040231Y0233889D01*
X0040231Y0231587D01*
X0043300Y0231587D01*
X0042533Y0230053D02*
X0040998Y0230053D01*
X0040998Y0228518D01*
X0039463Y0226983D02*
X0042533Y0226983D01*
X0043300Y0227751D01*
X0043300Y0229285D01*
X0042533Y0230053D01*
X0039463Y0230053D02*
X0038696Y0229285D01*
X0038696Y0227751D01*
X0039463Y0226983D01*
X0033300Y0226983D02*
X0030231Y0226983D01*
X0028696Y0228518D01*
X0030231Y0230053D01*
X0033300Y0230053D01*
X0033300Y0231587D02*
X0030231Y0231587D01*
X0031765Y0231587D02*
X0030231Y0233122D01*
X0030231Y0233889D01*
X0030998Y0235424D02*
X0030231Y0236191D01*
X0030231Y0237726D01*
X0030998Y0238493D01*
X0031765Y0238493D01*
X0031765Y0235424D01*
X0030998Y0235424D02*
X0032533Y0235424D01*
X0033300Y0236191D01*
X0033300Y0237726D01*
X0033300Y0240795D02*
X0029463Y0240795D01*
X0028696Y0241563D01*
X0030998Y0241563D02*
X0030998Y0240028D01*
X0038696Y0239261D02*
X0043300Y0239261D01*
X0043300Y0236959D01*
X0042533Y0236191D01*
X0040998Y0236191D01*
X0040231Y0236959D01*
X0040231Y0239261D01*
X0030998Y0230053D02*
X0030998Y0226983D01*
D15*
X0031000Y0219283D03*
X0041000Y0219283D03*
X0051000Y0219283D03*
X0061000Y0219283D03*
X0071000Y0219283D03*
X0081000Y0219283D03*
X0091000Y0219283D03*
X0101000Y0219283D03*
X0116000Y0219283D03*
X0126000Y0219283D03*
X0136000Y0219283D03*
X0146000Y0219283D03*
X0156000Y0219283D03*
X0166000Y0219283D03*
X0176000Y0219283D03*
X0186000Y0219283D03*
X0206000Y0219283D03*
X0216000Y0219283D03*
X0226000Y0219283D03*
X0226000Y0219283D03*
X0236000Y0219283D03*
X0246000Y0219283D03*
X0256000Y0219283D03*
X0266000Y0219283D03*
X0276000Y0219283D03*
X0306000Y0219283D03*
X0306000Y0209283D03*
X0316000Y0209283D03*
X0316000Y0219283D03*
X0316000Y0199283D03*
X0306000Y0199283D03*
X0306000Y0189283D03*
X0306000Y0179283D03*
X0316000Y0179283D03*
X0316000Y0189283D03*
X0316000Y0169283D03*
X0306000Y0169283D03*
X0306000Y0159283D03*
X0306000Y0149283D03*
X0316000Y0149283D03*
X0316000Y0159283D03*
X0316000Y0139283D03*
X0306000Y0139283D03*
X0306000Y0129283D03*
X0306000Y0119283D03*
X0316000Y0119283D03*
X0316000Y0129283D03*
X0316000Y0109283D03*
X0316000Y0099283D03*
X0306000Y0099283D03*
X0306000Y0109283D03*
X0306000Y0089283D03*
X0316000Y0089283D03*
X0316000Y0079283D03*
X0316000Y0069283D03*
X0306000Y0069283D03*
X0306000Y0079283D03*
X0306000Y0059283D03*
X0316000Y0059283D03*
X0316000Y0049283D03*
X0306000Y0049283D03*
X0296000Y0029283D03*
X0286000Y0029283D03*
X0276000Y0029283D03*
X0266000Y0029283D03*
X0256000Y0029283D03*
X0246000Y0029283D03*
X0236000Y0029283D03*
X0226000Y0029283D03*
X0206000Y0029283D03*
X0196000Y0029283D03*
X0186000Y0029283D03*
X0176000Y0029283D03*
X0166000Y0029283D03*
X0156000Y0029283D03*
X0146000Y0029283D03*
X0136000Y0029283D03*
X0116000Y0029283D03*
X0106000Y0029283D03*
X0096000Y0029283D03*
X0086000Y0029283D03*
X0076000Y0029283D03*
X0066000Y0029283D03*
X0056000Y0029283D03*
X0046000Y0029283D03*
X0186000Y0119283D03*
X0196000Y0119283D03*
X0196000Y0129283D03*
X0186000Y0129283D03*
X0186000Y0139283D03*
X0196000Y0139283D03*
X0066000Y0194283D03*
X0056000Y0194283D03*
X0046000Y0194283D03*
X0036000Y0194283D03*
X0021000Y0219283D03*
X0011000Y0219283D03*
D16*
X0010214Y0226933D02*
X0010998Y0227717D01*
X0010998Y0229285D01*
X0011782Y0230070D01*
X0012566Y0230070D01*
X0013350Y0229285D01*
X0013350Y0227717D01*
X0012566Y0226933D01*
X0010214Y0226933D02*
X0009430Y0226933D01*
X0008646Y0227717D01*
X0008646Y0229285D01*
X0009430Y0230070D01*
X0009430Y0231537D02*
X0012566Y0231537D01*
X0013350Y0232321D01*
X0013350Y0233889D01*
X0012566Y0234673D01*
X0013350Y0236141D02*
X0013350Y0239277D01*
X0013350Y0240745D02*
X0013350Y0243881D01*
X0013350Y0242313D02*
X0008646Y0242313D01*
X0010214Y0240745D01*
X0008646Y0236141D02*
X0013350Y0236141D01*
X0009430Y0234673D02*
X0008646Y0233889D01*
X0008646Y0232321D01*
X0009430Y0231537D01*
X0018646Y0231537D02*
X0018646Y0233889D01*
X0019430Y0234673D01*
X0022566Y0234673D01*
X0023350Y0233889D01*
X0023350Y0231537D01*
X0018646Y0231537D01*
X0019430Y0230070D02*
X0018646Y0229285D01*
X0018646Y0227717D01*
X0019430Y0226933D01*
X0020214Y0226933D01*
X0020998Y0227717D01*
X0020998Y0229285D01*
X0021782Y0230070D01*
X0022566Y0230070D01*
X0023350Y0229285D01*
X0023350Y0227717D01*
X0022566Y0226933D01*
X0023350Y0236141D02*
X0020214Y0236141D01*
X0018646Y0237709D01*
X0020214Y0239277D01*
X0023350Y0239277D01*
X0023350Y0240745D02*
X0023350Y0243881D01*
X0023350Y0242313D02*
X0018646Y0242313D01*
X0020214Y0240745D01*
X0020998Y0239277D02*
X0020998Y0236141D01*
X0033646Y0185466D02*
X0033646Y0182330D01*
X0033646Y0180862D02*
X0033646Y0177726D01*
X0038350Y0177726D01*
X0038350Y0180862D01*
X0035998Y0179294D02*
X0035998Y0177726D01*
X0036782Y0176258D02*
X0037566Y0176258D01*
X0038350Y0175474D01*
X0038350Y0173906D01*
X0037566Y0173122D01*
X0038350Y0171654D02*
X0038350Y0168518D01*
X0033646Y0168518D01*
X0033646Y0171654D01*
X0034430Y0173122D02*
X0033646Y0173906D01*
X0033646Y0175474D01*
X0034430Y0176258D01*
X0035998Y0175474D02*
X0036782Y0176258D01*
X0035998Y0175474D02*
X0035998Y0173906D01*
X0035214Y0173122D01*
X0034430Y0173122D01*
X0035998Y0170086D02*
X0035998Y0168518D01*
X0035998Y0167050D02*
X0036782Y0166266D01*
X0036782Y0163914D01*
X0036782Y0165482D02*
X0038350Y0167050D01*
X0035998Y0167050D02*
X0034430Y0167050D01*
X0033646Y0166266D01*
X0033646Y0163914D01*
X0038350Y0163914D01*
X0043646Y0166232D02*
X0044430Y0165448D01*
X0045214Y0165448D01*
X0045998Y0166232D01*
X0045998Y0167800D01*
X0046782Y0168584D01*
X0047566Y0168584D01*
X0048350Y0167800D01*
X0048350Y0166232D01*
X0047566Y0165448D01*
X0043646Y0166232D02*
X0043646Y0167800D01*
X0044430Y0168584D01*
X0043646Y0170052D02*
X0048350Y0170052D01*
X0046782Y0171620D01*
X0048350Y0173188D01*
X0043646Y0173188D01*
X0043646Y0174656D02*
X0043646Y0177008D01*
X0044430Y0177792D01*
X0047566Y0177792D01*
X0048350Y0177008D01*
X0048350Y0174656D01*
X0043646Y0174656D01*
X0043646Y0179260D02*
X0043646Y0180828D01*
X0043646Y0180044D02*
X0048350Y0180044D01*
X0048350Y0179260D02*
X0048350Y0180828D01*
X0047566Y0182330D02*
X0044430Y0182330D01*
X0043646Y0183114D01*
X0043646Y0184682D01*
X0044430Y0185466D01*
X0047566Y0185466D01*
X0048350Y0184682D01*
X0048350Y0183114D01*
X0047566Y0182330D01*
X0053646Y0182330D02*
X0058350Y0182330D01*
X0058350Y0180862D02*
X0058350Y0177726D01*
X0053646Y0177726D01*
X0054430Y0176258D02*
X0053646Y0175474D01*
X0053646Y0173906D01*
X0054430Y0173122D01*
X0057566Y0173122D01*
X0058350Y0173906D01*
X0058350Y0175474D01*
X0057566Y0176258D01*
X0063646Y0175474D02*
X0063646Y0173906D01*
X0064430Y0173122D01*
X0067566Y0173122D01*
X0068350Y0173906D01*
X0068350Y0175474D01*
X0067566Y0176258D01*
X0065998Y0176258D01*
X0065998Y0174690D01*
X0064430Y0176258D02*
X0063646Y0175474D01*
X0063646Y0177726D02*
X0068350Y0180862D01*
X0063646Y0180862D01*
X0063646Y0182330D02*
X0063646Y0184682D01*
X0064430Y0185466D01*
X0067566Y0185466D01*
X0068350Y0184682D01*
X0068350Y0182330D01*
X0063646Y0182330D01*
X0058350Y0185466D02*
X0055998Y0183114D01*
X0056782Y0182330D02*
X0053646Y0185466D01*
X0063646Y0177726D02*
X0068350Y0177726D01*
X0058350Y0171654D02*
X0053646Y0171654D01*
X0053646Y0168518D02*
X0058350Y0168518D01*
X0056782Y0170086D01*
X0058350Y0171654D01*
X0057566Y0167050D02*
X0056782Y0167050D01*
X0055998Y0166266D01*
X0055998Y0164698D01*
X0055214Y0163914D01*
X0054430Y0163914D01*
X0053646Y0164698D01*
X0053646Y0166266D01*
X0054430Y0167050D01*
X0057566Y0167050D02*
X0058350Y0166266D01*
X0058350Y0164698D01*
X0057566Y0163914D01*
X0038350Y0183898D02*
X0033646Y0183898D01*
X0155630Y0121637D02*
X0155630Y0116933D01*
X0155630Y0118501D02*
X0157982Y0118501D01*
X0158766Y0119285D01*
X0158766Y0120853D01*
X0157982Y0121637D01*
X0155630Y0121637D01*
X0157198Y0118501D02*
X0158766Y0116933D01*
X0160234Y0116933D02*
X0163370Y0116933D01*
X0164838Y0117717D02*
X0165622Y0116933D01*
X0167190Y0116933D01*
X0167974Y0117717D01*
X0167974Y0118501D01*
X0167190Y0119285D01*
X0165622Y0119285D01*
X0164838Y0120070D01*
X0164838Y0120853D01*
X0165622Y0121637D01*
X0167190Y0121637D01*
X0167974Y0120853D01*
X0169442Y0121637D02*
X0169442Y0116933D01*
X0172578Y0116933D01*
X0171010Y0119285D02*
X0169442Y0119285D01*
X0169442Y0121637D02*
X0172578Y0121637D01*
X0174046Y0121637D02*
X0177182Y0121637D01*
X0175614Y0121637D02*
X0175614Y0116933D01*
X0174046Y0126933D02*
X0174046Y0131638D01*
X0172578Y0130853D02*
X0171794Y0131638D01*
X0170226Y0131638D01*
X0169442Y0130853D01*
X0169442Y0127717D01*
X0170226Y0126933D01*
X0171794Y0126933D01*
X0172578Y0127717D01*
X0174046Y0128501D02*
X0177182Y0131638D01*
X0174830Y0129285D02*
X0177182Y0126933D01*
X0167974Y0127717D02*
X0167190Y0126933D01*
X0165622Y0126933D01*
X0164838Y0127717D01*
X0165622Y0129285D02*
X0167190Y0129285D01*
X0167974Y0128501D01*
X0167974Y0127717D01*
X0165622Y0129285D02*
X0164838Y0130070D01*
X0164838Y0130853D01*
X0165622Y0131638D01*
X0167190Y0131638D01*
X0167974Y0130853D01*
X0167941Y0136933D02*
X0166373Y0136933D01*
X0167157Y0136933D02*
X0167157Y0141638D01*
X0166373Y0141638D02*
X0167941Y0141638D01*
X0169442Y0140853D02*
X0169442Y0140070D01*
X0170226Y0139285D01*
X0171794Y0139285D01*
X0172578Y0138501D01*
X0172578Y0137717D01*
X0171794Y0136933D01*
X0170226Y0136933D01*
X0169442Y0137717D01*
X0169442Y0140853D02*
X0170226Y0141638D01*
X0171794Y0141638D01*
X0172578Y0140853D01*
X0174046Y0140853D02*
X0174046Y0137717D01*
X0174830Y0136933D01*
X0176398Y0136933D01*
X0177182Y0137717D01*
X0177182Y0140853D01*
X0176398Y0141638D01*
X0174830Y0141638D01*
X0174046Y0140853D01*
X0164905Y0141638D02*
X0164905Y0136933D01*
X0161769Y0136933D02*
X0161769Y0141638D01*
X0163337Y0140070D01*
X0164905Y0141638D01*
X0163370Y0121637D02*
X0160234Y0121637D01*
X0160234Y0116933D01*
X0160234Y0119285D02*
X0161802Y0119285D01*
X0203650Y0117717D02*
X0204434Y0116933D01*
X0206002Y0116933D01*
X0206786Y0117717D01*
X0206786Y0119285D01*
X0205218Y0119285D01*
X0203650Y0120853D02*
X0203650Y0117717D01*
X0203650Y0120853D02*
X0204434Y0121637D01*
X0206002Y0121637D01*
X0206786Y0120853D01*
X0208254Y0121637D02*
X0208254Y0116933D01*
X0211390Y0116933D02*
X0211390Y0121637D01*
X0212858Y0121637D02*
X0215210Y0121637D01*
X0215994Y0120853D01*
X0215994Y0117717D01*
X0215210Y0116933D01*
X0212858Y0116933D01*
X0212858Y0121637D01*
X0208254Y0121637D02*
X0211390Y0116933D01*
X0210606Y0126933D02*
X0209038Y0126933D01*
X0208254Y0127717D01*
X0208254Y0130853D01*
X0209038Y0131638D01*
X0210606Y0131638D01*
X0211390Y0130853D01*
X0211390Y0127717D01*
X0210606Y0126933D01*
X0212858Y0127717D02*
X0213642Y0126933D01*
X0215210Y0126933D01*
X0215994Y0127717D01*
X0215994Y0128501D01*
X0215210Y0129285D01*
X0213642Y0129285D01*
X0212858Y0130070D01*
X0212858Y0130853D01*
X0213642Y0131638D01*
X0215210Y0131638D01*
X0215994Y0130853D01*
X0217462Y0131638D02*
X0219030Y0131638D01*
X0218246Y0131638D02*
X0218246Y0126933D01*
X0217462Y0126933D02*
X0219030Y0126933D01*
X0206786Y0126933D02*
X0206786Y0131638D01*
X0205218Y0130070D01*
X0203650Y0131638D01*
X0203650Y0126933D01*
X0204434Y0136933D02*
X0203650Y0137717D01*
X0204434Y0136933D02*
X0206002Y0136933D01*
X0206786Y0137717D01*
X0206786Y0139285D01*
X0206002Y0140070D01*
X0205218Y0140070D01*
X0203650Y0139285D01*
X0203650Y0141638D01*
X0206786Y0141638D01*
X0208254Y0141638D02*
X0208254Y0138501D01*
X0209822Y0136933D01*
X0211390Y0138501D01*
X0211390Y0141638D01*
X0058350Y0019648D02*
X0054430Y0019648D01*
X0053646Y0020432D01*
X0055998Y0020432D02*
X0055998Y0018864D01*
X0055998Y0017396D02*
X0056782Y0017396D01*
X0056782Y0014260D01*
X0055998Y0014260D02*
X0055214Y0015044D01*
X0055214Y0016612D01*
X0055998Y0017396D01*
X0058350Y0016612D02*
X0058350Y0015044D01*
X0057566Y0014260D01*
X0055998Y0014260D01*
X0055214Y0012776D02*
X0055214Y0011992D01*
X0056782Y0010424D01*
X0058350Y0010424D02*
X0055214Y0010424D01*
X0054430Y0008956D02*
X0053646Y0008172D01*
X0053646Y0006604D01*
X0054430Y0005820D01*
X0057566Y0005820D01*
X0058350Y0006604D01*
X0058350Y0008172D01*
X0057566Y0008956D01*
X0054430Y0008956D01*
X0053646Y0004318D02*
X0053646Y0002750D01*
X0053646Y0003534D02*
X0058350Y0003534D01*
X0058350Y0002750D02*
X0058350Y0004318D01*
D17*
X0094946Y0043783D02*
X0094946Y0045585D01*
X0095847Y0045585D01*
X0096147Y0045284D01*
X0096147Y0044684D01*
X0095847Y0044383D01*
X0094946Y0044383D01*
X0096788Y0044383D02*
X0096788Y0045585D01*
X0097388Y0045585D02*
X0097689Y0045585D01*
X0097388Y0045585D02*
X0096788Y0044984D01*
X0098322Y0044684D02*
X0098623Y0044383D01*
X0099223Y0044383D01*
X0099523Y0044684D01*
X0099523Y0045284D01*
X0099223Y0045585D01*
X0098623Y0045585D01*
X0098322Y0045284D01*
X0098322Y0044684D01*
X0100164Y0043783D02*
X0100464Y0043783D01*
X0100764Y0044083D01*
X0100764Y0045585D01*
X0100764Y0046185D02*
X0100764Y0046485D01*
X0101692Y0045585D02*
X0102292Y0045585D01*
X0102593Y0045284D01*
X0102593Y0044984D01*
X0101392Y0044984D01*
X0101392Y0045284D02*
X0101692Y0045585D01*
X0101392Y0045284D02*
X0101392Y0044684D01*
X0101692Y0044383D01*
X0102292Y0044383D01*
X0103233Y0044684D02*
X0103533Y0044383D01*
X0104434Y0044383D01*
X0105375Y0044684D02*
X0105675Y0044383D01*
X0105375Y0044684D02*
X0105375Y0045885D01*
X0105075Y0045585D02*
X0105675Y0045585D01*
X0104434Y0045585D02*
X0103533Y0045585D01*
X0103233Y0045284D01*
X0103233Y0044684D01*
X0092464Y0044984D02*
X0091263Y0044984D01*
X0091263Y0045284D02*
X0091563Y0045585D01*
X0092164Y0045585D01*
X0092464Y0045284D01*
X0092464Y0044984D01*
X0092164Y0044383D02*
X0091563Y0044383D01*
X0091263Y0044684D01*
X0091263Y0045284D01*
X0090636Y0044383D02*
X0090035Y0044383D01*
X0090336Y0044383D02*
X0090336Y0046185D01*
X0090035Y0046185D01*
X0089395Y0045585D02*
X0088494Y0045585D01*
X0088194Y0045284D01*
X0088194Y0044684D01*
X0088494Y0044383D01*
X0089395Y0044383D01*
X0087567Y0044383D02*
X0086966Y0044383D01*
X0087266Y0044383D02*
X0087266Y0045585D01*
X0086966Y0045585D01*
X0087266Y0046185D02*
X0087266Y0046485D01*
X0086326Y0045284D02*
X0086326Y0044383D01*
X0086326Y0045284D02*
X0086025Y0045585D01*
X0085425Y0045585D01*
X0085124Y0045284D01*
X0084484Y0045284D02*
X0084484Y0044984D01*
X0083283Y0044984D01*
X0083283Y0045284D02*
X0083583Y0045585D01*
X0084184Y0045585D01*
X0084484Y0045284D01*
X0084184Y0044383D02*
X0083583Y0044383D01*
X0083283Y0044684D01*
X0083283Y0045284D01*
X0082642Y0045585D02*
X0082042Y0044383D01*
X0081441Y0045585D01*
X0078959Y0045585D02*
X0078058Y0045585D01*
X0077758Y0045284D01*
X0077758Y0044684D01*
X0078058Y0044383D01*
X0078959Y0044383D01*
X0077131Y0044383D02*
X0076530Y0044383D01*
X0076831Y0044383D02*
X0076831Y0045585D01*
X0076530Y0045585D01*
X0075903Y0045585D02*
X0075303Y0045585D01*
X0075603Y0045885D02*
X0075603Y0044684D01*
X0075903Y0044383D01*
X0074662Y0044684D02*
X0074662Y0045284D01*
X0074362Y0045585D01*
X0073761Y0045585D01*
X0073461Y0045284D01*
X0073461Y0044684D01*
X0073761Y0044383D01*
X0074362Y0044383D01*
X0074662Y0044684D01*
X0072821Y0044684D02*
X0072821Y0045284D01*
X0072520Y0045585D01*
X0071620Y0045585D01*
X0071620Y0046185D02*
X0071620Y0044383D01*
X0072520Y0044383D01*
X0072821Y0044684D01*
X0070979Y0044684D02*
X0070979Y0045284D01*
X0070679Y0045585D01*
X0070078Y0045585D01*
X0069778Y0045284D01*
X0069778Y0044684D01*
X0070078Y0044383D01*
X0070679Y0044383D01*
X0070979Y0044684D01*
X0069144Y0045585D02*
X0068844Y0045585D01*
X0068243Y0044984D01*
X0068243Y0044383D02*
X0068243Y0045585D01*
X0065761Y0045585D02*
X0064861Y0045585D01*
X0064560Y0045284D01*
X0064861Y0044984D01*
X0065461Y0044984D01*
X0065761Y0044684D01*
X0065461Y0044383D01*
X0064560Y0044383D01*
X0063920Y0044383D02*
X0063920Y0045585D01*
X0062719Y0045585D02*
X0062719Y0044684D01*
X0063019Y0044383D01*
X0063920Y0044383D01*
X0062078Y0044684D02*
X0062078Y0045284D01*
X0061778Y0045585D01*
X0061177Y0045585D01*
X0060877Y0045284D01*
X0060877Y0044684D01*
X0061177Y0044383D01*
X0061778Y0044383D01*
X0062078Y0044684D01*
X0060237Y0044383D02*
X0060237Y0045284D01*
X0059936Y0045585D01*
X0059636Y0045284D01*
X0059636Y0044383D01*
X0059036Y0044383D02*
X0059036Y0045585D01*
X0059336Y0045585D01*
X0059636Y0045284D01*
X0058395Y0045284D02*
X0058095Y0045585D01*
X0057494Y0045585D01*
X0057194Y0045284D01*
X0057194Y0044684D01*
X0057494Y0044383D01*
X0058095Y0044383D01*
X0058395Y0044684D01*
X0058395Y0045284D01*
X0056553Y0045284D02*
X0056553Y0044383D01*
X0056553Y0045284D02*
X0056253Y0045585D01*
X0055352Y0045585D01*
X0055352Y0044383D01*
X0054712Y0044684D02*
X0054712Y0045284D01*
X0054412Y0045585D01*
X0053811Y0045585D01*
X0053511Y0045284D01*
X0053511Y0044684D01*
X0053811Y0044383D01*
X0054412Y0044383D01*
X0054712Y0044684D01*
X0052884Y0044383D02*
X0052583Y0044684D01*
X0052583Y0045885D01*
X0052283Y0045585D02*
X0052884Y0045585D01*
X0051643Y0045585D02*
X0051643Y0044383D01*
X0050742Y0044383D01*
X0050442Y0044684D01*
X0050442Y0045585D01*
X0049801Y0045284D02*
X0049801Y0044383D01*
X0048900Y0044383D01*
X0048600Y0044684D01*
X0048900Y0044984D01*
X0049801Y0044984D01*
X0049801Y0045284D02*
X0049501Y0045585D01*
X0048900Y0045585D01*
X0049200Y0047983D02*
X0048000Y0048883D01*
X0048500Y0049083D01*
X0048200Y0049783D01*
X0049000Y0049583D01*
X0049100Y0050083D01*
X0049900Y0049383D01*
X0049500Y0050983D01*
X0050200Y0050683D01*
X0050700Y0051783D01*
X0051200Y0050683D01*
X0051800Y0050983D01*
X0051400Y0049383D01*
X0076831Y0046485D02*
X0076831Y0046185D01*
X0085124Y0046185D02*
X0085124Y0044383D01*
M02*
