%
M48
M72
T02C0.0280
T03C0.0350
T04C0.0380
T05C0.0420
%
T02
X18600Y11928
X19600Y11928
X19600Y12928
X18600Y12928
X18600Y13928
X19600Y13928
T03
X4600Y2928
X5600Y2928
X5600Y19428
X4600Y19428
X3600Y19428
X6600Y19428
X35100Y18928
X36100Y18928
X36100Y17928
X35100Y17928
X35100Y16928
X36100Y16928
X36100Y15928
X35100Y15928
X35100Y14928
X36100Y14928
X36100Y13928
X35100Y13928
X35100Y12928
X36100Y12928
X36100Y11928
X35100Y11928
X35100Y10928
X36100Y10928
X36100Y9928
X35100Y9928
X35100Y8928
X36100Y8928
X36100Y7928
X35100Y7928
X35100Y6928
X36100Y6928
X36100Y5928
X35100Y5928
X35100Y4928
X36100Y4928
X36100Y3928
X35100Y3928
X35100Y19928
X36100Y19928
X36100Y20928
X35100Y20928
X35100Y21928
X36100Y21928
X36100Y22928
X35100Y22928
T04
X31600Y21928
X31600Y20928
X30600Y20928
X30600Y21928
X30600Y19928
X31600Y19928
X31600Y18928
X31600Y17928
X30600Y17928
X30600Y18928
X30600Y16928
X31600Y16928
X31600Y15928
X31600Y14928
X30600Y14928
X30600Y15928
X30600Y13928
X31600Y13928
X31600Y12928
X31600Y11928
X30600Y11928
X30600Y12928
X30600Y10928
X30600Y9928
X31600Y9928
X31600Y10928
X31600Y8928
X30600Y8928
X30600Y7928
X30600Y6928
X31600Y6928
X31600Y7928
X31600Y5928
X30600Y5928
X30600Y4928
X31600Y4928
X29600Y2928
X28600Y2928
X27600Y2928
X26600Y2928
X25600Y2928
X24600Y2928
X23600Y2928
X22600Y2928
X20600Y2928
X19600Y2928
X18600Y2928
X17600Y2928
X16600Y2928
X15600Y2928
X14600Y2928
X13600Y2928
X11600Y2928
X10600Y2928
X9600Y2928
X8600Y2928
X7600Y2928
X6600Y2928
X6100Y21928
X7100Y21928
X8100Y21928
X9100Y21928
X10100Y21928
X11600Y21928
X12600Y21928
X13600Y21928
X14600Y21928
X15600Y21928
X16600Y21928
X17600Y21928
X18600Y21928
X20600Y21928
X21600Y21928
X22600Y21928
X23600Y21928
X24600Y21928
X25600Y21928
X26600Y21928
X27600Y21928
X5100Y21928
X4100Y21928
X3100Y21928
X2100Y21928
X1100Y21928
T05
X1350Y15678
X1350Y14678
X1350Y13678
X1350Y12678
M30
