%
M48
M72
T02C0.0280
T04C0.0380
T06C0.0520
T09C0.1250
%
T02
X12103Y6251
X15973Y9941
X16723Y9941
X19473Y12941
X14973Y13691
X14223Y14191
X13473Y14691
X12723Y15191
X24128Y5821
X28473Y5941
X30223Y5941
X36103Y6251
X37223Y13691
X36723Y14441
X35723Y15191
X36223Y16191
X41223Y14441
X29818Y17231
X28818Y16701
X26813Y18666
X25818Y18186
X24818Y17711
X27838Y19196
T04
X27822Y15954
X26822Y15954
X25822Y15954
X24822Y15954
X23822Y15954
X22822Y15954
X21822Y15954
X20822Y15954
X19822Y15954
X18822Y15954
X17822Y15954
X17822Y9954
X18822Y9954
X19822Y9954
X20822Y9954
X21822Y9954
X22822Y9954
X23822Y9954
X24822Y9954
X25822Y9954
X26822Y9954
X27822Y9954
X28822Y9954
X29822Y9954
X30822Y9954
X30822Y10954
X30822Y11954
X30822Y12954
X30822Y13954
X30822Y14954
X30822Y15954
X29822Y15954
X28822Y15954
T06
X40351Y12735
X41351Y12735
X42351Y12735
T09
X45062Y36240
X3064Y36240
M30
