G75*
%MOIN*%
%OFA0B0*%
%FSLAX25Y25*%
%IPPOS*%
%LPD*%
%AMOC8*
5,1,8,0,0,1.08239X$1,22.5*
%
%ADD10R,0.06000X0.25500*%
%ADD11C,0.05800*%
%ADD12C,0.07400*%
%ADD13C,0.03962*%
%ADD14C,0.01600*%
D10*
X0121170Y0038000D03*
X0131170Y0038000D03*
X0141170Y0038000D03*
X0151170Y0038000D03*
X0161170Y0038000D03*
X0171170Y0038000D03*
X0181170Y0038000D03*
X0191170Y0038000D03*
X0201170Y0038000D03*
X0211170Y0038000D03*
X0221170Y0038000D03*
X0231170Y0038000D03*
X0241170Y0038000D03*
X0251170Y0038000D03*
X0261170Y0038000D03*
X0271170Y0038000D03*
X0281170Y0038000D03*
X0291170Y0038000D03*
X0301170Y0038000D03*
X0311170Y0038000D03*
X0321170Y0038000D03*
X0331170Y0038000D03*
X0341170Y0038000D03*
X0351170Y0038000D03*
X0361170Y0038000D03*
D11*
X0308220Y0099544D03*
X0298220Y0099544D03*
X0288220Y0099544D03*
X0278220Y0099544D03*
X0268220Y0099544D03*
X0258220Y0099544D03*
X0248220Y0099544D03*
X0238220Y0099544D03*
X0228220Y0099544D03*
X0218220Y0099544D03*
X0208220Y0099544D03*
X0198220Y0099544D03*
X0188220Y0099544D03*
X0178220Y0099544D03*
X0178220Y0159544D03*
X0188220Y0159544D03*
X0198220Y0159544D03*
X0208220Y0159544D03*
X0218220Y0159544D03*
X0228220Y0159544D03*
X0238220Y0159544D03*
X0248220Y0159544D03*
X0258220Y0159544D03*
X0268220Y0159544D03*
X0278220Y0159544D03*
X0288220Y0159544D03*
X0298220Y0159544D03*
X0308220Y0159544D03*
X0308220Y0149544D03*
X0308220Y0139544D03*
X0308220Y0129544D03*
X0308220Y0119544D03*
X0308220Y0109544D03*
D12*
X0403511Y0123653D02*
X0403511Y0131053D01*
X0413511Y0131053D02*
X0413511Y0123653D01*
X0423511Y0123653D02*
X0423511Y0131053D01*
D13*
X0412233Y0144410D03*
X0372233Y0136910D03*
X0367233Y0144410D03*
X0357233Y0151910D03*
X0362233Y0161910D03*
X0298183Y0172310D03*
X0288183Y0167010D03*
X0268133Y0186660D03*
X0258183Y0181860D03*
X0248183Y0177110D03*
X0278383Y0191960D03*
X0194733Y0129410D03*
X0167233Y0099410D03*
X0159733Y0099410D03*
X0121033Y0062510D03*
X0149733Y0136910D03*
X0142233Y0141910D03*
X0134733Y0146910D03*
X0127233Y0151910D03*
X0241283Y0058210D03*
X0284733Y0059410D03*
X0302233Y0059410D03*
X0361033Y0062510D03*
D14*
X0121033Y0062510D02*
X0121033Y0038137D01*
X0121170Y0038000D01*
X0131170Y0038000D02*
X0131170Y0077973D01*
X0084733Y0124410D01*
X0084733Y0179410D01*
X0037233Y0226910D01*
X0037233Y0289410D01*
X0057233Y0309410D01*
X0402233Y0309410D01*
X0422233Y0289410D01*
X0422233Y0201910D01*
X0437233Y0186910D01*
X0437233Y0156910D01*
X0424733Y0144410D01*
X0412233Y0144410D01*
X0387233Y0174410D02*
X0374733Y0186910D01*
X0268383Y0186910D01*
X0268133Y0186660D01*
X0258183Y0181860D02*
X0372183Y0181860D01*
X0372233Y0181910D01*
X0382233Y0171910D01*
X0382233Y0079410D01*
X0379733Y0076910D01*
X0352233Y0076910D01*
X0331170Y0055847D01*
X0331170Y0038000D01*
X0321170Y0038000D02*
X0321170Y0053347D01*
X0349733Y0081910D01*
X0374733Y0081910D01*
X0377233Y0084410D01*
X0377233Y0169410D01*
X0369733Y0176910D01*
X0248383Y0176910D01*
X0248183Y0177110D01*
X0238220Y0159544D02*
X0238220Y0157898D01*
X0227233Y0146910D01*
X0134733Y0146910D01*
X0134733Y0139410D01*
X0167233Y0106910D01*
X0167233Y0099410D01*
X0159733Y0099410D02*
X0159733Y0104410D01*
X0127233Y0136910D01*
X0127233Y0151910D01*
X0222233Y0151910D01*
X0228220Y0157898D01*
X0228220Y0159544D01*
X0249733Y0141910D02*
X0142233Y0141910D01*
X0149733Y0136910D02*
X0254733Y0136910D01*
X0277367Y0159544D01*
X0278220Y0159544D01*
X0268220Y0159544D02*
X0267367Y0159544D01*
X0249733Y0141910D01*
X0288220Y0159544D02*
X0288220Y0166973D01*
X0288183Y0167010D01*
X0288283Y0166910D01*
X0364733Y0166910D01*
X0367233Y0164410D01*
X0367233Y0144410D01*
X0367233Y0094410D01*
X0364733Y0091910D01*
X0344733Y0091910D01*
X0301170Y0048347D01*
X0301170Y0038000D01*
X0311170Y0038000D02*
X0311170Y0050847D01*
X0347233Y0086910D01*
X0369733Y0086910D01*
X0372233Y0089410D01*
X0372233Y0136910D01*
X0372233Y0166910D01*
X0367233Y0171910D01*
X0298583Y0171910D01*
X0298183Y0172310D01*
X0278433Y0191910D02*
X0278383Y0191960D01*
X0278433Y0191910D02*
X0377233Y0191910D01*
X0392233Y0176910D01*
X0392233Y0071910D01*
X0387233Y0066910D01*
X0357233Y0066910D01*
X0351170Y0060847D01*
X0351170Y0038000D01*
X0341170Y0038000D02*
X0341170Y0058347D01*
X0354733Y0071910D01*
X0384733Y0071910D01*
X0387233Y0074410D01*
X0387233Y0174410D01*
X0362233Y0161910D02*
X0362233Y0099410D01*
X0359733Y0096910D01*
X0342233Y0096910D01*
X0307233Y0064410D01*
X0302233Y0059410D01*
X0297233Y0054410D01*
X0259733Y0054410D01*
X0257233Y0056910D01*
X0257233Y0066910D01*
X0254733Y0069410D01*
X0239733Y0069410D01*
X0238220Y0070923D01*
X0238220Y0099544D01*
X0248220Y0099544D02*
X0248220Y0098423D01*
X0284733Y0061910D01*
X0284733Y0059410D01*
X0294733Y0059410D01*
X0339733Y0101910D01*
X0357233Y0101910D01*
X0357233Y0151910D01*
X0308220Y0119544D02*
X0298355Y0129410D01*
X0194733Y0129410D01*
X0241283Y0058210D02*
X0231170Y0051647D01*
X0231170Y0038000D01*
X0361170Y0038000D02*
X0361170Y0062373D01*
X0361033Y0062510D01*
M02*
