G75*
%MOIN*%
%OFA0B0*%
%FSLAX25Y25*%
%IPPOS*%
%LPD*%
%AMOC8*
5,1,8,0,0,1.08239X$1,22.5*
%
%ADD10R,0.07087X0.06299*%
%ADD11R,0.05512X0.04724*%
D10*
X0064737Y0271417D03*
X0064737Y0282440D03*
X0082207Y0282369D03*
X0082207Y0271345D03*
X0099751Y0271417D03*
X0099751Y0282440D03*
X0117270Y0282403D03*
X0117270Y0271379D03*
X0202463Y0271230D03*
X0202463Y0282253D03*
X0219923Y0282294D03*
X0219923Y0271271D03*
X0237413Y0271252D03*
X0237413Y0282275D03*
X0254923Y0282246D03*
X0254923Y0271223D03*
X0339691Y0271370D03*
X0339691Y0282394D03*
X0357274Y0282443D03*
X0357274Y0271419D03*
X0374762Y0271341D03*
X0374762Y0282365D03*
X0392304Y0282401D03*
X0392304Y0271378D03*
X0403717Y0169124D03*
X0403717Y0158100D03*
X0421360Y0157901D03*
X0421360Y0168924D03*
X0417727Y0102863D03*
X0417727Y0091839D03*
D11*
X0064731Y0241010D03*
X0064731Y0252821D03*
X0082234Y0252826D03*
X0082234Y0241015D03*
X0099759Y0240980D03*
X0099759Y0252791D03*
X0117234Y0252828D03*
X0117234Y0241017D03*
X0202435Y0240893D03*
X0202435Y0252704D03*
X0219881Y0252676D03*
X0219881Y0240865D03*
X0237465Y0240843D03*
X0237465Y0252654D03*
X0254918Y0252678D03*
X0254918Y0240867D03*
X0339719Y0241028D03*
X0339719Y0252839D03*
X0357216Y0252852D03*
X0357216Y0241041D03*
X0374691Y0241028D03*
X0374691Y0252839D03*
X0392231Y0252774D03*
X0392231Y0240963D03*
X0401911Y0101898D03*
X0401911Y0090087D03*
M02*
